<?xml version="1.0" encoding="utf-8"?>
<!-- Generator: Adobe Illustrator 23.0.4, SVG Export Plug-In . SVG Version: 6.00 Build 0)  -->
<svg version="1.1" id="Capa_1" xmlns="http://www.w3.org/2000/svg" xmlns:xlink="http://www.w3.org/1999/xlink" x="0px" y="0px"
	 viewBox="0 0 485.2 485.2" style="enable-background:new 0 0 485.2 485.2;" xml:space="preserve">
<style type="text/css">
	.st0{fill:#231F20;}
</style>
<g>
	<path class="st0" d="M456.1,35.4l-32.3,32.3L234.8,256.6l-86.3-86.3l-43.2,43.2L234.8,343l199.4-199.4L479.8,98v-1.1
		C479.8,73.2,470.8,51.7,456.1,35.4z"/>
	<path class="st0" d="M434.2,387.9c0,25.4-20.7,46-46,46h-291c-25.4,0-46-20.7-46-46V223.8v-20.7V96.9c0-25.4,20.7-46,46-46h279
		l41-41c-9.1-3-18.8-4.6-28.9-4.6h-291C46.8,5.3,5.7,46.4,5.7,96.9v291c0,50.5,41.1,91.6,91.6,91.6h291c50.5,0,91.6-41.1,91.6-91.6
		V162.5l-45.6,45.6L434.2,387.9L434.2,387.9z"/>
</g>
</svg>
