<?xml version="1.0" encoding="utf-8"?>
<!-- Generator: Adobe Illustrator 23.0.6, SVG Export Plug-In . SVG Version: 6.00 Build 0)  -->
<svg version="1.1" id="Capa_1" xmlns="http://www.w3.org/2000/svg" xmlns:xlink="http://www.w3.org/1999/xlink" x="0px" y="0px"
	 viewBox="0 0 485.2 485.2" style="enable-background:new 0 0 485.2 485.2;" xml:space="preserve">
<g>
	<path d="M452.4,307c2.1-11.1,2.8-22.3,2.8-32.7c0-69.6-35.5-132.2-94.7-169.1c-11.1-7-26.4-3.5-33.4,7.7s-3.5,26.4,7.7,33.4
		c44.5,27.8,71,75.2,71,127.4c0,5.6-0.7,11.8-1.4,17.4c-34.1,2.1-61.3,31.3-61.3,66.1c0,36.2,29.9,66.1,66.1,66.1
		s66.1-29.9,66.1-66.1C476.1,338.3,467.1,319.5,452.4,307z"/>
	<path d="M286.1,419.7L286.1,419.7c-18.1,7.7-37.6,11.1-57.1,11.1c-34.8,0-68.2-12.5-95.4-34.1c5.6-9.7,8.4-20.9,8.4-32
		c0-36.2-29.9-66.1-66.1-66.1S9.8,328.6,9.8,364.8s29.9,66.1,66.1,66.1c7,0,13.2-0.7,19.5-2.8c36.2,32.7,84.2,51.5,133.6,51.5
		c26.4,0,51.5-4.9,75.9-15.3c12.5-4.9,18.1-19.5,13.2-32C312.5,420.4,298.6,414.2,286.1,419.7z"/>
	<path d="M53.6,258.3H55c12.5,0,23.7-9.7,24.4-23c4.2-58.5,40.4-107.2,93.3-128.1c11.8,18.8,32.7,30.6,55.7,30.6
		c36.2,0,66.1-29.9,66.1-66.1S264.5,5.6,228.3,5.6c-32,0-58.5,23-64.7,52.9C89.8,85,36.9,153.2,31.3,232.5
		c-0.7,6.3,1.4,12.5,5.6,17.4C41.1,254.8,47.3,257.6,53.6,258.3z"/>
</g>
</svg>
