<?xml version="1.0" encoding="utf-8"?>
<!-- Generator: Adobe Illustrator 16.0.0, SVG Export Plug-In . SVG Version: 6.00 Build 0)  -->
<!DOCTYPE svg PUBLIC "-//W3C//DTD SVG 1.1//EN" "http://www.w3.org/Graphics/SVG/1.1/DTD/svg11.dtd">
<svg version="1.1" id="Capa_1" xmlns="http://www.w3.org/2000/svg" xmlns:xlink="http://www.w3.org/1999/xlink" x="0px" y="0px"
	 width="485.213px" height="485.213px" viewBox="0 0 485.213 485.213" enable-background="new 0 0 485.213 485.213"
	 xml:space="preserve">
<path d="M455.591,202.785h-21.296c-7.893,0-16.552-6.368-19.014-14.28l-12.417-30.105c-3.736-6.956-2.152-17.549,3.379-23.14
	l15.146-15.107c4.176-4.156,6.458-9.687,6.458-15.596c0-5.91-2.282-11.43-6.458-15.596l-25.152-25.083
	c-4.125-4.135-9.855-6.218-15.586-6.218c-5.7,0-11.42,2.083-15.546,6.208l-15.177,15.117c-3.339,3.358-8.75,5.421-14.261,5.421
	c-3.179,0-6.397-0.688-9.258-2.202l-30.025-12.327c-7.554-2.352-13.941-11.012-13.941-18.924V29.637
	c0-12.158-9.915-22.063-22.073-22.063h-35.496c-12.158,0-22.063,9.905-22.063,22.063v21.316c0,7.913-6.358,16.572-14.25,19.044
	l-30.125,12.396c-2.441,1.306-5.451,1.923-8.55,1.923c-5.421,0-11.131-1.913-14.55-5.332l-15.157-15.117
	c-4.186-4.166-9.905-6.229-15.625-6.229c-5.7,0-11.4,2.083-15.546,6.229L63.914,88.961c-4.166,4.146-6.438,9.686-6.438,15.596
	c0,5.909,2.272,11.46,6.438,15.596l15.087,15.107c5.581,5.61,7.155,16.204,3.229,23.518l-12.327,30.105
	c-2.381,7.554-11.051,13.941-18.914,13.941l-21.336-0.04c-12.177,0-22.063,9.916-22.063,22.073v35.497
	c0,12.158,9.886,22.053,22.063,22.053h21.336c7.863,0,16.533,6.398,18.974,14.33l12.466,30.096
	c3.727,6.945,2.172,17.529-3.428,23.119L63.894,365.06c-4.146,4.137-6.417,9.688-6.417,15.576c0,5.92,2.272,11.45,6.417,15.615
	l25.113,25.123c4.146,4.156,9.856,6.238,15.586,6.238c5.71,0,11.42-2.062,15.585-6.238l15.157-15.107
	c3.349-3.357,8.74-5.371,14.221-5.371c3.169,0,6.378,0.668,9.218,2.192l30.125,12.387c7.554,2.322,13.912,10.981,13.912,18.854
	v21.256c0,12.188,9.905,22.054,22.063,22.054h35.496c12.158,0,22.073-9.866,22.073-22.054v-21.256
	c0-7.873,6.388-16.532,14.28-18.994l30.195-12.446c2.401-1.296,5.391-1.913,8.48-1.913c5.451,0,11.23,1.913,14.619,5.311
	l15.087,15.068c4.126,4.155,9.846,6.238,15.546,6.238c5.73,0,11.461-2.083,15.586-6.219l25.152-25.123
	c4.176-4.165,6.458-9.695,6.458-15.615c0-5.889-2.282-11.439-6.458-15.576l-15.146-15.107c-5.531-5.57-7.115-16.174-3.209-23.518
	l12.396-30.065c2.312-7.563,10.972-13.962,18.864-13.962h21.296c12.158,0,22.033-9.895,22.033-22.013v-35.537
	C477.624,212.7,467.749,202.785,455.591,202.785z M327.157,242.586c0,46.558-37.888,84.446-84.485,84.446
	c-46.578,0-84.466-37.888-84.466-84.446c0-46.548,37.888-84.437,84.466-84.437C289.27,158.15,327.157,196.038,327.157,242.586z"/>
</svg>
