<?xml version="1.0" encoding="utf-8"?>
<!-- Generator: Adobe Illustrator 16.0.0, SVG Export Plug-In . SVG Version: 6.00 Build 0)  -->
<!DOCTYPE svg PUBLIC "-//W3C//DTD SVG 1.1//EN" "http://www.w3.org/Graphics/SVG/1.1/DTD/svg11.dtd">
<svg version="1.1" id="Capa_1" xmlns="http://www.w3.org/2000/svg" xmlns:xlink="http://www.w3.org/1999/xlink" x="0px" y="0px"
	 width="485.213px" height="485.213px" viewBox="0 0 485.213 485.213" enable-background="new 0 0 485.213 485.213"
	 xml:space="preserve">
<g>
	<path d="M447.511,77.292H213.195c-16.099,0-29.279,13.201-29.279,29.292v6.224h88.093c28.425,0,51.534,23.128,51.534,51.548
		v147.237h94.676l58.575,58.574V106.584C476.794,90.493,463.619,77.292,447.511,77.292z"/>
	<path d="M272.009,135.055h-88.093H37.706c-16.121,0-29.288,13.167-29.288,29.301v263.565l58.562-58.576h205.029
		c16.1,0,29.279-13.148,29.279-29.256v-28.496V164.356C301.288,148.222,288.109,135.055,272.009,135.055z"/>
</g>
</svg>
