<?xml version="1.0" encoding="utf-8"?>
<!-- Generator: Adobe Illustrator 16.0.0, SVG Export Plug-In . SVG Version: 6.00 Build 0)  -->
<!DOCTYPE svg PUBLIC "-//W3C//DTD SVG 1.1//EN" "http://www.w3.org/Graphics/SVG/1.1/DTD/svg11.dtd">
<svg version="1.1" id="Capa_1" xmlns="http://www.w3.org/2000/svg" xmlns:xlink="http://www.w3.org/1999/xlink" x="0px" y="0px"
	 width="485.213px" height="485.213px" viewBox="0 0 485.213 485.213" enable-background="new 0 0 485.213 485.213"
	 xml:space="preserve">
<g>
	<path d="M404.263,8.502H112.807c-20.131,0-36.452,16.319-36.452,36.454v25.161h9.643c23.636,0,42.866,19.23,42.866,42.868
		c0,23.635-19.23,42.866-42.866,42.866h-9.643v42.865h9.643c23.636,0,42.866,19.229,42.866,42.868
		c0,23.636-19.23,42.865-42.866,42.865h-9.643v42.865h9.643c23.636,0,42.866,19.23,42.866,42.867s-19.23,42.865-42.866,42.865
		h-9.643v25.166c0,20.133,16.321,36.453,36.452,36.453h291.456c20.132,0,36.453-16.32,36.453-36.453V44.956
		C440.716,24.822,424.395,8.502,404.263,8.502z M258.535,137.606c34.21,0,49.251,23.914,45.607,55.699
		c-2.96,25.799-14.241,57.207-45.607,57.207c-31.367,0-42.648-31.408-45.608-57.207
		C209.285,161.521,224.324,137.606,258.535,137.606z M333.331,341.181c-8.122,2.934-16.505,5.105-24.948,6.885
		c-16.31,3.447-33.112,6.096-49.848,6.209c-16.736-0.113-33.539-2.762-49.848-6.209c-8.444-1.779-16.827-3.951-24.949-6.885
		c-6.486-2.342-10.318-3.428-10.051-11.18c0.343-10.012,1.517-20.068,3.262-29.926c2.118-11.938,4.81-29.438,15.238-37.217
		c6.026-4.5,13.831-5.973,20.731-8.689c3.358-1.318,6.366-2.627,9.192-4.121c9.527,10.453,21.953,15.918,36.419,15.918
		c0.002,0,0.002,0,0.002,0c0.004,0,0.004,0,0.007,0c14.466,0,26.893-5.465,36.42-15.918c2.826,1.494,5.836,2.803,9.192,4.121
		c6.899,2.717,14.704,4.189,20.731,8.689c10.429,7.779,13.121,25.279,15.238,37.217c1.744,9.857,2.916,19.914,3.262,29.926
		C343.65,337.753,339.819,338.839,333.331,341.181z"/>
	<path d="M53.85,258.729h22.505h9.643c9.471,0,17.147-7.676,17.147-17.146c0-9.472-7.676-17.148-17.147-17.148h-9.643H53.85
		c-9.471,0-17.147,7.677-17.147,17.148C36.703,251.054,44.38,258.729,53.85,258.729z"/>
	<path d="M85.998,387.327c9.471,0,17.147-7.678,17.147-17.146c0-9.471-7.676-17.146-17.147-17.146h-9.643H53.85
		c-9.471,0-17.147,7.676-17.147,17.146c0,9.469,7.676,17.146,17.147,17.146h22.505H85.998z"/>
	<path d="M53.85,130.13h22.505h9.643c9.471,0,17.147-7.676,17.147-17.146c0-9.472-7.676-17.148-17.147-17.148h-9.643H53.85
		c-9.471,0-17.147,7.676-17.147,17.148C36.703,122.455,44.38,130.13,53.85,130.13z"/>
</g>
</svg>
