<?xml version="1.0" encoding="utf-8"?>
<!-- Generator: Adobe Illustrator 16.0.0, SVG Export Plug-In . SVG Version: 6.00 Build 0)  -->
<!DOCTYPE svg PUBLIC "-//W3C//DTD SVG 1.1//EN" "http://www.w3.org/Graphics/SVG/1.1/DTD/svg11.dtd">
<svg version="1.1" id="Capa_1" xmlns="http://www.w3.org/2000/svg" xmlns:xlink="http://www.w3.org/1999/xlink" x="0px" y="0px"
	 width="485.213px" height="485.213px" viewBox="0 0 485.213 485.213" enable-background="new 0 0 485.213 485.213"
	 xml:space="preserve">
<g id="at_the_end">
	<path fill="#231F20" d="M341.443,243.49c-20.807,4.67-47.737,7.966-73.861,9.394c-17.269,29.234-32.732,52.53-32.732,52.53
		L170.7,357.146c0,0-7.501,10.08,0,17.589c3.312,3.316,7.041,4.189,10.047,4.189c3.354,0,5.817-1.085,5.817-1.085l73.806-50.354
		l33.108-48.974l27.592,45.524l-27.592,67.599c0,0-3.308,10.713,5.058,15.175c2.298,1.226,4.349,1.701,6.146,1.701
		c6.291,0,9.489-5.841,9.489-5.841l35.868-82.082l-24.832-53.803C325.208,266.786,332.418,256.516,341.443,243.49z"/>
	<path fill="#231F20" d="M404.224,76.768c-19.571-1.26-38.244,16.175-38.995,36.41c-0.752,20.166,15.089,37.234,35.35,38.097
		c20.538,0.873,38.171-15.841,38.526-36.52C439.428,96.12,422.754,77.962,404.224,76.768z"/>
	<path fill="#231F20" d="M83.788,201.948c0,0,27.247-3.793,52.078-3.793s80.013,10.691,107.604,9.657
		c16.782-0.631,34.828-4.192,46.4-6.888c3.479-6.965,6.661-13.738,9.385-20.119c-14,6.567-39.272,16.205-64.407,14.59
		c-37.593-2.414-52.423-6.897-85.877-6.553c-33.454,0.345-65.184,6.73-65.184,6.73s-3.217,0.625-3.217,2.695
		C80.572,201.948,83.788,201.948,83.788,201.948z"/>
	<path fill="#231F20" d="M343.142,123.314l-3.281,7.336l8.001,4.379l0.29,0.156l0.272,0.194c5.779,4.136,14.379,15.584,5.571,29.315
		c-4.693,7.318-10.891,8.854-15.262,8.854c-6.735,0-12.253-3.638-13.199-4.298l-40.364-27l-60.668,3.826c0,0-10.808,0-10.808,11.958
		c0,10.115,11.498,10.115,11.498,10.115l84.152,2.069c-0.776,2.201-1.657,4.502-2.587,6.844c-2.743,6.925-6.107,14.396-9.887,22.151
		c-4.222,8.671-8.937,17.667-13.845,26.61c0.883,0.005,1.812,0.027,2.68,0.027c6.021,0,11.271-0.143,16.057-0.439
		c26.468-1.633,64.816-20.709,65.198-20.903l0.287-0.143l0.296-0.108c0.122-0.046,0.409-0.143,0.804-0.255
		c3.85-5.842,6.754-10.425,7.903-12.629c5.519-10.576,13.106-25.983,3.45-35.64S343.142,123.314,343.142,123.314z"/>
	<path fill="#231F20" d="M286.684,136.625l3.78,2.528l3.774,2.527l34.419,23.021c0,0,4.66,3.331,10.076,3.331
		c3.587,0,7.502-1.461,10.617-6.316c8.304-12.944-4.14-21.847-4.14-21.847l-7.61-4.165l-2.429-1.329l-2.428-1.328l-97.206-53.188
		c0,0-2.848-1.542-6.136-1.542c-2.39,0-5.008,0.811-6.943,3.616c-4.6,6.669,2.043,13.1,2.043,13.1L286.684,136.625z"/>
	<path fill="#231F20" d="M372.803,208.862c-0.389,0-0.761,0.035-1.116,0.078c-1.274,0.156-2.252,0.501-2.252,0.501
		s-0.742,0.369-2.054,1c-1.172,0.56-2.808,1.326-4.833,2.248c-12.519,5.68-39.654,16.948-60.447,18.23
		c-5.173,0.318-10.644,0.45-16.396,0.45c-1.854,0-3.803-0.037-5.714-0.062c-1.061-0.016-2.089-0.016-3.164-0.038
		c-1.026-0.019-2.08-0.045-3.121-0.069c-22.865-0.553-49.544-2.35-79.554-2.35c-43.455,0-91.05,6.553-179.34,43.111
		c0,0-5.405,2.759-2.991,6.209c0.458,0.65,1.363,0.872,2.369,0.872c2.01,0,4.416-0.872,4.416-0.872s74.994-28.299,105.879-31.387
		c12.4-1.238,22.774-1.688,32.388-1.688c25.147,0,45.128,3.069,82.805,3.069c7.989,0,16.277-0.222,24.636-0.637
		c1.099-0.054,2.197-0.116,3.298-0.178c1.109-0.062,2.219-0.123,3.329-0.194c27.638-1.702,55.382-5.46,75.186-10.432
		c1.409-0.353,2.774-0.711,4.099-1.078c1.443-0.398,2.845-0.803,4.185-1.214c7.67-2.36,13.549-4.934,16.888-7.649
		c0,0,5.645-2.873,6.335-11.727C378.03,209.942,375.236,208.862,372.803,208.862z"/>
</g>
</svg>
