<?xml version="1.0" encoding="utf-8"?>
<!-- Generator: Adobe Illustrator 16.0.0, SVG Export Plug-In . SVG Version: 6.00 Build 0)  -->
<!DOCTYPE svg PUBLIC "-//W3C//DTD SVG 1.1//EN" "http://www.w3.org/Graphics/SVG/1.1/DTD/svg11.dtd">
<svg version="1.1" id="Capa_1" xmlns="http://www.w3.org/2000/svg" xmlns:xlink="http://www.w3.org/1999/xlink" x="0px" y="0px"
	 width="485.213px" height="485.213px" viewBox="0 0 485.213 485.213" enable-background="new 0 0 485.213 485.213"
	 xml:space="preserve">
<g id="at_the_start">
	<path fill-rule="evenodd" clip-rule="evenodd" fill="#231F20" d="M338.148,162.788c-5.836-17.214-19.709-24.085-36.911-17.923
		c-12.542,4.495-24.891,9.536-37.277,14.461c-28.15,11.195-56.361,22.243-84.361,33.807c-14.648,6.049-25.535,14.547-26.243,33.187
		c-0.621,16.391-5.579,32.573-7.78,48.96c-1.348,10.039-6.445,14.025-16.111,15.129c-17.795,2.037-35.465,5.146-53.233,7.447
		c-11.384,1.474-16.594,8.591-15.443,18.877c1.172,10.466,7.688,15.28,19.429,13.996c26.493-2.9,53.088-5.215,79.704-6.483
		c13.698-0.655,19.867-6.162,21.149-19.661c1.276-13.44,4.116-26.731,6.739-42.987c13.92,8.981,24.836,16.024,37.214,24.011
		c-3.397,4.341-4.99,6.525-6.736,8.578c-12.804,15.061-25.708,30.038-38.433,45.161c-6.292,7.48-8.935,16.075-0.515,23.121
		c7.499,6.279,16.179,5.244,23.673-1.552c1.36-1.236,2.818-2.374,4.12-3.668c19.879-19.771,39.874-39.427,59.552-59.395
		c10.396-10.549,9.797-18.373-1.725-27.591c-8.38-6.703-17.14-12.936-27.922-21.021c8.517-2.7,13.928-4.751,19.503-6.125
		c30.914-7.625,30.929-7.569,30.384-38.04c-0.234-13.114,8.938-23.625,21.216-24.317c12.418-0.7,20.385,7.315,21.542,21.733
		c0.522,6.513,0.968,13.033,1.501,20.284c15.169-7.809,19.908-18.115,15.84-32.433C344.386,181.066,341.245,171.927,338.148,162.788
		z"/>
	<path fill-rule="evenodd" clip-rule="evenodd" fill="#231F20" d="M325.785,271.173c-0.066,0-0.134,0-0.198,0
		c0-22.49-0.225-44.98,0.092-67.465c0.161-11.408-5.04-17.678-16.176-17.503c-11.408,0.183-17.939,6.429-17.233,18.427
		c0.485,8.24,1.59,16.439,2.248,24.667c2.931,36.587,5.744,73.182,8.74,109.765c0.622,7.6,2.131,15.452,12.049,15.353
		c10.438-0.104,10.527-8.06,10.503-15.778C325.743,316.148,325.785,293.66,325.785,271.173z"/>
	<path fill-rule="evenodd" clip-rule="evenodd" fill="#231F20" d="M388.791,118.64c-19.571-1.261-38.244,16.175-38.995,36.41
		c-0.75,20.165,15.089,37.234,35.353,38.096c20.537,0.873,38.167-15.84,38.525-36.52
		C423.994,137.991,407.322,119.833,388.791,118.64z"/>
</g>
</svg>
