<?xml version="1.0" encoding="utf-8"?>
<!-- Generator: Adobe Illustrator 16.0.0, SVG Export Plug-In . SVG Version: 6.00 Build 0)  -->
<!DOCTYPE svg PUBLIC "-//W3C//DTD SVG 1.1//EN" "http://www.w3.org/Graphics/SVG/1.1/DTD/svg11.dtd">
<svg version="1.1" id="Capa_1" xmlns="http://www.w3.org/2000/svg" xmlns:xlink="http://www.w3.org/1999/xlink" x="0px" y="0px"
	 width="485.213px" height="485.213px" viewBox="0 0 485.213 485.213" enable-background="new 0 0 485.213 485.213"
	 xml:space="preserve">
<path id="politics" fill="#231F20" d="M389.902,345.912c-24.853-20.098-51.523-37.844-79.648-53.015h0.207
	c-0.741-0.406-1.547-0.687-2.382-0.842c-4.273-0.764-8.358,2.077-9.126,6.35l-9.617,52.392l-0.051-0.212
	c-3.492,19.182-18.928,34.824-31.86,44.896l-6.258-42.585l9.37-15.088c1.868-3.021,1.652-6.882-0.528-9.687l-14.422-18.029
	l43.826-31.93c2.7-1.976,4.3-5.108,4.312-8.457v-17.791c4.404-7.442,7.466-15.601,9.048-24.099
	c4.812-1.334,9.161-9.125,13.305-23.688c3.72-13.157,3.752-21.652,0-25.965c-1.542-1.805-3.773-2.873-6.144-2.945
	c0.89-2.721,1.588-5.503,2.107-8.313c4.419-26.601,2.143-45.859-6.811-57.229c-3.401-4.637-8.396-7.848-14.033-9.018
	c-4.623-7.213-11.026-13.112-18.594-17.123c-11.761-6.798-25.371-9.68-38.876-8.243c-5.294,0.263-10.528,1.266-15.547,2.984
	c-6.034,2.089-11.757,5.017-16.979,8.696c-6.428,4.04-12.324,8.872-17.541,14.389c-9.221,9.149-15.717,20.674-18.77,33.296
	c-2.453,10.593-2.453,21.61,0,32.21c0.519,2.802,1.223,5.565,2.101,8.277c-2.37,0.072-4.601,1.14-6.138,2.951
	c-3.506,4.312-3.506,12.841,0,25.958c4.354,14.807,8.705,22.425,13.509,23.759c1.558,8.647,4.625,16.963,9.054,24.559v17.54
	c0.012,3.342,1.612,6.487,4.315,8.456l43.818,31.722L217.27,328.3c-2.176,2.8-2.39,6.663-0.525,9.681l9.367,15.087l-6.356,42.445
	c-12.936-10.074-28.396-25.722-31.899-44.922l-9.496-52.186c-0.775-4.272-4.864-7.104-9.137-6.332
	c-0.817,0.15-1.605,0.427-2.333,0.824c-28.134,15.171-54.797,32.917-79.651,53.015c-7.714,6.38-12.157,15.882-12.104,25.896v36.522
	c0,5.773,4.649,10.468,10.426,10.527h85.264h20.868h33.016h13.861h13.818h33.059h20.87h85.159c5.812,0,10.527-4.712,10.527-10.527
	v-36.522C402.055,361.794,397.615,352.292,389.902,345.912z M351.699,376.988c0,0.346-0.087,0.608-0.251,0.79
	c-0.177,0.186-0.441,0.374-0.812,0.564c-2.941,1.588-5.455,2.376-7.561,2.376c-0.83,0-1.675-0.152-2.525-0.448
	c-0.853-0.298-1.596-0.63-2.225-0.984c-0.631-0.358-1.415-0.681-2.363-0.981c-0.95-0.302-1.926-0.451-2.92-0.451
	c-2.351,0-5.145,0.806-8.373,2.408l1.779,13.053c0.148,1.054-0.598,2.025-1.654,2.169c-0.086,0.013-0.169,0.018-0.257,0.018
	c-0.952,0-1.784-0.697-1.909-1.668l-4.429-32.47c-0.94-0.578-1.569-1.604-1.569-2.783c0-1.815,1.466-3.28,3.282-3.28
	c1.806,0,3.274,1.465,3.274,3.28c0,0.984-0.451,1.861-1.137,2.465l0.303,2.243c0.311-0.188,0.783-0.444,1.452-0.772
	c3.225-1.642,6.102-2.465,8.623-2.465c1.457,0,2.825,0.203,4.094,0.597c1.271,0.397,2.77,0.997,4.488,1.802
	c0.519,0.26,1.122,0.388,1.802,0.388c0.741,0,1.541-0.143,2.409-0.429s1.614-0.609,2.252-0.964c0.634-0.355,1.236-0.672,1.804-0.961
	c0.566-0.283,0.934-0.433,1.116-0.433c0.352,0,0.659,0.131,0.918,0.391c0.258,0.26,0.389,0.566,0.389,0.922V376.988z"/>
</svg>
