<?xml version="1.0" encoding="utf-8"?>
<!-- Generator: Adobe Illustrator 16.0.0, SVG Export Plug-In . SVG Version: 6.00 Build 0)  -->
<!DOCTYPE svg PUBLIC "-//W3C//DTD SVG 1.1//EN" "http://www.w3.org/Graphics/SVG/1.1/DTD/svg11.dtd">
<svg version="1.1" id="Capa_1" xmlns="http://www.w3.org/2000/svg" xmlns:xlink="http://www.w3.org/1999/xlink" x="0px" y="0px"
	 width="485.213px" height="485.213px" viewBox="0 0 485.213 485.213" enable-background="new 0 0 485.213 485.213"
	 xml:space="preserve">
<path id="stakeholders" fill="#231F20" d="M310.251,292.897c28.133,15.171,54.796,32.917,79.646,53.015
	c7.714,6.38,12.157,15.882,12.104,25.896v36.522c0,5.815-4.712,10.527-10.524,10.527H285.444c-4.028-0.086-7.224-3.423-7.138-7.457
	c0.01-0.391,0.048-0.787,0.123-1.172l20.523-111.823c0.768-4.272,4.853-7.113,9.122-6.35c0.837,0.155,1.643,0.436,2.386,0.842
	H310.251z M174.361,227.815c1.561,8.647,4.628,16.963,9.054,24.559v17.54c0.012,3.349,1.615,6.487,4.315,8.456l43.824,31.722
	l-14.28,18.208c-2.183,2.8-2.395,6.663-0.528,9.684l9.37,15.084l-8.597,57.405c-0.582,4.005,2.198,7.726,6.206,8.31
	c0.328,0.048,0.658,0.072,0.987,0.075h27.684c4.05-0.019,7.32-3.315,7.304-7.361c0-0.343-0.027-0.687-0.075-1.023l-8.457-57.577
	l9.368-15.088c1.865-3.021,1.654-6.882-0.526-9.687l-14.422-18.029l43.823-31.93c2.701-1.976,4.303-5.115,4.315-8.457v-17.791
	c4.404-7.442,7.469-15.601,9.051-24.105c4.81-1.328,9.158-9.119,13.3-23.681c3.718-13.157,3.754-21.652,0-25.965
	c-1.54-1.805-3.769-2.873-6.142-2.945c0.884-2.721,1.588-5.503,2.107-8.313c4.419-26.601,2.14-45.859-6.807-57.229
	c-3.405-4.637-8.403-7.848-14.034-9.018c-4.622-7.213-11.026-13.112-18.597-17.123c-11.758-6.798-25.371-9.68-38.875-8.243
	c-5.296,0.263-10.527,1.266-15.544,2.979c-6.042,2.095-11.757,5.022-16.982,8.702c-6.429,4.04-12.324,8.872-17.543,14.389
	c-9.218,9.149-15.715,20.674-18.77,33.296c-2.453,10.593-2.453,21.61,0,32.21l0,0c0.521,2.802,1.222,5.565,2.104,8.277
	c-2.373,0.069-4.6,1.14-6.14,2.951c-3.509,4.312-3.509,12.841,0,25.958C165.202,218.862,169.555,226.481,174.361,227.815z
	 M85.558,418.857h106.136c4.032-0.086,7.226-3.423,7.14-7.457c-0.008-0.391-0.048-0.787-0.121-1.172l-20.35-111.823
	c-0.775-4.272-4.865-7.104-9.137-6.332c-0.817,0.15-1.605,0.427-2.336,0.824c-28.134,15.171-54.798,32.917-79.648,53.015
	c-7.712,6.38-12.157,15.882-12.103,25.896v36.522C75.138,414.104,79.788,418.798,85.558,418.857z"/>
</svg>
