<?xml version="1.0" encoding="utf-8"?>
<!-- Generator: Adobe Illustrator 16.0.0, SVG Export Plug-In . SVG Version: 6.00 Build 0)  -->
<!DOCTYPE svg PUBLIC "-//W3C//DTD SVG 1.1//EN" "http://www.w3.org/Graphics/SVG/1.1/DTD/svg11.dtd">
<svg version="1.1" id="Capa_1" xmlns="http://www.w3.org/2000/svg" xmlns:xlink="http://www.w3.org/1999/xlink" x="0px" y="0px"
	 width="485.213px" height="485.213px" viewBox="0 0 485.213 485.213" enable-background="new 0 0 485.213 485.213"
	 xml:space="preserve">
<g id="midway_through">
	<path fill-rule="evenodd" clip-rule="evenodd" fill="#231F20" d="M379.055,85.186c-19.572-1.261-38.245,16.174-38.997,36.409
		c-0.749,20.165,15.089,37.234,35.351,38.096c20.538,0.874,38.17-15.841,38.525-36.52
		C414.257,104.537,397.583,86.379,379.055,85.186z"/>
	<path fill-rule="evenodd" clip-rule="evenodd" fill="#231F20" d="M319.225,226.92l6.521-29.084
		c6.235-3.758,11.338-6.903,14.286-8.854c14.601-9.657,11.612-17.245,8.853-23.453c-2.758-6.208-8.966-15.864-18.623-31.04
		c-9.49-14.911-18.984-19.801-31.088-12.44l-67.549-33.774l-73.805,37.248c0,0-10.09,4.599-5.262,14.946
		c4.829,10.347,12.16,5.058,12.16,5.058l62.769-26.88l47.039,21.822c-29.663,23.11-74.63,59.321-74.63,59.321l-2.069,14.713
		l-57.251,20.004L92.29,195.88c0,0-8.967-8.622-17.934,1.035c-8.967,9.657,0,17.589,0,17.589s46.905,41.387,51.043,46.904
		s13.795,12.417,22.762,9.656c8.967-2.758,64.149-18.612,64.149-18.612l49.663,40.687l-20.003,86.221c0,0-3.619,16.796,8.967,20.003
		c17.59,4.483,19.312-13.105,19.312-13.105s22.763-88.98,25.522-99.327c2.759-10.347,3.449-16.555-4.139-22.072
		c-7.587-5.519-33.108-27.591-33.108-27.591s15.395-8.889,33.025-19.201l-3.366,17.131l60.011,48.284c0,0,9.517,8.277,15.864,0
		c5.752-7.498,0-13.796,0-13.796L319.225,226.92z"/>
</g>
</svg>
