<?xml version="1.0" encoding="utf-8"?>
<!-- Generator: Adobe Illustrator 16.0.0, SVG Export Plug-In . SVG Version: 6.00 Build 0)  -->
<!DOCTYPE svg PUBLIC "-//W3C//DTD SVG 1.1//EN" "http://www.w3.org/Graphics/SVG/1.1/DTD/svg11.dtd">
<svg version="1.1" id="Layer_1" xmlns="http://www.w3.org/2000/svg" xmlns:xlink="http://www.w3.org/1999/xlink" x="0px" y="0px"
	 width="283.465px" height="283.464px" viewBox="0 0 283.465 283.464" enable-background="new 0 0 283.465 283.464"
	 xml:space="preserve">
<g id="internal_communication">
	<path d="M142.289,50.68c-4.505,0-8.17,3.666-8.17,8.169c0,4.504,3.665,8.169,8.17,8.169s8.167-3.665,8.167-8.169
		C150.456,54.346,146.794,50.68,142.289,50.68z"/>
	<path d="M67.361,182.384c0.156,0.002,0.313,0.003,0.47,0.003c9.225,0,17.923-3.568,24.496-10.049
		c6.579-6.487,10.27-15.148,10.392-24.388c0.124-9.322-3.391-18.133-9.896-24.811c-6.504-6.679-15.22-10.425-24.541-10.547
		c-0.148-0.001-0.303-0.003-0.457-0.003h-0.189c-9.218,0.001-17.898,3.577-24.443,10.068c-6.549,6.498-10.194,15.155-10.267,24.38
		C32.672,166.276,48.119,182.129,67.361,182.384z M54.424,134.648c3.43-3.58,8.05-5.612,13.006-5.718
		c0.137-0.004,0.269-0.004,0.4-0.005l0.172-0.001c4.871,0,9.455,1.882,12.917,5.298c3.464,3.418,5.407,7.982,5.469,12.85
		c0.107,4.972-1.723,9.674-5.151,13.255c-3.43,3.581-8.049,5.612-13.006,5.719c-0.136,0.003-0.273,0.004-0.41,0.004
		c-4.872,0-9.478-1.877-12.967-5.289c-3.494-3.415-5.475-7.986-5.581-12.873C49.164,142.931,50.995,138.229,54.424,134.648z"/>
	<path d="M89.086,50.68c-4.505,0-8.169,3.666-8.169,8.169c0,4.504,3.664,8.169,8.169,8.169c4.503,0,8.168-3.665,8.168-8.169
		C97.254,54.346,93.589,50.68,89.086,50.68z"/>
	<path d="M195.467,67.018c4.503,0,8.167-3.665,8.167-8.169c0-4.503-3.664-8.169-8.167-8.169c-4.505,0-8.17,3.666-8.17,8.169
		C187.297,63.354,190.962,67.018,195.467,67.018z"/>
	<path d="M115.688,50.68c-4.506,0-8.17,3.666-8.17,8.169c0,4.504,3.664,8.169,8.17,8.169c4.503,0,8.168-3.665,8.168-8.169
		C123.855,54.346,120.19,50.68,115.688,50.68z"/>
	<path d="M177.032,58.849c0-4.503-3.663-8.169-8.169-8.169c-4.505,0-8.168,3.666-8.168,8.169c0,4.504,3.663,8.169,8.168,8.169
		S177.032,63.354,177.032,58.849z"/>
	<path d="M215.828,112.587l-0.192,0.001h-0.002h-0.026c-18.99,0.253-34.241,15.918-33.987,34.92
		c0.122,9.121,3.768,17.671,10.263,24.075c6.49,6.401,15.08,9.923,24.188,9.923c0.157,0,0.311-0.001,0.469-0.003
		c9.116-0.121,17.664-3.761,24.068-10.251c6.405-6.489,9.932-15.083,9.932-24.201c-0.071-9.238-3.719-17.896-10.269-24.393
		C233.725,116.165,225.045,112.589,215.828,112.587z M234.203,147.051c-0.068,4.858-2.012,9.412-5.469,12.825
		c-3.462,3.417-8.047,5.298-12.908,5.298h-0.004h-0.004l-0.137-0.001h-0.017h-0.017c-4.828-0.115-9.326-2.099-12.666-5.588
		c-3.346-3.499-5.131-8.09-5.025-12.931c0.105-4.769,2.044-9.231,5.455-12.564c3.406-3.327,7.901-5.161,12.658-5.161
		c0.135,0,0.27,0.002,0.407,0.005c4.764,0.104,9.222,2.038,12.555,5.445c3.326,3.397,5.162,7.89,5.169,12.645v0.014h0.002V147.051z"
		/>
	<path d="M97.707,187.371l-0.178,0.001h-8.484c-2.154,0.004-4.188,0.838-5.723,2.352l-14.284,14.042l-1.214,1.194l-1.213-1.194
		l-14.286-14.043c-1.533-1.514-3.562-2.347-5.716-2.352h-8.503h-0.165c-8.333,0-16.193,3.228-22.127,9.088
		c-5.937,5.863-9.261,13.687-9.362,22.03v37.489c0,4.503,3.664,8.168,8.168,8.168c4.505,0,8.169-3.664,8.169-8.168v-37.43v-0.02
		l0.001-0.021c0.094-3.968,1.709-7.682,4.546-10.458c2.846-2.785,6.604-4.317,10.581-4.317l0.163,0.001h0.025h4.429h0.709
		l0.505,0.496l15.78,15.512c2.228,2.176,5.171,3.376,8.283,3.376s6.051-1.198,8.278-3.371l0.003-0.005l0.006-0.005l15.779-15.633
		l0.506-0.501h0.712h4.448l0.018,0.864h0.014l-0.004-0.861l0.146-0.001c8.229,0,15.017,6.688,15.142,14.905v0.013v0.013v37.443
		c0,4.505,3.664,8.17,8.17,8.17c4.504,0,8.168-3.665,8.168-8.17v-37.468c-0.102-8.364-3.425-16.188-9.361-22.051
		C113.902,190.6,106.045,187.372,97.707,187.371z"/>
	<path d="M267.653,196.459c-5.896-5.823-13.694-9.047-21.972-9.087h-1.888h-6.934c-2.152,0.004-4.188,0.838-5.722,2.352
		l-14.284,14.043l-1.214,1.193l-1.212-1.193l-14.288-14.044c-1.533-1.513-3.562-2.347-5.716-2.351h-8.501l-0.167-0.001
		c-8.333,0-16.191,3.228-22.126,9.088c-5.937,5.864-9.26,13.688-9.362,22.03v37.489c0,4.505,3.665,8.17,8.168,8.17
		c4.505,0,8.17-3.665,8.17-8.17V218.55v-0.021v-0.02c0.095-3.97,1.709-7.683,4.547-10.459c2.846-2.784,6.603-4.316,10.58-4.316
		h0.161h0.027h4.456h0.708l0.505,0.497l15.779,15.512c2.231,2.168,5.176,3.365,8.283,3.365c3.106,0,6.045-1.192,8.272-3.358
		l0.008-0.008l0.006-0.006l15.778-15.632l0.507-0.501h0.711h4.423l0.018,0.864h0.015l-0.006-0.861l0.148-0.001
		c8.228,0,15.017,6.688,15.143,14.905v0.013v0.013v37.443c0,4.505,3.664,8.17,8.168,8.17c4.505,0,8.168-3.665,8.168-8.17v-37.468
		C276.911,210.147,273.588,202.324,267.653,196.459z"/>
	<path d="M176.699,98.538h0.717l53.418,0.001c13.18-0.001,23.903-10.724,23.903-23.904V43.063
		c-0.045-6.359-2.548-12.318-7.05-16.796c-4.502-4.476-10.477-6.944-16.825-6.95H52.605C39.456,19.33,28.743,30.041,28.729,43.19
		v31.445c0.015,13.15,10.726,23.862,23.875,23.876h67.075h1.73v1.73v10.572v0.013v0.013c-0.095,6.058,2.834,11.714,7.836,15.132
		l0.01,0.006l0.007,0.004c2.905,1.919,6.271,2.93,9.74,2.93c4.696,0,9.116-1.82,12.448-5.125l24.742-24.742L176.699,98.538z
		 M167.552,84.561l-26.877,26.876l-2.954,2.954v-4.177V90.242c0-4.504-3.664-8.17-8.167-8.17H52.605
		c-4.156,0-7.541-3.381-7.541-7.541v-31.44v-0.016v-0.014c0.072-4.086,3.454-7.41,7.541-7.41h178.256
		c4.157,0,7.541,3.384,7.541,7.541v31.444c0,4.156-3.383,7.54-7.541,7.54h-57.53v-0.001
		C171.146,82.176,169.093,83.022,167.552,84.561z"/>
</g>
</svg>
