<?xml version="1.0" encoding="utf-8"?>
<!-- Generator: Adobe Illustrator 16.0.0, SVG Export Plug-In . SVG Version: 6.00 Build 0)  -->
<!DOCTYPE svg PUBLIC "-//W3C//DTD SVG 1.1//EN" "http://www.w3.org/Graphics/SVG/1.1/DTD/svg11.dtd">
<svg version="1.1" id="Capa_1" xmlns="http://www.w3.org/2000/svg" xmlns:xlink="http://www.w3.org/1999/xlink" x="0px" y="0px"
	 width="485.213px" height="485.213px" viewBox="0 0 485.213 485.213" enable-background="new 0 0 485.213 485.213"
	 xml:space="preserve">
<path id="health" fill="#231F20" d="M314.822,74.052c-25.364,0-50.528,8.997-72.668,32.455
	c-22.139-23.458-47.303-32.455-72.667-32.455c-49.765,0-96.889,39.927-96.889,96.887c0,21.449,5.025,41.493,13.189,60.558h51.484
	l45.734-106.728L233.7,276.841l14.085-21.122h21.959c4.202-7.206,11.919-12.112,20.868-12.112c13.368,0,24.222,10.854,24.222,24.225
	c0,13.369-10.854,24.223-24.222,24.223c-8.938,0-16.666-4.895-20.868-12.113h-8.987l-34.359,51.547l-46.192-138.601l-26.96,62.832
	H98.103c30.837,52.356,83.133,97.361,119.83,142.505c11.166,13.717,17.792,14.943,24.221,14.943c6.434,0,13.056-1.227,24.222-14.943
	c54.996-67.644,145.336-134.934,145.336-227.285C411.711,113.979,364.587,74.052,314.822,74.052z"/>
</svg>
