<?xml version="1.0" encoding="utf-8"?>
<!-- Generator: Adobe Illustrator 16.0.0, SVG Export Plug-In . SVG Version: 6.00 Build 0)  -->
<!DOCTYPE svg PUBLIC "-//W3C//DTD SVG 1.1//EN" "http://www.w3.org/Graphics/SVG/1.1/DTD/svg11.dtd">
<svg version="1.1" id="Capa_1" xmlns="http://www.w3.org/2000/svg" xmlns:xlink="http://www.w3.org/1999/xlink" x="0px" y="0px"
	 width="485.213px" height="485.213px" viewBox="0 0 485.213 485.213" enable-background="new 0 0 485.213 485.213"
	 xml:space="preserve">
<g id="beta">
	<path fill="#231F20" d="M445.054,243.376c0-14.812-11.516-26.931-26.083-27.906c-8.724-17.737-25.81-33.804-50.195-46.76
		c-0.173-0.09-0.354-0.179-0.527-0.274c0.008-0.197,0.018-0.394,0.026-0.591c1.462-41.499-11.402-72.247-36.229-86.58
		c-24.828-14.335-57.892-10.104-93.097,11.913c-0.167,0.104-0.334,0.214-0.501,0.322c-0.167-0.107-0.334-0.215-0.501-0.322
		c-23.407-14.637-45.86-21.402-65.583-20.089c-5.019-7.472-13.551-12.387-23.231-12.387c-15.452,0-27.976,12.524-27.976,27.976
		c0,4.423,1.033,8.606,2.859,12.324c-11,16.424-16.371,39.252-15.395,66.843c0.006,0.197,0.018,0.394,0.027,0.591
		c-0.176,0.095-0.354,0.185-0.528,0.274c-36.668,19.483-56.864,46.002-56.864,74.667c0,28.672,20.196,55.188,56.864,74.668
		c0.176,0.096,0.355,0.182,0.528,0.274c-0.006,0.197-0.018,0.399-0.024,0.597c-0.979,27.684,4.432,50.574,15.511,67.01
		c-1.343,3.277-2.089,6.858-2.089,10.617c0,15.446,12.524,27.973,27.976,27.973c9.002,0,17.003-4.254,22.121-10.858
		c1.677,0.116,3.369,0.182,5.082,0.182c18.516,0,39.221-6.812,60.721-20.259c0.17-0.104,0.334-0.211,0.501-0.325
		c0.17,0.114,0.334,0.221,0.501,0.325c21.502,13.446,42.208,20.259,60.723,20.259c11.799,0,22.712-2.77,32.374-8.344
		c24.827-14.335,37.694-45.082,36.229-86.579c-0.006-0.197-0.019-0.399-0.024-0.597c0.173-0.093,0.353-0.179,0.525-0.274
		c24.386-12.954,41.472-29.023,50.195-46.76C433.538,270.311,445.054,258.192,445.054,243.376z M299.581,90.041
		c8.848,0,16.896,2.006,23.902,6.049c17.823,10.295,27.575,33.027,27.775,64.402c-16.916-7.001-35.772-12.318-55.841-15.792
		c-13.04-15.639-27.072-29.309-41.588-40.458C270.378,94.83,285.932,90.041,299.581,90.041z M134.543,267.562
		c4.285,9.251,9.057,18.462,14.302,27.546c5.246,9.09,10.835,17.826,16.708,26.159c-13.989-3.436-27.104-7.882-39.031-13.268
		C127.82,294.978,130.527,281.394,134.543,267.562z M126.522,178.76c11.927-5.389,25.042-9.835,39.031-13.273
		c-5.873,8.334-11.462,17.075-16.708,26.158c-5.246,9.086-10.017,18.298-14.302,27.549
		C130.527,205.363,127.82,191.776,126.522,178.76z M163.673,286.55c-8.211-14.225-15.201-28.73-20.867-43.174
		c5.669-14.439,12.656-28.944,20.867-43.167c8.216-14.228,17.284-27.531,26.956-39.658c15.336-2.315,31.394-3.515,47.818-3.515
		c16.427,0,32.482,1.199,47.822,3.515c9.673,12.127,18.74,25.431,26.952,39.658c8.212,14.223,15.201,28.728,20.868,43.167
		c-5.667,14.443-12.656,28.949-20.868,43.174c-8.212,14.223-17.279,27.531-26.952,39.653c-15.34,2.315-31.397,3.518-47.822,3.518
		c-16.424,0-32.481-1.202-47.818-3.518C180.954,314.081,171.889,300.772,163.673,286.55z M328.052,295.108
		c5.246-9.09,10.015-18.295,14.3-27.546c4.017,13.831,6.723,27.415,8.021,40.438c-11.925,5.383-25.042,9.832-39.028,13.268
		C317.214,312.935,322.803,304.198,328.052,295.108z M342.352,219.194c-4.285-9.25-9.054-18.462-14.3-27.549
		c-5.249-9.083-10.838-17.824-16.707-26.158c13.986,3.434,27.104,7.884,39.028,13.267
		C349.074,191.776,346.368,205.363,342.352,219.194z M238.447,114.137c10.629,7.633,21.038,16.77,31.008,27.161
		c-10.152-0.913-20.516-1.385-31.008-1.385c-10.492,0-20.853,0.472-31.007,1.385C217.409,130.907,227.82,121.77,238.447,114.137z
		 M223.064,104.242c-14.518,11.149-28.547,24.819-41.584,40.458c-20.068,3.474-38.927,8.792-55.844,15.792
		c0.122-19.158,3.813-35.081,10.718-46.934c3.832,1.976,8.173,3.091,12.778,3.091c14.992,0,27.227-11.793,27.94-26.606
		c0.083,0,0.161-0.003,0.242-0.003C190.966,90.041,206.517,94.83,223.064,104.242z M68.378,243.376
		c0-20.581,14.812-40.392,41.881-56.255c2.396,18.155,7.221,37.143,14.246,56.255c-7.024,19.117-11.85,38.107-14.246,56.257
		C83.19,283.769,68.378,263.96,68.378,243.376z M177.991,396.704c0-0.055,0.006-0.108,0.006-0.162
		c0-15.451-12.527-27.978-27.976-27.978c-5.157,0-9.982,1.402-14.13,3.837c-6.61-11.763-10.134-27.411-10.253-46.134
		c16.914,7.001,35.773,12.315,55.841,15.786c13.04,15.646,27.072,29.315,41.593,40.47
		C206.791,391.78,191.482,396.549,177.991,396.704z M238.447,372.617c-10.626-7.634-21.038-16.771-31.007-27.162
		c10.155,0.92,20.516,1.385,31.007,1.385c10.492,0,20.855-0.465,31.008-1.385C259.485,355.846,249.075,364.983,238.447,372.617z
		 M323.484,390.664c-17.826,10.295-42.386,7.367-69.659-8.141c14.52-11.154,28.554-24.824,41.594-40.47
		c20.068-3.471,38.927-8.785,55.844-15.786C351.059,357.643,341.307,380.375,323.484,390.664z M366.639,299.633
		c-2.396-18.149-7.225-37.14-14.249-56.257c7.024-19.115,11.853-38.1,14.249-56.255c16.525,9.687,28.474,20.847,35.28,32.753
		c-7.707,4.978-12.813,13.643-12.813,23.502c0,9.863,5.106,18.525,12.813,23.51C395.113,278.792,383.164,289.946,366.639,299.633z"
		/>
	<circle fill="#231F20" cx="237.88" cy="243.465" r="27.974"/>
</g>
</svg>
