<?xml version="1.0" encoding="utf-8"?>
<!-- Generator: Adobe Illustrator 16.0.0, SVG Export Plug-In . SVG Version: 6.00 Build 0)  -->
<!DOCTYPE svg PUBLIC "-//W3C//DTD SVG 1.1//EN" "http://www.w3.org/Graphics/SVG/1.1/DTD/svg11.dtd">
<svg version="1.1" id="Capa_1" xmlns="http://www.w3.org/2000/svg" xmlns:xlink="http://www.w3.org/1999/xlink" x="0px" y="0px"
	 width="485.213px" height="485.213px" viewBox="0 0 485.213 485.213" enable-background="new 0 0 485.213 485.213"
	 xml:space="preserve">
<g id="science_community">
	<path fill="#231F20" d="M389.902,345.912c-2.952-2.385-5.933-4.738-8.936-7.061c-10.622-8.212-21.568-16.006-32.801-23.364
		c-12.3-8.063-24.949-15.599-37.914-22.59h0.211c-0.743-0.406-1.549-0.687-2.384-0.842c-3.11-0.555-6.127,0.8-7.824,3.231
		c-0.006,0.003-1.286,1.579-3.706,3.996c-0.232,0.227-0.473,0.459-0.72,0.707l12.831,41.768l-33.17,9.319l9.307,21.249
		l-16.532,46.531h17.184h52.764h53.266c5.812,0,10.527-4.712,10.527-10.527v-10.89v-25.633
		C402.058,361.794,397.618,352.292,389.902,345.912z"/>
	<path fill="#231F20" d="M203.161,351.454l-32.807-6.711l12.638-44.045c-0.597-0.514-1.159-1.007-1.692-1.48
		c-1.913-1.701-3.399-3.134-4.376-4.112c-0.4-0.537-0.87-1.018-1.388-1.433l0,0l0,0c-1.714-1.367-3.982-2.017-6.313-1.6
		c-0.816,0.15-1.605,0.427-2.334,0.824c-13.132,7.078-25.937,14.721-38.396,22.899c-9.982,6.557-19.733,13.461-29.245,20.697
		c-4.046,3.08-8.046,6.217-12.008,9.418c-7.714,6.38-12.156,15.882-12.104,25.896v31.834v4.688c0,5.773,4.651,10.468,10.425,10.527
		h78.111h28.022h19.866l-15.854-47.271L203.161,351.454z"/>
	<path fill="#231F20" d="M217.764,321.037c-0.022-0.007-0.041-0.018-0.063-0.018l10.806,25.952l3.826,59.439l0.638,0.639v3.179
		l0.962,8.629h9.089l5.993-70.764l10.656-26.155C235.99,328.725,217.764,321.037,217.764,321.037z"/>
	<path fill="#231F20" d="M174.359,227.815c1.567,8.647,4.628,16.963,9.057,24.559v17.54c0.01,3.349,1.617,6.487,4.313,8.456
		l17.488,12.653l16.661,12.061c12.354,8.947,22.005,7.008,27.676,4.112l22.924-16.698l16.931-12.336
		c2.703-1.976,4.303-5.108,4.321-8.457v-17.791c4.401-7.442,7.466-15.601,9.047-24.099c4.812-1.334,9.162-9.125,13.304-23.688
		c3.712-13.157,3.754-21.652,0-25.965c-1.546-1.805-3.771-2.873-6.141-2.945c0.88-2.721,1.581-5.503,2.103-8.313
		c4.42-26.601,2.141-45.859-6.809-57.229c-3.405-4.637-8.403-7.848-14.031-9.018c-4.625-7.213-11.032-13.106-18.599-17.123
		c-11.759-6.798-25.374-9.68-38.875-8.243c-5.293,0.263-10.528,1.266-15.543,2.984c-6.04,2.089-11.756,5.017-16.985,8.698
		c-6.428,4.038-12.324,8.869-17.543,14.386c-9.215,9.149-15.715,20.674-18.77,33.296c-2.453,10.593-2.453,21.61,0,32.21
		c0.522,2.802,1.223,5.565,2.104,8.277c-2.37,0.072-4.597,1.14-6.138,2.951c-3.506,4.312-3.506,12.841,0,25.958
		C165.207,218.862,169.553,226.481,174.359,227.815z M170.773,169.984h9.831h118.039h9.854c0.31,1.259,0.467,2.56,0.467,3.819
		c-0.711,34.496-10.743,40.147-32.373,40.147c-20.639-0.14-29.972-6.075-34.073-31.947l-1.129-0.848c-0.992-0.71-2.399-0.71-3.392,0
		l-1.13,0.848c-4.098,26.009-13.434,31.947-34.071,31.947c-21.482,0-31.524-5.651-32.371-40.147
		C170.349,172.484,170.465,171.207,170.773,169.984z"/>
</g>
</svg>
