<?xml version="1.0" encoding="utf-8"?>
<!-- Generator: Adobe Illustrator 16.0.0, SVG Export Plug-In . SVG Version: 6.00 Build 0)  -->
<!DOCTYPE svg PUBLIC "-//W3C//DTD SVG 1.1//EN" "http://www.w3.org/Graphics/SVG/1.1/DTD/svg11.dtd">
<svg version="1.1" id="Layer_1" xmlns="http://www.w3.org/2000/svg" xmlns:xlink="http://www.w3.org/1999/xlink" x="0px" y="0px"
	 width="283.465px" height="283.464px" viewBox="0 0 283.465 283.464" enable-background="new 0 0 283.465 283.464"
	 xml:space="preserve">
<path id="public_relations" d="M71.52,255.922c1.991,2.782,5.201,4.434,8.622,4.437h123.181c5.863,0.004,10.619-4.746,10.623-10.61
	c0.001-1.167-0.19-2.328-0.568-3.432l-42.127-124.67c18.863-16.365,20.89-44.923,4.525-63.787
	c-16.363-18.864-44.922-20.891-63.785-4.526c-18.864,16.364-20.891,44.921-4.526,63.786c1.399,1.613,2.911,3.126,4.526,4.527
	l-42.128,124.67C68.825,249.598,69.443,253.178,71.52,255.922z M131.2,131.477c6.908,1.707,14.128,1.707,21.036,0l7.218,21.514
	h-35.443L131.2,131.477z M116.85,174.11h49.766l7.331,21.739h-64.428L116.85,174.11z M102.413,217.108h78.639l7.413,22.019H94.941
	L102.413,217.108z M207.873,105.245c6.681-10.961,6.681-24.735,0-35.696c-2.525-3.966-2.003-9.145,1.264-12.526l0.589-0.589
	c3.987-4.063,10.513-4.125,14.577-0.139c0.528,0.519,0.998,1.092,1.404,1.711c11.291,18.038,11.291,40.94,0,58.979
	c-3.119,4.762-9.508,6.095-14.271,2.977c-0.619-0.405-1.191-0.876-1.711-1.404l-0.589-0.646
	C205.798,114.508,205.271,109.241,207.873,105.245z M255.616,27c27.823,35.512,27.823,85.424,0,120.936
	c-3.567,4.495-10.104,5.246-14.598,1.677c-0.317-0.25-0.62-0.521-0.905-0.807l-0.336-0.337c-3.714-3.695-4.076-9.583-0.842-13.705
	c21.862-27.751,21.862-66.868,0-94.619c-3.142-4.085-2.795-9.859,0.814-13.537l0.279-0.281c3.986-4.129,10.566-4.245,14.694-0.258
	c0.328,0.318,0.638,0.658,0.921,1.016L255.616,27z M75.592,69.774c-6.675,10.962-6.675,24.733,0,35.696
	c2.555,3.978,2.031,9.192-1.264,12.582l-0.591,0.59c-3.986,4.064-10.514,4.126-14.575,0.139c-0.528-0.519-1-1.092-1.404-1.711
	c-11.291-18.038-11.291-40.941,0-58.979c3.119-4.763,9.507-6.095,14.27-2.977c0.619,0.405,1.191,0.876,1.71,1.404l0.591,0.59
	C77.667,60.511,78.193,65.777,75.592,69.774z M27.847,148.019c-27.822-35.51-27.822-85.423,0-120.935
	c3.543-4.515,10.075-5.305,14.59-1.762c0.352,0.275,0.685,0.573,0.998,0.892l0.336,0.337c3.716,3.695,4.077,9.583,0.844,13.705
	c-21.864,27.751-21.864,66.868,0,94.619c3.195,4.074,2.883,9.885-0.73,13.593l-0.309,0.31c-3.942,4.171-10.52,4.357-14.69,0.415
	c-0.386-0.363-0.741-0.755-1.066-1.173H27.847z"/>
</svg>
