<?xml version="1.0" encoding="utf-8"?>
<!-- Generator: Adobe Illustrator 16.0.0, SVG Export Plug-In . SVG Version: 6.00 Build 0)  -->
<!DOCTYPE svg PUBLIC "-//W3C//DTD SVG 1.1//EN" "http://www.w3.org/Graphics/SVG/1.1/DTD/svg11.dtd">
<svg version="1.1" id="Layer_1" xmlns="http://www.w3.org/2000/svg" xmlns:xlink="http://www.w3.org/1999/xlink" x="0px" y="0px"
	 width="283.465px" height="283.464px" viewBox="0 0 283.465 283.464" enable-background="new 0 0 283.465 283.464"
	 xml:space="preserve">
<g id="content_creation">
	<path d="M267.318,57.769c-6.411-6.411-14.935-9.941-24.002-9.941H40.15c-18.718,0-33.944,15.226-33.944,33.941v119.926
		c0,18.715,15.227,33.942,33.944,33.942h203.166c18.718,0,33.943-15.227,33.943-33.942V81.77
		C277.26,72.703,273.729,64.18,267.318,57.769z M243.315,216.602H40.149c-8.222,0-14.91-6.687-14.91-14.907v-0.386l74.028-51.054
		l57.326,46.347c2.946,2.383,7.465,2.581,10.609,0.465l42.156-29.036l48.074,38.443
		C255.438,212.356,249.865,216.602,243.315,216.602z M258.226,184.212l-42.816-34.236c-2.947-2.383-7.466-2.582-10.608-0.465
		l-42.251,29.035l-57.326-46.438c-1.827-1.49-4.263-2.209-6.607-1.955c-1.469,0.177-2.888,0.728-4.096,1.582l-69.281,47.793V81.77
		c0-8.219,6.689-14.907,14.91-14.907l203.167,0c8.221,0,14.909,6.687,14.909,14.906V184.212z"/>
	<path d="M168.712,101.545l-35.135-18.244c-1.674-0.87-3.681-0.802-5.295,0.176c-1.611,0.98-2.597,2.731-2.597,4.618v36.606
		c0,1.89,0.987,3.641,2.604,4.62c0.858,0.52,1.827,0.782,2.799,0.782c0.856,0,1.717-0.203,2.501-0.614l35.135-18.362
		c1.785-0.933,2.902-2.779,2.9-4.795C171.621,104.319,170.498,102.473,168.712,101.545z"/>
</g>
</svg>
