<?xml version="1.0" encoding="utf-8"?>
<!-- Generator: Adobe Illustrator 16.0.0, SVG Export Plug-In . SVG Version: 6.00 Build 0)  -->
<!DOCTYPE svg PUBLIC "-//W3C//DTD SVG 1.1//EN" "http://www.w3.org/Graphics/SVG/1.1/DTD/svg11.dtd">
<svg version="1.1" id="Layer_1" xmlns="http://www.w3.org/2000/svg" xmlns:xlink="http://www.w3.org/1999/xlink" x="0px" y="0px"
	 width="283.465px" height="283.464px" viewBox="0 0 283.465 283.464" enable-background="new 0 0 283.465 283.464"
	 xml:space="preserve">
<g id="film_production">
	<path d="M232.96,50.505c-24.368-24.368-56.766-37.788-91.228-37.788c-34.461,0-66.86,13.419-91.229,37.788
		c-24.367,24.368-37.787,56.767-37.787,91.228s13.42,66.86,37.787,91.228c24.368,24.368,56.768,37.788,91.229,37.788
		c34.462,0,66.859-13.42,91.228-37.788c24.369-24.368,37.789-56.767,37.789-91.228S257.329,74.873,232.96,50.505z M141.732,253.204
		c-61.465,0-111.471-50.006-111.471-111.472S80.268,30.261,141.732,30.261c61.466,0,111.472,50.006,111.472,111.472
		S203.198,253.204,141.732,253.204z"/>
	<path d="M141.732,114.7c19.296,0,34.994-15.699,34.994-34.995c0-19.296-15.698-34.994-34.994-34.994s-34.995,15.698-34.995,34.994
		C106.737,99.001,122.437,114.7,141.732,114.7z M141.732,62.254c9.623,0,17.45,7.829,17.45,17.451s-7.827,17.45-17.45,17.45
		s-17.45-7.828-17.45-17.45S132.109,62.254,141.732,62.254z"/>
	<path d="M203.76,106.738c-19.295,0-34.994,15.698-34.994,34.994s15.699,34.994,34.994,34.994c19.296,0,34.994-15.698,34.994-34.994
		S223.056,106.738,203.76,106.738z M203.76,159.183c-9.621,0-17.449-7.828-17.449-17.45s7.828-17.451,17.449-17.451
		c9.623,0,17.452,7.829,17.452,17.451S213.383,159.183,203.76,159.183z"/>
	<path d="M79.704,106.738c-19.295,0-34.993,15.698-34.993,34.994s15.698,34.994,34.993,34.994c19.296,0,34.995-15.698,34.995-34.994
		S99,106.738,79.704,106.738z M79.704,159.183c-9.622,0-17.451-7.828-17.451-17.45s7.829-17.451,17.451-17.451
		s17.45,7.829,17.45,17.451S89.326,159.183,79.704,159.183z"/>
	<path d="M141.732,168.765c-19.296,0-34.995,15.699-34.995,34.995c0,19.295,15.699,34.994,34.995,34.994
		s34.994-15.699,34.994-34.994C176.727,184.463,161.028,168.765,141.732,168.765z M141.732,221.21c-9.623,0-17.45-7.828-17.45-17.45
		c0-9.623,7.827-17.45,17.45-17.45s17.45,7.828,17.45,17.45C159.183,213.382,151.355,221.21,141.732,221.21z"/>
</g>
</svg>
