<?xml version="1.0" encoding="utf-8"?>
<!-- Generator: Adobe Illustrator 16.0.0, SVG Export Plug-In . SVG Version: 6.00 Build 0)  -->
<!DOCTYPE svg PUBLIC "-//W3C//DTD SVG 1.1//EN" "http://www.w3.org/Graphics/SVG/1.1/DTD/svg11.dtd">
<svg version="1.1" id="Capa_1" xmlns="http://www.w3.org/2000/svg" xmlns:xlink="http://www.w3.org/1999/xlink" x="0px" y="0px"
	 width="485.213px" height="485.213px" viewBox="0 0 485.213 485.213" enable-background="new 0 0 485.213 485.213"
	 xml:space="preserve">
<g id="general_public">
	<path fill="#231F20" d="M389.905,345.912c-24.855-20.098-51.522-37.844-79.651-53.015h0.209c-0.743-0.406-1.545-0.687-2.382-0.842
		c-3.114-0.555-6.129,0.8-7.826,3.231c-0.009,0.009-13.866,17.013-36.446,25.152l-1.217,0.598c-25.091,8.322-44.827,0-44.827,0
		c-20.527-6.753-36.232-21.318-40.84-25.932c-0.4-0.537-0.868-1.021-1.388-1.433c-1.716-1.367-3.98-2.017-6.312-1.6
		c-0.817,0.15-1.605,0.427-2.336,0.824c-28.131,15.171-54.797,32.917-79.648,53.015c-7.714,6.38-12.157,15.882-12.103,25.896v36.522
		c0,5.773,4.649,10.468,10.426,10.527h78.111h28.02h33.016h27.687h33.052h52.764h53.264c5.816,0,10.527-4.712,10.527-10.527v-36.522
		C402.055,361.794,397.618,352.292,389.905,345.912z"/>
	<path fill="#231F20" d="M174.364,227.815c1.564,8.647,4.625,16.963,9.054,24.559v17.54c0.009,3.349,1.612,6.487,4.312,8.456
		l34.152,24.714c12.351,8.947,22.005,7.008,27.674,4.112l39.856-29.034c2.704-1.976,4.304-5.108,4.312-8.457v-17.791
		c4.407-7.442,7.469-15.601,9.057-24.099c4.804-1.334,9.154-9.125,13.296-23.688c3.716-13.157,3.752-21.652,0-25.965
		c-1.539-1.805-3.771-2.873-6.137-2.945c0.883-2.721,1.583-5.503,2.103-8.313c4.42-26.601,2.141-45.859-6.809-57.229
		c-3.402-4.637-8.397-7.848-14.034-9.018c-4.622-7.213-11.026-13.106-18.596-17.123c-11.763-6.798-25.377-9.68-38.875-8.243
		c-5.295,0.263-10.528,1.266-15.542,2.984c-6.04,2.089-11.763,5.017-16.985,8.698c-6.428,4.041-12.324,8.869-17.546,14.386
		c-9.215,9.149-15.714,20.674-18.767,33.296c-2.456,10.6-2.456,21.61,0,32.21c0.522,2.802,1.226,5.565,2.104,8.277
		c-2.37,0.072-4.604,1.14-6.141,2.951c-3.503,4.312-3.503,12.841,0,25.958C165.209,218.862,169.553,226.481,174.364,227.815z"/>
</g>
</svg>
