<?xml version="1.0" encoding="utf-8"?>
<!-- Generator: Adobe Illustrator 16.0.0, SVG Export Plug-In . SVG Version: 6.00 Build 0)  -->
<!DOCTYPE svg PUBLIC "-//W3C//DTD SVG 1.1//EN" "http://www.w3.org/Graphics/SVG/1.1/DTD/svg11.dtd">
<svg version="1.1" id="Capa_1" xmlns="http://www.w3.org/2000/svg" xmlns:xlink="http://www.w3.org/1999/xlink" x="0px" y="0px"
	 width="485.213px" height="485.213px" viewBox="0 0 485.213 485.213" enable-background="new 0 0 485.213 485.213"
	 xml:space="preserve">
<g id="energy">
	<g>
		<g>
			<path fill="#231F20" d="M421.929,249.005c-3.6,90.312-76.727,166.242-167.042,172.634c-4.396,0.4-8.395,0.4-12.79,0.4
				c-99.108,0-179.833-80.726-179.833-179.832c0-47.954,19.584-94.708,53.952-128.279l1.996-1.597l-9.191-12.386
				c-1.596-2.399,0.4-5.198,2.799-4.795l45.958,6.792c0.397,0,1.2,0.4,1.594,0.799c0.402,0.397,0.402,1.2,0.402,1.597l-6.795,45.96
				c-0.4,2.796-3.995,3.593-5.595,1.597l-9.191-12.387l-2.396,2.396c-26.376,27.576-40.763,63.939-40.363,102.302
				c0.397,75.927,59.944,139.869,135.472,145.464c3.999,0.4,7.994,0.4,11.59,0.4c81.125,0,147.06-65.938,147.06-147.061
				c0-62.343-39.162-117.892-97.904-138.672l-2.802-1.2l-28.368,78.729c-0.8,2-0.404,4.396,1.198,6.395
				c1.197,1.996,3.597,2.795,5.596,2.795h61.938c1.2,0,2.398,0.797,3.199,1.997c0.399,0.4,0.8,1.999-0.4,3.599
				c-11.59,17.182-35.964,47.954-64.339,83.521c-17.985,22.378-37.967,47.558-57.948,73.131c-1.197,1.6-2.793,1.999-3.993,1.999
				c-2,0-3.599-1.199-4.798-2.399c-0.797-1.199-1.597-2.796-0.797-4.794l41.958-106.702c0.8-2.796,0.4-5.592-1.2-7.592
				c-1.596-2.399-4.396-3.592-7.191-3.592l-52.354-0.403c-1.596,0-1.996-0.797-2.796-1.2c-0.796-1.196-0.796-2.795,0-3.995
				c7.995-17.582,16.387-53.149,24.778-87.117c6.795-27.973,13.187-54.349,18.781-68.735c0.8-3.599,3.996-5.595,7.195-5.595
				c0,0,4.792,0,11.188,0c7.194,0,17.585,0,24.38,0.797c13.982,1.602,25.973,4.398,38.762,9.193
				C377.17,99.945,424.725,170.676,421.929,249.005z"/>
		</g>
	</g>
</g>
</svg>
