<?xml version="1.0" encoding="utf-8"?>
<!-- Generator: Adobe Illustrator 16.0.0, SVG Export Plug-In . SVG Version: 6.00 Build 0)  -->
<!DOCTYPE svg PUBLIC "-//W3C//DTD SVG 1.1//EN" "http://www.w3.org/Graphics/SVG/1.1/DTD/svg11.dtd">
<svg version="1.1" id="Capa_1" xmlns="http://www.w3.org/2000/svg" xmlns:xlink="http://www.w3.org/1999/xlink" x="0px" y="0px"
	 width="485.213px" height="485.213px" viewBox="0 0 485.213 485.213" enable-background="new 0 0 485.213 485.213"
	 xml:space="preserve">
<g id="fundamental_research">
	<path fill="#231F20" d="M347.867,326.095c12.455-48.438,77.502-72.423,56.738-171.147
		C383.849,56.228,267.351,46.166,207.172,61.767c-62.375,16.167-111.922,82.438-95.474,137.87c1.271,4.285,0.52,8.868-1.904,12.622
		c-7.609,11.757-28.032,37.42-33.546,52.479c-1.991,5.424,1.115,11.393,6.705,12.879c1.751,0.465,12.512,4.709,13.909,5.156
		c14.354,4.565,11.59,36.327,11.59,65.458c0,30.45,32.288,26.296,42.902,23.992c10.608-2.31,34.6-4.452,34.6,24.451
		c0,3.855,0.113,6.971,0.287,9.472c0.403,5.766,4.147,10.76,9.544,12.837c21.327,8.212,83.104,21.032,157.729-5.651
		c4.381-1.57,6.389-6.643,4.304-10.797C350.78,388.533,338.604,362.125,347.867,326.095z M323.93,280.636
		c-16.693,8.689-29.633-1.385-36.141-8.624c-3.677,1.624-7.731,2.548-12.011,2.548c-6.978,0-13.382-2.422-18.457-6.445
		c-0.182,0.609-22.696,5.789-26.626-9.895c0.358,0.012,0.704,0.048,1.068,0.048c0.379,0,0.764-0.007,1.146-0.019
		c13.941-0.395,27.352-7.949,39.861-22.458c2.1-2.429,1.826-6.105-0.606-8.2c-2.432-2.101-6.108-1.826-8.203,0.603
		c-10.241,11.871-20.751,18.065-31.243,18.417c-3.106,0.107-5.989-0.334-8.588-1.056c-0.729-0.233-1.432-0.436-2.185-0.693
		c-0.772-0.268-1.462-0.578-2.178-0.871c-5.747-2.536-9.274-5.992-9.361-6.076c-0.146-0.149-0.31-0.262-0.468-0.394
		c-7.786-8.093-7.573-19.176-6.216-26.57c-27.828,3.091-40.949-7.168-47.138-17.147c2.477-0.316,4.992-0.865,7.475-1.832
		c7.532-2.931,13.187-8.636,16.794-16.962c1.274-2.948-0.075-6.374-3.022-7.651c-2.955-1.277-6.372,0.077-7.648,3.02
		c-2.355,5.431-5.718,8.941-10.292,10.731c-4.118,1.618-8.622,1.605-12.435,1.062c-8.946-4.416-15.117-13.595-15.117-24.248
		c0-14.163,10.871-25.765,24.716-26.964c-1.504-2.626-2.184-5.789-1.623-9.137c0.961-5.789,5.729-10.426,11.533-11.244
		c0.481-0.066,0.934-0.054,1.403-0.072c1.811,5.497,5.506,13.035,12.655,16.024c2.029,0.854,4.127,1.271,6.297,1.271
		c4.532,0,9.374-1.832,14.471-5.491c2.614-1.874,3.208-5.508,1.337-8.116c-1.874-2.614-5.505-3.217-8.122-1.337
		c-2.774,1.993-6.666,4.112-9.477,2.948c-3.163-1.313-5.38-6.344-6.505-10.235c4.041-7.168,11.704-12.014,20.517-12.014
		c4.807,0,9.275,1.445,13.002,3.916c3.309-9.012,11.945-15.452,22.108-15.452c5.569,0,10.677,1.945,14.711,5.174
		c4.25-6.153,11.35-10.188,19.392-10.188c7.901,0,14.884,3.903,19.157,9.871c3.009-1.802,6.511-2.853,10.271-2.853
		c8.618,0,15.95,5.443,18.788,13.076c2.692-1.707,5.88-2.71,9.299-2.71c9.603,0,17.391,7.783,17.391,17.386
		c0,0.37-0.035,0.728-0.057,1.098c2.334-1.05,5.035-1.426,7.881-0.782c4.545,1.026,8.213,4.697,9.245,9.239
		c0.639,2.841,0.274,5.539-0.771,7.866c0.258-0.012,0.499-0.036,0.755-0.036c8.497,0,15.384,6.887,15.384,15.386
		c0,2.87-0.842,5.526-2.215,7.824c-9.752-1.456-21.789,1.015-31.228,14.455c-1.845,2.631-1.214,6.261,1.417,8.104
		c1.015,0.71,2.185,1.05,3.336,1.05c1.833,0,3.635-0.859,4.766-2.471c11.551-16.454,26.851-7.645,28.579-6.571
		c0.113,0.072,0.238,0.114,0.354,0.179c4.247,7.204,6.693,15.601,6.693,24.571c0,14.735-6.585,27.93-16.968,36.817
		c1.103,3.754,1.295,7.896,0.119,12.216c-2.124,7.782-8.444,13.912-16.274,15.846c-4.578,1.128-8.919,0.722-12.809-0.65
		C340.598,264.993,335.776,274.471,323.93,280.636z"/>
	<path fill="#231F20" d="M234.132,152.279c-9.402,10.217-12.503,25.848-7.713,38.888c0.862,2.352,3.091,3.814,5.458,3.814
		c0.668,0,1.343-0.12,2.006-0.358c3.019-1.11,4.566-4.452,3.452-7.466c-3.328-9.053-1.172-19.897,5.357-27
		c2.172-2.363,2.02-6.04-0.341-8.218C239.984,149.767,236.304,149.916,234.132,152.279z"/>
	<path fill="#231F20" d="M343.738,132.465c-7.466-13.56-19.497-17.397-30.58-17.099c-0.866-4.017-2.566-9.854-5.76-14.993
		c-1.695-2.721-5.282-3.563-8.01-1.861c-2.727,1.694-3.563,5.281-1.865,8.009c2.151,3.461,3.405,7.543,4.104,10.563
		c-3.211,0.872-6.1,1.976-8.442,3.122c-2.886,1.414-4.085,4.9-2.67,7.783c1.408,2.882,4.891,4.082,7.782,2.667
		c0.999-0.496,24.666-11.793,35.247,7.424c1.063,1.922,3.051,3.008,5.104,3.008c0.948,0,1.912-0.227,2.802-0.716
		C344.262,138.815,345.289,135.276,343.738,132.465z"/>
	<path fill="#231F20" d="M290.896,194.958c2.906,11.106,10.725,17.964,21.458,18.806c0.157,0.011,0.31,0.018,0.462,0.018
		c3.009,0,5.557-2.31,5.796-5.359c0.25-3.205-2.137-6.004-5.341-6.254c-3.478-0.275-6.109-1.534-8.058-3.85
		c-3.407-4.052-3.847-10.319-3.802-11.942c0.218-0.949,0.196-1.963-0.093-2.942c-0.725-2.44-2.957-4.13-5.506-4.166
		c-20.05-0.238-23.711-19.248-23.863-20.088c-0.546-3.146-3.536-5.276-6.699-4.739c-3.169,0.531-5.306,3.534-4.768,6.702
		c1.571,9.316,9.73,26.302,29.482,29.304C290.158,191.824,290.469,193.328,290.896,194.958z"/>
	<path fill="#231F20" d="M250.538,95.457c-3.046,1.014-4.696,4.309-3.682,7.358c2.273,6.815,2.065,12.193-0.645,16.442
		c-5.405,8.481-19.122,10.194-19.396,10.229c-3.187,0.352-5.479,3.223-5.132,6.41c0.328,2.984,2.847,5.186,5.771,5.186
		c0.215,0,0.43-0.012,0.645-0.036c0.791-0.083,19.421-2.268,27.889-15.481c4.68-7.299,5.318-16.192,1.91-26.433
		C256.877,96.089,253.595,94.442,250.538,95.457z"/>
	<path fill="#231F20" d="M324.347,256.173c-8.116,3.49-14.847,4.033-19.993,1.6c-6.821-3.235-9.167-10.952-9.233-11.19
		c-0.853-3.087-4.042-4.888-7.131-4.059c-3.098,0.848-4.931,4.04-4.082,7.138c0.136,0.525,3.625,12.908,15.304,18.549
		c3.749,1.809,7.829,2.71,12.227,2.71c5.384,0,11.235-1.354,17.514-4.059c2.951-1.271,4.309-4.696,3.04-7.646
		C330.714,256.262,327.291,254.896,324.347,256.173z"/>
</g>
</svg>
