<?xml version="1.0" encoding="utf-8"?>
<!-- Generator: Adobe Illustrator 16.0.0, SVG Export Plug-In . SVG Version: 6.00 Build 0)  -->
<!DOCTYPE svg PUBLIC "-//W3C//DTD SVG 1.1//EN" "http://www.w3.org/Graphics/SVG/1.1/DTD/svg11.dtd">
<svg version="1.1" id="Layer_1" xmlns="http://www.w3.org/2000/svg" xmlns:xlink="http://www.w3.org/1999/xlink" x="0px" y="0px"
	 width="283.465px" height="283.464px" viewBox="0 0 283.465 283.464" enable-background="new 0 0 283.465 283.464"
	 xml:space="preserve">
<g id="identity_branding">
	<path d="M141.732,41.779c-41.929,0-76.041,34.107-76.041,76.031v47.845c0,41.923,34.112,76.031,76.041,76.031
		c41.93,0,76.042-34.107,76.042-76.031v-47.845C217.774,75.887,183.662,41.779,141.732,41.779z M141.732,223.468
		c-31.887,0-57.826-25.936-57.826-57.814V117.81c0-31.879,25.939-57.815,57.826-57.815c31.888,0,57.829,25.936,57.829,57.815v47.843
		C199.562,197.533,173.62,223.468,141.732,223.468z"/>
	<path d="M141.732,4.641c-60.869,0-110.391,49.522-110.391,110.393v53.398c0,60.871,49.521,110.393,110.391,110.393
		c60.87,0,110.392-49.522,110.392-110.393v-53.397C252.124,54.163,202.603,4.641,141.732,4.641z M141.732,260.934
		c-51.004,0-92.5-41.497-92.5-92.503v-53.397c0-51.007,41.496-92.503,92.5-92.503c24.668,0,47.886,9.633,65.378,27.125
		c17.491,17.492,27.123,40.71,27.123,65.378v53.397C234.233,219.437,192.738,260.934,141.732,260.934z"/>
	<path d="M141.732,77.945c-24.374,0-44.205,19.83-44.205,44.204v39.167c0,24.375,19.831,44.204,44.205,44.204
		c11.792,0,22.889-4.602,31.245-12.96c8.358-8.357,12.962-19.454,12.962-31.244V122.15
		C185.939,97.775,166.108,77.945,141.732,77.945z M141.732,187.596c-14.49,0-26.277-11.789-26.277-26.28v-39.166
		c0-14.491,11.787-26.28,26.277-26.28c14.491,0,26.279,11.789,26.28,26.28v39.166C168.013,175.807,156.224,187.596,141.732,187.596z
		"/>
	<path d="M141.732,111.796c-4.732,0-8.585,3.851-8.585,8.585v45.383c0,4.733,3.853,8.583,8.585,8.583
		c4.733,0,8.585-3.85,8.586-8.583v-45.384C150.318,115.647,146.466,111.796,141.732,111.796z"/>
</g>
</svg>
