<?xml version="1.0" encoding="utf-8"?>
<!-- Generator: Adobe Illustrator 16.0.0, SVG Export Plug-In . SVG Version: 6.00 Build 0)  -->
<!DOCTYPE svg PUBLIC "-//W3C//DTD SVG 1.1//EN" "http://www.w3.org/Graphics/SVG/1.1/DTD/svg11.dtd">
<svg version="1.1" id="Capa_1" xmlns="http://www.w3.org/2000/svg" xmlns:xlink="http://www.w3.org/1999/xlink" x="0px" y="0px"
	 width="485.213px" height="485.213px" viewBox="0 0 485.213 485.213" enable-background="new 0 0 485.213 485.213"
	 xml:space="preserve">
<g id="aoplied_research">
	<path fill="#231F20" d="M163.479,393.714c50.64,0,91.721-41.019,91.721-91.658H71.95
		C71.977,352.695,113.002,393.714,163.479,393.714z M185.098,331.735c6.015,0,10.809,4.827,10.809,10.808
		c0,6.016-4.794,10.874-10.809,10.874c-6.014,0-10.871-4.894-10.871-10.874S179.084,331.735,185.098,331.735z M154.358,350.164
		c9.884,0,17.87,7.985,17.87,17.868c0,9.89-7.986,17.935-17.87,17.935c-9.882,0-17.868-8.045-17.868-17.935
		C136.49,358.149,144.476,350.164,154.358,350.164z M133.743,311.24c3.614,0,6.559,2.948,6.559,6.56
		c0,3.616-2.946,6.564-6.559,6.564c-3.62,0-6.561-2.948-6.561-6.564C127.182,314.188,130.128,311.24,133.743,311.24z"/>
	<path fill="#231F20" d="M207.402,186.22v-83.596c11.453-0.573,20.679-10.068,20.679-21.682c0-11.996-9.775-21.802-21.742-21.802
		h-85.531c-11.996,0-21.806,9.806-21.806,21.802c0,11.614,9.196,21.139,20.681,21.682v83.596
		c-48.112,18.173-80.098,64.08-80.098,115.901c0,68.359,55.596,123.958,123.958,123.958c68.328,0,123.96-55.599,123.96-123.958
		C287.503,250.3,255.514,204.357,207.402,186.22z M163.543,410.836c-59.98,0-108.714-48.771-108.714-108.715
		c0-47.089,30.066-88.597,74.851-103.278c3.135-1.027,5.186-3.951,5.186-7.251V95.062c0-4.189-3.37-7.621-7.559-7.621h-6.499
		c-3.616,0-6.562-2.948-6.562-6.559c0-3.616,2.948-6.499,6.562-6.499h85.531c3.584,0,6.565,2.883,6.565,6.499
		c0,3.617-2.981,6.559-6.565,6.559h-6.493c-4.226,0-7.625,3.402-7.625,7.621v96.529c0,3.301,2.113,6.231,5.249,7.251
		c44.72,14.682,74.849,56.189,74.849,103.278C272.29,362.064,223.491,410.836,163.543,410.836z"/>
	<path fill="#231F20" d="M343.063,369.585c0,16.89,13.667,30.593,30.557,30.593s30.599-13.703,30.599-30.593v-95.24h-61.155V369.585
		z M382.098,319.381c3.908,0,7.051,3.181,7.051,7.096c0,3.909-3.143,7.049-7.051,7.049c-3.91,0-7.091-3.14-7.091-7.049
		C374.984,322.562,378.188,319.381,382.098,319.381z M360.102,291.175c2.218,0,3.99,1.82,3.99,4.035c0,2.208-1.772,3.98-3.99,3.98
		c-2.211,0-4.028-1.772-4.028-3.98C356.095,292.995,357.911,291.175,360.102,291.175z M363.838,344.023
		c5.952,0,10.787,4.811,10.787,10.784s-4.835,10.832-10.787,10.832c-5.975,0-10.829-4.858-10.829-10.832
		S357.864,344.023,363.838,344.023z"/>
	<path fill="#231F20" d="M424.324,184.525H322.92c-11.262,0-20.398,9.179-20.398,20.441s9.157,20.44,20.438,20.44h1.809v151.817
		c0,26.923,21.951,48.855,48.854,48.855c26.91,0,48.859-21.933,48.859-48.855V225.406h1.843c11.262,0,20.399-9.161,20.399-20.44
		C444.724,193.704,435.586,184.525,424.324,184.525z M424.322,216.508h-6.251c-2.453,0-4.452,2-4.452,4.452v156.264
		c0,22.029-17.933,39.957-39.96,39.957c-22.025,0-39.956-17.911-39.956-39.957V220.96c0-2.452-1.997-4.452-4.449-4.452h-6.296
		c-6.381,0-11.54-5.181-11.54-11.542c-0.037-6.362,5.159-11.548,11.54-11.548h101.364c6.383,0,11.543,5.186,11.543,11.548
		C435.865,211.328,430.704,216.508,424.322,216.508z"/>
</g>
</svg>
