<?xml version="1.0" encoding="utf-8"?>
<!-- Generator: Adobe Illustrator 16.0.0, SVG Export Plug-In . SVG Version: 6.00 Build 0)  -->
<!DOCTYPE svg PUBLIC "-//W3C//DTD SVG 1.1//EN" "http://www.w3.org/Graphics/SVG/1.1/DTD/svg11.dtd">
<svg version="1.1" id="Layer_1" xmlns="http://www.w3.org/2000/svg" xmlns:xlink="http://www.w3.org/1999/xlink" x="0px" y="0px"
	 width="283.465px" height="283.464px" viewBox="0 0 283.465 283.464" enable-background="new 0 0 283.465 283.464"
	 xml:space="preserve">
<g id="strategy">
	<g>
		<path d="M76.455,117.776l17.366-17.367l17.368,17.367l12.576-12.577l-17.368-17.367l17.368-17.367l-12.576-12.577L93.821,75.256
			L76.455,57.888L63.278,69.866l17.367,17.367l-17.367,17.368L76.455,117.776z M207.01,159.7l-17.366,17.367L172.275,159.7
			l-12.576,12.575l17.368,17.367l-17.368,17.368l12.576,12.576l17.368-17.367l17.366,17.367l12.576-12.576l-17.367-17.368
			l17.367-17.366L207.01,159.7z M93.821,223.179c17.966,0,32.939-14.97,32.939-32.938c0-6.588-1.795-12.576-4.791-17.368
			l82.647-86.837v32.34h17.966V54.894h-62.285V72.86h32.34l-83.844,88.036c-4.19-2.395-9.581-3.593-14.373-3.593
			c-17.966,0-32.938,14.971-32.938,32.939C61.482,208.209,75.854,223.179,93.821,223.179z M93.821,175.27
			c8.386,0,14.973,6.589,14.973,14.972c0,8.385-6.587,14.972-14.973,14.972c-8.385,0-14.97-6.587-14.97-14.972
			C78.85,181.857,85.437,175.27,93.821,175.27z M12.973,12.972v257.52h257.521V12.972H12.973z M252.525,252.526H30.939V30.938
			h221.586V252.526z"/>
	</g>
</g>
</svg>
