<?xml version="1.0" encoding="utf-8"?>
<!-- Generator: Adobe Illustrator 16.0.0, SVG Export Plug-In . SVG Version: 6.00 Build 0)  -->
<!DOCTYPE svg PUBLIC "-//W3C//DTD SVG 1.1//EN" "http://www.w3.org/Graphics/SVG/1.1/DTD/svg11.dtd">
<svg version="1.1" id="Capa_1" xmlns="http://www.w3.org/2000/svg" xmlns:xlink="http://www.w3.org/1999/xlink" x="0px" y="0px"
	 width="485.213px" height="485.213px" viewBox="0 0 485.213 485.213" enable-background="new 0 0 485.213 485.213"
	 xml:space="preserve">
<g id="society">
	<polygon fill="#231F20" points="172.647,231.816 174.452,231.816 174.452,230.008 174.452,217.726 174.452,215.917 
		172.647,215.917 135.797,215.917 133.985,215.917 133.985,217.726 133.985,230.008 133.985,231.816 135.797,231.816 	"/>
	<polygon fill="#231F20" points="172.647,201.104 174.452,201.104 174.452,199.299 174.452,187.014 174.452,185.208 
		172.647,185.208 135.797,185.208 133.985,185.208 133.985,187.014 133.985,199.299 133.985,201.104 135.797,201.104 	"/>
	<polygon fill="#231F20" points="172.647,170.393 174.452,170.393 174.452,168.584 174.452,156.302 174.452,154.5 172.647,154.5 
		135.797,154.5 133.985,154.5 133.985,156.302 133.985,168.584 133.985,170.393 135.797,170.393 	"/>
	<polygon fill="#231F20" points="258.637,201.104 260.443,201.104 260.443,199.299 260.443,187.014 260.443,185.208 
		258.637,185.208 221.784,185.208 219.979,185.208 219.979,187.014 219.979,199.299 219.979,201.104 221.784,201.104 	"/>
	<polygon fill="#231F20" points="258.637,231.816 260.443,231.816 260.443,230.008 260.443,217.726 260.443,215.917 
		258.637,215.917 221.784,215.917 219.979,215.917 219.979,217.726 219.979,230.008 219.979,231.816 221.784,231.816 	"/>
	<polygon fill="#231F20" points="344.625,158.11 346.431,158.11 346.431,156.302 346.431,144.02 346.431,142.217 344.625,142.217 
		308.501,142.217 306.693,142.217 306.693,144.02 306.693,156.302 306.693,158.11 308.501,158.11 	"/>
	<polygon fill="#231F20" points="344.625,194.963 346.431,194.963 346.431,193.155 346.431,180.873 346.431,179.064 
		344.625,179.064 308.501,179.064 306.693,179.064 306.693,180.873 306.693,193.155 306.693,194.963 308.501,194.963 	"/>
	<polygon fill="#231F20" points="344.625,231.816 346.431,231.816 346.431,230.008 346.431,217.726 346.431,215.917 
		344.625,215.917 308.501,215.917 306.693,215.917 306.693,217.726 306.693,230.008 306.693,231.816 308.501,231.816 	"/>
	<polygon fill="#231F20" points="344.625,127.398 346.431,127.398 346.431,125.593 346.431,113.311 346.431,111.502 
		344.625,111.502 308.501,111.502 306.693,111.502 306.693,113.311 306.693,125.593 306.693,127.398 308.501,127.398 	"/>
	<path fill="#231F20" d="M431.584,334.247c-1.271-4.715-3.602-8.768-6.923-12.056c-2.778-2.745-6.267-4.971-10.372-6.618
		c-7.297-2.925-14.879-3.36-18.752-3.36c-1.621,0-2.627,0.071-2.752,0.084c-0.647,0.047-1.292,0.176-1.918,0.381l-0.003,0.004
		h-0.004c-0.054,0.018-5.434,1.8-13.717,4.049V76.896c0-4.386-3.567-7.949-7.95-7.949h-85.989c-4.38,0-7.946,3.563-7.946,7.949
		v71.46h-69.427v-28.973c0-4.384-3.566-7.949-7.951-7.949h-86.439c-2.125,0-4.122,0.829-5.623,2.328
		c-1.498,1.504-2.328,3.497-2.328,5.622v145.599c-8.042,0.238-16.573,0.504-25.35,0.865c-2.118,0.092-4.076,0.997-5.52,2.561
		c-1.438,1.563-2.182,3.593-2.089,5.715c0.083,1.986,0.955,3.857,2.453,5.272c1.388,1.313,3.175,2.106,5.037,2.237
		c0.14,0.039,0.382,0.1,0.683,0.1c0.021,0,0.039,0,0.057,0h0.015h0.021c11.569-0.48,22.938-0.803,32.968-1.096
		c25.759-0.74,52.391-1.508,80.489-4.679c4.079-0.46,8.121-0.964,12.001-1.495c3.127-0.428,6.675-0.91,10.223-1.469l62.869-9.928
		l0.363-0.057c1.91-0.301,3.644-0.457,5.156-0.457c3.938,0,5.104,1.018,5.229,1.135l0.006,0.012l0.012,0.012
		c0.019,0.012,0.024,0.018,0.033,0.029c1.095,1.107,1.569,2.424,1.468,4.012c-0.098,1.51-0.716,3.273-1.836,5.242
		c-0.838,1.471-1.918,3.018-3.114,4.461c-1.466,1.762-4.39,3.855-8.457,6.047c-7.289,3.92-16.144,7.078-21.509,8.594
		c-15.923,4.494-53.027,18.698-57.207,20.304l-0.062,0.024c-3.411,1.309-5.479,4.755-5.032,8.385
		c0.445,3.623,3.289,6.469,6.913,6.914c0.877,0.11,88.71,11.025,118.846,13.228c2.118,0.155,4.377,0.233,6.714,0.233
		c6.535,0,13.98-0.603,22.128-1.791c6.669-0.967,13.851-2.333,21.361-4.058c12.927-2.97,23.247-6.187,26.464-7.222
		c0.238-0.006,0.555-0.013,0.928-0.013c2.265,0,6.698,0.203,10.939,1.588c4.39,1.433,7.362,3.722,8.848,6.815
		c-2.119,2.188-9.036,7.323-31.572,17.577c-17.112,7.788-38.544,16.353-58.804,23.499l-2.053,0.698
		c-32.583,11.109-63.36,21.607-94.12,22.088c-0.332,0.003-0.675,0.009-1.018,0.009c-8.63,0-19.456-1.414-33.089-4.321
		c-12.545-2.674-25.985-6.278-37.844-9.459l-0.075-0.024c-19.19-5.145-37.319-10.005-52.43-11.846l-29.178-3.652
		c-0.096-0.016-0.197-0.019-0.298-0.019c-0.203,0-0.376,0.024-0.478,0.038c-0.071-0.002-0.146-0.002-0.214-0.002
		c-1.922,0-3.775,0.684-5.216,1.922c-1.471,1.265-2.417,3.025-2.665,4.956c-0.54,4.354,2.557,8.329,6.902,8.875l29.19,3.655h0.006
		l0,0c14.052,1.713,31.672,6.439,50.335,11.446h0.009c26.25,7.043,53.398,14.327,74.865,14.327c0.49,0,0.973-0.004,1.442-0.01
		c33.269-0.521,65.192-11.411,98.989-22.935l0.016-0.003l2.011-0.688c4.339-1.446,13.205-4.466,23.924-8.489
		c13.07-4.896,24.839-9.748,34.985-14.422c13.404-6.174,23.789-11.96,30.861-17.197c4.201-3.109,7.321-6.1,9.269-8.88
		C431.603,340.335,432.375,337.172,431.584,334.247z M296.896,287.601c2.575-3.104,4.616-6.275,6.062-9.424
		c1.449-3.156,2.303-6.297,2.538-9.325c0.486-6.219-1.641-11.892-6.155-16.403c-2.134-2.134-4.882-3.694-8.189-4.649v-91.497
		c0-0.355-0.062-0.656-0.124-0.877c0.062-0.227,0.124-0.525,0.124-0.88V84.839h70.094v235.777
		c-14.223,3.104-26.409,4.679-36.235,4.679c-1.991,0-3.904-0.065-5.688-0.203c-6.242-0.45-15.714-1.351-28.17-2.674v-29.571
		C293.56,291.073,295.439,289.355,296.896,287.601z M275.258,164.251v83.052c-0.012,0-0.021,0.003-0.032,0.003l-63.233,9.987
		c-2.071,0.328-4.145,0.615-6.162,0.896v-93.938H275.258z M189.933,127.333v132.886c-24.242,2.716-47.231,3.599-70.546,4.291
		V127.333H189.933z M275.258,301.568v19.119c-14.449-1.611-29.554-3.377-41.553-4.81c11.491-4.137,19.988-6.983,25.308-8.487
		C259.354,307.295,266.804,305.191,275.258,301.568z"/>
</g>
</svg>
