<?xml version="1.0" encoding="utf-8"?>
<!-- Generator: Adobe Illustrator 16.0.0, SVG Export Plug-In . SVG Version: 6.00 Build 0)  -->
<!DOCTYPE svg PUBLIC "-//W3C//DTD SVG 1.1//EN" "http://www.w3.org/Graphics/SVG/1.1/DTD/svg11.dtd">
<svg version="1.1" id="Capa_1" xmlns="http://www.w3.org/2000/svg" xmlns:xlink="http://www.w3.org/1999/xlink" x="0px" y="0px"
	 width="485.213px" height="485.213px" viewBox="0 0 485.213 485.213" enable-background="new 0 0 485.213 485.213"
	 xml:space="preserve">
<g id="industry">
	<path fill="#231F20" d="M310.253,292.897h0.209c-0.743-0.406-1.549-0.687-2.384-0.842c-3.116-0.555-6.123,0.8-7.827,3.231
		c-0.01,0.009-13.863,17.013-36.44,25.152l-1.22,0.598c-25.091,8.322-44.826,0-44.826,0c-20.53-6.753-36.231-21.318-40.839-25.932
		c-0.401-0.537-0.869-1.021-1.39-1.433l0,0l0,0c-1.713-1.367-3.985-2.017-6.313-1.6c-0.814,0.15-1.605,0.427-2.333,0.824
		c-6.873,3.706-13.652,7.562-20.341,11.571v70.929c0,0.842-0.147,1.645-0.41,2.391h188.393c-0.269-0.746-0.411-1.549-0.411-2.391
		V306.6C326.29,301.828,318.331,297.254,310.253,292.897z"/>
	<path fill="#231F20" d="M389.895,345.912c-13.308-10.76-27.137-20.853-41.437-30.234v59.72c0,0.842-0.143,1.645-0.408,2.391h53.954
		v-5.98C402.055,361.794,397.612,352.292,389.895,345.912z"/>
	<path fill="#231F20" d="M75.136,408.33c0,5.773,4.649,10.468,10.42,10.527h78.112h28.026h33.018h27.68h33.055h52.761h53.269
		c5.812,0,10.527-4.712,10.527-10.527v-16.207H75.136V408.33z"/>
	<path fill="#231F20" d="M132.212,375.397V313.38c-15.555,10.026-30.569,20.883-44.971,32.532
		c-7.712,6.38-12.157,15.882-12.105,25.896v5.98h57.485C132.357,377.042,132.212,376.239,132.212,375.397z"/>
	<path fill="#231F20" d="M187.729,278.37l34.151,24.714c12.353,8.947,22.01,7.008,27.676,4.112l39.854-29.034
		c2.701-1.976,4.303-5.108,4.318-8.457v-17.791c4.401-7.442,7.466-15.601,9.054-24.099c4.804-1.334,9.154-9.125,13.294-23.688
		c2.32-8.215,3.21-14.604,2.632-19.304h-5.95c-4.795,6.607-10.958,12.154-18.062,16.23c-8.748,5.01-18.696,7.663-28.781,7.663
		H214.59c-10.083-0.006-20.033-2.655-28.779-7.669c-7.108-4.082-13.272-9.633-18.063-16.242h-9.367
		c-0.536,4.7,0.288,11.086,2.474,19.25c4.351,14.807,8.7,22.425,13.509,23.759c1.559,8.647,4.624,16.963,9.051,24.559v17.54
		C183.427,273.263,185.029,276.401,187.729,278.37z"/>
	<path fill="#231F20" d="M149.001,175.248h16.938h6.969c8.664,14.807,24.53,23.908,41.684,23.908h51.323c0,0,0.003,0,0.007,0
		c17.146,0,33.011-9.095,41.68-23.89h3.006h17.059c2.331,0,4.217-1.889,4.217-4.22v-24.994c0-2.328-1.886-4.214-4.217-4.214v-0.023
		c-2.948-39.002-33.997-71.761-72.215-79.26c0-3.709-3.005-6.717-6.712-6.717h-20.814c-3.709,0-6.713,3.008-6.713,6.717v0.092
		c-37.503,7.687-65.292,40.166-68.235,79.191h-3.976c-2.331,0-4.221,1.886-4.221,4.214v24.979
		C144.78,173.362,146.67,175.248,149.001,175.248z M210.073,134.652c0,2.638-2.141,4.781-4.78,4.781
		c-2.642,0-4.784-2.143-4.784-4.781V90.864c0-2.638,2.142-4.78,4.784-4.78c2.639,0,4.78,2.143,4.78,4.78V134.652z M276.865,134.652
		c0,2.626-2.115,4.757-4.732,4.781c0.014,0,0.031,0,0.045,0h-0.093c0.015,0,0.03,0,0.045,0c-2.619-0.024-4.734-2.155-4.734-4.781
		V90.864c0-2.603,2.086-4.727,4.689-4.78c2.642,0,4.78,2.143,4.78,4.78V134.652z M236.176,71.235h2.737h2.342
		c2.267,0.095,4.104,1.76,4.497,3.912c0.051,0.295,0.081,0.597,0.079,0.91v58.595c0,2.611-2.094,4.739-4.707,4.781h-4.78
		c-2.642,0-4.782-2.143-4.782-4.781V76.075c-0.003-0.221,0.013-0.427,0.04-0.638C231.879,73.133,233.792,71.318,236.176,71.235z"/>
</g>
</svg>
