<?xml version="1.0" encoding="utf-8"?>
<!-- Generator: Adobe Illustrator 16.0.0, SVG Export Plug-In . SVG Version: 6.00 Build 0)  -->
<!DOCTYPE svg PUBLIC "-//W3C//DTD SVG 1.1//EN" "http://www.w3.org/Graphics/SVG/1.1/DTD/svg11.dtd">
<svg version="1.1" xmlns="http://www.w3.org/2000/svg" xmlns:xlink="http://www.w3.org/1999/xlink" x="0px" y="0px"
	 width="92.333px" height="92.333px" viewBox="0 0 92.333 92.333" enable-background="new 0 0 92.333 92.333" xml:space="preserve">
<g id="light" display="none">
	<g id="settings">
		<g display="inline">
			<path d="M49.381,88.049h-6.399c-2.192,0-3.979-1.783-3.979-3.976v-3.831c0-1.423-1.143-2.98-2.506-3.403l-5.431-2.229
				c-1.395-0.747-3.27-0.384-4.227,0.574l-2.73,2.721c-1.502,1.499-4.125,1.498-5.619-0.001l-4.53-4.528
				c-0.745-0.749-1.155-1.747-1.155-2.812c0-1.065,0.411-2.063,1.155-2.812l2.725-2.722c1.011-1.006,1.29-2.916,0.617-4.168
				l-2.245-5.427c-0.442-1.43-2.005-2.581-3.422-2.581H7.789c-2.198,0-3.977-1.784-3.977-3.977V42.48
				c0-2.194,1.779-3.979,3.977-3.979l3.845,0.006c1.417,0,2.98-1.151,3.409-2.514l2.222-5.425c0.708-1.321,0.424-3.23-0.581-4.243
				l-2.719-2.72c-0.75-0.749-1.161-1.749-1.161-2.814s0.411-2.064,1.161-2.812l4.524-4.52c1.49-1.499,4.111-1.504,5.619,0l2.73,2.72
				c0.968,0.974,2.947,1.266,4.165,0.617l5.431-2.234c1.424-0.446,2.567-2.009,2.567-3.435V7.287c0-2.193,1.786-3.977,3.979-3.977
				h6.399c2.192,0,3.979,1.783,3.979,3.977v3.841c0,1.426,1.15,2.986,2.514,3.411l5.413,2.224c1.405,0.744,3.288,0.378,4.238-0.581
				l2.736-2.725c1.49-1.495,4.125-1.493,5.612,0.003l4.537,4.52c0.75,0.75,1.161,1.747,1.161,2.812s-0.411,2.063-1.161,2.814
				l-2.732,2.72c-0.998,1.007-1.284,2.919-0.61,4.173l2.239,5.426c0.444,1.428,2.004,2.577,3.429,2.577h3.837
				c2.192,0,3.973,1.784,3.973,3.979v6.402c0,2.189-1.78,3.972-3.973,3.972h-3.837c-1.425,0-2.985,1.151-3.405,2.516l-2.234,5.419
				c-0.702,1.325-0.417,3.235,0.582,4.241l2.732,2.722c0.75,0.749,1.161,1.747,1.161,2.812c0,1.064-0.411,2.062-1.161,2.812
				l-4.537,4.528c-1.487,1.493-4.122,1.5-5.612-0.002l-2.718-2.718c-0.957-0.957-2.967-1.26-4.166-0.61l-5.444,2.243
				c-1.423,0.444-2.574,2.002-2.574,3.425v3.831C53.359,86.266,51.573,88.049,49.381,88.049z M29.419,72.654
				c0.841,0,1.641,0.194,2.313,0.556l5.291,2.173c1.951,0.603,3.531,2.745,3.531,4.859v3.831c0,1.34,1.09,2.426,2.427,2.426h6.399
				c1.339,0,2.429-1.086,2.429-2.426v-3.831c0-2.112,1.581-4.257,3.604-4.883l5.304-2.184c0.593-0.327,1.393-0.521,2.234-0.521
				c1.411,0,2.786,0.537,3.687,1.433l2.72,2.722c0.909,0.916,2.512,0.912,3.414,0.002l4.542-4.532
				c0.456-0.454,0.708-1.063,0.708-1.714c0-0.649-0.252-1.261-0.708-1.716l-2.729-2.723c-1.466-1.469-1.867-4.159-0.887-5.996
				l2.175-5.284c0.595-1.924,2.784-3.542,4.863-3.542h3.837c1.339,0,2.423-1.085,2.423-2.421V42.48c0-1.338-1.083-2.429-2.423-2.429
				h-3.837c-2.115,0-4.264-1.581-4.889-3.602l-2.185-5.291c-0.957-1.795-0.568-4.428,0.922-5.927l2.729-2.724
				c0.456-0.457,0.708-1.063,0.708-1.717c0-0.65-0.252-1.259-0.708-1.716l-4.534-4.521c-0.909-0.916-2.512-0.916-3.421-0.002
				l-2.738,2.725c-1.421,1.426-4.203,1.851-5.995,0.884l-5.278-2.165c-1.957-0.606-3.538-2.753-3.538-4.869V7.287
				c0-1.337-1.09-2.427-2.429-2.427h-6.399c-1.337,0-2.427,1.09-2.427,2.427v3.841c0,2.116-1.581,4.263-3.599,4.892l-5.292,2.178
				c-0.598,0.324-1.397,0.515-2.239,0.515c-1.412,0-2.786-0.537-3.682-1.438l-2.729-2.718c-0.915-0.915-2.514-0.91-3.428,0
				l-4.522,4.521c-0.456,0.457-0.709,1.065-0.709,1.716c0,0.653,0.253,1.26,0.709,1.716l2.718,2.723
				c1.5,1.505,1.888,4.142,0.883,6.002l-2.167,5.286c-0.613,1.956-2.756,3.539-4.863,3.539l-3.845-0.006
				c-1.336,0-2.427,1.091-2.427,2.429v6.397c0,1.338,1.091,2.426,2.427,2.426h3.845c2.107,0,4.25,1.584,4.881,3.604l2.185,5.291
				c0.951,1.763,0.557,4.456-0.919,5.929l-2.725,2.721c-0.456,0.455-0.703,1.062-0.703,1.716c0,0.651,0.247,1.26,0.703,1.714
				l4.528,4.53c0.915,0.909,2.514,0.912,3.428,0l2.729-2.722C26.633,73.191,28.013,72.654,29.419,72.654z M46.19,62.447
				c-9.253,0-16.779-7.524-16.779-16.771c0-9.25,7.526-16.774,16.779-16.774c9.252,0,16.779,7.524,16.779,16.774
				C62.969,54.923,55.442,62.447,46.19,62.447z M46.19,30.452c-8.398,0-15.228,6.83-15.228,15.225c0,8.391,6.83,15.22,15.228,15.22
				c8.399,0,15.229-6.829,15.229-15.22C61.419,37.282,54.589,30.452,46.19,30.452z"/>
		</g>
	</g>
	<g id="crm">
		<g display="inline">
			<path d="M64.094,42.858c-3.26,0-6.344-1.557-8.468-4.275c-1.902-2.423-2.856-5.225-2.917-8.574
				c0.039-3.062,0.907-5.776,2.575-8.088c2.172-3.01,5.383-4.734,8.814-4.734c3.203,0,6.195,1.47,8.422,4.141
				c4.198,5.062,3.978,13.108-0.486,17.94C69.893,41.579,67.074,42.858,64.094,42.858z M64.098,18.736
				c-2.924,0-5.68,1.488-7.555,4.093c-1.479,2.045-2.248,4.461-2.285,7.176c0.055,2.971,0.901,5.473,2.588,7.621
				c1.826,2.339,4.468,3.683,7.247,3.683c2.541,0,4.957-1.101,6.802-3.093c3.958-4.282,4.15-11.41,0.432-15.896
				C69.402,20.007,66.832,18.736,64.098,18.736z"/>
		</g>
		<g display="inline">
			<path d="M64.006,73.158l0.385-1.659c6.095-0.018,11.994-0.466,17.531-1.339c0.774-0.121,1.536-0.25,2.294-0.383
				c1.184-4.219,1.545-7.755,1.139-11.086c-0.264-2.13-0.849-4.03-1.735-5.647c-1.5-2.738-3.963-4.772-7.322-6.05
				c-0.772-0.302-1.563-0.54-2.367-0.782l-1.114-0.339c-0.403-0.067-0.865-0.139-1.334-0.2c-4.466,2.902-10.318,2.906-14.815-0.046
				c-0.859,0.143-1.339,0.258-1.355,0.258c-0.339,0.109-0.719,0.219-1.098,0.327l-1.933-1.054c0.369-0.107,2.243-0.646,2.618-0.769
				c0.05-0.011,0.689-0.163,1.826-0.345l0.307-0.049l0.252,0.175C61.384,47,66.793,47,70.861,44.22l0.247-0.164l0.292,0.037
				c0.585,0.078,1.176,0.169,1.785,0.278l1.192,0.357c0.844,0.255,1.675,0.502,2.479,0.825c3.702,1.404,6.439,3.675,8.124,6.744
				c0.979,1.787,1.626,3.875,1.911,6.207c0.447,3.638,0.038,7.471-1.285,12.055l-0.142,0.515L84.97,71.22
				c-0.923,0.171-1.856,0.327-2.806,0.473C76.548,72.575,70.178,73.14,64.006,73.158z"/>
		</g>
		<g display="inline">
			<path d="M34.031,42.889c-4.028,0-7.847-1.927-10.471-5.274c-2.361-3.021-3.549-6.504-3.623-10.644
				c0.051-3.804,1.128-7.175,3.198-10.046c2.692-3.723,6.665-5.861,10.9-5.861c3.971,0,7.668,1.823,10.414,5.135
				c5.214,6.28,4.945,16.264-0.6,22.259C41.204,41.313,37.717,42.889,34.031,42.889z M34.035,12.613c-3.733,0-7.244,1.9-9.638,5.219
				c-1.886,2.604-2.864,5.681-2.912,9.133c0.07,3.771,1.148,6.951,3.297,9.693c2.329,2.974,5.697,4.679,9.249,4.679
				c3.249,0,6.332-1.396,8.681-3.935c5.035-5.443,5.279-14.513,0.544-20.212C40.811,14.236,37.535,12.613,34.035,12.613z"/>
		</g>
		<g display="inline">
			<path d="M34.062,80.296c-7.764,0-15.345-0.569-22.528-1.688c-1.264-0.194-2.512-0.399-3.736-0.631l-0.366-0.065l-0.175-0.334
				c-0.112-0.211-0.196-0.417-0.263-0.653c-0.437-1.593-0.783-3.083-1.056-4.573c-0.697-3.77-0.827-7.161-0.399-10.369
				c0.359-2.745,1.152-5.251,2.358-7.443c2.012-3.657,5.219-6.401,9.536-8.15l0.361-0.151c0.198-0.084,0.399-0.161,0.611-0.248
				c0.913-0.327,1.835-0.594,2.772-0.871c0.456-0.134,0.915-0.267,1.379-0.407c0.042-0.01,0.835-0.206,2.263-0.423l0.307-0.049
				l0.255,0.175c5.158,3.573,12.07,3.585,17.256,0.056l0.251-0.169l0.773,0.113c0.578,0.087,1.164,0.172,1.762,0.279l1.435,0.437
				c1.057,0.315,2.101,0.631,3.117,1.016h0.007l0.281,0.123c4.467,1.762,7.767,4.546,9.81,8.271c1.225,2.223,2.025,4.82,2.379,7.721
				c0.39,3.179,0.251,6.484-0.424,10.105c-0.296,1.594-0.7,3.271-1.193,4.971l-0.173,0.569l-0.604,0.108
				c-1.009,0.206-2.187,0.4-3.382,0.583C49.461,79.727,41.853,80.296,34.062,80.296z M49.424,47.593
				c-0.985-0.375-1.992-0.678-3.011-0.981l-1.365-0.417c-0.484-0.078-1.055-0.164-1.616-0.248l-0.177-0.025
				c-5.583,3.658-12.935,3.646-18.499-0.054c-1.139,0.181-1.774,0.333-1.789,0.341c-0.427,0.127-0.894,0.265-1.353,0.397
				c-0.909,0.266-1.804,0.526-2.674,0.842c-0.185,0.066-0.369,0.146-0.552,0.218l-0.379,0.157c-3.971,1.617-6.919,4.124-8.758,7.46
				c-1.112,2.023-1.844,4.342-2.177,6.904c-0.405,3.045-0.281,6.279,0.388,9.888c0.265,1.441,0.6,2.888,1.025,4.43
				c0,0.008,0.003,0.02,0.008,0.027c1.075,0.193,2.167,0.374,3.276,0.544c14.23,2.221,30.415,2.221,44.663-0.014
				c1.021-0.15,2.023-0.319,3.01-0.502c0.437-1.536,0.791-3.04,1.057-4.479c0.649-3.465,0.782-6.613,0.413-9.634
				c-0.331-2.701-1.07-5.111-2.198-7.165c-1.865-3.396-4.902-5.944-9.021-7.574"/>
		</g>
	</g>
	<g id="financieel">
		<path display="inline" d="M67.835,9.074c3.935,0,7.125,3.188,7.125,7.12v58.964c0,3.939-3.189,7.123-7.125,7.123H24.523
			c-3.935,0-7.125-3.184-7.125-7.123V16.194c0-3.933,3.189-7.12,7.125-7.12H67.835 M67.835,7.526H24.523
			c-4.784,0-8.674,3.889-8.674,8.668v58.964c0,4.789,3.89,8.675,8.674,8.675h43.312c4.784,0,8.674-3.886,8.674-8.675V16.194
			C76.509,11.415,72.619,7.526,67.835,7.526L67.835,7.526z"/>
		<g display="inline">
			<path d="M58.202,62.814c-1.647,1.255-4.436,2.508-8.251,2.508c-4.038,0-7.504-1.486-10.122-4.212
				c-2.499-2.619-4.152-6.486-4.614-11.212h-3.461v-2.102h3.291c0-0.229,0-0.514,0-0.738c0-1.081,0.06-2.098,0.119-3.075h-3.41
				v-2.101h3.748c0.629-4.559,2.505-8.196,5.119-10.755c2.678-2.559,5.861-4.039,10.016-4.039c3.411,0,5.743,1.02,7.054,1.871
				l-0.855,2.113c-1.42-0.971-3.805-1.703-6.373-1.703c-3.294,0-5.852,1.136-7.906,3.066c-2.22,2.102-3.696,5.461-4.377,9.446
				h16.952v2.101H37.896c-0.115,0.852-0.115,1.823-0.115,2.785c0,0.407,0,0.691,0,1.028h17.351v2.102H37.896
				c0.508,4.269,1.87,7.401,3.92,9.562c2.222,2.386,5.18,3.524,8.423,3.524c3.3,0,5.858-1.249,7.22-2.102L58.202,62.814z"/>
		</g>
	</g>
	<g id="home">
		<path display="inline" d="M72.57,82.609H19.789c-4.992,0-9.057-4.063-9.057-9.059V44.149c0-2.122,0.749-4.182,2.109-5.805
			l26.936-26.941c1.711-1.711,3.987-2.652,6.405-2.652c2.417,0,4.693,0.941,6.406,2.652l26.886,26.891
			c1.405,1.674,2.152,3.733,2.152,5.855V73.55C81.625,78.545,77.563,82.609,72.57,82.609z M46.182,10.301
			c-2.007,0-3.89,0.782-5.31,2.199L13.981,39.391c-1.078,1.292-1.698,3.001-1.698,4.758V73.55c0,4.142,3.366,7.509,7.505,7.509
			H72.57c4.14,0,7.503-3.367,7.503-7.509V44.149c0-1.757-0.619-3.466-1.742-4.808L51.49,12.5
			C50.07,11.083,48.188,10.301,46.182,10.301z"/>
	</g>
	<g id="hrm">
		<path display="inline" d="M46.177,7.34c-21.14,0-38.338,17.199-38.338,38.342c0,9.436,3.493,18.521,9.838,25.581l0.975,1.087
			l0.021-0.087c7.221,7.465,17.145,11.757,27.505,11.757c10.277,0,20.147-4.236,27.354-11.608l0.022,0.085l0.992-1.09
			c6.43-7.087,9.973-16.226,9.973-25.725C84.519,24.539,67.32,7.34,46.177,7.34z M19.126,70.526
			c0.452-1.721,0.954-3.118,1.584-4.269c1.885-3.423,4.913-6,9.009-7.662l0.272-0.11c0.221-0.096,0.444-0.188,0.669-0.274
			c0.894-0.324,1.809-0.59,2.737-0.863c0.475-0.138,0.955-0.278,1.391-0.412c0.015-0.005,0.674-0.162,1.852-0.35
			c5.702,3.8,13.243,3.818,18.972,0.053l0.334,0.055c0.528,0.077,1.064,0.159,1.517,0.234l1.324,0.402
			c1.075,0.322,2.134,0.638,3.164,1.032l0.278-0.724v0.84c4.232,1.674,7.35,4.288,9.268,7.779c0.65,1.188,1.161,2.601,1.609,4.391
			C66.145,78.157,56.362,82.47,46.177,82.47C35.929,82.47,26.103,78.115,19.126,70.526z M74.352,69.272
			c-0.42-1.469-0.904-2.685-1.496-3.759c-2.099-3.817-5.479-6.669-10.058-8.477l-0.287-0.121h-0.001
			c-1.079-0.411-2.197-0.748-3.278-1.072l-1.395-0.416c-0.56-0.105-1.115-0.186-1.66-0.269l-0.933-0.145l-0.251,0.172
			c-5.32,3.632-12.427,3.615-17.729-0.051l-0.254-0.175l-0.305,0.045c-1.463,0.224-2.281,0.422-2.33,0.432
			c-0.475,0.149-0.943,0.288-1.412,0.425c-0.959,0.282-1.906,0.558-2.838,0.894c-0.252,0.097-0.494,0.198-0.735,0.299l-0.257,0.109
			c-4.428,1.796-7.72,4.602-9.778,8.35c-0.571,1.04-1.046,2.21-1.468,3.624c-5.492-6.608-8.5-14.884-8.5-23.456
			c0-20.288,16.503-36.79,36.791-36.79c20.288,0,36.79,16.502,36.79,36.79C82.967,54.316,79.918,62.634,74.352,69.272z"/>
		<path display="inline" d="M46.156,22.925c-4.341,0-8.41,2.189-11.168,6.005c-2.121,2.942-3.224,6.396-3.276,10.289
			c0.072,4.246,1.287,7.815,3.712,10.918c2.688,3.435,6.6,5.4,10.729,5.4c3.772,0,7.345-1.609,10.06-4.537
			c5.683-6.149,5.958-16.382,0.616-22.816C54.013,24.794,50.223,22.925,46.156,22.925z M55.076,49.947
			c-2.416,2.605-5.585,4.041-8.922,4.041c-3.651,0-7.114-1.754-9.507-4.808c-2.208-2.824-3.317-6.091-3.383-9.965
			c0.048-3.543,1.052-6.701,2.984-9.378c2.458-3.408,6.074-5.363,9.909-5.363c3.596,0,6.963,1.671,9.479,4.703
			C60.502,35.033,60.25,44.349,55.076,49.947z"/>
	</g>
	<g id="acquisitie">
		<path display="inline" d="M85.549,14.733c-0.118-0.291-0.402-0.482-0.717-0.482h-7.112V6.922c0-0.316-0.19-0.597-0.481-0.718
			c-0.282-0.12-0.625-0.052-0.844,0.172l-9.116,9.25c-6.503-4.633-14.156-7.093-22.186-7.093c-21.14,0-38.338,17.2-38.338,38.34
			c0,21.14,17.198,38.341,38.338,38.341c21.143,0,38.341-17.202,38.341-38.341c0-8.093-2.499-15.794-7.2-22.334l9.14-8.959
			C85.597,15.359,85.666,15.026,85.549,14.733z M76.169,8.813v5.885L61.792,29.078v-5.675L76.169,8.813z M81.881,46.873
			c0,20.288-16.502,36.79-36.79,36.79c-20.288,0-36.791-16.502-36.791-36.79c0-20.288,16.503-36.791,36.791-36.791
			c7.624,0,14.884,2.317,21.08,6.667l-5.706,5.792c-0.145,0.145-0.224,0.342-0.224,0.544v7.543l-0.493,0.493
			c-3.849-3.586-8.994-5.799-14.657-5.799c-11.881,0-21.549,9.668-21.549,21.551c0,11.881,9.668,21.55,21.549,21.55
			c11.884,0,21.55-9.669,21.55-21.55c0-5.663-2.213-10.804-5.795-14.657l0.495-0.493l7.28-0.033c0.205,0,0.398-0.081,0.54-0.221
			l5.95-5.832C79.529,31.871,81.881,39.186,81.881,46.873z M47.647,43.222c-0.724-0.508-1.605-0.811-2.556-0.811
			c-2.463,0-4.462,1.997-4.462,4.461c0,2.463,2,4.462,4.462,4.462c2.464,0,4.464-2,4.464-4.462c0-0.951-0.305-1.83-0.813-2.556
			L59.75,33.313c3.303,3.569,5.341,8.326,5.341,13.56c0,11.029-8.97,20-20,20c-11.029,0-20-8.97-20-20
			c0-11.031,8.97-20.001,20-20.001c5.238,0,9.994,2.039,13.562,5.341L47.647,43.222z M68.301,30.139l-5.405,0.025L77.26,15.8h5.672
			L68.301,30.139z"/>
	</g>
	<g id="projecten">
		<path display="inline" d="M80.345,66.492L58.603,44.756L79.98,23.381c0.904-0.902,0.904-2.381,0-3.29l-8.223-8.22
			c-0.877-0.876-2.411-0.876-3.288,0L47.097,33.248L25.358,11.509c-0.888-0.879-2.41-0.879-3.291,0L12.022,21.555
			c-0.439,0.434-0.681,1.02-0.685,1.641c0,0.622,0.242,1.205,0.685,1.65L33.76,46.579l-19.411,19.41
			c-0.121,0.123-0.197,0.275-0.221,0.443l-1.644,12.054c-0.028,0.242,0.049,0.481,0.223,0.655c0.145,0.144,0.344,0.227,0.548,0.227
			c0.033,0,0.069-0.003,0.104-0.006l12.06-1.644c0.166-0.024,0.324-0.102,0.444-0.225L45.27,58.09l21.736,21.738
			c0.444,0.44,1.028,0.682,1.648,0.682c0.617,0,1.202-0.241,1.642-0.682l10.048-10.046C81.246,68.877,81.246,67.4,80.345,66.492z
			 M12.886,23.196c0-0.2,0.082-0.397,0.231-0.543l10.044-10.049c0.146-0.144,0.342-0.227,0.551-0.227
			c0.207,0,0.404,0.083,0.549,0.227l2.921,2.923l-1.281,1.28L27,17.9l1.279-1.28l3.646,3.646l-3.112,3.106l1.097,1.094l3.109-3.103
			l3.803,3.801l-1.282,1.274l1.097,1.097l1.281-1.273l3.642,3.64l-3.105,3.105l1.094,1.097l3.107-3.104L46,34.342L34.855,45.485
			L13.118,23.749C12.968,23.599,12.886,23.405,12.886,23.196z M47.642,34.892L47.642,34.892l21.923-21.924
			c0.297-0.295,0.799-0.295,1.097,0l8.221,8.22c0.305,0.302,0.305,0.795,0,1.097L57.507,43.658l0,0L44.722,56.442L25.621,75.543
			l-9.315-9.317l18.55-18.55L47.642,34.892z M14.511,75.118l1.021-7.476l8.673,8.675l-7.476,1.019L14.511,75.118z M79.248,68.688
			L69.202,78.731c-0.293,0.294-0.812,0.284-1.099,0L46.366,56.993l11.141-11.141l3.33,3.327l-3.103,3.108l1.097,1.097l3.102-3.108
			l3.804,3.806l-1.276,1.279l1.097,1.097l1.276-1.279l3.642,3.644l-3.104,3.105l1.097,1.097l3.103-3.108l3.564,3.563l-1.279,1.278
			l1.097,1.098l1.278-1.279l3.016,3.013C79.547,67.891,79.547,68.384,79.248,68.688z"/>
	</g>
	<g id="factureren">
		<path display="inline" d="M23.17,22.652c0.116,0,0.233-0.021,0.342-0.078c0.384-0.191,0.543-0.658,0.352-1.04
			c-0.093-0.191-0.111-0.521-0.118-0.628c-0.173-3.001,0.51-5.572,2.08-7.849c3.005-4.338,8.716-6.116,13.597-4.221
			c3.826,1.484,6.269,4.28,7.262,8.312c0.104,0.415,0.524,0.664,0.94,0.568c0.417-0.102,0.667-0.523,0.567-0.936
			c-1.121-4.555-3.884-7.718-8.208-9.392c-5.537-2.149-12.023-0.135-15.432,4.785c-1.777,2.574-2.548,5.458-2.357,8.821
			c0.022,0.323,0.07,0.798,0.282,1.225C22.611,22.496,22.886,22.652,23.17,22.652z"/>
		<path display="inline" d="M88.309,47.317l-0.006-0.437c-0.017-0.942-0.484-1.946-1.26-2.699c-0.783-0.753-1.802-1.109-2.737-1.145
			c-0.79,0.012-1.587,0.008-2.373,0.008l-0.593-0.003c-1.222-0.009-1.603-0.304-1.856-1.452c-1.082-4.818-3.427-8.758-6.977-11.714
			c-1.609-1.342-3.418-2.241-5.128-3.049c-0.611-0.292-0.782-0.599-0.758-1.362c0.051-2.013,0.431-4.137,1.188-6.702l0.109-0.355
			c0.387-1.279,0.787-2.597,0.356-4.092c-0.022-0.084-0.165-0.308-0.22-0.38c-0.136-0.191-0.351-0.311-0.589-0.323l-0.442-0.023
			c-0.667-0.045-1.152-0.075-1.827,0.099c-1.852,0.46-3.327,1.521-4.562,2.475c-2.052,1.581-3.76,3.603-5.144,6.146
			c-0.088,0.158-0.206,0.389-0.292,0.451c-0.083,0.066-0.152,0.141-0.199,0.228c-0.717-0.018-1.435-0.158-2.192-0.305
			c-0.466-0.086-0.933-0.18-1.505-0.251c-1.326-0.18-2.695-0.368-4.056-0.448c-0.822-0.057-1.646-0.043-2.464-0.036
			c-0.333,0.006-0.667,0.012-1.003,0.012c-0.189-0.006-0.378-0.006-0.563,0c-4.395,0-8.722,0.702-12.869,2.089
			c-6.443,2.165-11.405,5.384-15.178,9.847c-1.545,1.835-2.554,3.978-3.369,5.742c-0.058,0.08-0.442,0.678-0.817,1.883
			c-2.606-1.059-4.231-2.529-4.968-4.622c-0.841-2.385-0.527-4.516,0.933-6.342c0.917-1.142,1.816-1.608,2.994-1.521
			c0.435,0.099,0.795-0.287,0.823-0.717c0.03-0.432-0.293-0.799-0.72-0.823c-1.686-0.134-3.068,0.551-4.309,2.093
			c-1.789,2.242-2.201,4.944-1.181,7.828c0.902,2.564,2.918,4.396,6.056,5.628c-0.03,0.162-0.07,0.276-0.1,0.458l-0.149,0.879
			c-0.233,1.374-0.476,2.794-0.584,4.224c-0.184,2.298-0.278,5.013,0.404,7.711c0.856,3.405,2.537,6.585,4.998,9.454
			c1.575,1.845,3.337,3.429,4.851,4.737c0.76,0.658,0.875,1.34,0.426,2.505c-0.479,1.243-0.946,2.487-1.403,3.742
			c-0.858,2.323,0.036,4.616,2.118,5.446c1.723,0.699,3.632,1.414,6.002,2.26c2.494,0.888,4.717-0.126,5.652-2.594l0.366-1.005
			c0.36-0.998,0.699-1.94,1.16-2.849c0.408-0.804,0.663-0.908,1.723-0.756c0.572,0.087,1.14,0.188,1.709,0.287
			c1.019,0.179,2.043,0.358,3.084,0.463c3.751,0.38,7.467,0.068,11.263-0.313c1.148-0.138,1.674,0.185,2.083,1.273l0.317,0.879
			c0.262,0.726,0.521,1.446,0.828,2.143c0.808,1.861,2.092,2.84,3.689,2.84c0.422,0,0.862-0.069,1.323-0.204
			c2.936-0.869,5.109-1.715,7.042-2.746c1.79-0.954,2.471-2.808,1.781-4.83c-0.173-0.515-0.373-1.023-0.572-1.521
			c-0.861-2.17-0.827-2.271,1.259-3.552c2.092-1.284,3.745-2.636,5.053-4.134c1.683-1.918,3.063-3.99,4.108-6.157
			c0.521-1.09,1.269-1.566,2.559-1.526c1.023,0.029,2.065-0.03,3.225-0.087c1.784-0.093,3.36-1.666,3.438-3.438
			C88.395,53.516,88.35,50.365,88.309,47.317z M86.714,56.558c-0.044,0.978-0.982,1.91-2.094,1.964
			c-0.999,0.048-1.997,0.099-2.997,0.083c-1.86,0.066-3.203,0.778-3.981,2.403c-0.98,2.042-2.283,3.994-3.875,5.809
			c-1.223,1.398-2.714,2.612-4.697,3.835c-2.738,1.677-3.039,2.54-1.891,5.443c0.194,0.477,0.382,0.962,0.548,1.449
			c0.438,1.294,0.06,2.376-1.042,2.962c-1.841,0.98-3.924,1.791-6.758,2.624c-0.898,0.275-2.216,0.38-3.15-1.77
			c-0.295-0.666-0.54-1.352-0.79-2.041l-0.321-0.894c-0.584-1.566-1.584-2.308-3.125-2.308c-0.185,0-0.375,0.006-0.572,0.026
			c-3.705,0.38-7.336,0.69-10.946,0.313c-1.001-0.098-1.989-0.271-2.976-0.448c-0.581-0.099-1.161-0.2-1.743-0.286
			c-1.466-0.23-2.522-0.036-3.343,1.59c-0.499,0.992-0.873,2.023-1.233,3.021l-0.358,0.987c-0.638,1.691-1.941,2.292-3.678,1.673
			c-2.354-0.837-4.24-1.545-5.944-2.232c-1.294-0.521-1.806-1.952-1.245-3.479c0.458-1.241,0.916-2.481,1.399-3.716
			c0.434-1.127,0.81-2.792-0.862-4.235c-1.469-1.273-3.177-2.807-4.684-4.573c-2.304-2.688-3.875-5.655-4.675-8.826
			c-0.626-2.481-0.533-5.037-0.36-7.213c0.105-1.357,0.342-2.744,0.569-4.083l0.148-0.888c0.381-2.269,1.013-3.201,1.09-3.33
			c0.847-1.805,1.811-3.847,3.228-5.532c3.578-4.238,8.315-7.299,14.48-9.37c3.99-1.337,8.152-2.01,12.376-2.01
			c0.081,0,0.163,0,0.245,0c0.448,0,0.896,0,1.343-0.012c0.781-0.005,1.566-0.021,2.348,0.03c1.308,0.081,2.65,0.264,4.049,0.451
			c0.441,0.061,0.878,0.144,1.316,0.23c0.85,0.164,1.73,0.332,2.654,0.332c0.247-0.009,0.602-0.162,0.738-0.428
			c0.081-0.029,0.163-0.068,0.236-0.123c0.351-0.269,0.551-0.648,0.777-1.072c1.212-2.222,2.777-4.078,4.66-5.527
			c1.381-1.066,2.587-1.85,3.99-2.203c0.421-0.107,0.725-0.096,1.3-0.057c0.139,0.927-0.144,1.851-0.436,2.825l-0.111,0.367
			c-0.798,2.699-1.197,4.953-1.252,7.094c-0.032,0.929,0.13,2.095,1.644,2.81c1.623,0.768,3.332,1.616,4.803,2.839
			c3.322,2.771,5.433,6.328,6.449,10.862c0.414,1.855,1.42,2.657,3.365,2.663h0.592c0.803,0,1.607,0.009,2.408-0.003
			c0.009,0,0.022,0,0.031,0c0.559,0,1.125,0.251,1.598,0.709c0.481,0.46,0.783,1.081,0.789,1.607l0.008,0.434
			C86.8,50.365,86.845,53.492,86.714,56.558z"/>
		<path display="inline" d="M67.437,43.401c-2.06,0-3.724,1.667-3.724,3.722c0,2.059,1.665,3.727,3.724,3.727
			c2.058,0,3.723-1.668,3.723-3.727C71.16,45.068,69.495,43.401,67.437,43.401z"/>
	</g>
	<g id="abonnementen">
		<path display="inline" d="M46.178,7.338c-21.14,0-38.34,17.202-38.34,38.34c0,21.145,17.2,38.343,38.34,38.343
			c21.143,0,38.341-17.198,38.341-38.343C84.52,24.541,67.321,7.338,46.178,7.338z M46.178,82.47
			c-20.286,0-36.79-16.502-36.79-36.792c0-20.286,16.504-36.785,36.79-36.785c20.288,0,36.792,16.499,36.792,36.785
			C82.97,65.968,66.466,82.47,46.178,82.47z"/>
		<path display="inline" d="M22.849,45.278c0-6.005,2.337-11.651,6.585-15.896c6.59-6.585,16.683-8.3,25.088-4.54l-4.891,2.293
			c-0.387,0.182-0.553,0.645-0.373,1.031c0.133,0.283,0.411,0.448,0.703,0.448c0.111,0,0.22-0.027,0.33-0.075l6.437-3.016
			c0.078-0.036,0.104-0.122,0.163-0.183c0.061-0.054,0.147-0.074,0.188-0.152c0.006-0.009-0.003-0.023,0.001-0.039
			c0.009-0.018,0.022-0.029,0.031-0.048c0.033-0.083,0.003-0.177,0.003-0.269c0.003-0.096,0.03-0.18,0-0.264
			c-0.007-0.012,0.006-0.029,0-0.038l-0.017-0.036v-0.007l-2.665-6.59c-0.163-0.4-0.622-0.595-1.011-0.428
			c-0.396,0.162-0.587,0.61-0.427,1.007l1.973,4.873c-8.952-3.919-19.634-2.06-26.63,4.934c-4.539,4.539-7.039,10.573-7.039,16.993
			c0,6.418,2.5,12.455,7.039,16.995c0.151,0.15,0.348,0.225,0.549,0.225c0.2,0,0.396-0.074,0.547-0.225
			c0.303-0.302,0.303-0.795,0-1.097C25.187,56.926,22.849,51.286,22.849,45.278z"/>
		<path display="inline" d="M62.921,29.086c-0.302,0.302-0.302,0.795,0,1.098c8.764,8.767,8.763,23.029-0.001,31.794
			c-6.584,6.587-16.674,8.312-25.086,4.536l4.893-2.289c0.385-0.183,0.553-0.646,0.372-1.034c-0.185-0.392-0.64-0.541-1.033-0.373
			l-6.438,3.016c-0.079,0.042-0.104,0.126-0.166,0.188c-0.06,0.055-0.145,0.073-0.184,0.146c-0.006,0.013,0.003,0.027-0.003,0.04
			c-0.009,0.017-0.022,0.033-0.032,0.05c-0.033,0.084-0.001,0.174-0.001,0.27c-0.002,0.09-0.031,0.179,0,0.264
			c0.006,0.009-0.007,0.023,0,0.038l0.015,0.036c0,0.003,0,0.003,0,0.003l0,0l2.667,6.594c0.12,0.302,0.412,0.484,0.718,0.484
			c0.097,0,0.197-0.019,0.29-0.06c0.396-0.158,0.587-0.61,0.428-1.008l-1.951-4.818c3.058,1.333,6.307,2.023,9.555,2.023
			c6.256-0.003,12.457-2.409,17.052-7.009c9.369-9.371,9.369-24.617,0.001-33.988C63.715,28.785,63.225,28.785,62.921,29.086z"/>
	</g>
	<g id="uren_1_" display="inline">
		<path d="M46.166,9.338c-21.14,0-38.34,17.202-38.34,38.347c0,21.138,17.2,38.336,38.34,38.336
			c21.143,0,38.342-17.198,38.342-38.336C84.507,26.541,67.308,9.338,46.166,9.338z M46.166,84.47
			c-20.286,0-36.79-16.502-36.79-36.785c0-20.293,16.504-36.792,36.79-36.792c20.288,0,36.792,16.499,36.792,36.792
			C82.958,67.968,66.454,84.47,46.166,84.47z"/>
		<path d="M46.941,44.113V16.339c0-0.425-0.349-0.774-0.776-0.774c-0.426,0-0.774,0.35-0.774,0.774v27.773
			c-1.676,0.368-2.95,1.791-2.95,3.572c0,1.774,1.274,3.194,2.95,3.562v3.709c0,0.425,0.348,0.774,0.774,0.774
			c0.427,0,0.776-0.35,0.776-0.774v-3.709c1.672-0.368,2.948-1.788,2.948-3.562C49.89,45.904,48.614,44.481,46.941,44.113z"/>
		<path d="M40.235,6.404h11.859c0.428,0,0.774-0.35,0.774-0.774c0-0.428-0.347-0.777-0.774-0.777H40.235
			c-0.427,0-0.774,0.35-0.774,0.777C39.461,6.054,39.808,6.404,40.235,6.404z"/>
		<rect x="72.936" y="17.08" transform="matrix(0.7072 0.707 -0.707 0.7072 34.8416 -48.42)" width="5.885" height="1.549"/>
		<path d="M82.624,19.499c0.151,0.152,0.349,0.23,0.548,0.23c0.196,0,0.395-0.078,0.548-0.23c0.302-0.302,0.302-0.795,0-1.097
			l-8.384-8.385c-0.3-0.302-0.791-0.302-1.097,0c-0.302,0.302-0.302,0.789,0,1.097L82.624,19.499z"/>
	</g>
</g>
<g id="medium">
	<g display="none">
		<path display="inline" d="M65.867,42.888c3.213,0,6.251-1.368,8.55-3.859c4.745-5.13,4.975-13.679,0.516-19.06
			c-2.39-2.865-5.607-4.44-9.064-4.44c-3.699,0-7.159,1.849-9.49,5.079c-1.772,2.459-2.69,5.345-2.735,8.605
			c0.066,3.542,1.077,6.511,3.098,9.08C59.025,41.214,62.348,42.888,65.867,42.888z M56.759,29.201
			c0.034-2.562,0.759-4.844,2.153-6.768c1.736-2.407,4.271-3.791,6.958-3.791c2.515,0,4.88,1.18,6.667,3.318
			c3.5,4.223,3.317,10.928-0.406,14.952c-1.706,1.842-3.927,2.86-6.263,2.86c-2.552,0-4.981-1.242-6.674-3.402
			C57.609,34.35,56.811,31.993,56.759,29.201z"/>
		<path display="inline" d="M89.554,58.91c-0.301-2.446-0.978-4.636-2.014-6.522c-1.787-3.249-4.668-5.653-8.562-7.126
			c-0.83-0.329-1.681-0.591-2.554-0.854l-1.29-0.377c-0.619-0.109-1.226-0.201-1.822-0.285l-0.589-0.079l-0.494,0.341
			c-3.766,2.562-8.99,2.55-12.764-0.05l-0.509-0.354l-0.615,0.101c-1.188,0.182-1.682,0.248-1.783,0.28
			c-0.372,0.115-1.929,0.51-2.298,0.621l-1.819,0.523l3.573,2.269l1.212-0.317c0.072-0.018,0.423-0.094,1.009-0.199
			c4.561,2.854,10.677,2.86,15.235,0.036c0.366,0.054,0.702,0.104,0.937,0.132l1.201,0.372c0.758,0.225,1.509,0.451,2.248,0.744
			c3.196,1.211,5.535,3.14,6.955,5.72c0.842,1.541,1.399,3.359,1.65,5.403c0.379,3.13,0.071,6.433-0.992,10.364
			c-0.596,0.103-1.197,0.201-1.805,0.3c-5.519,0.862-11.404,1.313-17.5,1.332l-1.383-0.019l-0.754,3.225l1.753,0.018
			c5.964-0.018,12.31-0.529,18.367-1.477c0.959-0.153,1.903-0.312,2.925-0.5l0.908-0.274l0.256-0.923
			C89.597,66.623,90.015,62.673,89.554,58.91z"/>
		<path display="inline" d="M32.538,42.918c3.92,0,7.628-1.673,10.44-4.707c5.826-6.3,6.109-16.8,0.63-23.391
			c-2.91-3.511-6.842-5.445-11.07-5.445c-4.508,0-8.729,2.264-11.585,6.213c-2.178,3.018-3.309,6.567-3.364,10.563
			c0.08,4.34,1.326,7.991,3.811,11.168C24.186,40.879,28.245,42.918,32.538,42.918z M40.686,36.097
			c-2.21,2.393-5.102,3.704-8.148,3.704c-3.327,0-6.494-1.605-8.683-4.404c-2.053-2.618-3.082-5.653-3.147-9.251
			c0.042-3.309,0.978-6.248,2.773-8.732c2.26-3.127,5.562-4.922,9.056-4.922c3.282,0,6.361,1.532,8.672,4.32
			C45.726,22.244,45.492,30.899,40.686,36.097z"/>
		<path display="inline" d="M59.391,54.646c-2.145-3.913-5.592-6.829-10.235-8.654l-0.281-0.122l-0.172-0.066
			c-0.971-0.367-1.965-0.663-3.053-0.991l-1.527-0.457c-0.607-0.107-1.208-0.2-1.797-0.287l-1.077-0.155l-0.504,0.339
			c-4.857,3.312-11.633,3.293-16.464-0.049l-0.509-0.354l-0.612,0.091c-1.435,0.22-2.268,0.422-2.385,0.45l-1.414,0.422
			c-0.944,0.28-1.87,0.552-2.81,0.889c-0.224,0.085-0.429,0.169-0.63,0.257l-0.36,0.144c-4.506,1.831-7.862,4.704-9.974,8.545
			c-1.257,2.282-2.084,4.887-2.463,7.747c-0.436,3.312-0.308,6.795,0.409,10.668c0.274,1.484,0.622,3.006,1.08,4.661
			c0.077,0.293,0.183,0.549,0.326,0.816l0.352,0.665l0.736,0.139c1.24,0.23,2.504,0.443,3.78,0.641
			c7.259,1.129,14.921,1.701,22.761,1.701c7.87,0,15.558-0.579,22.841-1.716c1.219-0.188,2.412-0.386,3.42-0.591l1.08-0.194
			l0.313-1.035c0.504-1.753,0.915-3.457,1.22-5.075c0.692-3.717,0.833-7.119,0.431-10.389
			C61.505,59.666,60.668,56.958,59.391,54.646z M54.933,76.888c-7.093,1.107-14.619,1.674-22.362,1.674l0,0
			c-7.718,0-15.215-0.56-22.287-1.66c-0.945-0.148-1.875-0.3-2.793-0.464c-0.363-1.361-0.655-2.66-0.889-3.938
			c-0.659-3.541-0.784-6.713-0.385-9.699c0.322-2.472,1.029-4.711,2.098-6.658c1.757-3.189,4.586-5.6,8.418-7.157l0.38-0.158
			c0.176-0.073,0.353-0.14,0.52-0.21c0.861-0.307,1.743-0.562,2.644-0.823l1.343-0.402c0.078-0.018,0.575-0.135,1.42-0.274
			c5.624,3.597,13.294,3.621,18.94,0.05c0.522,0.077,1.042,0.158,1.401,0.211l1.377,0.416c1.002,0.304,2.002,0.601,2.942,0.96
			l0.292,0.122c3.968,1.571,6.886,4.011,8.672,7.267c1.083,1.97,1.797,4.304,2.116,6.92c0.362,2.956,0.23,6.042-0.406,9.438
			c-0.234,1.285-0.547,2.617-0.916,3.974C56.632,76.619,55.79,76.761,54.933,76.888z"/>
	</g>
	<g display="none">
		<path display="inline" d="M46.319,27.889c-9.729,0-17.644,7.91-17.644,17.637c0,9.724,7.914,17.634,17.644,17.634
			c9.725,0,17.639-7.91,17.639-17.634C63.958,35.799,56.043,27.889,46.319,27.889z M46.319,60.043
			c-8.01,0-14.529-6.511-14.529-14.518s6.519-14.521,14.529-14.521c8.005,0,14.524,6.515,14.524,14.521S54.324,60.043,46.319,60.043
			z"/>
		<path display="inline" d="M84.892,37.537h-3.858c-1.103,0-2.364-0.955-2.722-2.108l-2.285-5.526
			c-0.512-0.947-0.278-2.509,0.479-3.271l2.742-2.736c0.901-0.9,1.398-2.1,1.398-3.379c0-1.278-0.497-2.479-1.398-3.38l-4.558-4.539
			c-1.712-1.725-5.029-1.723-6.742-0.006l-2.753,2.744c-0.735,0.738-2.214,1.035-3.41,0.407l-5.507-2.255
			c-1.035-0.323-1.976-1.602-1.976-2.685v-3.86c0-2.633-2.142-4.776-4.776-4.776H43.09c-2.636,0-4.777,2.144-4.777,4.776v3.86
			c0,1.104-0.948,2.37-2.097,2.73l-5.532,2.278c-0.87,0.466-2.578,0.215-3.269-0.482l-2.742-2.736
			c-1.735-1.727-5.032-1.725-6.749,0.002l-4.547,4.543c-0.901,0.897-1.397,2.098-1.397,3.378s0.497,2.481,1.397,3.379l2.73,2.731
			c0.776,0.783,0.988,2.348,0.413,3.422l-2.253,5.512c-0.327,1.037-1.604,1.98-2.683,1.98l-3.863-0.003
			c-2.636,0-4.78,2.143-4.78,4.776v6.43c0,2.633,2.144,4.774,4.78,4.774h3.863c1.097,0,2.36,0.956,2.72,2.115l2.29,5.522
			c0.509,0.952,0.279,2.512-0.486,3.271l-2.739,2.739c-0.896,0.897-1.389,2.097-1.389,3.375c0,1.276,0.494,2.476,1.389,3.376
			l4.555,4.551c1.72,1.724,5.017,1.73,6.749,0.004l2.742-2.736c0.743-0.744,2.204-1.037,3.405-0.408l5.522,2.265
			c1.048,0.324,1.97,1.575,1.97,2.675v3.853c0,2.633,2.142,4.774,4.777,4.774h6.435c2.634,0,4.776-2.142,4.776-4.774v-3.853
			c0-1.098,0.951-2.36,2.105-2.723l5.545-2.29c0.845-0.458,2.583-0.198,3.262,0.481l2.73,2.731c1.716,1.727,5.026,1.725,6.746,0.001
			l4.558-4.55c0.901-0.897,1.398-2.096,1.398-3.377c0-1.279-0.497-2.48-1.398-3.379l-2.742-2.733
			c-0.771-0.776-0.98-2.341-0.413-3.416l2.269-5.515c0.314-1.035,1.589-1.979,2.672-1.979h3.858c2.632,0,4.773-2.139,4.773-4.77
			v-6.435C89.665,39.68,87.523,37.537,84.892,37.537z M75.426,54.444l-2.148,5.24c-1.154,2.162-0.704,5.21,1.025,6.946l2.741,2.733
			c0.312,0.314,0.487,0.731,0.487,1.176c0,0.441-0.176,0.859-0.487,1.172l-4.564,4.556c-0.575,0.582-1.747,0.584-2.328-0.001
			l-2.735-2.739c-1.05-1.042-2.638-1.665-4.256-1.665c-0.965,0-1.896,0.219-2.541,0.581l-5.266,2.171
			c-2.336,0.725-4.167,3.207-4.167,5.651v3.853c0,0.914-0.747,1.659-1.661,1.659H43.09c-0.915,0-1.663-0.745-1.663-1.659v-3.853
			c0-2.446-1.796-4.916-4.029-5.604l-5.242-2.147c-0.792-0.426-1.723-0.651-2.699-0.651c-1.622,0-3.205,0.624-4.243,1.665
			l-2.745,2.738c-0.292,0.29-0.717,0.458-1.167,0.458c-0.455,0-0.886-0.168-1.174-0.457l-4.554-4.553
			c-0.307-0.309-0.476-0.726-0.476-1.174c0-0.449,0.168-0.867,0.476-1.174l2.739-2.734c1.708-1.704,2.185-4.791,1.098-6.809
			l-2.179-5.25c-0.725-2.339-3.207-4.17-5.647-4.17H7.722c-0.919,0-1.662-0.746-1.662-1.66v-6.43c0-0.916,0.743-1.661,1.662-1.661
			l3.863,0.006c2.438,0,4.911-1.804,5.606-4.04l2.146-5.24c1.164-2.156,0.712-5.21-1.024-6.951l-2.732-2.735
			c-0.311-0.317-0.482-0.733-0.482-1.176s0.172-0.86,0.482-1.175l4.547-4.543c0.582-0.582,1.752-0.587,2.341,0l2.745,2.732
			c1.04,1.046,2.632,1.673,4.252,1.673c0.962,0,1.894-0.218,2.547-0.574l5.251-2.165c2.336-0.728,4.162-3.213,4.162-5.661v-3.86
			c0-0.917,0.748-1.66,1.663-1.66h6.435c0.915,0,1.661,0.743,1.661,1.66v3.86c0,2.449,1.801,4.925,4.04,5.615l5.23,2.139
			c2.045,1.104,5.326,0.6,6.944-1.02l2.755-2.742c0.583-0.586,1.753-0.584,2.333,0.005l4.556,4.541
			c0.312,0.314,0.487,0.732,0.487,1.175s-0.176,0.861-0.487,1.174l-2.745,2.74c-1.725,1.733-2.189,4.753-1.094,6.804l2.173,5.25
			c0.724,2.336,3.207,4.169,5.655,4.169h3.858c0.916,0,1.659,0.745,1.659,1.661v6.435c0,0.911-0.743,1.655-1.659,1.655h-3.858
			C78.629,50.403,76.103,52.244,75.426,54.444z"/>
	</g>
	<g display="none">
		<path display="inline" d="M68.066,6.405h-43.53c-5.237,0-9.496,4.263-9.496,9.489V75.16c0,5.235,4.258,9.494,9.496,9.494h43.53
			c5.237,0,9.5-4.259,9.5-9.494V15.895C77.566,10.668,73.304,6.405,68.066,6.405z M68.066,81.541h-43.53
			c-3.518,0-6.379-2.862-6.379-6.381V15.895c0-3.516,2.862-6.376,6.379-6.376h43.53c3.517,0,6.38,2.86,6.38,6.376V75.16
			C74.447,78.679,71.583,81.541,68.066,81.541z"/>
		<path display="inline" d="M57.225,60.149c-1.186,0.745-3.653,1.993-6.842,1.993c-3.159,0-5.89-1.139-7.899-3.3
			c-1.856-1.956-3.071-4.746-3.618-8.292h17.212v-3.668H38.641v-0.255c0-0.685,0-1.388,0.044-2.023h17.394v-3.671H39.204
			c0.735-3.558,2.108-6.364,3.989-8.146c2.058-1.938,4.482-2.875,7.414-2.875c2.262,0,4.545,0.603,5.966,1.579l0.799,0.55
			l1.46-3.617l-0.535-0.353c-1.149-0.751-3.656-2.001-7.514-2.001c-4.126,0-7.596,1.396-10.612,4.276
			c-2.746,2.683-4.558,6.333-5.272,10.587h-3.875v3.671h3.381c-0.04,0.73-0.073,1.484-0.073,2.278h-3.308v3.668h3.564
			c0.562,4.535,2.2,8.331,4.768,11.023c2.809,2.926,6.521,4.475,10.739,4.475c4.561,0,7.449-1.676,8.763-2.676l0.465-0.36
			l-1.291-3.362L57.225,60.149z"/>
	</g>
	<path display="none" d="M80.314,37.556L53.294,10.529c-1.868-1.867-4.35-2.895-6.988-2.895c-2.645,0-5.125,1.027-6.989,2.895
		L12.197,37.655c-1.482,1.772-2.299,4.021-2.299,6.335v29.55c0,5.45,4.431,9.885,9.879,9.885h53.047
		c5.445,0,9.883-4.435,9.883-9.885V43.99C82.708,41.674,81.873,39.407,80.314,37.556z M72.825,80.308H19.778
		c-3.73,0-6.764-3.036-6.764-6.768V43.99c0-1.556,0.556-3.119,1.478-4.231l27.025-27.026c1.28-1.277,2.98-1.983,4.789-1.983
		c1.804,0,3.502,0.706,4.784,1.983l26.93,26.926c1.014,1.211,1.57,2.749,1.57,4.332v29.55
		C79.589,77.271,76.558,80.308,72.825,80.308z"/>
	<g display="none">
		<path display="inline" d="M46.304,6.217C24.627,6.217,6.99,23.853,6.99,45.53c0,9.676,3.582,18.993,10.086,26.231l1.965,2.186
			l0.044-0.173c7.31,7.042,17.058,11.067,27.218,11.067c10.073,0,19.763-3.971,27.05-10.915l0.045,0.175l1.991-2.193
			c6.593-7.267,10.228-16.637,10.228-26.378C85.618,23.853,67.981,6.217,46.304,6.217z M19.994,70.279
			c0.405-1.46,0.848-2.696,1.398-3.69c1.805-3.282,4.714-5.757,8.657-7.351l0.922-0.381c0.885-0.321,1.789-0.583,2.708-0.853
			l1.354-0.407c0.034-0.007,0.56-0.131,1.512-0.293c5.863,3.776,13.524,3.785,19.41,0.056l0.052,0.005
			c0.519,0.082,1.05,0.16,1.41,0.215l1.334,0.404c1.06,0.316,2.106,0.629,3.098,1.006l0.299,0.124
			c4.138,1.639,7.054,4.081,8.917,7.472c0.565,1.029,1.014,2.307,1.42,3.816c-6.833,7.191-16.313,11.324-26.183,11.324
			C36.358,81.727,26.833,77.55,19.994,70.279z M74.921,67.624c-0.333-0.935-0.699-1.77-1.121-2.538
			c-2.2-3.998-5.732-6.981-10.489-8.861l-0.32-0.131c-1.087-0.419-2.207-0.755-3.345-1.095l-1.487-0.44
			c-0.571-0.105-1.135-0.188-1.691-0.275l-1.238-0.188l-0.504,0.348c-5.096,3.469-11.865,3.455-16.941-0.053l-0.509-0.353
			l-0.615,0.094c-1.512,0.23-2.354,0.436-2.448,0.463l-1.413,0.419c-0.978,0.29-1.94,0.572-2.907,0.919
			c-0.264,0.097-0.516,0.205-1.014,0.412c-4.623,1.875-8.061,4.814-10.22,8.744c-0.402,0.73-0.757,1.522-1.083,2.407
			c-4.835-6.309-7.471-14.008-7.471-21.966c0-19.96,16.238-36.198,36.198-36.198c19.957,0,36.195,16.238,36.195,36.198
			C82.499,53.549,79.826,61.287,74.921,67.624z"/>
		<path display="inline" d="M46.283,19.802c-4.617,0-8.938,2.316-11.856,6.358c-2.227,3.089-3.387,6.709-3.441,10.812
			c0.078,4.379,1.388,8.226,3.898,11.437c2.847,3.642,7.002,5.729,11.395,5.729c4.013,0,7.803-1.706,10.685-4.812
			c5.965-6.457,6.255-17.204,0.644-23.955C54.625,21.781,50.604,19.802,46.283,19.802z M54.676,47.21
			c-2.282,2.457-5.265,3.812-8.397,3.812c-3.43,0-6.687-1.652-8.943-4.531c-2.112-2.702-3.169-5.832-3.235-9.522
			c0.047-3.401,1.005-6.429,2.85-8.982c2.324-3.22,5.73-5.067,9.332-5.067c3.378,0,6.552,1.576,8.927,4.442
			C59.859,32.955,59.616,41.859,54.676,47.21z"/>
	</g>
	<path display="none" fill="#010101" d="M86.592,14.13c-0.239-0.582-0.808-0.966-1.442-0.966h-6.366V6.575
		c0-0.632-0.384-1.201-0.971-1.442c-0.585-0.243-1.259-0.101-1.699,0.35l-8.704,8.836c-6.552-4.502-14.191-6.903-22.2-6.903
		c-21.677,0-39.313,17.638-39.313,39.313c0,21.679,17.636,39.314,39.313,39.314c21.678,0,39.312-17.636,39.312-39.314
		c0-8.074-2.434-15.763-7-22.346l8.719-8.548C86.695,15.392,86.834,14.717,86.592,14.13z M75.666,10.376v3.694L62.773,26.962v-3.501
		L75.666,10.376z M81.409,46.729c0,19.959-16.24,36.196-36.198,36.196c-19.957,0-36.198-16.237-36.198-36.196
		s16.242-36.196,36.198-36.196c7.188,0,14.048,2.101,19.974,6.04l-5.081,5.158c-0.286,0.286-0.446,0.685-0.446,1.09v6.768
		c-3.905-3.298-8.945-5.295-14.447-5.295c-12.373,0-22.439,10.062-22.439,22.436s10.066,22.438,22.439,22.438
		c12.372,0,22.438-10.063,22.438-22.438c0-5.504-1.999-10.546-5.3-14.452l6.515-0.027c0.402-0.005,0.795-0.163,1.083-0.445
		l5.315-5.214C79.271,32.559,81.409,39.473,81.409,46.729z M47.078,42.66c-0.571-0.263-1.201-0.417-1.867-0.417
		c-2.479,0-4.484,2.009-4.484,4.485c0,2.478,2.005,4.485,4.484,4.485c2.477,0,4.484-2.008,4.484-4.485
		c0-0.666-0.153-1.297-0.414-1.865l10.637-10.636c2.869,3.373,4.615,7.733,4.615,12.501c0,10.655-8.671,19.321-19.323,19.321
		c-10.653,0-19.32-8.666-19.32-19.321c0-10.652,8.667-19.321,19.32-19.321c4.77,0,9.128,1.743,12.504,4.615L47.078,42.66z
		 M68.215,29.135l-3.219,0.016l12.87-12.869h3.47L68.215,29.135z"/>
	<path display="none" fill="#010101" d="M81.19,65.895L59.891,44.6l20.938-20.932c1.211-1.216,1.211-3.192,0-4.407l-8.262-8.259
		c-1.183-1.186-3.236-1.186-4.412-0.003L47.225,31.928l-21.299-21.3c-1.183-1.178-3.221-1.175-4.408,0L11.426,20.729
		c-0.589,0.583-0.915,1.369-0.919,2.199c0,0.831,0.327,1.615,0.915,2.207l21.296,21.298L13.762,65.389
		c-0.237,0.242-0.396,0.552-0.438,0.892l-1.655,12.118c-0.066,0.479,0.099,0.968,0.442,1.31c0.297,0.297,0.692,0.459,1.103,0.459
		c0.069,0,0.138-0.009,0.208-0.019l12.12-1.652c0.34-0.042,0.655-0.202,0.896-0.444L45.392,59.1l21.296,21.298
		c0.592,0.592,1.372,0.916,2.203,0.916c0.829,0,1.611-0.324,2.204-0.916l10.099-10.097C82.402,69.085,82.402,67.108,81.19,65.895z
		 M23.726,12.834l2.386,2.386l-0.735,0.735l2.199,2.201l0.736-0.733l2.562,2.562l-2.573,2.569l2.203,2.203l2.573-2.569l2.719,2.72
		l-0.735,0.733l2.205,2.203l0.735-0.733l2.559,2.558l-2.57,2.576l2.204,2.204l2.57-2.577l2.258,2.26L34.923,44.229L13.626,22.931
		L23.726,12.834z M48.327,35.233L48.327,35.233L70.36,13.202l8.266,8.261L57.691,42.395l0,0L44.29,55.794L25.643,74.438l-8.26-8.261
		l17.54-17.542L48.327,35.233z M15.413,74.007l0.645-4.749l6.5,6.501l-4.744,0.646L15.413,74.007z M68.896,78.194l-0.004,0.004
		v1.554v-1.554L47.59,56.896l10.101-10.094l2.243,2.243l-2.565,2.573l2.2,2.198l2.569-2.569l2.724,2.726l-0.732,0.729l2.2,2.204
		l0.736-0.731l2.559,2.56l-2.571,2.571l2.205,2.201l2.568-2.569l2.48,2.479l-0.733,0.736l2.204,2.2l0.732-0.733l2.48,2.482
		L68.896,78.194z"/>
	<g display="none">
		<path display="inline" fill="#010101" d="M46.304,8.466c-21.677,0-39.312,17.64-39.312,39.319
			c0,21.675,17.635,39.312,39.312,39.312c21.677,0,39.312-17.637,39.312-39.312C85.616,26.105,67.98,8.466,46.304,8.466z
			 M46.304,83.979c-19.96,0-36.199-16.236-36.199-36.194c0-19.962,16.239-36.2,36.199-36.2c19.958,0,36.198,16.238,36.198,36.2
			C82.501,67.743,66.261,83.979,46.304,83.979z"/>
		<path display="inline" fill="#010101" d="M47.86,44.401v-28.12c0-0.858-0.696-1.554-1.557-1.554c-0.865,0-1.56,0.695-1.56,1.554
			v28.12c-1.284,0.593-2.187,1.875-2.187,3.384c0,1.502,0.902,2.787,2.187,3.379v3.931c0,0.86,0.694,1.561,1.56,1.561
			c0.86,0,1.557-0.7,1.557-1.561v-3.931c1.28-0.592,2.184-1.877,2.184-3.379C50.044,46.276,49.14,44.994,47.86,44.401z"/>
		<path display="inline" fill="#010101" d="M40.34,7.075h11.919c0.863,0,1.559-0.696,1.559-1.56c0-0.857-0.695-1.553-1.559-1.553
			H40.34c-0.86,0-1.555,0.695-1.555,1.553C38.785,6.379,39.479,7.075,40.34,7.075z"/>
		
			<rect x="73.209" y="16.248" transform="matrix(0.7072 0.707 -0.707 0.7072 34.8914 -48.6379)" display="inline" fill="#010101" width="5.914" height="3.115"/>
		<path display="inline" fill="#010101" d="M82.391,20.009c0.308,0.305,0.703,0.451,1.102,0.451c0.4,0,0.797-0.146,1.103-0.451
			c0.61-0.611,0.61-1.599,0-2.204l-8.428-8.431c-0.605-0.605-1.591-0.605-2.199,0c-0.611,0.61-0.611,1.598,0,2.204L82.391,20.009z"
			/>
	</g>
	<g display="none">
		<path display="inline" fill="#010101" d="M23.108,23.117c0.224,0,0.452-0.048,0.671-0.143c0.765-0.34,1.102-1.27,0.806-2.049
			c-0.004-0.006-0.033-0.091-0.052-0.34c-0.161-2.84,0.479-5.264,1.958-7.405c2.819-4.064,8.174-5.724,12.741-3.957
			c3.594,1.397,5.891,4.026,6.828,7.815c0.201,0.832,1.02,1.347,1.885,1.139c0.834-0.205,1.347-1.046,1.138-1.884
			c-1.175-4.769-4.191-8.218-8.724-9.977c-5.889-2.291-12.804-0.14-16.431,5.095c-1.888,2.734-2.709,5.792-2.503,9.351
			c0.022,0.392,0.083,0.977,0.358,1.534C22.043,22.832,22.564,23.117,23.108,23.117z"/>
		<path display="inline" fill="#010101" d="M89.426,47.16l-0.007-0.433c-0.016-1.166-0.564-2.354-1.502-3.266
			c-0.932-0.902-2.112-1.307-3.305-1.371c-0.787,0.012-1.582,0.006-2.368,0.009l-0.597-0.003c-0.893-0.006-0.94-0.091-1.108-0.85
			c-1.128-5.015-3.572-9.121-7.273-12.207c-1.691-1.397-3.631-2.371-5.323-3.167c-0.309-0.146-0.326-0.156-0.311-0.643
			c0.047-1.949,0.417-4.023,1.161-6.532l0.105-0.359c0.404-1.322,0.861-2.829,0.363-4.545c-0.048-0.178-0.229-0.483-0.336-0.63
			c-0.257-0.349-0.641-0.578-1.073-0.633l-0.358-0.053c-0.625-0.091-1.283-0.186-2.366,0.167c-1.625,0.524-3.187,1.375-4.769,2.598
			c-2.148,1.655-3.936,3.769-5.385,6.429c-0.047,0.095-0.091,0.191-0.08,0.202c-0.019,0.021-0.037,0.037-0.058,0.051
			c-0.549-0.051-1.121-0.158-1.721-0.272c-0.483-0.093-0.971-0.186-1.556-0.262c-1.375-0.189-2.752-0.373-4.132-0.462
			c-0.841-0.047-1.684-0.042-2.536-0.031l-1.305,0.009c-0.083,0-0.171,0-0.259,0c-4.499,0-8.933,0.72-13.186,2.145
			c-6.611,2.218-11.713,5.529-15.596,10.128c-1.622,1.925-2.658,4.126-3.422,5.815c-0.085,0.119-0.352,0.545-0.655,1.308
			c-1.955-0.948-3.203-2.186-3.794-3.857c-0.761-2.161-0.497-4.001,0.806-5.626c0.759-0.939,1.476-1.314,2.351-1.241
			c0.853,0.066,1.603-0.59,1.662-1.446c0.059-0.863-0.59-1.603-1.45-1.661c-1.984-0.113-3.591,0.652-4.993,2.399
			c-1.976,2.468-2.431,5.449-1.314,8.607c0.926,2.633,2.917,4.527,5.934,5.853L9.54,44.09c-0.245,1.433-0.487,2.867-0.596,4.312
			c-0.19,2.372-0.289,5.177,0.424,8.007c0.889,3.536,2.635,6.842,5.191,9.812c1.613,1.896,3.411,3.512,4.951,4.847
			c0.396,0.339,0.616,0.604,0.217,1.643c-0.487,1.253-0.96,2.514-1.418,3.775c-0.995,2.701,0.109,5.483,2.569,6.472
			c1.996,0.805,4.023,1.551,6.058,2.277c2.9,1.039,5.587-0.193,6.67-3.064l0.377-1.021c0.336-0.938,0.668-1.879,1.124-2.775
			c0.147-0.291,0.239-0.379,0.234-0.385c0.037-0.004,0.194-0.033,0.688,0.04c0.568,0.089,1.135,0.186,1.702,0.289
			c1.043,0.181,2.09,0.364,3.155,0.469c3.845,0.399,7.622,0.073,11.476-0.314c0.835-0.081,0.999,0.014,1.285,0.782l0.315,0.872
			c0.271,0.747,0.538,1.489,0.85,2.197c0.94,2.17,2.508,3.326,4.418,3.326c0.499,0,1.018-0.08,1.556-0.236
			c3.008-0.889,5.234-1.758,7.226-2.82c2.126-1.136,2.975-3.407,2.163-5.794c-0.18-0.528-0.385-1.055-0.593-1.568
			c-0.45-1.137-0.486-1.479-0.473-1.569c0.084-0.168,0.563-0.521,1.425-1.049c2.169-1.33,3.886-2.738,5.256-4.3
			c1.738-1.983,3.167-4.124,4.245-6.367c0.385-0.813,0.909-1.15,1.854-1.091c1.039,0.028,2.108-0.031,3.294-0.092
			c2.182-0.11,4.1-2.026,4.199-4.198C89.513,53.413,89.47,50.236,89.426,47.16z M86.263,56.429
			c-0.021,0.576-0.648,1.194-1.362,1.229c-0.984,0.05-1.98,0.099-2.962,0.081c-2.066-0.031-3.802,0.96-4.711,2.86
			c-0.954,1.986-2.228,3.888-3.781,5.659c-1.177,1.342-2.62,2.523-4.545,3.703c-3.074,1.887-3.51,3.15-2.21,6.427
			c0.186,0.467,0.369,0.937,0.53,1.415c0.323,0.944,0.095,1.628-0.674,2.037c-1.796,0.964-3.85,1.759-6.644,2.586
			c-0.713,0.205-1.521,0.295-2.235-1.351c-0.286-0.652-0.527-1.322-0.768-1.998l-0.33-0.914c-0.699-1.875-2.006-2.825-3.884-2.825
			c-0.206,0-0.417,0.011-0.641,0.039c-3.686,0.373-7.291,0.673-10.842,0.312c-0.988-0.096-1.962-0.273-2.937-0.44
			c-0.589-0.104-1.182-0.208-1.768-0.297c-1.435-0.228-3.07-0.159-4.172,2.017c-0.509,1.01-0.894,2.066-1.274,3.122l-0.358,0.981
			c-0.495,1.307-1.388,1.697-2.709,1.23c-2-0.717-3.982-1.447-5.942-2.235c-0.889-0.356-1.226-1.385-0.812-2.507
			c0.457-1.244,0.919-2.485,1.403-3.725c0.801-2.087,0.434-3.812-1.084-5.13c-1.457-1.253-3.143-2.771-4.626-4.506
			c-2.236-2.61-3.763-5.485-4.536-8.554c-0.6-2.39-0.509-4.882-0.34-7.003c0.105-1.355,0.333-2.695,0.563-4.029l0.15-0.897
			c0.344-2.057,0.896-2.909,1.029-3.14c0.834-1.774,1.778-3.779,3.133-5.393c3.507-4.148,8.151-7.15,14.213-9.181
			c3.927-1.317,8.028-1.983,12.187-1.983c0.074,0,0.158,0,0.236,0c0.457,0.003,0.915,0,1.37-0.01
			c0.775-0.006,1.541-0.019,2.301,0.026c1.308,0.083,2.608,0.26,4.013,0.452c0.432,0.055,0.857,0.141,1.281,0.223
			c0.894,0.173,1.812,0.35,2.811,0.35c0.527,0.023,0.977-0.224,1.274-0.592c0.062-0.037,0.129-0.08,0.187-0.129
			c0.482-0.371,0.739-0.855,0.991-1.316c1.161-2.139,2.669-3.927,4.473-5.314c1.314-1.016,2.527-1.683,3.826-2.103
			c0.105-0.035,0.194-0.058,0.268-0.077c-0.038,0.59-0.228,1.217-0.437,1.902l-0.114,0.381c-0.819,2.775-1.232,5.105-1.287,7.322
			c-0.056,1.698,0.629,2.859,2.093,3.555c1.585,0.746,3.253,1.576,4.663,2.746c3.203,2.672,5.238,6.106,6.224,10.491
			c0.494,2.23,1.809,3.276,4.135,3.282l0.598,0.006c0.805,0,1.617,0.006,2.433-0.006c0.425-0.058,0.754,0.172,1.084,0.49
			c0.381,0.367,0.553,0.804,0.557,1.065l0.007,0.438C86.354,50.236,86.398,53.365,86.263,56.429z"/>
		<path display="inline" fill="#010101" d="M67.67,43.239c-2.07,0-3.744,1.677-3.744,3.737c0,2.07,1.673,3.747,3.744,3.747
			c2.069,0,3.742-1.677,3.742-3.747C71.413,44.916,69.739,43.239,67.67,43.239z"/>
	</g>
	<g>
		<path d="M46.304,6.216C24.627,6.216,6.99,23.854,6.99,45.528c0,21.681,17.637,39.314,39.314,39.314
			c21.678,0,39.313-17.634,39.313-39.314C85.617,23.854,67.981,6.216,46.304,6.216z M46.304,81.729
			c-19.956,0-36.198-16.237-36.198-36.2c0-19.956,16.242-36.192,36.198-36.192C66.26,9.336,82.5,25.572,82.5,45.528
			C82.5,65.491,66.26,81.729,46.304,81.729z"/>
		<path d="M30.025,29.698c5.985-5.98,14.96-7.875,22.783-5.088l-3.364,1.574c-0.78,0.365-1.116,1.291-0.752,2.071
			c0.265,0.568,0.829,0.899,1.412,0.899c0.221,0,0.445-0.048,0.661-0.147l6.468-3.028c0.055-0.026,0.091-0.074,0.14-0.107
			c0.083-0.044,0.157-0.089,0.226-0.156c0.036-0.024,0.069-0.051,0.099-0.081c0.055-0.057,0.087-0.127,0.134-0.191
			c0.035-0.048,0.082-0.081,0.111-0.134c0.011-0.021,0.007-0.045,0.018-0.07c0.017-0.036,0.041-0.066,0.056-0.107
			c0.033-0.078,0.037-0.163,0.054-0.241c0.019-0.081,0.041-0.155,0.047-0.233c0-0.035,0.009-0.066,0.009-0.107
			c0-0.078-0.03-0.156-0.041-0.23c-0.015-0.09-0.025-0.175-0.051-0.261c-0.011-0.025-0.007-0.05-0.018-0.078l-2.696-6.665
			c-0.324-0.803-1.233-1.177-2.029-0.858c-0.795,0.322-1.183,1.229-0.862,2.027l1.264,3.125c-8.891-3.093-19.071-0.907-25.872,5.886
			c-9.722,9.722-9.722,25.54,0,35.262c0.304,0.304,0.703,0.458,1.101,0.458c0.399,0,0.798-0.154,1.102-0.458
			c0.609-0.607,0.609-1.591,0-2.204C21.514,52.046,21.514,38.206,30.025,29.698z"/>
		<path d="M64.78,28.304c-0.606-0.61-1.592-0.61-2.203,0c-0.607,0.607-0.607,1.592,0,2.205c8.508,8.506,8.503,22.347,0,30.854
			c-5.984,5.985-14.964,7.871-22.779,5.088l3.36-1.573c0.78-0.366,1.117-1.296,0.754-2.072c-0.365-0.778-1.299-1.12-2.071-0.755
			l-6.471,3.029c-0.057,0.028-0.089,0.077-0.141,0.109c-0.08,0.045-0.157,0.09-0.226,0.157c-0.034,0.023-0.07,0.051-0.098,0.08
			c-0.056,0.058-0.089,0.127-0.133,0.193c-0.037,0.049-0.083,0.078-0.109,0.134c-0.016,0.02-0.012,0.044-0.022,0.063
			c-0.018,0.037-0.037,0.072-0.051,0.11c-0.036,0.078-0.036,0.161-0.054,0.245c-0.019,0.078-0.044,0.151-0.052,0.229
			c0,0.037-0.003,0.069-0.003,0.11c0,0.077,0.026,0.155,0.036,0.231c0.019,0.088,0.025,0.171,0.056,0.26
			c0.006,0.021,0.003,0.051,0.012,0.077l2.696,6.667c0.248,0.603,0.831,0.972,1.446,0.972c0.193,0,0.391-0.036,0.585-0.114
			c0.798-0.321,1.183-1.231,0.86-2.026l-1.279-3.163c2.662,0.931,5.429,1.421,8.196,1.421c6.49,0,12.921-2.501,17.69-7.274
			C74.5,53.845,74.5,38.027,64.78,28.304z"/>
	</g>
</g>
<g id="solid" display="none">
	<path display="inline" d="M85.706,38.216h-3.919c-1.45,0-3.043-1.173-3.498-2.63l-2.286-5.54c-0.684-1.279-0.394-3.231,0.624-4.26
		l2.789-2.776c0.765-0.766,1.185-1.784,1.185-2.87c0-1.09-0.419-2.107-1.185-2.873l-4.629-4.614
		c-0.762-0.763-1.814-1.145-2.871-1.145c-1.048,0-2.1,0.382-2.858,1.144l-2.796,2.78c-0.612,0.619-1.608,0.998-2.623,0.998
		c-0.584,0-1.174-0.126-1.703-0.405l-5.525-2.27c-1.389-0.433-2.565-2.025-2.565-3.48v-3.92c0-2.241-1.82-4.061-4.06-4.061H43.25
		c-2.233,0-4.061,1.819-4.061,4.061v3.92c0,1.455-1.167,3.049-2.622,3.506l-5.542,2.279c-0.45,0.24-1.003,0.354-1.572,0.354
		c-1,0-2.048-0.351-2.68-0.982l-2.787-2.778c-0.771-0.768-1.823-1.147-2.875-1.147c-1.048,0-2.101,0.383-2.862,1.147l-4.615,4.614
		c-0.768,0.765-1.189,1.783-1.189,2.873c0,1.086,0.421,2.106,1.189,2.87l2.773,2.776c1.026,1.034,1.316,2.983,0.594,4.332
		l-2.271,5.538c-0.438,1.39-2.035,2.563-3.479,2.563l-3.922-0.004c-2.246,0-4.065,1.821-4.065,4.062v6.529
		c0,2.238,1.819,4.06,4.065,4.06h3.922c1.444,0,3.041,1.174,3.494,2.635l2.294,5.538c0.684,1.28,0.402,3.229-0.632,4.256
		l-2.781,2.779c-0.761,0.764-1.182,1.783-1.182,2.87c0,1.088,0.421,2.106,1.182,2.87l4.622,4.624
		c0.765,0.765,1.813,1.147,2.869,1.147c1.052,0,2.101-0.382,2.868-1.146l2.787-2.78c0.617-0.617,1.609-0.992,2.618-0.992
		c0.583,0,1.175,0.125,1.699,0.408l5.543,2.273c1.39,0.434,2.557,2.021,2.557,3.473v3.914c0,2.238,1.827,4.057,4.061,4.057h6.535
		c2.239,0,4.06-1.818,4.06-4.057v-3.914c0-1.451,1.177-3.039,2.628-3.495l5.555-2.289c0.441-0.239,0.992-0.353,1.562-0.353
		c1.003,0,2.066,0.353,2.691,0.975l2.776,2.776c0.759,0.767,1.811,1.147,2.858,1.147c1.057,0,2.109-0.384,2.871-1.145l4.629-4.624
		c0.765-0.764,1.185-1.782,1.185-2.87c0-1.087-0.419-2.106-1.185-2.87l-2.789-2.779c-1.018-1.026-1.308-2.976-0.59-4.329l2.28-5.533
		c0.427-1.393,2.021-2.566,3.471-2.566h3.919c2.239,0,4.056-1.819,4.056-4.054v-6.535C89.762,40.037,87.945,38.216,85.706,38.216z
		 M62.072,45.54c0,8.563-6.969,15.535-15.543,15.535c-8.573,0-15.545-6.972-15.545-15.535c0-8.57,6.972-15.54,15.545-15.54
		C55.103,30,62.072,36.97,62.072,45.54z"/>
	<path display="inline" d="M80.499,38.004L53.052,10.555c-1.744-1.746-4.071-2.707-6.536-2.707c-2.469,0-4.791,0.961-6.539,2.707
		L12.481,38.057c-1.387,1.656-2.149,3.758-2.149,5.924v30.012c0,5.1,4.145,9.246,9.242,9.246H73.45c5.097,0,9.246-4.146,9.246-9.246
		V43.98C82.696,41.814,81.935,39.713,80.499,38.004z"/>
	<g display="inline">
		<path d="M43.717,16.111c-2.858-3.437-6.651-5.15-10.423-5.15c-4.053,0-8.082,1.974-10.904,5.879
			c-2.194,3.048-3.188,6.482-3.238,10.167c0.066,4.029,1.2,7.646,3.672,10.802c2.744,3.508,6.594,5.28,10.461,5.28
			c3.524,0,7.067-1.465,9.822-4.436C48.704,32.601,48.979,22.451,43.717,16.111z"/>
		<path d="M73.727,20.128c-2.343-2.817-5.454-4.222-8.544-4.222c-3.323,0-6.625,1.617-8.939,4.821
			c-1.796,2.496-2.61,5.313-2.655,8.332c0.06,3.301,0.982,6.269,3.012,8.857c2.249,2.874,5.409,4.332,8.576,4.332
			c2.889,0,5.796-1.205,8.053-3.641C77.816,33.646,78.042,25.328,73.727,20.128z"/>
		<path d="M89.239,57.671c-0.301-2.442-0.962-4.604-1.992-6.479c-1.702-3.097-4.424-5.401-8.198-6.89
			c-0.084-0.038-0.154-0.069-0.238-0.105c-1.24-0.476-2.538-0.816-3.848-1.225c-0.653-0.123-1.292-0.215-1.918-0.31
			c-2.343,1.602-5.044,2.462-7.87,2.462c-2.84,0-5.568-0.892-7.907-2.511c-1.205,0.186-1.881,0.348-1.881,0.348
			c-0.706,0.222-1.379,0.432-2.067,0.637c4.254,2.081,7.54,5.023,9.659,8.882c1.443,2.627,2.383,5.661,2.803,9.048
			c0.423,3.51,0.273,7.146-0.425,11.074c6.845-0.004,13.392-0.524,19.422-1.465c1.034-0.159,2.052-0.326,3.045-0.524h0.003
			c0.425-1.446,0.777-2.898,1.048-4.357C89.4,63.441,89.594,60.595,89.239,57.671z"/>
		<path d="M62.641,61.905c-0.368-2.979-1.179-5.62-2.431-7.9c-2.08-3.782-5.398-6.594-10.001-8.412
			c-0.101-0.037-0.187-0.081-0.291-0.123c-0.211-0.081-0.436-0.141-0.65-0.217c-1.32-0.471-2.67-0.851-4.041-1.28
			c-0.8-0.146-1.577-0.258-2.345-0.37c-2.856,1.947-6.15,2.991-9.596,2.991c-3.465,0-6.797-1.082-9.648-3.061
			c-1.467,0.229-2.292,0.428-2.292,0.428c-1.487,0.464-2.944,0.839-4.353,1.341c-0.35,0.136-0.67,0.279-1.007,0.414
			c-4.429,1.801-7.667,4.562-9.714,8.289c-1.212,2.206-2.026,4.729-2.41,7.607c-0.483,3.665-0.23,7.227,0.427,10.755
			c0.294,1.606,0.664,3.191,1.101,4.771c0.06,0.218,0.131,0.385,0.21,0.537c1.293,0.244,2.608,0.458,3.944,0.663
			c7.387,1.156,15.398,1.786,23.777,1.786c8.421,0,16.465-0.643,23.88-1.799c1.255-0.192,2.497-0.397,3.709-0.63
			c0,0,0.007,0,0.007-0.005c0.499-1.709,0.912-3.42,1.235-5.139c0.015-0.062,0.033-0.123,0.045-0.18
			C62.831,68.944,63.068,65.472,62.641,61.905z"/>
	</g>
	<g display="inline">
		<path d="M68.617,6.598H24.406c-4.88,0-8.85,3.967-8.85,8.844v60.192c0,4.885,3.97,8.854,8.85,8.854h44.211
			c4.884,0,8.854-3.97,8.854-8.854V15.441C77.472,10.564,73.501,6.598,68.617,6.598z M59.186,63.663
			c-1.335,1.014-4.269,2.717-8.901,2.717c-4.282,0-8.051-1.571-10.902-4.545c-2.611-2.735-4.276-6.588-4.845-11.195H30.92v-3.727
			h3.357c0-0.807,0.033-1.574,0.074-2.314H30.92v-3.727h3.937c0.721-4.316,2.564-8.027,5.35-10.756
			c3.064-2.92,6.588-4.341,10.777-4.341c3.919,0,6.466,1.271,7.633,2.035l0.547,0.355l-1.484,3.673l-0.814-0.56
			c-1.439-0.987-3.762-1.603-6.056-1.603c-2.982,0-5.438,0.952-7.529,2.92c-1.915,1.81-3.309,4.663-4.055,8.275h17.137v3.727H38.696
			c-0.044,0.65-0.044,1.362-0.044,2.053v0.262h17.71v3.727H38.886c0.554,3.602,1.785,6.436,3.67,8.424
			c2.045,2.191,4.814,3.347,8.023,3.347c3.239,0,5.747-1.265,6.952-2.023l0.814-0.505l1.312,3.413L59.186,63.663z"/>
	</g>
	<g display="inline">
		<path d="M46.513,5.616C24.5,5.616,6.584,23.528,6.584,45.545c0,9.828,3.64,19.288,10.246,26.643l1.998,2.22l0.011-0.035
			l2.316,2.119l0.084-0.091c7.102,5.821,16.031,9.068,25.273,9.068c10.235,0,20.075-4.03,27.476-11.084l0.046,0.18l2.021-2.228
			c6.695-7.382,10.387-16.896,10.387-26.792C86.443,23.528,68.529,5.616,46.513,5.616z M75.581,67.984
			c-0.337-0.949-0.714-1.796-1.137-2.579c-2.236-4.058-5.823-7.087-10.658-8.996l-0.321-0.135c-1.107-0.426-2.242-0.768-3.398-1.111
			l-1.51-0.445c-0.579-0.11-1.152-0.193-1.718-0.283l-1.254-0.193l-0.517,0.356c-5.172,3.522-12.049,3.51-17.202-0.054l-0.518-0.36
			l-0.624,0.098c-1.536,0.234-2.392,0.442-2.487,0.472l-1.435,0.423c-0.998,0.294-1.971,0.583-2.952,0.933
			c-0.268,0.103-0.524,0.211-1.03,0.421c-4.695,1.903-8.187,4.89-10.384,8.883c-0.405,0.74-0.77,1.542-1.096,2.441
			c-4.916-6.407-7.588-14.226-7.588-22.309c0-20.27,16.491-36.763,36.76-36.763c20.271,0,36.764,16.493,36.764,36.763
			C83.276,53.688,80.562,61.548,75.581,67.984z"/>
		<path d="M46.495,23.109c-4,0-7.979,1.949-10.759,5.799c-2.171,3.007-3.145,6.4-3.198,10.026c0.071,3.982,1.184,7.548,3.625,10.671
			c2.707,3.455,6.507,5.212,10.328,5.212c3.475,0,6.971-1.448,9.688-4.383c5.521-5.972,5.795-15.991,0.598-22.243
			C53.954,24.792,50.216,23.109,46.495,23.109z"/>
	</g>
	<g display="inline">
		<path fill="#010101" d="M87.098,13.559c-0.12-0.295-0.414-0.494-0.733-0.494h-7.261v-7.48c0-0.324-0.192-0.606-0.49-0.732
			c-0.289-0.121-0.636-0.055-0.863,0.18l-8.74,8.863c-6.795-4.87-14.803-7.46-23.209-7.46c-22.015,0-39.927,17.915-39.927,39.93
			S23.786,86.293,45.8,86.293c22.018,0,39.929-17.914,39.929-39.929c0-8.474-2.628-16.53-7.569-23.357l8.758-8.588
			C87.145,14.196,87.216,13.853,87.098,13.559z M69.111,16.059l8.414-8.545v6.009l-5.466,5.461l-9.211,9.214v-5.793L69.111,16.059z
			 M45.8,65.988c-10.822,0-19.625-8.804-19.625-19.624c0-10.819,8.802-19.626,19.625-19.626c5.128,0,9.781,1.995,13.284,5.229
			L48.406,42.638c-0.736-0.52-1.632-0.826-2.606-0.826c-2.517,0-4.557,2.036-4.557,4.553s2.04,4.558,4.557,4.558
			c2.515,0,4.554-2.041,4.554-4.558c0-0.97-0.309-1.866-0.828-2.606l10.676-10.679c3.231,3.5,5.219,8.161,5.219,13.285
			C65.422,57.185,56.618,65.988,45.8,65.988z M75.999,22.909l-6.508,6.372l-5.518,0.028l9.209-9.207l5.453-5.454h5.791
			L75.999,22.909z"/>
	</g>
	<g display="inline">
		<path fill="#010101" d="M81.948,66.229L60.314,44.599l21.264-21.261c1.231-1.237,1.231-3.241,0-4.475l-8.39-8.389
			c-1.201-1.205-3.288-1.205-4.48,0L47.451,31.731L25.817,10.096c-1.204-1.194-3.276-1.194-4.475,0l-10.251,10.26
			c-0.598,0.591-0.929,1.391-0.933,2.234c0,0.842,0.331,1.645,0.931,2.24l21.628,21.63L13.463,65.712
			c-0.242,0.246-0.402,0.565-0.447,0.901l-1.68,12.311c-0.066,0.485,0.101,0.981,0.45,1.334c0.301,0.303,0.703,0.466,1.118,0.466
			c0.071,0,0.143-0.012,0.212-0.02l12.31-1.679c0.346-0.043,0.666-0.205,0.912-0.451l19.245-19.246l21.633,21.631
			c0.604,0.602,1.396,0.927,2.238,0.927c0.84,0,1.637-0.325,2.238-0.927L81.95,70.703C83.177,69.47,83.177,67.457,81.948,66.229z
			 M15.14,74.466l0.654-4.823l6.604,6.6l-4.819,0.662L15.14,74.466z M23.584,12.334l2.423,2.428l-0.75,0.747l2.238,2.231
			l0.746-0.743l2.604,2.599l-2.613,2.614l2.236,2.235l2.613-2.609l2.763,2.767l-0.747,0.739l2.237,2.239l0.749-0.747l2.599,2.603
			l-2.61,2.614l2.238,2.239l2.611-2.614l2.292,2.295L34.956,44.219L13.326,22.59L23.584,12.334z M69.459,78.719
			c-0.005,0.004-0.005,0.004-0.005,0.004v1.578l-0.002-1.578L47.822,57.089l10.254-10.256l2.282,2.281l-2.609,2.614l2.236,2.233
			l2.611-2.612l2.765,2.769l-0.747,0.743l2.237,2.239l0.749-0.748l2.598,2.603l-2.61,2.607l2.239,2.24l2.61-2.608l2.517,2.517
			l-0.743,0.748l2.236,2.232l0.744-0.745l2.517,2.522L69.459,78.719z"/>
	</g>
	<g display="inline">
		<path fill="#010101" d="M46.01,10.278c-21.18,0-38.347,17.173-38.347,38.35c0,21.168,17.167,38.341,38.347,38.341
			c21.176,0,38.345-17.173,38.345-38.341C84.355,27.451,67.187,10.278,46.01,10.278z M47.592,52.056v3.993
			c0,0.879-0.708,1.582-1.582,1.582c-0.877,0-1.583-0.703-1.583-1.582v-3.993c-1.306-0.603-2.219-1.901-2.219-3.428
			c0-1.535,0.914-2.834,2.219-3.437V16.631c0-0.873,0.706-1.577,1.583-1.577c0.874,0,1.582,0.704,1.582,1.577v28.561
			c1.3,0.603,2.218,1.901,2.218,3.437C49.81,50.154,48.892,51.453,47.592,52.056z"/>
		<path fill="#010101" d="M39.954,7.283H52.06c0.876,0,1.583-0.709,1.583-1.581c0-0.874-0.707-1.585-1.583-1.585H39.954
			c-0.873,0-1.579,0.711-1.579,1.585C38.375,6.574,39.081,7.283,39.954,7.283z"/>
		<polygon fill="#010101" points="79.585,19.184 75.335,14.939 73.098,17.172 77.348,21.423 		"/>
		<path fill="#010101" d="M84.902,18.178l-8.56-8.562c-0.617-0.614-1.617-0.614-2.233,0c-0.622,0.619-0.622,1.625,0,2.24
			l8.553,8.562c0.313,0.309,0.714,0.458,1.121,0.458c0.405,0,0.81-0.149,1.119-0.458C85.519,19.798,85.519,18.799,84.902,18.178z"/>
	</g>
	<g display="inline">
		<path fill="#010101" d="M46.515,5.615c-22.018,0-39.928,17.909-39.928,39.924S24.497,85.47,46.515,85.47
			c22.015,0,39.927-17.916,39.927-39.931S68.529,5.615,46.515,5.615z M47.316,71.24c-2.813,0-5.622-0.501-8.328-1.439l1.297,3.21
			c0.329,0.807-0.062,1.734-0.873,2.059c-0.193,0.078-0.394,0.114-0.594,0.114c-0.621,0-1.216-0.373-1.464-0.986l-2.74-6.769
			c-0.007-0.03-0.007-0.062-0.016-0.078c-0.025-0.09-0.037-0.176-0.052-0.266c-0.011-0.079-0.041-0.157-0.041-0.235
			c0-0.043,0.007-0.07,0.007-0.114c0.005-0.078,0.031-0.149,0.049-0.23c0.018-0.09,0.022-0.168,0.056-0.25
			c0.014-0.036,0.033-0.075,0.052-0.109c0.011-0.017,0.011-0.048,0.022-0.066c0.026-0.06,0.082-0.091,0.115-0.138
			c0.041-0.067,0.074-0.134,0.13-0.193c0.033-0.03,0.067-0.062,0.1-0.084c0.07-0.067,0.152-0.109,0.235-0.157
			c0.051-0.036,0.085-0.083,0.142-0.109l6.567-3.082c0.79-0.367,1.733-0.022,2.105,0.771c0.372,0.783,0.025,1.728-0.762,2.103
			l-3.417,1.601c7.94,2.823,17.061,0.909,23.135-5.173c8.636-8.636,8.64-22.697,0.004-31.337c-0.618-0.622-0.618-1.62,0-2.234
			c0.617-0.619,1.617-0.619,2.237,0c9.871,9.876,9.871,25.937-0.004,35.806C60.437,68.698,53.904,71.24,47.316,71.24z
			 M29.982,60.799c0.617,0.62,0.617,1.62,0,2.239c-0.309,0.308-0.714,0.465-1.12,0.465s-0.81-0.157-1.119-0.465
			c-9.875-9.874-9.875-25.942,0-35.818c6.911-6.898,17.246-9.116,26.279-5.972l-1.285-3.18c-0.329-0.808,0.065-1.728,0.875-2.06
			c0.804-0.317,1.73,0.062,2.062,0.873l2.74,6.775c0.007,0.023,0.002,0.047,0.013,0.077c0.027,0.084,0.038,0.174,0.052,0.26
			c0.011,0.078,0.042,0.157,0.042,0.235c0,0.042-0.008,0.078-0.008,0.113c-0.007,0.078-0.029,0.151-0.047,0.234
			c-0.018,0.079-0.022,0.169-0.056,0.247c-0.015,0.036-0.033,0.073-0.05,0.109c-0.016,0.024-0.012,0.047-0.023,0.07
			c-0.031,0.05-0.078,0.086-0.111,0.134c-0.045,0.066-0.083,0.14-0.139,0.199c-0.029,0.03-0.062,0.054-0.096,0.078
			c-0.071,0.067-0.149,0.114-0.234,0.163c-0.049,0.028-0.084,0.076-0.14,0.106l-6.57,3.073c-0.215,0.106-0.447,0.149-0.671,0.149
			c-0.594,0-1.166-0.337-1.434-0.908c-0.373-0.796-0.031-1.734,0.761-2.107l3.421-1.604c-7.945-2.83-17.064-0.901-23.142,5.174
			C21.342,38.102,21.342,52.157,29.982,60.799z"/>
	</g>
	<g display="inline">
		<path d="M22.7,22.798c0.109,0.02,0.219,0.031,0.331,0.031c0.366,0,0.719-0.126,1.009-0.354c0.062-0.056,7.587-5.975,23.628-4.66
			c0.049,0,0.094,0.004,0.134,0.004c0.026,0.008,0.052,0,0.063,0c0.873,0,1.579-0.709,1.579-1.581c0-0.297-0.079-0.574-0.218-0.81
			c-1.264-4.618-4.283-7.972-8.748-9.701c-1.583-0.619-3.268-0.932-5.001-0.932c-4.676,0-9.044,2.282-11.688,6.099
			c-1.918,2.783-2.75,5.89-2.543,9.505c0.022,0.396,0.086,0.991,0.365,1.551C21.827,22.383,22.229,22.696,22.7,22.798z"/>
		<path d="M90.309,47.205l-0.002-0.439c-0.035-2.223-2.097-4.709-4.886-4.709l-1.271,0.012l-1.74-0.008
			c-0.906-0.004-0.955-0.09-1.125-0.86c-1.142-5.093-3.628-9.262-7.382-12.397c-1.722-1.421-3.694-2.407-5.407-3.214
			c-0.317-0.152-0.335-0.165-0.319-0.658c0.049-1.976,0.427-4.089,1.182-6.63l0.109-0.368c0.404-1.343,0.868-2.87,0.367-4.618
			l-0.583-0.964l-0.364-0.173c-1.015-0.482-1.873-0.402-3.148-0.055c-1.94,0.482-3.524,1.57-4.949,2.666
			c-2.183,1.681-3.996,3.831-5.464,6.529c-0.052,0.09-0.098,0.192-0.146,0.26c-0.558-0.056-1.136-0.165-1.746-0.279
			c-0.491-0.094-0.982-0.191-1.581-0.27c-1.394-0.188-2.796-0.379-4.197-0.463c-0.507-0.031-1.012-0.042-1.521-0.042l-2.646,0.015
			c-4.569,0-9.072,0.731-13.385,2.182c-6.717,2.254-11.9,5.619-15.844,10.285c-1.643,1.958-2.7,4.189-3.477,5.907
			c-0.085,0.121-0.356,0.549-0.666,1.323c-1.985-0.962-3.252-2.215-3.85-3.913c-0.774-2.196-0.502-4.064,0.818-5.716
			c0.768-0.955,1.505-1.334,2.385-1.264c0.864,0.073,1.63-0.595,1.689-1.461c0.059-0.881-0.599-1.633-1.472-1.694
			c-2.015-0.114-3.647,0.664-5.072,2.439c-2.005,2.505-2.467,5.534-1.333,8.744c0.944,2.673,2.962,4.595,6.025,5.942l-0.13,0.771
			c-0.245,1.458-0.493,2.915-0.605,4.383c-0.194,2.408-0.294,5.258,0.431,8.13c0.902,3.59,2.68,6.949,5.271,9.967
			c1.639,1.926,3.466,3.57,5.03,4.921c0.402,0.348,0.624,0.613,0.22,1.672c-0.493,1.271-0.974,2.552-1.443,3.832
			c-1.006,2.744,0.115,5.568,2.613,6.572c2.03,0.82,4.086,1.573,6.152,2.313c2.938,1.042,5.692-0.24,6.778-3.112l0.379-1.037
			c0.342-0.951,0.683-1.908,1.141-2.817c0.164-0.319,0.261-0.403,0.382-0.403l0,0c0.165,0,0.35,0.023,0.554,0.054
			c0.582,0.09,1.154,0.188,1.73,0.289c1.058,0.188,2.123,0.372,3.203,0.481c3.957,0.404,7.957,0.056,11.66-0.324
			c0.582-0.06,0.918-0.23,1.301,0.801l0.325,0.878c0.271,0.761,0.541,1.519,0.862,2.235c1.267,2.939,3.367,3.371,4.505,3.371
			c0.502,0,1.027-0.072,1.559-0.235c3.055-0.9,5.315-1.782,7.342-2.858c2.155-1.157,3.018-3.463,2.193-5.891
			c-0.183-0.535-0.39-1.072-0.599-1.589c-0.457-1.156-0.495-1.507-0.484-1.597c0.086-0.168,0.574-0.521,1.447-1.058
			c2.204-1.357,3.948-2.79,5.338-4.373c1.766-2.012,3.216-4.19,4.314-6.468c0.387-0.805,0.876-1.107,1.876-1.107h0.003l0.465,0.006
			c0.918,0,1.836-0.048,2.885-0.096c2.212-0.115,4.161-2.065,4.262-4.27C90.398,53.558,90.355,50.332,90.309,47.205z M68.216,50.825
			c-2.1,0-3.803-1.706-3.803-3.808c0-2.094,1.703-3.794,3.803-3.794c2.1,0,3.801,1.7,3.801,3.794
			C72.017,49.119,70.316,50.825,68.216,50.825z"/>
	</g>
</g>
<g id="Layer_4" display="none">
	<g id="Layer_5" display="inline">
	</g>
	<g id="add" display="inline">
		<rect x="45.031" y="2.294" fill="#010101" width="4.004" height="86.498"/>
		<rect x="3.784" y="43.541" fill="#010101" width="86.498" height="4.004"/>
	</g>
	<g id="close__x2F__delete">
		
			<rect x="45.031" y="-5.661" transform="matrix(0.7071 0.7071 -0.7071 0.7071 45.9795 -19.9183)" display="inline" fill="#010101" width="4.004" height="102.408"/>
		
			<rect x="45.031" y="-5.661" transform="matrix(0.7071 -0.7071 0.7071 0.7071 -18.4277 46.5966)" display="inline" fill="#010101" width="4.004" height="102.408"/>
	</g>
	<g id="attachment">
		<path display="inline" fill="#010101" d="M56.381,23.396c-0.701,0-1.335,0.263-1.831,0.682l-0.026-0.026L32.155,46.344
			c-2.535,2.534-3.574,5.007-3.587,8.537c0,2.761,1.02,5.244,2.872,6.993c1.913,1.806,4.568,2.76,7.682,2.759h0.065
			c3.241-0.015,6.273-1.29,8.537-3.588l25.956-25.949c6.574-6.574,6.747-15.944,0.411-22.281c-3.143-3.143-7.327-4.873-11.782-4.873
			c-4.455,0-8.638,1.73-11.779,4.873L18.021,45.319c-8.288,8.288-8.288,21.773,0,30.062c4.008,4.007,9.346,6.213,15.029,6.213
			c5.684,0,11.021-2.206,15.032-6.214l33.654-33.774c0,0,0.742-0.729,0.742-1.958c0-1.576-1.278-2.853-2.853-2.853
			c-0.749,0-1.425,0.295-1.935,0.767l-0.009-0.009L44.026,71.327c-2.928,2.925-6.826,4.537-10.977,4.537
			c-4.151,0-8.049-1.612-10.975-4.537c-6.053-6.055-6.053-15.904,0-21.955l32.509-32.503c2.06-2.06,4.803-3.194,7.725-3.194
			c2.921,0,5.667,1.135,7.728,3.194c2.056,2.056,3.089,4.499,2.989,7.064c-0.099,2.525-1.274,4.983-3.399,7.109l-26.01,26.004
			c-1.189,1.191-2.77,1.85-4.449,1.854c-3.194,0-4.865-2.013-4.865-3.998c0.006-1.678,0.664-3.258,1.853-4.449l22.424-22.347
			l-0.026-0.025c0.42-0.497,0.683-1.13,0.683-1.832C59.235,24.673,57.957,23.396,56.381,23.396z"/>
	</g>
	<path id="comment" fill="#010101" d="M68.19,10.159H27.322c-11.248,0-20.439,9.198-20.439,20.439v13.625
		c0,11.242,9.192,20.439,20.439,20.439h3.396v20.439l23.36-20.439H68.19c11.245,0,20.439-9.198,20.439-20.439V30.599
		C88.63,19.357,79.435,10.159,68.19,10.159z"/>
	<g id="calendar_1_">
		<path display="inline" d="M80.64,12.018H69.737V6.986c0-1.392-1.125-2.516-2.516-2.516s-2.516,1.124-2.516,2.516v5.031H49.612
			V6.986c0-1.392-1.125-2.516-2.516-2.516c-1.389,0-2.516,1.124-2.516,2.516v5.031H29.487V6.986c0-1.392-1.127-2.516-2.516-2.516
			s-2.516,1.124-2.516,2.516v5.031h-10.9c-3.706,0-6.709,3-6.709,6.707v59.537c0,3.708,3.003,6.709,6.709,6.709H80.64
			c3.705,0,6.707-3.002,6.707-6.709V18.724C87.347,15.018,84.345,12.018,80.64,12.018z M82.315,78.261
			c0,0.927-0.751,1.678-1.675,1.678H13.556c-0.927,0-1.678-0.751-1.678-1.678V18.724c0-0.924,0.751-1.675,1.678-1.675h10.9v5.031
			c0,1.392,1.127,2.516,2.516,2.516s2.516-1.124,2.516-2.516v-5.031h15.094v5.031c0,1.392,1.127,2.516,2.516,2.516
			c1.391,0,2.516-1.124,2.516-2.516v-5.031h15.094v5.031c0,1.392,1.125,2.516,2.516,2.516s2.516-1.124,2.516-2.516v-5.031H80.64
			c0.924,0,1.675,0.751,1.675,1.675V78.261z"/>
		<rect x="24.456" y="34.658" display="inline" width="10.062" height="7.547"/>
		<rect x="24.456" y="47.236" display="inline" width="10.062" height="7.547"/>
		<rect x="24.456" y="59.814" display="inline" width="10.062" height="7.547"/>
		<rect x="42.065" y="59.814" display="inline" width="10.062" height="7.547"/>
		<rect x="42.065" y="47.236" display="inline" width="10.062" height="7.547"/>
		<rect x="42.065" y="34.658" display="inline" width="10.062" height="7.547"/>
		<rect x="59.675" y="59.814" display="inline" width="10.062" height="7.547"/>
		<rect x="59.675" y="47.236" display="inline" width="10.062" height="7.547"/>
		<rect x="59.675" y="34.658" display="inline" width="10.062" height="7.547"/>
	</g>
	<path id="search" fill="#010101" d="M86.489,75.265L67.028,55.797c-0.225-0.221-0.477-0.397-0.715-0.582
		c3.287-5.046,5.209-11.056,5.209-17.527c0-17.783-14.409-32.196-32.195-32.196c-17.78,0-32.197,14.414-32.197,32.196
		c0,17.785,14.417,32.196,32.197,32.196c6.467,0,12.484-1.926,17.535-5.211c0.186,0.242,0.357,0.488,0.576,0.71L76.897,84.85
		c1.331,1.324,3.064,1.986,4.792,1.986c1.735,0,3.469-0.662,4.8-1.984C89.13,82.204,89.13,77.913,86.489,75.265z M39.327,59.716
		c-12.147,0-22.029-9.883-22.029-22.028c0-12.146,9.882-22.029,22.029-22.029c12.14,0,22.029,9.882,22.029,22.029
		C61.356,49.833,51.467,59.716,39.327,59.716z"/>
	<g id="arrow_right_medium">
		<path display="inline" fill="#010101" d="M30.833,86.079c-1.2,0-2.404-0.456-3.322-1.375c-1.834-1.835-1.834-4.805,0-6.641
			l32.524-32.52L27.511,13.016c-1.834-1.834-1.834-4.806,0-6.637c1.834-1.835,4.806-1.835,6.641,0l35.842,35.84
			c1.833,1.835,1.833,4.806,0,6.637L34.151,84.703C33.235,85.619,32.034,86.079,30.833,86.079z"/>
	</g>
	<path id="arrow_right_small" fill="#010101" d="M32.207,8.324c-0.369-0.369-0.857-0.571-1.376-0.571s-1.007,0.203-1.375,0.57
		c-0.369,0.369-0.571,0.855-0.571,1.374c0,0.519,0.203,1.007,0.57,1.375l34.469,34.471L29.455,80.007
		c-0.758,0.758-0.758,1.993,0,2.752c0.732,0.733,2.013,0.738,2.752-0.002l35.841-35.846c0.368-0.368,0.57-0.854,0.57-1.373
		c0-0.519-0.203-1.008-0.571-1.376L32.207,8.324z"/>
	<g id="arrow_left_medium">
		<path display="inline" fill="#010101" d="M60.353,84.703L24.51,48.856c-1.833-1.831-1.833-4.801,0-6.637l35.842-35.84
			c1.834-1.835,4.806-1.835,6.641,0c1.834,1.831,1.834,4.803,0,6.637L34.469,45.543l32.524,32.52c1.834,1.835,1.834,4.805,0,6.641
			c-0.918,0.92-2.122,1.375-3.322,1.375C62.47,86.079,61.269,85.619,60.353,84.703z"/>
	</g>
	<path id="arrow_leftsmall" fill="#010101" d="M62.297,8.324c0.369-0.369,0.857-0.571,1.376-0.571s1.007,0.203,1.375,0.57
		c0.369,0.369,0.571,0.855,0.571,1.374c0,0.519-0.203,1.007-0.57,1.375L30.58,45.543l34.469,34.464c0.758,0.758,0.758,1.993,0,2.752
		c-0.732,0.733-2.013,0.738-2.752-0.002L26.455,46.912c-0.368-0.368-0.57-0.854-0.57-1.373c0-0.519,0.203-1.008,0.571-1.376
		L62.297,8.324z"/>
	<g id="arrow_down_medium">
		<path display="inline" fill="#010101" d="M85.822,31.848L49.975,67.69c-1.831,1.833-4.801,1.833-6.637,0L7.498,31.848
			c-1.835-1.834-1.835-4.806,0-6.641c1.831-1.834,4.803-1.834,6.637,0l32.527,32.524l32.52-32.524c1.835-1.834,4.805-1.834,6.641,0
			c0.92,0.918,1.375,2.122,1.375,3.322C87.198,29.73,86.738,30.932,85.822,31.848z"/>
	</g>
	<path id="arrow_down_small" fill="#010101" d="M9.443,29.904c-0.369-0.369-0.571-0.857-0.571-1.376s0.203-1.007,0.57-1.375
		c0.369-0.369,0.855-0.571,1.374-0.571c0.519,0,1.007,0.203,1.375,0.57l34.471,34.469l34.464-34.469
		c0.758-0.758,1.993-0.758,2.752,0c0.733,0.732,0.738,2.013-0.002,2.752L48.031,65.746c-0.368,0.368-0.854,0.57-1.373,0.57
		c-0.519,0-1.008-0.203-1.376-0.571L9.443,29.904z"/>
	<g id="arrow_up_medium">
		<path display="inline" fill="#010101" d="M87.198,62.367c0,1.2-0.456,2.404-1.375,3.322c-1.835,1.834-4.805,1.834-6.641,0
			l-32.52-32.524L14.135,65.689c-1.834,1.834-4.806,1.834-6.637,0c-1.835-1.834-1.835-4.806,0-6.641l35.84-35.842
			c1.835-1.833,4.806-1.833,6.637,0l35.847,35.842C86.738,59.965,87.198,61.166,87.198,62.367z"/>
	</g>
	<path id="arrow_up_small" fill="#010101" d="M9.443,60.993c-0.369,0.369-0.571,0.857-0.571,1.376s0.203,1.007,0.57,1.375
		c0.369,0.369,0.855,0.571,1.374,0.571c0.519,0,1.007-0.203,1.375-0.57l34.471-34.469l34.464,34.469
		c0.758,0.758,1.993,0.758,2.752,0c0.733-0.732,0.738-2.013-0.002-2.752L48.031,25.151c-0.368-0.368-0.854-0.57-1.373-0.57
		c-0.519,0-1.008,0.203-1.376,0.571L9.443,60.993z"/>
	<path id="lock" fill="#010101" d="M77.084,41.566c-1.024-1.023-2.266-1.535-3.729-1.535h-1.754v-10.53
		c0-6.727-2.413-12.503-7.238-17.329c-4.826-4.826-10.602-7.239-17.33-7.239c-6.728,0-12.504,2.413-17.33,7.239
		c-4.826,4.826-7.238,10.602-7.238,17.329v10.53H20.71c-1.462,0-2.705,0.512-3.729,1.535s-1.536,2.267-1.536,3.729v31.589
		c0,1.462,0.512,2.706,1.536,3.729s2.267,1.535,3.729,1.535h52.646c1.463,0,2.706-0.511,3.729-1.535
		c1.023-1.023,1.536-2.267,1.536-3.729V45.296C78.622,43.834,78.109,42.59,77.084,41.566z M50.034,61.048v9.832h-6v-9.832
		c-1.786-1.04-3-2.953-3-5.168c0-3.313,2.687-6,6-6s6,2.687,6,6C53.034,58.095,51.819,60.008,50.034,61.048z M61.072,40.031H32.994
		v-10.53c0-3.875,1.371-7.184,4.113-9.926c2.742-2.742,6.051-4.112,9.926-4.112s7.184,1.37,9.926,4.112
		c2.742,2.742,4.113,6.051,4.113,9.926V40.031z"/>
	<path id="world" fill="#010101" d="M75.671,16.821c7.649,7.65,11.862,17.821,11.862,28.638c0,10.818-4.213,20.988-11.862,28.639
		c-7.65,7.649-17.82,11.861-28.638,11.861s-20.988-4.212-28.639-11.861c-7.649-7.65-11.861-17.821-11.861-28.639
		c0-10.817,4.212-20.988,11.861-28.638C26.045,9.171,36.215,4.959,47.033,4.959S68.021,9.171,75.671,16.821z M72.091,70.518
		c4.989-4.988,8.305-11.201,9.672-17.961c-1.066,1.569-2.085,2.152-2.717-1.361c-0.65-5.726-5.909-2.068-9.217-4.102
		c-3.481,2.346-11.304-4.562-9.974,3.229c2.052,3.514,11.075-4.702,6.577,2.732c-2.869,5.19-10.492,16.685-9.5,22.644
		c0.125,8.681-8.87,1.81-11.97-1.07c-2.085-5.768-0.71-15.85-6.161-18.674c-5.917-0.257-10.996-0.795-13.289-7.41
		c-1.38-4.732,1.468-11.777,6.54-12.865c7.423-4.665,10.075,5.462,17.038,5.651c2.162-2.263,8.054-2.981,8.542-5.517
		c-4.568-0.807,5.795-3.842-0.438-5.568c-3.438,0.404-5.654,3.565-3.826,6.246c-6.664,1.553-6.877-9.644-13.282-6.111
		c-0.163,5.583-10.459,1.81-3.562,0.678c2.37-1.035-3.865-4.036-0.497-3.49c1.655-0.09,7.224-2.042,5.717-3.354
		c3.101-1.926,5.708,4.61,8.744-0.149c2.191-3.66-0.919-4.335-3.667-2.479c-1.548-1.735,2.735-5.48,6.514-7.099
		c1.258-0.54,2.461-0.834,3.381-0.751c1.902,2.199,5.421,2.58,5.606-0.264c-4.713-2.257-9.909-3.45-15.29-3.45
		c-7.722,0-15.067,2.454-21.145,6.992c1.633,0.749,2.561,1.68,0.987,2.871c-1.223,3.643-6.184,8.533-10.539,7.841
		c-2.261,3.899-3.75,8.195-4.387,12.697c3.648,1.207,4.489,3.596,3.705,4.395c-1.858,1.621-3,3.918-3.589,6.433
		c1.187,7.265,4.602,13.959,9.909,19.268c6.693,6.693,15.592,10.379,25.059,10.379C56.499,80.896,65.398,77.21,72.091,70.518z"/>
	<g id="Phone_5_">
		<path display="inline" fill-rule="evenodd" clip-rule="evenodd" d="M65.513,53.16c-5.135,5.132-5.135,10.264-10.271,10.264
			S44.976,58.292,39.84,53.16C34.705,48.014,29.57,42.883,29.57,37.75c0-5.132,5.135-5.132,10.271-10.277
			C44.976,22.341,29.57,6.945,24.435,6.945c-5.136,0-15.403,15.396-15.403,15.396c0,10.278,10.548,31.093,20.538,41.083
			c9.989,9.99,30.808,20.541,41.078,20.541c0,0,15.403-10.277,15.403-15.409C86.051,63.424,70.648,48.014,65.513,53.16z"/>
	</g>
	<g id="envelop">
		<path display="inline" fill="#010101" d="M16.125,35.015c0.968,0.683,3.885,2.711,8.751,6.083s8.595,5.969,11.185,7.79
			c0.285,0.2,0.889,0.634,1.814,1.302c0.925,0.669,1.694,1.211,2.305,1.623c0.612,0.413,1.352,0.875,2.22,1.387
			s1.687,0.896,2.455,1.151c0.769,0.257,1.48,0.385,2.135,0.385h0.043h0.043c0.654,0,1.366-0.128,2.135-0.385
			c0.768-0.255,1.587-0.64,2.455-1.151c0.868-0.513,1.608-0.974,2.22-1.387c0.612-0.412,1.38-0.954,2.305-1.623
			c0.925-0.669,1.53-1.102,1.814-1.302c2.618-1.821,9.278-6.446,19.979-13.875c2.078-1.451,3.813-3.201,5.208-5.25
			c1.396-2.048,2.092-4.197,2.092-6.445c0-1.878-0.676-3.487-2.028-4.824c-1.352-1.338-2.953-2.006-4.802-2.006H15.613
			c-2.191,0-3.877,0.74-5.059,2.219c-1.181,1.48-1.771,3.331-1.771,5.55c0,1.793,0.783,3.736,2.348,5.828
			C12.696,32.176,14.361,33.82,16.125,35.015z"/>
		<path display="inline" fill="#010101" d="M81.014,39.583C71.68,45.9,64.592,50.81,59.755,54.311
			c-1.622,1.195-2.938,2.128-3.949,2.796c-1.011,0.669-2.355,1.352-4.034,2.049c-1.679,0.698-3.244,1.045-4.695,1.045h-0.043H46.99
			c-1.452,0-3.017-0.348-4.696-1.045c-1.679-0.697-3.024-1.38-4.034-2.049c-1.01-0.668-2.326-1.601-3.948-2.796
			c-3.843-2.817-10.915-7.727-21.217-14.728c-1.623-1.082-3.06-2.32-4.312-3.714v33.895c0,1.879,0.668,3.487,2.006,4.824
			c1.337,1.338,2.946,2.007,4.824,2.007h62.839c1.878,0,3.486-0.668,4.824-2.007c1.338-1.338,2.006-2.945,2.006-4.824V35.869
			C84.059,37.234,82.637,38.473,81.014,39.583z"/>
	</g>
	<polygon id="sort-up" fill="#010101" points="27.692,59.75 47.033,26.25 66.375,59.75 	"/>
	<polygon id="sort-down" fill="#010101" points="27.692,31.25 47.033,64.75 66.375,31.25 	"/>
	<g id="sort">
		<polygon display="inline" fill="#010101" points="27.692,38.75 47.033,5.25 66.375,38.75 		"/>
		<polygon display="inline" fill="#010101" points="27.692,52.25 47.033,85.75 66.375,52.25 		"/>
	</g>
	<path id="facebook" d="M52.269,85.117H35.897V45.542h-8.184V31.9h8.184v-8.187c0-11.126,4.619-17.745,17.741-17.745h10.927V19.61
		h-6.827c-5.11,0-5.449,1.907-5.449,5.463L52.269,31.9h12.375l-1.449,13.641H52.269V85.117z"/>
	<g id="linkedin">
		<path display="inline" fill-rule="evenodd" clip-rule="evenodd" d="M28.15,78.855V33.899H13.209v44.956H28.15L28.15,78.855z
			 M20.681,27.763c5.209,0,8.454-3.455,8.454-7.769c-0.098-4.41-3.244-7.768-8.355-7.768c-5.112,0-8.453,3.358-8.453,7.768
			c0,4.313,3.243,7.769,8.257,7.769H20.681L20.681,27.763z"/>
		<path display="inline" fill-rule="evenodd" clip-rule="evenodd" d="M36.419,78.855h14.942V53.75c0-1.343,0.098-2.687,0.492-3.646
			c1.08-2.685,3.539-5.466,7.667-5.466c5.408,0,7.57,4.124,7.57,10.166v24.051h14.941V53.078c0-13.808-7.371-20.233-17.203-20.233
			c-8.061,0-11.6,4.506-13.565,7.575h0.099v-6.521H36.419C36.616,38.117,36.419,78.855,36.419,78.855L36.419,78.855z"/>
	</g>
	<path id="twitter" d="M88.686,39.589c-2.957,0.504-7.246-0.02-9.518-0.965c4.722-0.391,7.919-2.537,9.15-5.45
		c-1.701,1.047-6.987,2.188-9.902,1.102c-0.146-0.686-0.303-1.338-0.464-1.929c-2.22-8.171-9.833-14.754-17.806-13.959
		c0.643-0.26,1.295-0.502,1.954-0.724c0.873-0.314,6.025-1.154,5.215-2.972c-0.687-1.603-6.981,1.205-8.165,1.574
		c1.564-0.586,4.152-1.597,4.428-3.398c-2.396,0.329-4.749,1.463-6.566,3.112c0.657-0.707,1.155-1.568,1.26-2.496
		c-6.393,4.09-10.128,12.328-13.148,20.325c-2.373-2.304-4.48-4.116-6.365-5.126c-5.292-2.836-11.622-5.801-21.554-9.494
		c-0.306,3.29,1.624,7.667,7.182,10.574c-1.203-0.163-3.405,0.202-5.163,0.619c0.715,3.773,3.059,6.877,9.406,8.377
		c-2.901,0.191-4.401,0.856-5.759,2.275c1.321,2.623,4.548,5.707,10.342,5.073c-6.448,2.783-2.629,7.936,2.619,7.167
		c-8.949,9.255-23.059,8.569-31.162,0.834c21.153,28.854,67.141,17.062,73.991-10.73C83.8,43.42,86.814,41.599,88.686,39.589z"/>
	<g id="task">
		<polygon display="inline" points="85.885,20.873 45.944,60.112 21.608,36.229 18.914,38.967 45.952,65.499 88.579,23.61 		"/>
		<path display="inline" d="M78.616,71.031c0,4.464-3.616,8.08-8.08,8.08H21.409c-4.464,0-8.08-3.616-8.08-8.08V20.055
			c0-4.464,3.616-8.08,8.08-8.08h49.127c3.976,0,7.262,2.874,7.938,6.658L81.5,15.65c-1.751-4.385-5.96-7.517-10.964-7.517H21.409
			c-6.572,0-11.921,5.349-11.921,11.921v50.977c0,6.572,5.349,11.921,11.921,11.921h49.127c6.572,0,11.92-5.349,11.92-11.921V38.776
			l-3.841,3.785V71.031z"/>
	</g>
</g>
</svg>
