<?xml version="1.0" encoding="utf-8"?>
<!-- Generator: Adobe Illustrator 23.0.6, SVG Export Plug-In . SVG Version: 6.00 Build 0)  -->
<svg version="1.1" id="Capa_1" xmlns="http://www.w3.org/2000/svg" xmlns:xlink="http://www.w3.org/1999/xlink" x="0px" y="0px"
	 viewBox="0 0 485.2 485.2" style="enable-background:new 0 0 485.2 485.2;" xml:space="preserve">
<style type="text/css">
	.st0{fill:#B1BBC0;}
</style>
<g id="calendar">
	<path class="st0" d="M151.5,227.6v30.3c0,8.4-6.8,15.2-15.2,15.2h-30.3c-8.4,0-15.2-6.8-15.2-15.2v-30.3c0-8.4,6.8-15.1,15.2-15.1
		h30.3C144.7,212.5,151.5,219.3,151.5,227.6z M136.4,333.7h-30.3c-8.4,0-15.2,6.8-15.2,15.1v30.3c0,8.4,6.8,15.2,15.2,15.2h30.3
		c8.4,0,15.2-6.8,15.2-15.2v-30.3C151.5,340.5,144.7,333.7,136.4,333.7z M257.6,212.5h-30.3c-8.4,0-15.1,6.8-15.1,15.1v30.3
		c0,8.4,6.8,15.2,15.1,15.2h30.3c8.4,0,15.1-6.8,15.1-15.2v-30.3C272.7,219.3,266,212.5,257.6,212.5z M257.6,333.7h-30.3
		c-8.4,0-15.1,6.8-15.1,15.1v30.3c0,8.4,6.8,15.2,15.1,15.2h30.3c8.4,0,15.1-6.8,15.1-15.2v-30.3C272.7,340.5,266,333.7,257.6,333.7
		z M378.8,212.5h-30.3c-8.4,0-15.1,6.8-15.1,15.1v30.3c0,8.4,6.8,15.2,15.1,15.2h30.3c8.4,0,15.2-6.8,15.2-15.2v-30.3
		C393.9,219.3,387.2,212.5,378.8,212.5z M378.8,333.7h-30.3c-8.4,0-15.1,6.8-15.1,15.1v30.3c0,8.4,6.8,15.2,15.1,15.2h30.3
		c8.4,0,15.2-6.8,15.2-15.2v-30.3C393.9,340.5,387.2,333.7,378.8,333.7z M106.1,91.3h30.3c8.4,0,15.2-6.8,15.2-15.2V15.5
		c0-8.4-6.8-15.2-15.2-15.2h-30.3c-8.4,0-15.2,6.8-15.2,15.2v60.6C90.9,84.5,97.7,91.3,106.1,91.3z M484.9,121.6v303
		c0,33.5-27.1,60.6-60.6,60.6H60.6C27.1,485.2,0,458.1,0,424.6v-303C0,88.1,27.1,61,60.6,61h15.2v15.2c0,16.7,13.6,30.3,30.3,30.3
		h30.3c16.7,0,30.3-13.6,30.3-30.3V61h151.5v15.2c0,16.7,13.6,30.3,30.3,30.3h30.3c16.7,0,30.3-13.6,30.3-30.3V61h15.1
		C457.7,61,484.9,88.1,484.9,121.6z M454.6,182.2c0-16.7-13.6-30.3-30.3-30.3H60.6c-16.7,0-30.3,13.6-30.3,30.3v242.4
		c0,16.7,13.6,30.3,30.3,30.3h363.6c16.7,0,30.3-13.6,30.3-30.3L454.6,182.2L454.6,182.2z M348.5,91.3h30.3
		c8.4,0,15.2-6.8,15.2-15.2V15.5c0-8.4-6.8-15.2-15.2-15.2h-30.3c-8.4,0-15.1,6.8-15.1,15.2v60.6C333.3,84.5,340.1,91.3,348.5,91.3z
		"/>
</g>
</svg>
