<?xml version="1.0" encoding="utf-8"?>
<!-- Generator: Adobe Illustrator 24.1.0, SVG Export Plug-In . SVG Version: 6.00 Build 0)  -->
<svg version="1.1" id="Layer_1" xmlns="http://www.w3.org/2000/svg" xmlns:xlink="http://www.w3.org/1999/xlink" x="0px" y="0px"
	 viewBox="0 0 339.7 70.9" style="enable-background:new 0 0 339.7 70.9;" xml:space="preserve">
<style type="text/css">
	.st0{fill:#FFFFFF;}
	.st1{fill:url(#SVGID_1_);}
	.st2{fill:url(#SVGID_2_);}
</style>
<g>
	<path class="st0" d="M248.9,32.6c-0.7-0.7-1.7-0.7-2.1-0.7c-4,0-8,0-12,0l-4.2,0l-4.2,0c-4,0-8,0-12,0c-0.5,0-1.5,0-2.2,0.7
		c-0.6,0.7-0.7,1.6-0.7,2.2c0.1,2.9,0.1,6,0,9.2c0,0.8,0,1.7,0.7,2.4c0.7,0.7,1.6,0.8,2.3,0.7c3.1,0,6.2,0,9.2,0c2,0,3.9,0,5.9,0
		c-1,2.4-2.5,4.1-4.6,5.2c-5,2.6-10.1,3-15,1.1c-8.1-3-12.8-11.5-11.5-20.7c1.1-7.5,5-12.5,11.7-14.8c6.6-2.2,12.6-0.7,17.8,4.5
		c1.1,1.1,2.3,1.2,3.6,0.1l1.3-1.1c2.5-2.1,5-4.3,7.6-6.3c0.7-0.5,1.4-1.2,1.5-2.3c0.1-1-0.5-1.8-1.2-2.5
		c-8.3-8.3-18.5-11.7-30.2-10c-14.8,2.1-24.8,10.7-29,24.8c-4.2,14.3-0.5,27.1,10.8,37.1c6.4,5.7,14.2,8.5,23.1,8.5
		c1.9,0,3.8-0.1,5.7-0.4c10.2-1.3,17.9-5.9,22.7-13.8c4.5-7.4,5.4-15.6,5.6-22C249.6,34.1,249.5,33.2,248.9,32.6z"/>
	<path class="st0" d="M53.7,67.7l-0.4-0.7c-0.3-0.4-0.5-0.7-0.7-1.1l-2.2-3.1c-4.2-5.9-8.4-11.8-12.5-17.7c8.9-3,13.8-9.4,14.6-18.9
		c0.6-6.9-1.5-13.5-5.6-18.2C42.7,3.7,37.2,1.3,30.6,1c-6-0.2-12.1-0.2-18.1-0.2c-3.3,0-6.6,0-9.9,0c-0.3,0-1.3,0-2,0.7
		C0,2.2,0,3,0,3.7c0,21.2,0,42.4,0,63.6c0,0.5,0,1.4,0.7,2.1c0.6,0.6,1.4,0.7,2,0.7c4.4-0.1,8.7-0.1,12.7,0c0,0,0.1,0,0.1,0
		c0.4,0,1.3-0.1,2-0.7c0.7-0.7,0.6-1.7,0.6-2.1c0-0.7,0-1.4,0-2.1l0-4.4c0-4.7,0-9.4,0-14.1c0.4,0.1,0.8,0.3,1,0.6l3.1,4.7
		c3.6,5.5,7.2,10.9,10.8,16.4l0.1,0.2c0.3,0.5,0.9,1.5,2.4,1.5c0,0,0,0,0,0c4.2,0,8.4,0,12.7,0l4.2,0c0.5,0,1.1-0.3,1.3-0.8
		S54,68.2,53.7,67.7z M18.1,17c1,0,2,0,3,0c2,0,4,0,6,0.1c4.3,0.3,7.1,3.3,7.1,7.6c0,4.2-2.6,6.9-7,7.2c-2,0.1-4.1,0.1-6.1,0.1
		c-0.8,0-1.5,0-2.3,0c-0.2,0-0.5,0-0.7,0c0-1.8,0-3.6,0-5.3l0-4.3C18.1,20.5,18.1,18.7,18.1,17z"/>
	<path class="st0" d="M339.6,68.1l-0.1-0.3c-0.1-0.2-0.1-0.4-0.2-0.5L335,55.6c-6.5-17.6-13-35.2-19.4-52.8c-0.6-1.8-2-1.9-2.9-2
		l-0.2,0c-4.5,0-9.1,0.1-13.6,0c-1.7,0-2.8,0.7-3.4,2.4c-4.5,12.2-9,24.4-13.5,36.7c-3.3,8.9-6.6,17.8-9.9,26.8l-0.1,0.1
		c-0.2,0.4-0.7,1.4-0.1,2.5c0.3,0.5,0.8,0.7,1.3,0.7l3.7,0c3.8,0,7.5,0,11.3,0c0,0,0,0,0,0c1.9,0,2.4-1.5,2.6-2.1
		c0.3-1,0.6-1.9,0.9-2.9l0.3-0.9c0,0,0-0.1,0-0.1l1.5-4.9c0.5-1.4,0.9-2.8,1.3-4.2c0,0,0.1-0.2,0.1-0.2l4.6-14.4c0,0,0-0.1,0-0.1
		l5.9-18.5l10.7,33c0,0.1,0.1,0.1,0.1,0.1c0.3,1,0.6,2,0.9,3l3.3,10.2l0,0.2c0.3,1.3,1.1,2,2.4,1.9c3.8,0,7.6,0,11.5,0l3.8,0
		c0.5,0,0.9-0.2,1.2-0.6C339.7,69.1,339.7,68.6,339.6,68.1z"/>
	<linearGradient id="SVGID_1_" gradientUnits="userSpaceOnUse" x1="81.2252" y1="35.4417" x2="151.6671" y2="35.4417">
		<stop  offset="0" style="stop-color:#ED1B31"/>
		<stop  offset="1" style="stop-color:#992933"/>
	</linearGradient>
	<path class="st1" d="M141.3,10.3C134.7,3.7,125.9,0,116.5,0c0,0-0.1,0-0.1,0C96.7,0.1,81.2,15.6,81.2,35.4
		c0,9.5,3.7,18.4,10.3,25.1c6.6,6.7,15.5,10.4,25,10.4c0,0,0,0,0,0c19.4,0,35.2-15.9,35.2-35.5C151.7,25.9,148,16.9,141.3,10.3z
		 M116.9,60.7C103.1,60.7,92,49.5,92,35.8s11.1-24.9,24.9-24.9s24.9,11.1,24.9,24.9S130.6,60.7,116.9,60.7z"/>
	<linearGradient id="SVGID_2_" gradientUnits="userSpaceOnUse" x1="141.7344" y1="35.7797" x2="91.9873" y2="35.7797">
		<stop  offset="0" style="stop-color:#ED1B31"/>
		<stop  offset="1" style="stop-color:#992933"/>
	</linearGradient>
	<path class="st2" d="M116.9,10.9C103.1,10.9,92,22,92,35.8s11.1,24.9,24.9,24.9s24.9-11.1,24.9-24.9S130.6,10.9,116.9,10.9z
		 M116.4,49.8c-7.9,0-14.4-6.5-14.4-14.4c0-7.9,6.5-14.4,14.4-14.4s14.4,6.5,14.4,14.4C130.9,43.3,124.4,49.8,116.4,49.8z"/>
</g>
</svg>
