<?xml version="1.0" standalone="no"?>
<!DOCTYPE svg PUBLIC "-//W3C//DTD SVG 1.1//EN" "http://www.w3.org/Graphics/SVG/1.1/DTD/svg11.dtd" >
<svg xmlns="http://www.w3.org/2000/svg">
<metadata>Generated by IcoMoon</metadata>
<defs>
<font id="icomoon" horiz-adv-x="1024">
<font-face units-per-em="1024" ascent="960" descent="-64" />
<missing-glyph horiz-adv-x="1024" />
<glyph unicode="&#x20;" horiz-adv-x="512" d="" />
<glyph unicode="&#xe900;" glyph-name="logo-studiovs-splash-dark" horiz-adv-x="4823" d="M2452.939 737.908c0-7.218 1.955-9.323 9.323-9.172 22.555 0.451 45.26 0.15 67.966 0.15 23.157 0 46.313 0.301 69.47-0.15 7.669-0.15 10.526 1.504 10.375 9.774-0.451 38.795-0.301 77.589 0 116.384 0 7.218-2.105 9.172-9.323 9.172-46.463-0.301-92.777-0.451-139.090 0-7.969 0-8.721-3.158-8.721-9.774 0.15-38.644 0.301-77.439 0-116.384zM2840.284 68.624c50.824-27.216 105.558-36.99 170.065-36.69 17.593 0 42.554 1.504 67.364 6.616 110.369 22.555 183.899 87.063 216.829 194.876 23.006 75.033 23.307 151.72 4.060 227.656-23.157 91.574-76.236 159.239-165.705 194.124-70.673 27.517-143.901 29.773-217.431 13.232-104.956-23.608-173.524-87.965-205.251-190.064-24.359-78.041-24.359-157.585-3.458-236.227 20.149-75.935 63.004-135.631 133.526-173.524zM2880.583 464.991c23.457 57.891 69.62 82.1 138.338 78.642 50.373-2.556 92.025-36.389 110.821-89.92 4.962-14.285 9.022-28.72 10.826-43.606 2.406-18.946 5.413-37.893 4.21-57.14-1.203-38.795-4.361-76.988-20.45-113.226-22.104-49.32-59.696-75.033-113.527-77.138-57.891-2.256-104.656 18.345-127.511 73.68-31.126 75.184-33.381 152.773-2.707 228.708zM3332.285 571c62.553-167.96 125.105-335.77 187.508-503.88 2.857-7.669 6.015-10.676 14.736-10.526 48.418 0.601 96.686 0.601 145.104 0 9.774-0.15 13.232 3.308 16.39 12.18 52.929 147.51 106.31 294.87 159.991 442.38 17.292 47.817 34.434 95.633 51.726 143.3-1.955 1.053-2.707 1.955-3.609 1.955-53.982 0-107.813 0-161.795 0.301-8.421 0-9.323-4.962-11.127-11.127-19.698-69.169-39.847-138.338-59.696-207.507-19.848-68.567-39.396-136.984-59.094-205.552-1.053 0.15-1.955 0.15-3.007 0.15-5.564 19.548-11.127 39.246-16.841 58.794-34.584 118.038-69.169 235.926-103.453 353.964-2.707 8.872-6.767 11.278-15.789 11.278-52.929-0.451-105.858-0.601-158.788 0.15-13.984 0.15-13.533-4.060-9.323-14.435 9.473-23.608 18.194-47.516 27.066-71.424zM3906.989 236.885c2.105-78.642 39.246-135.33 109.918-167.359 88.566-40.148 182.095-43.907 275.773-23.608 95.032 20.6 156.983 81.95 163.449 174.877 5.112 74.131-18.646 118.189-81.8 149.766-50.072 25.111-104.355 37.291-158.487 49.32-35.186 7.819-70.673 13.984-102.4 32.78-17.593 10.526-29.322 24.359-28.57 45.862 0.752 20.6 13.383 33.081 29.923 41.952 31.577 17.142 65.56 18.044 99.693 10.977 39.847-8.27 65.56-31.276 70.221-73.379 1.053-9.323 7.067-6.616 11.879-6.616 37.291-0.301 74.582-0.15 111.873-0.15 35.036 0 35.186 0 30.525 35.186-8.571 65.259-41.201 113.978-102.25 139.691-99.092 41.802-199.236 41.050-298.328-0.15-55.786-23.157-93.378-64.357-105.407-124.354-19.848-99.543 8.27-153.826 94.13-188.41 47.065-18.946 96.085-30.525 145.706-40.599 33.833-6.917 67.816-13.232 97.137-33.381 20.149-13.834 28.72-31.276 23.908-52.328-3.91-16.691-15.187-27.668-29.622-35.938-29.322-16.991-61.5-18.345-93.528-13.834-58.493 8.12-89.168 22.705-102.4 81.499-1.804 7.969-4.962 9.323-11.879 9.172-23.157-0.301-46.313-0.15-69.47-0.15s-46.313-0.451-69.47 0.15c-8.721 0.15-10.826-2.556-10.526-10.977zM2465.118 56.594c44.358 0.451 88.566 0.451 132.925 0 8.571 0 12.029 1.203 12.029 11.278-0.301 192.32-0.301 384.639 0 577.259 0 10.977-4.21 11.729-13.082 11.729-43.306-0.451-86.611-0.752-129.917 0.15-12.631 0.301-14.285-4.21-14.285-15.187 0.301-95.182 0.15-190.365 0.15-285.547 0-95.784 0.15-191.417-0.15-287.051 0-9.774 2.256-12.781 12.33-12.631zM4705.288 42.009l-55.786 100.896-57.44 99.242-57.44-99.242-57.44-100.896h114.73zM730.032 543.182c19.097 0.601 38.344-0.451 57.44 0.451 10.977 0.601 14.285-1.955 14.135-13.683-0.601-59.395-0.301-118.94-0.301-178.335 0.15 0 0.301 0 0.451 0 0-59.395-1.504-118.94 0.451-178.335 2.406-69.77 45.561-116.986 116.835-123.151 44.358-3.759 88.717-0.752 132.925-2.256 8.571-0.301 9.774 3.007 9.774 10.375-0.301 32.63-0.752 65.41 0.15 98.19 0.301 11.278-3.759 13.082-13.683 12.631-17.142-1.203-34.133-0.451-51.125 2.707-21.202 3.91-29.773 12.18-31.878 33.532-1.203 11.428-2.105 23.006-2.105 34.584-0.301 97.288 0 194.425-0.451 291.712-0.15 10.526 3.308 12.18 12.631 12.029 25.262-0.601 50.523 0.15 75.635-0.451 8.721-0.301 10.977 2.556 10.826 10.977-0.451 30.224-0.451 60.448 0 90.671 0 8.571-2.406 10.977-10.977 10.826-25.111-0.601-50.373 0.601-75.484-0.601-12.631-0.601-14.586 3.91-14.435 15.037 0.601 46.915-0.15 93.679 0.451 140.593 0.15 10.075-1.654 13.683-12.781 13.533-44.208-0.752-88.566-0.902-132.925 0-12.932 0.301-14.586-4.361-14.435-15.337 0.451-47.366-0.15-94.731 0.451-142.097 0.15-9.323-2.406-11.879-11.729-11.578-19.698 0.752-39.246-0.15-58.944 0.451-8.12 0.15-11.278-1.504-11.127-10.526 0.601-30.675 0.451-61.5 0-92.175-0.15-8.27 2.556-9.924 10.225-9.774zM231.114 69.225c88.416-39.697 181.343-43.306 274.42-23.307 95.333 20.45 157.134 81.95 163.75 174.576 5.263 74.131-18.646 118.339-81.499 149.916-50.072 25.111-104.355 37.291-158.487 49.32-35.637 7.969-71.725 14.285-103.753 33.381-37.441 22.254-37.141 65.41 0.752 86.461 32.479 18.044 67.214 18.946 102.55 11.428 39.396-8.27 64.207-31.427 69.019-72.627 1.203-9.172 6.767-7.067 11.729-7.067 37.291 0 74.582 0 111.873 0 35.186 0 35.336 0.15 30.825 34.885-8.421 65.259-40.9 114.129-101.949 139.841-98.942 41.802-199.236 41.050-298.328 0-55.636-23.157-93.378-64.207-105.558-124.203-20.149-99.543 8.27-154.126 93.679-188.56 47.065-18.946 96.235-30.525 145.706-40.599 33.833-6.917 67.816-13.082 97.137-33.231 20.751-14.285 29.773-32.63 24.059-53.681-4.21-15.789-15.187-26.465-29.171-34.584-29.322-16.991-61.5-18.345-93.528-13.984-58.944 7.969-89.468 22.856-102.701 81.198-1.955 8.872-5.864 9.623-13.082 9.473-22.555-0.301-45.26-0.15-67.966-0.15-22.555 0-45.26-0.451-67.966 0.15-9.473 0.301-12.781-1.654-12.48-12.029 2.707-78.492 40.148-134.729 110.971-166.607zM1148.354 294.475c0-29.171 0-58.342 1.955-87.514 3.308-48.569 23.457-88.265 61.049-119.391 35.336-29.171 76.687-42.704 121.196-47.215 52.478-5.413 103.453-0.601 148.112 31.577 22.254 16.089 38.494 37.742 52.478 61.199 1.804-0.301 3.609-0.752 5.413-1.053 0-20.901 0.451-41.952-0.15-62.853-0.15-9.924 3.158-12.781 13.082-12.631 41.802 0.601 83.604 0.601 125.406 0 9.623 0 12.48 2.256 12.48 12.33-0.301 191.868-0.301 383.737 0.301 575.605 0 10.375-3.458 12.18-12.781 12.029-42.253-0.451-84.657-0.15-126.91-0.15-20.3 0-20.3 0-20.3-19.548-0.301-112.775 0-225.701-1.203-338.476-0.601-52.779-18.946-96.987-69.62-122.248-49.621-24.811-108.415-9.172-135.481 37.141-15.037 25.863-18.495 54.734-18.495 84.206 0 114.73-0.15 229.611 0.301 344.491 0 11.879-3.308 14.736-14.886 14.586-41.802-0.752-83.604-0.752-125.406 0-12.781 0.301-16.991-2.105-16.841-16.089 0.601-115.332 0.301-230.663 0.301-345.995zM1847.711 114.185c38.945-43.456 88.115-68.417 146.006-76.236 62.252-8.421 119.843 1.504 168.712 44.358 15.789 13.834 28.119 30.825 42.704 49.621 1.203-22.856 2.857-42.704 3.007-62.703 0.15-9.473 1.955-12.932 12.33-12.781 42.253 0.752 84.657 0.601 126.91 0.15 9.172 0 12.781 1.504 12.781 12.029-0.301 260.887-0.301 521.924-0.15 782.51 0 11.278-3.759 12.932-13.683 12.781-42.704-0.451-85.559-0.601-128.414 0.15-12.029 0.15-15.939-2.105-15.789-15.187 0.601-82.1 0.301-164.201 0.301-246.301 0-4.812 0-9.623 0-18.194-63.906 80.146-142.097 100.445-221.942 84.657-105.858-20.901-173.975-99.693-195.327-202.244-14.435-69.019-16.39-138.638-3.158-208.258 10.225-53.38 28.87-103.302 65.71-144.352zM1959.434 464.24c18.345 46.313 54.433 72.928 105.708 72.778 55.786-0.15 95.032-28.119 118.64-77.589 15.638-32.78 19.999-67.966 20.3-101.347-1.053-49.32-7.368-94.731-35.637-133.977-28.72-39.847-69.019-56.087-116.685-51.426-46.163 4.511-77.289 32.479-93.979 74.432-28.72 72.176-26.765 145.555 1.654 217.13z" />
<glyph unicode="&#xe901;" glyph-name="add" d="M934.934 537.535h-332.595v332.569c0 49.666-40.241 89.895-89.893 89.895-49.639 0.013-89.883-40.229-89.883-89.883v-332.582h-332.595c-49.641 0-89.895-40.241-89.895-89.893 0-49.635 40.241-89.883 89.895-89.895l332.582 0.006v-332.601c0.013-49.658 40.254-89.895 89.895-89.895s89.895 40.26 89.895 89.883v332.614l332.607 0.006c49.628 0 89.87 40.248 89.87 89.883-0.002 49.639-40.246 89.88-89.885 89.893z" />
<glyph unicode="&#xe902;" glyph-name="arrow-down" d="M511.997 156.188c-18.348 0-36.696 7.004-50.684 20.99l-440.232 440.234c-28.007 28.005-28.007 73.411 0 101.401 27.993 27.995 73.388 27.995 101.395 0l389.519-389.544 389.525 389.532c28.007 27.995 73.398 27.995 101.388 0 28.016-27.993 28.016-73.396 0-101.401l-440.226-440.232c-13.996-13.986-32.342-20.98-50.686-20.98z" />
<glyph unicode="&#xe903;" glyph-name="arrow-left" d="M220.241 448.155c0 18.346 7.007 36.687 20.986 50.675l440.158 440.156c28.001 28.001 73.398 28.001 101.386 0 27.988-27.986 27.988-73.375 0-101.378l-389.479-389.454 389.464-389.458c27.988-28.003 27.988-73.385 0-101.372-27.988-28.012-73.381-28.012-101.382 0l-440.16 440.15c-13.979 13.992-20.973 32.336-20.973 50.679z" />
<glyph unicode="&#xe904;" glyph-name="arrow-long-down" d="M545.080-49.514l304.395 304.398c18.574 18.57 18.574 48.687 0 67.261-18.576 18.574-48.687 18.574-67.263 0l-223.204-223.199v812.94c0 26.264-21.296 47.562-47.562 47.562-26.262 0-47.562-21.298-47.562-47.562v-812.94l-223.202 223.193c-18.578 18.578-48.687 18.578-67.265 0-9.275-9.286-13.929-21.459-13.929-33.632s4.653-24.344 13.929-33.632l304.398-304.389c18.574-18.576 48.689-18.576 67.265 0z" />
<glyph unicode="&#xe905;" glyph-name="arrow-long-left" d="M13.933 414.37l304.387-304.398c9.286-9.275 21.459-13.929 33.634-13.929 12.171 0 24.344 4.653 33.632 13.929 18.576 18.578 18.576 48.687 0 67.265l-223.195 223.199h812.942c26.264 0 47.562 21.3 47.562 47.562 0 26.266-21.298 47.562-47.562 47.562h-812.942l223.204 223.202c18.574 18.576 18.574 48.687 0 67.263-18.574 18.574-48.694 18.574-67.263 0l-304.398-304.393c-18.578-18.576-18.578-48.689 0-67.263z" />
<glyph unicode="&#xe906;" glyph-name="arrow-long-right" d="M1008.961 481.633l-304.395 304.395c-18.57 18.574-48.689 18.574-67.263 0-18.574-18.576-18.574-48.687 0-67.263l223.204-223.202h-812.944c-26.264 0-47.562-21.296-47.562-47.562 0-26.262 21.296-47.562 47.562-47.562h812.942l-223.193-223.202c-18.576-18.578-18.576-48.687 0-67.265 9.286-9.275 21.461-13.929 33.632-13.929 12.175 0 24.346 4.653 33.634 13.929l304.387 304.398c18.576 18.574 18.576 48.687-0.002 67.263z" />
<glyph unicode="&#xe907;" glyph-name="arrow-long-up" d="M477.814 945.514l-304.398-304.387c-9.275-9.286-13.929-21.459-13.929-33.634 0-12.171 4.653-24.344 13.929-33.632 18.578-18.576 48.687-18.576 67.265 0l223.202 223.197v-812.942c0-26.264 21.3-47.562 47.562-47.562 26.266 0 47.562 21.298 47.562 47.562v812.942l223.204-223.204c18.576-18.574 48.687-18.574 67.263 0 18.574 18.574 18.574 48.694 0 67.263l-304.395 304.395c-18.576 18.578-48.691 18.578-67.265 0z" />
<glyph unicode="&#xe908;" glyph-name="arrow-right" d="M782.788 397.476l-440.16-440.15c-28.001-28.012-73.394-28.012-101.382 0-27.988 27.986-27.988 73.371 0 101.372l389.464 389.458-389.479 389.454c-27.99 28.003-27.99 73.392 0 101.378 27.988 28.001 73.383 28.001 101.384 0l440.16-440.156c13.979-13.986 20.986-32.329 20.986-50.675 0.002-18.344-6.994-36.687-20.973-50.679z" />
<glyph unicode="&#xe909;" glyph-name="arrow-up" d="M562.564 719.586l440.19-440.198c28.014-28.003 28.014-73.402 0-101.391-27.988-27.993-73.377-27.993-101.38 0l-389.494 389.498-389.489-389.513c-28.007-27.995-73.398-27.995-101.388 0-28.003 27.99-28.003 73.39 0 101.393l440.196 440.198c13.988 13.984 32.332 20.988 50.679 20.988s36.692-6.992 50.686-20.975z" />
<glyph unicode="&#xe90a;" glyph-name="check" d="M362.189 298.166l-239.735 239.724-119.852-119.855 359.587-359.574 659.211 659.221-119.855 119.857z" />
<glyph unicode="&#xe90b;" glyph-name="delete-thin" d="M597.289 397.957l-50.042 50.038 457.846 457.839c6.458 6.462 7.422 14.007 7.422 17.93s-0.962 11.466-7.42 17.924c-6.464 6.464-14.011 7.429-17.932 7.429-3.923 0-11.466-0.964-17.93-7.427l-457.846-457.846-457.846 457.852c-6.462 6.462-14.007 7.424-17.926 7.424-3.921 0-11.466-0.964-17.928-7.424-9.883-9.887-9.885-25.971-0.002-35.856l457.848-457.839-457.846-457.842c-9.883-9.889-9.885-25.975-0.002-35.856 6.462-6.462 14.009-7.427 17.928-7.427 3.923 0 11.466 0.964 17.93 7.427l457.839 457.846 457.846-457.848c6.46-6.462 14.005-7.424 17.926-7.424 3.923 0 11.47 0.964 17.932 7.427 9.883 9.881 9.883 25.971-0.002 35.856l-407.795 407.797z" />
<glyph unicode="&#xe90c;" glyph-name="delete" d="M677.227 447.997l303.499 303.501c45.317 45.298 45.317 118.738 0 164.038-45.283 45.306-118.736 45.306-164.021 0l-303.509-303.509-303.507 303.507c-45.285 45.292-118.738 45.292-164.021 0-45.3-45.285-45.3-118.738 0-164.038l303.501-303.501-303.488-303.482c-45.315-45.308-45.315-118.747 0-164.047 45.285-45.306 118.723-45.306 164.023 0l303.492 303.494 303.492-303.496c45.285-45.306 118.74-45.306 164.023 0 45.315 45.256 45.315 118.692 0 164.047l-303.484 303.486z" />
<glyph unicode="&#xe90d;" glyph-name="edit" d="M9.896 35.078c-10.573-25.209-4.85-54.311 14.482-73.645 19.338-19.333 48.436-25.057 73.649-14.482l246.427 103.33-231.234 231.223-103.324-246.427zM1004.276 774.697l-166.64 166.638c-26.294 26.292-68.924 26.292-95.222 0l-567.454-567.473c-0.144-0.139-0.264-0.298-0.407-0.441l261.818-261.818c0.144 0.139 0.302 0.262 0.441 0.401l567.465 567.463c26.296 26.3 26.296 68.932 0 95.23z" />
<glyph unicode="&#xe90e;" glyph-name="email" d="M99.804 602.008c12.935-9.087 51.84-36.166 116.75-81.135 64.91-44.986 114.65-79.592 149.206-103.915 3.797-2.657 11.861-8.433 24.19-17.388 12.329-8.921 22.577-16.113 30.742-21.636 8.163-5.496 18.025-11.675 29.632-18.479 11.559-6.838 22.478-11.943 32.724-15.404 10.248-3.396 19.756-5.105 28.457-5.105h1.144c8.733 0 18.236 1.709 28.48 5.105 10.246 3.427 21.165 8.566 32.726 15.404 11.588 6.804 21.433 12.983 29.632 18.479 8.131 5.523 18.377 12.715 30.74 21.636 12.327 8.954 20.393 14.701 24.19 17.388 34.906 24.323 123.738 85.991 266.49 185.052 27.72 19.369 50.869 42.719 69.481 70.051 18.578 27.315 27.885 55.972 27.885 85.976 0 25.063-9.039 46.516-27.047 64.355-18.040 17.858-39.374 26.76-64.068 26.76h-838.176c-29.229 0-51.739-9.877-67.464-29.599-15.756-19.758-23.651-44.435-23.651-74.050 0-23.905 10.449-49.825 31.346-77.729 20.866-27.9 43.071-49.842 66.59-65.767zM965.358 541.064c-124.512-84.246-219.052-149.74-283.561-196.444-21.634-15.957-39.205-28.356-52.678-37.291-13.473-8.921-31.414-18.027-53.824-27.313-22.377-9.343-43.272-13.977-62.616-13.977h-1.144c-19.352 0-40.25 4.668-62.658 13.977-22.391 9.286-40.332 18.394-53.805 27.313-13.454 8.935-31.025 21.334-52.663 37.291-51.251 37.595-145.576 103.077-283.006 196.444-21.653 14.414-40.82 30.943-57.534 49.538v-452.080c0-25.080 8.938-46.518 26.777-64.355 17.858-17.858 39.294-26.777 64.34-26.777h838.206c25.061 0 46.533 8.921 64.37 26.777 17.841 17.837 26.745 39.275 26.745 64.355v452.080c-16.364-18.192-35.311-34.721-56.947-49.538z" />
<glyph unicode="&#xe90f;" glyph-name="eye" d="M1007.575 432.247c5.206 9.588 5.206 21.182 0 30.77-95.416 175.677-281.527 294.943-495.502 294.943s-400.088-119.268-495.506-294.943c-5.206-9.588-5.206-21.182 0-30.77 95.418-175.679 281.527-294.947 495.504-294.947s400.086 119.268 495.504 294.947zM512.071 209.588c-131.468 0-238.042 106.576-238.042 238.042 0 131.468 106.574 238.046 238.042 238.046s238.044-106.576 238.044-238.046c0-131.468-106.576-238.042-238.044-238.042zM512.071 568.94c-10.014 0-19.741-1.222-29.048-3.51 9.535-11.033 15.313-25.401 15.313-41.126 0-34.763-28.182-62.943-62.945-62.943-15.725 0-30.092 5.778-41.124 15.311-2.286-9.307-3.508-19.032-3.508-29.048 0-66.999 54.309-121.307 121.309-121.307 66.997 0 121.311 54.309 121.311 121.307 0 67.001-54.309 121.315-121.309 121.315z" />
<glyph unicode="&#xe910;" glyph-name="facebook" d="M742.445 620.473h-154.196v101.172c0 37.926 25.356 46.811 43.055 46.811 17.663 0 108.649 0 108.649 0v166.766l-149.753 0.759c-166.224 0-204.15-124.542-204.15-204.294v-111.213h-95.971v-171.895h96.043c0-220.693 0-486.535 0-486.535h202.163c0 0 0 268.66 0 486.535h136.533l17.627 171.895z" />
<glyph unicode="&#xe911;" glyph-name="heart-solid" d="M510.945 741.355c-52.551 70.49-135.492 111.644-223.499 111.011-154.486-0.633-279.637-125.784-280.059-280.27 0-114.599 84.208-241.227 250.513-377.774 77.665-63.314 160.185-120.297 247.136-170.104 1.899-1.055 4.010-1.477 6.12-1.477s4.221 0.422 6.12 1.477c87.162 49.385 169.893 105.735 247.769 168.838 166.305 135.703 250.091 263.176 250.091 378.407-0.422 154.486-125.573 279.848-280.27 280.27-88.007 0.844-171.159-40.099-223.921-110.378z" />
<glyph unicode="&#xe912;" glyph-name="heart" d="M289.768 797.283v0c34.19 0 68.59-8.020 99.192-23.426s57.616-37.988 78.087-65.425l43.687-58.671 44.109 58.671c20.472 27.225 47.486 49.807 78.087 65.002s64.58 23.215 98.77 23.215c0.844 0 1.688 0 2.533 0h0.422c60.148-0.211 116.709-23.637 159.34-66.269 42.42-42.42 66.058-98.981 66.269-159.129 0-46.43-18.15-97.293-53.606-151.11-38.622-58.46-97.926-120.719-176.435-184.666-69.012-55.716-142.457-106.579-219.067-151.532-76.399 45.375-149.843 96.66-218.645 152.798-78.509 64.369-138.025 126.628-176.646 184.877-35.667 53.606-53.606 104.257-53.817 150.265 0.211 60.148 23.848 116.709 66.269 159.129 42.631 42.631 99.192 66.058 159.34 66.269h0.422c0.422 0 1.055 0 1.688 0zM289.768 852.155c-0.844 0-1.477 0-2.322 0-154.486-0.422-279.637-125.573-280.059-280.059 0-114.599 84.208-241.227 250.513-377.774 77.665-63.314 160.185-120.297 247.136-170.104 1.899-1.055 4.010-1.477 6.12-1.477 0 0 0 0 0 0s0 0 0 0c2.11 0 4.221 0.422 6.12 1.477 87.162 49.385 169.893 105.735 247.769 168.838 166.305 135.703 250.091 263.176 250.091 378.407-0.422 154.486-125.573 279.848-280.27 280.27-1.055 0-2.11 0-3.166 0-86.74 0-168.627-40.732-220.755-110.378-52.129 69.857-134.015 110.8-221.177 110.8v0z" />
<glyph unicode="&#xe913;" glyph-name="instagram" d="M737.428 951.618h-451.332c-153.27 0-277.947-124.698-277.947-277.968v-451.3c0-153.27 124.688-277.968 277.947-277.968h451.321c153.27 0 277.968 124.698 277.968 277.968v451.3c0.011 153.27-124.688 277.968-277.957 277.968zM926.034 222.35c0-104.001-84.626-188.606-188.617-188.606h-451.321c-103.98-0.021-188.575 84.605-188.575 188.606v451.3c0 103.98 84.594 188.596 188.585 188.596h451.321c103.98 0 188.596-84.615 188.596-188.596v-451.3h0.011zM511.762 707.528c-143.112 0-259.533-116.443-259.533-259.544 0-143.122 116.422-259.523 259.533-259.523s259.554 116.411 259.554 259.523c0 143.112-116.443 259.544-259.554 259.544zM511.762 277.834c-93.822 0-170.172 76.349-170.172 170.161 0 93.833 76.328 170.172 170.172 170.172 93.833 0 170.182-76.328 170.182-170.172 0-93.812-76.349-170.161-170.182-170.161zM782.193 783.306c-17.219 0-34.132-6.966-46.287-19.185-12.219-12.156-19.249-29.079-19.249-46.351 0-17.219 7.040-34.142 19.249-46.34 12.145-12.156 29.068-19.196 46.287-19.196 17.282 0 34.132 7.040 46.351 19.196 12.219 12.198 19.185 29.132 19.185 46.34 0 17.272-6.966 34.195-19.185 46.351-12.166 12.219-29.068 19.185-46.351 19.185z" />
<glyph unicode="&#xe914;" glyph-name="linkedin" d="M149.97 926.95c-70.903 0-117.101-46.667-117.101-107.674 0-59.815 44.789-107.782 114.32-107.782h1.409c72.24 0 117.209 47.967 117.209 107.782-1.3 61.007-45.005 107.674-115.837 107.674zM45.078 626.469h207.076v-623.177h-207.076v623.177zM760.433 641.097c-109.949 0-158.928-60.609-186.523-103.086v-1.987h-1.409c0.397 0.614 0.795 1.3 1.409 1.987v88.494h-207.22c2.565-58.406 0-623.177 0-623.177h207.22v348.052c0 18.566 1.373 37.24 6.754 50.532 15.098 37.24 49.051 75.599 106.265 75.599 74.985 0 104.892-56.997 104.892-140.723v-333.423h207.184v357.298c0.108 191.436-102.219 280.435-238.572 280.435z" />
<glyph unicode="&#xe915;" glyph-name="phone" d="M882.077 247.505c-61.873 52.917-124.666 84.976-185.786 32.135l-36.495-31.939c-26.701-23.183-76.346-131.504-268.284 89.296-191.908 220.526-77.705 254.862-50.966 277.842l36.694 31.977c60.801 52.963 37.857 119.635-5.994 188.266l-26.46 41.571c-44.051 68.468-92.014 113.435-152.971 60.554l-32.939-28.778c-26.942-19.627-102.247-83.423-120.515-204.615-21.982-145.416 47.368-311.94 206.255-494.643 158.686-182.789 314.055-274.607 461.227-273.007 122.313 1.321 196.182 66.957 219.285 90.815l33.058 28.816c60.799 52.847 23.020 106.646-38.895 159.687l-37.211 32.023z" />
<glyph unicode="&#xe916;" glyph-name="play" d="M141.195-50.54c12.85-7.144 27.049-10.672 41.227-10.672 15.655 0 31.306 4.32 45.066 12.918l680.258 425.158c24.85 15.569 39.967 42.81 39.967 72.115 0 29.312-15.115 56.549-39.967 72.119l-680.256 425.164c-26.216 16.4-59.267 17.316-86.295 2.241-27.030-14.988-43.806-43.43-43.806-74.36v-850.324c0-30.926 16.776-59.37 43.806-74.358z" />
<glyph unicode="&#xe917;" glyph-name="twitter" d="M1007.493 753.827c-36.337-16.073-75.274-26.982-116.378-31.93 41.899 25.212 74.010 64.763 89.325 112.225-39.226-23.153-82.679-40.238-128.768-49.123-36.878 39.371-89.469 63.932-147.839 63.932-112.008 0-202.669-90.733-202.669-202.597 0-15.821 1.914-31.316 5.274-46.089-168.355 8.416-317.711 89.036-417.619 211.663-17.374-29.871-27.451-64.691-27.451-101.894 0-70.253 35.65-132.199 90.083-168.572-33.303 0.975-64.474 10.15-91.817 25.392 0-0.903 0-1.662 0-2.601 0-98.066 69.964-180.058 162.612-198.66-17.085-4.732-34.964-7.152-53.494-7.152-13.039 0-25.681 1.336-38.179 3.72 25.898-80.475 100.738-138.989 189.268-140.723-69.242-54.324-156.58-86.688-251.539-86.688-16.398 0-32.436 1.047-48.292 2.745 89.614-57.395 196.059-90.842 310.523-90.842 372.613 0 576.293 308.536 576.293 576.221 0 8.777-0.072 17.627-0.397 26.295 39.587 28.463 74.010 64.149 101.064 104.676z" />
</font>
</defs>
</svg>
