<?xml version="1.0" encoding="utf-8"?>
<!-- Generator: Adobe Illustrator 22.0.1, SVG Export Plug-In . SVG Version: 6.00 Build 0)  -->
<svg version="1.1" id="bodyenfit" xmlns="http://www.w3.org/2000/svg" xmlns:xlink="http://www.w3.org/1999/xlink" x="0px" y="0px"
	 viewBox="0 0 256.2 198.1" style="enable-background:new 0 0 256.2 198.1;" xml:space="preserve">
<style type="text/css">
	.st0{fill:#FFFFFF;}
</style>
<g id="oEwn3l_1_">
	<g>
		<path class="st0" d="M215.5,84.5c-58.3,0-116.6,0-174.8,0c0,9.7,0,19.4,0,29.1c58.3,0,116.6,0,174.8,0
			C215.5,103.9,215.5,94.2,215.5,84.5z M61.2,104.5c-1.3,1.4-3.1,1.9-4.9,2c-2.9,0.2-5.6-0.6-7.9-2.5c-0.1-0.1-0.1-0.1-0.3-0.2
			c0,0,0-0.1-0.1-0.1c0.5-0.6,1-1.3,1.5-2c0.2,0.1,0.4,0.3,0.6,0.4c2.1,1.6,4.5,2.2,7.1,1.6c0.5-0.1,1-0.3,1.3-0.6
			c1-0.7,0.9-1.8-0.2-2.2c-1-0.3-2-0.5-3.1-0.6c-1.3-0.3-2.7-0.5-4-0.7c-0.5-0.1-0.9-0.3-1.3-0.6c-2.2-1.2-2.5-3.9-0.6-5.6
			c1.5-1.3,3.2-1.7,5.1-1.8c2.3-0.1,4.4,0.4,6.3,1.7c0.2,0.1,0.4,0.3,0.6,0.5c-0.5,0.8-1,1.5-1.6,2.2c-1.4-1.1-2.9-1.7-4.6-1.8
			c-1.2-0.1-2.3,0-3.4,0.7c-0.5,0.3-0.9,0.6-0.9,1.2c0,0.6,0.5,0.9,1.1,1c1.2,0.3,2.4,0.4,3.6,0.6c1.3,0.3,2.7,0.5,3.9,0.9
			c1.5,0.5,2.4,1.5,2.5,3.1C62.4,102.8,62,103.7,61.2,104.5z M91.6,106.2c-0.9,0-1.8,0-2.8,0c0-0.5,0-1,0-1.6
			c-1.8,1.9-4,2.3-6.3,1.8c-1.7-0.4-3-1.3-4-2.7c-2.2-3.1-1.8-7.5,0.9-10c2.3-2.2,6.6-2.8,9.4,0c0-0.6,0-1.1,0-1.6c1,0,1.9,0,2.8,0
			C91.6,96.7,91.6,101.4,91.6,106.2z M120.6,105.8c0,0.1,0,0.3,0,0.4c-0.9,0-1.8,0-2.8,0c0-0.3,0-0.5,0-0.7c0-2.3,0-4.7,0-7
			c0-2.1-1.5-3.9-3.3-4.2c-2.5-0.4-4.5,1.1-5,3.7c-0.1,0.5-0.1,1-0.1,1.5c0,2,0,4,0,6c0,0.2,0,0.5,0,0.7c-1,0-1.9,0-2.8,0
			c0-4.8,0-9.5,0-14.3c0.9,0,1.8,0,2.7,0c0,0.7,0,1.4,0,2.3c1.8-2.4,4.1-3,6.7-2.4c2.6,0.6,4.1,2.3,4.7,4.8c0.1,0.5,0.2,1,0.2,1.5
			C120.6,100.6,120.6,103.2,120.6,105.8z M142.6,106.5c-4.1,0-7.5-3.4-7.4-7.5c0-4.1,3.4-7.4,7.6-7.4c4.1,0,7.4,3.3,7.4,7.5
			C150.1,103.2,146.8,106.5,142.6,106.5z M181,105.4c0,0.2,0,0.5,0,0.7c-1,0-1.9,0-2.8,0c0-0.2,0-0.5,0-0.7c0-2.6,0-5.1,0-7.7
			c0-0.7-0.1-1.5-0.3-2.1c-0.3-1.1-1-1.6-1.9-1.7c-1-0.1-1.9,0.4-2.3,1.4c-0.3,0.6-0.4,1.4-0.4,2.1c0,2.7,0,5.3,0,7.9
			c0,0.2,0,0.5,0,0.7c-1,0-1.9,0-2.9,0c0-0.3,0-0.5,0-0.7c0-2.6,0-5.1,0-7.7c0-0.7-0.1-1.5-0.4-2.2c-0.3-0.9-0.9-1.4-1.8-1.5
			c-1,0-1.8,0.3-2.1,1.2c-0.3,0.8-0.5,1.7-0.5,2.5c-0.1,2.8,0,5.6,0,8.4c-0.9,0-1.8,0-2.8,0c0-4.7,0-9.5,0-14.2c0.9,0,1.7,0,2.7,0
			c0,0.5,0,0.9,0,1.5c1.7-2.5,5.6-2.4,7.1,0.4c0.6-1,1.5-1.7,2.6-2c2.9-0.9,5.4,0.9,5.8,3.9c0.1,0.7,0.1,1.4,0.1,2.2
			C181.1,100.4,181,102.9,181,105.4z M208.2,106.1c-0.9,0-1.8,0-2.8,0c0-0.5,0-1,0-1.4c-1,0.8-1.9,1.3-3.1,1.6c-4,0.9-8-1.9-8.6-6
			c-0.5-3.7,1.2-7.1,4.4-8.3c2.5-1,4.9-0.7,7,1.2c0,0,0.1,0,0.2,0.1c0-0.5,0-1,0-1.5c1,0,1.9,0,2.9,0
			C208.2,96.7,208.2,101.4,208.2,106.1z"/>
		<path class="st0" d="M205.5,99.1c-0.1,0.5-0.1,1-0.2,1.5c-0.5,2-1.9,3.3-3.9,3.5c-2,0.1-3.8-0.9-4.5-2.9c-0.8-2-0.6-4,0.9-5.7
			c1.2-1.4,2.8-1.8,4.5-1.3c1.8,0.5,2.7,1.8,3,3.6C205.4,98.2,205.4,98.6,205.5,99.1z"/>
		<path class="st0" d="M88.9,98.9c-0.1,1.7-0.4,3.1-1.5,4.1c-2.2,1.9-5.6,1.2-6.9-1.5c-0.8-1.7-0.7-3.3,0-5c0.9-1.8,2.6-2.8,4.5-2.5
			c2,0.3,3.4,1.6,3.8,3.7C88.8,98.2,88.9,98.6,88.9,98.9z"/>
		<path class="st0" d="M138.1,99.5c0-3.2,1.6-5,4.2-5.3c1.5-0.2,2.7,0.4,3.7,1.4c1.9,2,1.6,5.8-0.6,7.4c-1.5,1.1-3.2,1.2-4.8,0.4
			C138.8,102.5,138.1,100.9,138.1,99.5z"/>
	</g>
</g>
</svg>
