<?xml version="1.0" encoding="utf-8"?>
<!-- Generator: Adobe Illustrator 22.0.1, SVG Export Plug-In . SVG Version: 6.00 Build 0)  -->
<svg version="1.1" id="bodyenfit" xmlns="http://www.w3.org/2000/svg" xmlns:xlink="http://www.w3.org/1999/xlink" x="0px" y="0px"
	 viewBox="0 0 256.2 198.1" style="enable-background:new 0 0 256.2 198.1;" xml:space="preserve">
<style type="text/css">
	.st0{clip-path:url(#SVGID_2_);fill:#FFFFFF;}
</style>
<g>
	<g>
		<defs>
			<path id="SVGID_1_" d="M198.2,93.6v15.8h4v-16L198.2,93.6z M62.7,95.2v-1.8l-4,0.2v15.8h4V98.1c1.1-0.8,2.1-1.1,3-1.1
				c0.6,0,1.1,0,1.8,0.2l0.3-3.8c-0.6-0.2-1.1-0.2-1.8-0.2C64.7,93.3,63.8,93.9,62.7,95.2 M102.3,98.3c0,2.3,1.2,3.7,3.3,4.3l2,0.6
				c1.7,0.5,2,0.9,2,1.7c0,0.9-0.6,1.4-2.9,1.4c-1.4,0-3-0.2-4.6-0.6v3.3c1.2,0.3,2.9,0.5,4.6,0.5c4.3,0,6.7-2,6.7-5.3
				c0-2.1-1.1-3.5-3.8-4.3l-1.8-0.5c-1.5-0.5-1.8-0.8-1.8-1.5c0.3-0.8,1.1-1.2,3-1.2c1.4,0,2.4,0.2,3.8,0.3l0.2-3.3
				c-1.1-0.2-2.4-0.3-4-0.3C104.7,93.3,102.3,95.4,102.3,98.3 M156.9,95.1c-1.1-1.2-2.3-1.8-4.3-1.8c-1.5,0-2.7,0.3-4.1,1.4v-1.2
				l-4,0.2v15.8h4v-12c1.1-0.5,1.7-0.5,2.7-0.5c1.7,0,2.7,0.8,2.7,2.9v9.4h4V97.4c1.1-0.5,1.7-0.5,2.7-0.5c1.8,0,2.7,0.8,2.7,2.9
				v9.4h4V98.9c0-3.7-2-5.6-5.5-5.6C160,93.3,158.3,93.9,156.9,95.1 M183.7,95.1c-0.9-1.2-2.3-1.8-4.3-1.8c-1.5,0-2.7,0.3-4.1,1.4
				v-1.2l-4,0.2v15.8h4v-12c1.1-0.5,1.7-0.5,2.7-0.5c1.7,0,2.7,0.8,2.7,2.9v9.4h4V97.4c1.1-0.5,1.7-0.5,2.7-0.5
				c1.8,0,2.7,0.8,2.7,2.9v9.4h4V98.9c0-3.7-2-5.6-5.5-5.6C186.8,93.3,185.1,93.9,183.7,95.1 M210.4,94.6v-1.2l-3.8,0.2v15.8h4v-12
				c1.1-0.5,1.8-0.5,2.9-0.5c1.8,0,2.7,0.8,2.7,2.9v9.6h4V98.9c0-3.7-2.1-5.6-5.5-5.6C213,93.3,211.8,93.7,210.4,94.6 M226.1,110.8
				c0-0.6,0.3-1.2,0.8-1.5l5.3,0.2c1.5,0,2.1,0.6,2.1,1.4c0,1.2-1.2,2-4.6,2C227.3,112.7,226.1,112,226.1,110.8 M226.8,99
				c0-2,1.2-3,3-3c2,0,3,1.1,3,2.7c0,2.1-1.1,3-3,3C227.9,101.8,226.8,100.9,226.8,99 M223.2,99.2c0,2,1.1,3.3,2.4,4.1v0.2
				c-1.2,0.5-2,1.4-2,2.4c0,1.1,0.6,1.8,1.4,2.1v0.2c-1.5,0.6-2.6,1.8-2.6,3.3c0,2.4,2.1,4,6.9,4c5.8,0,8.4-2.4,8.4-5.5
				c0-2.4-1.5-3.8-5.2-3.8h-3.7c-1.5,0-2.1-0.5-2.1-1.1c0-0.3,0.3-0.8,0.6-0.9c0.6,0.2,1.4,0.3,2,0.3c4.4,0,6.9-2,6.9-5.2
				c0-1.4-0.6-2.4-1.4-2.9v-0.3h2.4v-2.6h-4.9c-0.8-0.2-1.5-0.3-2.4-0.3C225.8,93.3,223.2,95.4,223.2,99.2 M48.7,96.1
				c1.8,0,2.9,1.5,2.9,3.5h-6.1C45.8,97.4,47.2,96.1,48.7,96.1 M41.8,101.5c0,5.5,3.2,8.1,8.1,8.1c2.1,0,3.3-0.3,5-0.8v-3.2
				c-1.5,0.5-2.7,0.8-4.6,0.8c-2.9,0-4.4-1.2-4.9-3.7h9.7c0.2-0.8,0.2-1.8,0.2-2.9c0-4.1-2.4-6.5-6.4-6.5
				C45,93.1,41.8,96,41.8,101.5 M93.2,96.1c1.8,0,2.9,1.5,2.9,3.5H90C90.3,97.4,91.6,96.1,93.2,96.1 M86.1,101.5
				c0,5.5,3.2,8.1,8.1,8.1c2.1,0,3.3-0.3,5-0.8v-3.2c-1.5,0.5-2.7,0.8-4.6,0.8c-2.9,0-4.4-1.2-4.9-3.7h9.7c0.3-0.9,0.3-2,0.3-3
				c0-4.1-2.4-6.5-6.4-6.5S86.1,96,86.1,101.5 M134.6,96.1c1.8,0,2.9,1.5,2.9,3.5h-6.1C131.7,97.4,132.9,96.1,134.6,96.1
				 M127.6,101.5c0,5.5,3.2,8.1,8.1,8.1c2.1,0,3.3-0.3,5-0.8v-3.2c-1.5,0.5-2.7,0.8-4.6,0.8c-2.9,0-4.4-1.2-4.9-3.7h9.7
				c0.2-0.8,0.2-1.8,0.2-2.9c0-4.1-2.4-6.5-6.4-6.5C130.8,93.1,127.6,96,127.6,101.5 M117.5,90.5v2.9h-2v3h2v7.8c0,3.7,2,5.3,5,5.3
				c1.2,0,2.1-0.2,3.2-0.5v-3.2c-0.8,0.2-1.2,0.3-2,0.3c-1.4,0-2.4-0.8-2.4-2.6v-7.2h4v-3h-4v-3.2L117.5,90.5z M33.6,88.4v8.4h-8.1
				v-8.4h-4.3v21h4.1v-9h8.2v9h4.1v-21H33.6z M73.2,106v-8.7c1.1-0.5,1.8-0.5,2.7-0.5c2.3,0,3.8,1.4,3.8,4.3c0,3.7-1.8,5-4.7,5
				C74.3,106.2,73.8,106.2,73.2,106 M69.2,87.2v21.9c2.1,0.3,3.8,0.3,5.5,0.3c5.3,0,9-3.2,9-8.7c0-5-2.4-7.6-6.5-7.6
				c-1.5,0-2.7,0.5-4,1.2v-7.6L69.2,87.2z M197.9,89.1c0,1.2,0.8,2.1,2.3,2.1s2.3-1.1,2.3-2.1c0-1.2-0.8-2.3-2.3-2.3
				S197.9,87.9,197.9,89.1"/>
		</defs>
		<use xlink:href="#SVGID_1_"  style="overflow:visible;fill:#FFFFFF;"/>
		<clipPath id="SVGID_2_">
			<use xlink:href="#SVGID_1_"  style="overflow:visible;"/>
		</clipPath>
		<rect x="21.3" y="86.9" class="st0" width="216.4" height="28.6"/>
	</g>
</g>
</svg>
