<?xml version="1.0" encoding="utf-8"?>
<!-- Generator: Adobe Illustrator 22.0.1, SVG Export Plug-In . SVG Version: 6.00 Build 0)  -->
<svg version="1.1" id="bodyenfit" xmlns="http://www.w3.org/2000/svg" xmlns:xlink="http://www.w3.org/1999/xlink" x="0px" y="0px"
	 viewBox="0 0 256.2 198.1" style="enable-background:new 0 0 256.2 198.1;" xml:space="preserve">
<style type="text/css">
	.st0{fill:#FFFFFF;}
</style>
<g>
	<path class="st0" d="M113.1,91.3c-0.3-0.3-0.5-0.7-0.5-1.2s0.2-0.9,0.5-1.2s0.7-0.5,1.2-0.5s0.9,0.2,1.2,0.5
		c0.3,0.3,0.5,0.7,0.5,1.2s-0.2,0.9-0.5,1.2c-0.3,0.3-0.7,0.5-1.2,0.5C113.8,91.8,113.4,91.7,113.1,91.3z M115.6,106.4h-2.7V93.8
		h2.7V106.4z"/>
	<path class="st0" d="M136.1,106.4h-2.7V88.9h2.7v10.3l5.1-5.4h3.4l-4.8,5l5.1,7.6h-3.2l-3.7-5.5l-1.9,1.9V106.4L136.1,106.4z"/>
	<path class="st0" d="M147.1,91.3c-0.3-0.3-0.5-0.7-0.5-1.2s0.2-0.9,0.5-1.2s0.7-0.5,1.2-0.5c0.5,0,0.9,0.2,1.2,0.5s0.5,0.7,0.5,1.2
		s-0.2,0.9-0.5,1.2s-0.7,0.5-1.2,0.5C147.8,91.8,147.4,91.7,147.1,91.3z M149.6,106.4h-2.7V93.8h2.7V106.4z"/>
	<path class="st0" d="M176.4,102.7c0,1.2-0.4,2.2-1.3,2.9c-0.9,0.7-2,1.1-3.3,1.1c-0.9,0-1.9-0.2-2.9-0.5c-1-0.3-1.9-0.8-2.6-1.4
		l1.3-2c1.5,1.1,2.9,1.7,4.3,1.7c0.6,0,1.1-0.1,1.4-0.4c0.3-0.3,0.5-0.6,0.5-1c0-0.6-0.8-1.2-2.5-1.7c-0.1,0-0.2-0.1-0.3-0.1
		c-2.6-0.7-3.9-1.9-3.9-3.6c0-1.2,0.4-2.1,1.3-2.8c0.9-0.7,2.1-1,3.5-1c1.4,0,2.8,0.4,4.1,1.3l-1,2c-1-0.7-2.1-1-3.3-1
		c-0.6,0-1.1,0.1-1.5,0.3c-0.4,0.2-0.6,0.6-0.6,1c0,0.4,0.2,0.7,0.6,0.9c0.3,0.1,0.7,0.3,1.2,0.4c0.5,0.1,1,0.3,1.3,0.4
		c0.4,0.1,0.8,0.3,1.1,0.4c0.4,0.2,0.8,0.4,1.2,0.7C176,100.6,176.4,101.5,176.4,102.7z"/>
	<path class="st0" d="M203.1,101.3h-2.7v-1.4c0-0.6,0.1-1.1,0.2-1.4c0.1-0.3,0.5-0.7,1-1.2l1.7-1.7c0.4-0.4,0.5-0.9,0.5-1.5
		s-0.2-1.1-0.6-1.5c-0.4-0.4-0.9-0.6-1.5-0.6c-0.6,0-1.1,0.2-1.5,0.6c-0.4,0.4-0.6,0.9-0.7,1.5h-2.9c0.2-1.4,0.7-2.5,1.7-3.3
		c0.9-0.8,2.1-1.2,3.5-1.2c1.4,0,2.5,0.4,3.4,1.1c0.9,0.8,1.3,1.8,1.3,3.2c0,1-0.3,1.7-0.8,2.4c-0.3,0.4-0.5,0.7-0.7,0.8
		c-0.2,0.2-0.4,0.3-0.6,0.6c-0.3,0.3-0.5,0.5-0.7,0.6c-0.2,0.2-0.3,0.3-0.4,0.5c-0.3,0.3-0.4,0.8-0.4,1.5L203.1,101.3L203.1,101.3z
		 M201.8,106.5c-0.5,0-0.9-0.2-1.3-0.5c-0.4-0.3-0.5-0.7-0.5-1.2c0-0.5,0.2-0.9,0.5-1.2c0.3-0.3,0.8-0.5,1.3-0.5
		c0.5,0,0.9,0.2,1.3,0.5c0.4,0.3,0.5,0.7,0.5,1.2c0,0.5-0.2,0.9-0.5,1.2C202.8,106.4,202.3,106.5,201.8,106.5z"/>
	<path class="st0" d="M93.9,89.7h2.5l2,5.7l2.1-5.7h2.5l-2.9,7.5l2.5,6.2l5.2-13.7h2.9l-6.9,16.8h-2.3l-3.1-7.5l-3.1,7.5H93
		l-6.9-16.8H89l5.3,13.7l2.5-6.2L93.9,89.7z"/>
	<path class="st0" d="M130.9,101.3H121c0.1,0.9,0.5,1.7,1.3,2.2s1.7,0.8,2.7,0.8c1.6,0,2.8-0.5,3.6-1.5l1.5,1.7
		c-1.3,1.4-3.1,2.1-5.3,2.1c-1.8,0-3.3-0.6-4.5-1.8c-1.2-1.2-1.9-2.7-1.9-4.7s0.6-3.6,1.9-4.7s2.7-1.7,4.5-1.7
		c1.7,0,3.2,0.5,4.4,1.6c1.2,1,1.8,2.5,1.8,4.3V101.3L130.9,101.3z M121,99.2h7.2c0-1-0.3-1.9-1-2.4c-0.7-0.6-1.5-0.9-2.4-0.9
		c-1,0-1.8,0.3-2.6,0.9C121.4,97.4,121,98.2,121,99.2z"/>
	<path class="st0" d="M164.9,101.3H155c0.1,0.9,0.5,1.7,1.3,2.2c0.8,0.6,1.7,0.8,2.7,0.8c1.6,0,2.8-0.5,3.6-1.5l1.5,1.7
		c-1.3,1.4-3.1,2.1-5.3,2.1c-1.8,0-3.3-0.6-4.5-1.8c-1.2-1.2-1.9-2.7-1.9-4.7s0.6-3.6,1.9-4.7s2.7-1.7,4.5-1.7
		c1.7,0,3.2,0.5,4.4,1.6c1.2,1,1.8,2.5,1.8,4.3L164.9,101.3L164.9,101.3z M155,99.2h7.2c0-1-0.3-1.9-1-2.4c-0.7-0.6-1.5-0.9-2.4-0.9
		c-1,0-1.8,0.3-2.6,0.9C155.4,97.4,155,98.2,155,99.2z"/>
	<path class="st0" d="M185.6,91.3c-0.3-0.3-0.5-0.7-0.5-1.2s0.2-0.9,0.5-1.2s0.7-0.5,1.2-0.5c0.5,0,0.9,0.2,1.2,0.5
		c0.3,0.3,0.5,0.7,0.5,1.2s-0.2,0.9-0.5,1.2s-0.7,0.5-1.2,0.5C186.3,91.8,185.9,91.7,185.6,91.3z M188,106.4h-2.7V93.8h2.7V106.4z"
		/>
	<rect x="179.2" y="93.8" class="st0" width="2.7" height="17.6"/>
	<rect x="191.7" y="93.8" class="st0" width="2.7" height="17.6"/>
	<path class="st0" d="M179.3,91.3c-0.3-0.3-0.5-0.7-0.5-1.2s0.2-0.9,0.5-1.2s0.7-0.5,1.2-0.5c0.5,0,0.9,0.2,1.2,0.5
		c0.3,0.3,0.5,0.7,0.5,1.2s-0.2,0.9-0.5,1.2s-0.7,0.5-1.2,0.5C180,91.8,179.6,91.7,179.3,91.3z"/>
	<path class="st0" d="M191.8,91.3c-0.3-0.3-0.5-0.7-0.5-1.2s0.2-0.9,0.5-1.2c0.3-0.3,0.7-0.5,1.2-0.5c0.5,0,0.9,0.2,1.2,0.5
		s0.5,0.7,0.5,1.2s-0.2,0.9-0.5,1.2c-0.3,0.3-0.7,0.5-1.2,0.5C192.5,91.8,192.1,91.7,191.8,91.3z"/>
</g>
<g>
	<path class="st0" d="M74.6,83.3c-2.1-2.1-4.3-2.1-8-2.1H54.1c-3.7,0-5.8,0-8,2.1c-2.1,2.1-2.1,4.3-2.1,8v12.5c0,3.7,0,5.8,2.1,8
		c2.1,2.1,4.3,2.1,8,2.1h12.5c3.7,0,5.8,0,8-2.1c2.1-2.1,2.1-4.3,2.1-8V91.3C76.7,87.6,76.7,85.4,74.6,83.3z M60,110.4v-7.3h0.7v7.3
		c-0.1,0-0.3,0-0.4,0C60.2,110.5,60.1,110.4,60,110.4z M62.7,110.2V96.6h0.6v5.9c0,0.4,0.4,0.8,0.8,0.8c0.4,0,0.8-0.4,0.8-0.8v-6.7
		l0,0c0-0.9-0.7-1.6-1.7-1.6h-5.8c-0.9,0-1.7,0.7-1.7,1.6v6.7c0,0.4,0.4,0.8,0.8,0.8s0.8-0.4,0.8-0.8v-5.9H58v13.7
		c-6-1.1-10.6-6.4-10.6-12.7c0-7.1,5.8-12.9,12.9-12.9s12.9,5.8,12.9,12.9C73.3,103.9,68.7,109.1,62.7,110.2z"/>
	<path class="st0" d="M60.4,89.3c-1.1,0-1.9,0.9-1.9,1.9s0.9,1.9,1.9,1.9c1.1,0,1.9-0.9,1.9-1.9C62.3,90.2,61.4,89.3,60.4,89.3z"/>
</g>
</svg>
