<?xml version="1.0" encoding="utf-8"?>
<!-- Generator: Adobe Illustrator 22.0.1, SVG Export Plug-In . SVG Version: 6.00 Build 0)  -->
<svg version="1.1" id="bodyenfit" xmlns="http://www.w3.org/2000/svg" xmlns:xlink="http://www.w3.org/1999/xlink" x="0px" y="0px"
	 viewBox="0 0 256.2 198.1" style="enable-background:new 0 0 256.2 198.1;" xml:space="preserve">
<style type="text/css">
	.st0{fill:#FFFFFF;}
</style>
<path class="st0" d="M161.2,109.3c-0.1,3.6,2.2,5.1,4.9,5.1c1.9,0.1,4.1-0.9,5.3-2.8l-0.1-0.2l-1.2-0.1l-0.2,0.1
	c-0.6,0.7-1.3,1.2-2.2,1.3c-1.3,0.1-2.2-0.5-1.8-3.2c7.1-0.4,10-2.3,10-5.8c0.1-1.6-1.5-3.6-4.9-3.6
	C166.3,100.1,161.3,104.8,161.2,109.3z M170.2,102.8c0.7-0.7,1.9-0.8,2-0.1c0.2,1.5-1.2,3.6-5.1,4.6
	C168.2,104.4,169.2,103.6,170.2,102.8z"/>
<path class="st0" d="M167.6,87.1h-7.8l-0.6,1.6c0.7,0,1.9,0.3,1.5,1.1l-9.4,21.1c-0.5,1.1-0.8,1.6-2.8,1.5l-0.6,1.6h10.2l0.4-1.3
	c-1.6,0-2.5,1-1.6-1.1L167.6,87.1z"/>
<path class="st0" d="M128.9,105.5c-0.9,0-2.5,0.2-3.8,1.2c-0.8,0.7-1.7,1.4-1.9,3.5c-0.2,2.1,1.8,3.9,4,4c1.6,0.1,3.1-0.6,4.7-1.7
	c1.7,3.2,5.9,1.8,7,0.1c0.4-0.6,0.6-1.1-0.1-1.2c-0.5-0.1-1.1,0.6-1.5,0.4c-0.3-0.1,0.1-0.9,0.2-1.3l2.2-5.5c1-2.4-1.2-4.7-4.9-4.7
	c-3.3,0-4.3,0.8-5,1.5c-1.3,1.4-0.9,2.8,0.4,2.9c0.8,0.1,1.4-0.3,2.5-1.5c0.4-0.5,0.9-1.3,1.6-1.2c0.6,0.1,0.9,0.6-0.7,4.2
	C132.2,105.9,131,105.3,128.9,105.5z M131.8,109.7c-0.4,1.2-1.3,1.9-2,2c-0.9,0.2-1.7-0.1-1.5-1c0.3-1.4,1.5-3.2,4.3-3.3
	L131.8,109.7z"/>
<path class="st0" d="M192.8,117c-8.5,6.5-17.7,8.9-30.6,7.3l-19.9-2.4l8.2-19.4h2.1c1.1-0.1,1.7-2,0.7-2h-1.8l4-9.5
	c2.5-5.9,6.5-11.7,10.2-11.2c-0.7,0.6-1.5,1.6-1.4,2.4c0.1,0.8,0.8,2.2,2.6,2.1c1.9-0.1,3.3-1,3.6-2.8c0.4-2.5-2.3-3.2-4.7-3.3
	c-6.2-0.1-12,3.9-15.3,11.2l-4.8,11h-2.4c-1.4,0-2.1,2-0.6,2h2.1l-8.2,18.7l-57.1-7.8C86,107,90.7,98.8,94.8,89
	c5.8-14,11.3-18,17.8-18.5c3.7-0.3,9.5,0.8,8.5,6c-1.6,8.3-10.2,14-18.8,13.3c-1.9-0.1-1,1.9-0.4,1.9c10.1,0.6,15.9-3.1,20.1-7.5
	c2.7-2.8,4.5-7.1,3.5-10.4c-1.5-4.7-8.4-5.2-12.1-5.2c-11.1,0.2-20.8,5.9-26,18.3c-3.7,9.2-7.8,16.9-14.8,25.5
	c-3.8-0.7-8.5-1.6-13.6-1.3c-3.7,0.2-8.9,0.6-10.2,5c-1.2,4.2,4.4,6.5,8.9,6.6c6,0.2,11.8-2.1,16.4-5.5l60.8,9.1
	c-1.6,3.2-3.8,5.2-8.5,6c0,0.7,0.4,1.2,2,1.2c5.2,0,9.2-2.7,11.4-6.5l18,2c8.5,0.9,15.2,0.2,21.5-2c5.1-1.8,9.8-4.8,14.1-8.9
	C194.5,117,193.8,116.2,192.8,117z M56.3,120.1c-2.7-0.1-6.4-1.4-5.5-3.6c0.5-1.1,3-1.8,5.9-1.9c4,0,9.2,0.9,12,1.5
	C65.5,119.4,60.6,120.2,56.3,120.1z"/>
<path class="st0" d="M120.2,101.8h1.1c0.5,0,1.1,0.3,0.4,0.7l-3.8,2.6l-0.8-2.4c-0.3-0.9,0.1-0.9,0.6-0.9h1.3l0.4-1.5h-9.3l-0.4,1.3
	c1.5,0.2,1.5,0.9,1.9,2l1.7,5.3l-4,2.8c-0.4,0.2-1.3,0.9-2.5,0.9l-0.6,1.5h5.2l0.4-1.3c-0.5-0.2-1-0.2-0.1-0.8l2-1.6l0.4,1.3
	c0.3,1-0.2,0.9-1.1,0.9l-0.3,1.5h9.1l0.4-1.5c-1,0-1.8,0.2-2.2-0.9l-1.6-4.7l4.3-3c1.4-0.9,2.3-1.5,2.8-1.7c0.6-0.3,0.9-0.4,1.5-0.4
	l0.7-1.6h-7.2L120.2,101.8z"/>
<path class="st0" d="M108.9,100.4h-8l-0.6,1.5c1.8,0,1.7,0.5,1.5,1l-1.6,4.1c-0.4,1.3-0.8,1.4-2.4,2.5l-2.3,1.6
	c-1.2,0.8-1.2,0.2-0.5-1.5l4.1-9.2h-8.4l-0.6,1.5c1.8,0.2,2,0.4,1.7,1.2l-2.4,5.9c-2.3,5.6,2,6.5,5.3,4.3l4.2-3l-1.4,3.6l0.1,0.2
	h7.1l0.6-1.6c-1.3,0-1.5,0-0.9-1.5L108.9,100.4z"/>
<path class="st0" d="M186.6,101.9h1.1c0.5,0,1,0.3,0.4,0.7l-3.8,2.6l-0.8-2.4c-0.3-0.8,0.2-0.9,0.6-0.9h1.4l0.4-1.5h-9.3l-0.4,1.3
	c1.5,0.2,1.5,0.8,1.8,1.9l1.3,5.3l-4,2.8c-0.2,0.1-0.6,0.7-1.4,0.8c-0.5,0.1-1.4,0.1-1.7,0.1l-0.6,1.5h5.9l0.4-1.3
	c-0.5-0.2-0.9-0.2-0.1-0.8l2.1-1.5l0.4,1.3c0.3,0.9-0.2,0.9-1.1,0.9l-0.3,1.5h9.5l0.4-1.5c-0.9,0-2.2,0-2.5-0.9l-1.6-4.7l4.3-3
	c1.3-0.9,2.3-1.5,2.8-1.7c0.6-0.3,0.9-0.4,1.5-0.4l0.7-1.6h-7.1L186.6,101.9z"/>
<path class="st0" d="M202,69.1c-2.6,0.1-4.9,2.2-4.9,4.9c0,2.7,2.3,4.8,4.9,4.8c2.6,0,4.9-2.1,4.9-4.8
	C206.9,71.3,204.6,69.1,202,69.1z M202,78.2c-2.3,0-4.1-1.9-4.1-4.2c0-2.3,1.8-4.2,4.1-4.2c2.3,0,4.1,1.8,4.1,4.2
	C206.1,76.4,204.2,78.2,202,78.2z"/>
<path class="st0" d="M202.6,74.2c0.6,0,1.5-0.5,1.5-1.5c0-1.4-1.2-1.6-1.6-1.6h-2.2v5.8h0.8v-2.6h0.3l1.8,2.6h1.1l-1.8-2.7H202.6z
	 M201.1,73.5v-1.6h0h0.9c0.8,0,1,0.4,1,0.8c0,0.4-0.1,0.8-1.1,0.8H201.1z"/>
</svg>
