<?xml version="1.0" encoding="utf-8"?>
<!-- Generator: Adobe Illustrator 22.0.1, SVG Export Plug-In . SVG Version: 6.00 Build 0)  -->
<svg version="1.1" id="bodyenfit" xmlns="http://www.w3.org/2000/svg" xmlns:xlink="http://www.w3.org/1999/xlink" x="0px" y="0px"
	 viewBox="0 0 256.2 198.1" style="enable-background:new 0 0 256.2 198.1;" xml:space="preserve">
<style type="text/css">
	.st0{fill:#FFFFFF;}
</style>
<g>
	<g>
		<path class="st0" d="M198,83.3h-2.8c-0.6,0-0.9,0.3-1,0.9l-3.7,29.7c-0.1,0.6,0.2,0.9,0.8,0.9h2.8c0.6,0,0.8-0.3,0.9-0.9l3.8-29.6
			C198.9,83.6,198.7,83.3,198,83.3z M223.6,83.3h-19.4c-0.6,0-0.9,0.2-1,0.9l-0.2,2.1c-0.1,0.6,0.2,0.9,0.8,0.9h7.4l-3.4,26.8
			c-0.1,0.6,0.2,0.9,0.8,0.9h2.8c0.7,0,0.8-0.3,0.9-0.9l3.3-26.8h7.4c0.6,0,0.9-0.2,1-0.9l0.2-2.1C224.5,83.6,224.2,83.3,223.6,83.3
			z M163.1,96.6h-14.9c-3.6,0-4.9-1-4.9-2.9c0-0.2,0-0.5,0.1-0.9l0.2-1.9c0.3-3,2.4-3.9,5.5-3.9c2.5,0,4.8,0.5,4.8,3v0.5l-0.1,0.9
			c0,0.5,0.1,0.9,0.7,0.9h2.7c0.6,0,0.9-0.2,1-0.9l0.1-1.5v-0.7c0-3.8-3.1-5.9-8.8-5.9c-7.7,0-9.7,3.1-10.1,6.8l-0.4,3.3
			c0,0.3-0.1,0.7-0.1,1c0,1.8,0.8,3.2,3.2,3.9c-3.3,0.9-4.4,2.6-4.7,5.2l-0.6,4.4c0,0.4,0,0.7,0,1c0,3.4,2.6,6,10.2,6
			c8.5,0,11.2-3.2,11.7-6.9l0.9-7.5h3.1c0.6,0,0.9-0.5,1-1.1l0.2-1.9C163.9,96.9,163.7,96.6,163.1,96.6z M154.3,107.4
			c-0.3,2.5-2.5,3.9-7,3.9c-3.7,0-6.2-1-6.2-3.2c0-0.2,0-0.3,0-0.7l0.4-3.3c0.3-2.5,1.6-3.6,5.8-3.6h7.8L154.3,107.4z M187.9,83.3
			h-17c-0.6,0-0.9,0.3-1,0.9l-0.8,6.6l0,0l-0.1,0.5c-0.1,0.7,0.2,0.9,0.8,0.9h2.9c0.7,0,0.9-0.2,1-0.9l0.1-0.5l0,0l0.5-3.7h13.3
			c0.6,0,0.9-0.2,1-0.9l0.3-2.1C188.8,83.6,188.5,83.3,187.9,83.3z M185.4,96.6h-16.1l0,0h-0.2c-0.6,0-0.8,0.3-0.9,0.9l-2,16.5
			c-0.1,0.6,0.2,0.9,0.8,0.9h2.8c0.7,0,0.8-0.3,0.9-0.9l1.7-13.5h12.5c0.6,0,0.9-0.3,1-0.9l0.3-2.2
			C186.3,96.8,186.1,96.6,185.4,96.6z M44.1,83.3h-7.9c-0.8,0-1.7,0.3-1.9,1.8l-3.5,27.8c-0.1,0.6,0,1.1,0.3,1.4
			c0.3,0.4,0.8,0.5,1.4,0.5h9.7c7.4,0,11.5-2.5,12.1-7.4l0.4-3.1c0-0.4,0-0.8,0-1c0-2-1.2-3.9-3.2-5c1.8-1.1,2.8-2.6,3-4.8l0.3-2.3
			c0-0.4,0.1-0.9,0.1-1.1C54.9,88.1,53.9,83.3,44.1,83.3z M47.3,104.5l-0.2,1.7c-0.1,0.6-0.2,2.4-4.5,2.4h-3.8l0.9-6.8h4
			c1.6,0,3.6,0.4,3.6,2.1C47.3,104,47.3,104.1,47.3,104.5z M47.4,92l-0.2,1.3c-0.2,1.7-1.7,2.5-4.3,2.5h-2.5l0.8-6.3h2.6
			c3.6,0,3.6,1.3,3.6,1.8C47.5,91.5,47.5,91.7,47.4,92z M71.5,83.3c-9.8,0-11.8,4.8-12.2,7.7l-1.9,15.8v0.2c0,0.4-0.1,0.7-0.1,1
			c0,1.6,0.8,7,10.8,7c9.8,0,11.9-4.8,12.2-7.7l1.9-15.7c0-0.4,0-0.9,0-1.2C82.3,87,79.5,83.3,71.5,83.3z M74.7,92.2L72.9,106
			c-0.2,1.7-1.7,2.6-4.4,2.6c-2.5,0-3.7-0.7-3.7-2c0-0.1,0-0.3,0.1-0.6l1.7-13.8c0.3-2.4,3.2-2.6,4.4-2.6c2.5,0,3.7,0.7,3.7,2
			C74.8,91.8,74.8,92,74.7,92.2z M98.6,83.3h-9.4c-0.8,0-1.7,0.3-1.9,1.8l-3.5,27.8c-0.1,0.6,0.1,1.1,0.4,1.5
			c0.2,0.2,0.6,0.5,1.2,0.5h10.1c9.2,0,11.6-4.3,12.1-7.9l1.9-15.1c0-0.3,0.1-1.1,0.1-1.4C109.6,88.9,108.8,83.3,98.6,83.3z
			 M101.9,92.7l-1.6,13.1c-0.3,2.2-2.5,2.7-4.4,2.7h-4l2.3-18.7h4.1c3.7,0,3.7,1.5,3.7,2.1C102,91.9,102,92.4,101.9,92.7z
			 M134.1,83.3h-3.9c-1.2,0-1.8,1-2.1,1.5l-6,10.3l-2-6.5L119,85c-0.1-0.5-0.4-1.6-1.9-1.6h-4.3c-0.6,0-1.1,0.2-1.5,0.6
			c-0.3,0.4-0.3,0.9-0.2,1.4l6.2,18l-1.2,9.5c-0.1,0.6,0,1.1,0.3,1.4s0.7,0.5,1.3,0.5h4.1c1.7,0,1.8-1.3,1.9-1.7l1.1-9.3l10.6-18.3
			c0.4-0.7,0.3-1.2,0.1-1.5C135.3,83.8,135,83.3,134.1,83.3z M228.3,79.3h-0.7c-0.1,0-0.1,0-0.1,0.1l-0.3,2.2c0,0.1,0,0.1,0.1,0.1
			h0.3c0.1,0,0.1,0,0.1-0.1l0.1-0.8h0.4l0.2,0.8c0,0,0,0.1,0.1,0.1h0.3c0.1,0,0.1,0,0.1-0.1l-0.3-0.9c0.3-0.1,0.4-0.3,0.4-0.5v-0.3
			v-0.1C229.1,79.5,228.9,79.3,228.3,79.3z M228.6,80L228.6,80c0,0.3-0.2,0.3-0.4,0.3h-0.3l0.1-0.7h0.4
			C228.5,79.7,228.6,79.7,228.6,80C228.6,79.9,228.6,79.9,228.6,80z M228.1,77.8c-1.5,0-2.7,1.2-2.7,2.7s1.2,2.7,2.7,2.7
			s2.7-1.2,2.7-2.7S229.6,77.8,228.1,77.8z M228.1,82.5c-1.1,0-2-0.9-2-2s0.9-2,2-2s2,0.9,2,2C230.2,81.6,229.3,82.5,228.1,82.5z"/>
	</g>
</g>
</svg>
