<?xml version="1.0" encoding="utf-8"?>
<!-- Generator: Adobe Illustrator 22.0.1, SVG Export Plug-In . SVG Version: 6.00 Build 0)  -->
<svg version="1.1" id="bodyenfit" xmlns="http://www.w3.org/2000/svg" xmlns:xlink="http://www.w3.org/1999/xlink" x="0px" y="0px"
	 viewBox="0 0 256.2 198.1" style="enable-background:new 0 0 256.2 198.1;" xml:space="preserve">
<style type="text/css">
	.st0{fill:#FFFFFF;}
	.st1{opacity:0.6;fill:#FFFFFF;}
	.st2{opacity:0.4;fill:#FFFFFF;}
	.st3{opacity:0.8;fill:#FFFFFF;}
</style>
<polygon class="st0" points="89.1,123.1 84.8,134 80.5,123.1 75.3,123.1 82.3,139.7 87.2,139.7 94.1,123.1 "/>
<rect x="106.1" y="122.9" class="st0" width="4.6" height="16.8"/>
<rect x="140.2" y="122.9" class="st0" width="4.6" height="16.8"/>
<polygon class="st0" points="121.2,126.6 118.7,135.3 116.1,126.6 111.3,126.6 115.6,139.7 121.4,139.7 125.7,126.6 "/>
<rect x="146.3" y="126.6" class="st0" width="4.6" height="13.1"/>
<rect x="146.3" y="122.9" class="st0" width="4.6" height="2.4"/>
<path class="st0" d="M161.5,126.6h-9v13.1h4.6v-10.4h3.4v10.4h4.6v-9.8C165.2,127.4,163.5,126.6,161.5,126.6"/>
<path class="st0" d="M130.5,137.1v-7.6h3.6v7.6H130.5 M135.4,139.7c2.3,0,3.4-1,3.4-3.1c0-1.8,0-6.7,0-6.7c0-2.7-1.8-3.2-3.4-3.2h-6
	c-1.7,0-3.4,0.5-3.4,3.2c0,0,0,5,0,6.7c0,2,1.1,3.1,3.4,3.1H135.4z"/>
<path class="st0" d="M100,137.1H96v-3.6h3.9V137.1 M104.6,129.9c0-2.7-1.7-3.3-3.9-3.3H94l-1,2.4h7v1.9h-4.7c-1.9,0-3.7,0.6-3.7,3.3
	c0,1.5,0,2.5,0,2.5c0,1.9,1.1,2.9,3.6,2.9c1.8,0,9.4,0,9.4,0V129.9z"/>
<path class="st0" d="M171.2,129.3h3.9v3.3h-3.9V129.3z M166.6,130.2v6.2c0,1.1,0.4,1.9,0.6,2.3c0.6,0.6,1.5,1.1,3.3,1.1h7.4l0.6-2.4
	h-7.4v-2.2h5c2,0,3.3-0.8,3.3-3.1c0-1.5,0-2.4,0-2.4c0-2.4-1.5-3.1-3.7-3.1c-1.1,0-3.2,0-5.2,0C168.2,126.6,166.6,127.6,166.6,130.2
	"/>
<polygon class="st0" points="129.3,89.8 129.3,89.8 128,87.9 "/>
<polygon class="st0" points="146,61 146,61 147.1,63 "/>
<polygon class="st0" points="146,61 128,87.9 146,61 "/>
<polygon class="st0" points="146,61 146,61 147.1,63 "/>
<polygon class="st0" points="129.3,89.8 128,87.9 128.6,88.8 129.3,89.8 "/>
<polygon class="st0" points="146,61 128,87.9 146,61 "/>
<polygon class="st0" points="144.5,112.7 144.5,112.7 129.3,89.8 129.3,89.8 "/>
<polygon class="st0" points="145.7,114.4 145.9,114.7 145.5,114.2 "/>
<path class="st0" d="M144.5,58.2L128,82.9l-16.3-24.6H68.3l40.4,59.4h38.7L188,58.2v0H144.5z M182.6,61L182.6,61l-36.7,53.8h0h-35.7
	h0L73.6,61l0,0l0,0h36.6L128,87.9l0.6,0.8l-0.6-0.8L146,61L182.6,61L182.6,61L182.6,61z"/>
<polygon class="st1" points="110.2,61 73.6,61 73.6,61 73.6,61 110.2,114.7 128,87.9 "/>
<polygon class="st2" points="146,61 128,87.9 146,61 146,61 146,61 147.1,63 146,61 128,87.9 129.3,89.8 144.5,112.7 144.5,112.7 
	145.5,114.2 145.9,114.7 182.6,61 182.6,61 182.6,61 182.6,61 "/>
<polygon class="st0" points="129.3,89.8 128.6,88.8 129.3,89.8 "/>
<polygon class="st3" points="145.5,114.2 144.5,112.7 144.5,112.7 129.3,89.8 129.3,89.8 128.6,88.8 128,87.9 111.5,112.7 
	111.5,112.7 110.2,114.7 110.2,114.7 145.9,114.7 145.9,114.7 145.7,114.4 "/>
<polygon class="st0" points="111.5,112.7 128,87.9 110.2,114.7 111.5,112.7 "/>
<polygon class="st0" points="145.5,114.2 144.5,112.7 144.5,112.7 "/>
</svg>
