<?xml version="1.0" encoding="utf-8"?>
<!-- Generator: Adobe Illustrator 22.0.1, SVG Export Plug-In . SVG Version: 6.00 Build 0)  -->
<svg version="1.1" id="bodyenfit" xmlns="http://www.w3.org/2000/svg" xmlns:xlink="http://www.w3.org/1999/xlink" x="0px" y="0px"
	 viewBox="0 0 256.2 198.1" style="enable-background:new 0 0 256.2 198.1;" xml:space="preserve">
<style type="text/css">
	.st0{fill:#FFFFFF;}
</style>
<g>
	<g>
		<path class="st0" d="M45.4,97.8c2.3-4,7.5-6,15.4-6h18.2v-6.7c0-3.5-2.8-6.4-6.4-6.4H44.7c-3.5,0-6.4,2.8-6.4,6.4v22.6L45.4,97.8z
			"/>
		<path class="st0" d="M76.1,97.6H64.6c-2.9,0-5.2,0.7-6.8,2l-10.6,14.6l-3.6,4.9c0.4,0,0.7,0.1,1.1,0.1h27.9c3.5,0,6.4-2.8,6.4-6.4
			V97.6H76.1z"/>
	</g>
	<g>
		<path class="st0" d="M103.2,95.8c2.8-0.9,3.9-3.2,3.9-6.4v-3.5c0-4.7-2.3-7.2-8.4-7.2H87.8v26.6h4.9v-8.8h4.7l6,8.8h6L103.2,95.8z
			 M102.1,88.9c0,2.3-0.8,3.2-3.6,3.2h-5.6v-9.1h5.6c2.7,0,3.6,0.9,3.6,3.2V88.9z"/>
		<path class="st0" d="M127.9,78.7H121l-8.3,26.6h5.2l1.6-5.5h9.8l1.7,5.5h5.2L127.9,78.7z M120.7,95.4l3.6-12.6l3.6,12.6H120.7z"/>
		<path class="st0" d="M150.9,78.7h-10.2v26.6h4.9v-8.7h5.1c6.1,0,8.5-2.5,8.5-7.2v-3.5C159.3,81.2,157,78.7,150.9,78.7z
			 M154.2,88.9c0,2.1-0.8,3.2-3.6,3.2h-4.9v-9.1h4.9c2.7,0,3.6,0.9,3.6,3.2V88.9z"/>
		<rect x="164.1" y="78.7" class="st0" width="4.9" height="26.6"/>
		<path class="st0" d="M185.2,78.7h-9.8v26.6h9.8c6.4,0,8.7-3.3,8.7-7.2V85.9C193.9,82,191.6,78.7,185.2,78.7z M189,97
			c0,2.5-0.9,3.9-4.3,3.9h-4.3V83.1h4.3c3.3,0,4.3,1.3,4.3,3.9V97z"/>
		<polygon class="st0" points="199.8,78.7 215.9,78.7 215.9,83.1 204.9,83.1 204.9,89.5 215,89.5 215,94 204.9,94 204.9,100.8 
			215.9,100.8 215.9,105.2 199.8,105.2 		"/>
	</g>
	<g>
		<rect x="88.2" y="111.8" class="st0" width="0.9" height="7.5"/>
		<polygon class="st0" points="102.7,111.8 104.3,111.8 107.5,118.5 107.6,118.5 107.6,111.8 108.6,111.8 108.6,119.3 106.9,119.3 
			103.7,112.6 103.6,112.6 103.6,119.3 102.7,119.3 		"/>
		<polygon class="st0" points="120.7,111.8 126.3,111.8 126.3,112.6 123.9,112.6 123.9,119.3 123.1,119.3 123.1,112.6 120.7,112.6 
					"/>
		<polygon class="st0" points="138.6,111.8 143.4,111.8 143.4,112.5 139.5,112.5 139.5,115.1 142.7,115.1 142.7,115.8 139.5,115.8 
			139.5,118.5 143.4,118.5 143.4,119.3 138.6,119.3 		"/>
		<path class="st0" d="M160.2,116.2c1.1-0.3,1.5-1.1,1.5-2.1c0-1.6-0.9-2.3-2.5-2.3h-2.9v7.5h0.9v-2.8h1.9h0.3l1.5,2.9h0.9
			L160.2,116.2z M159.2,115.7h-2v-3.2h2c1.1,0,1.6,0.5,1.6,1.5C160.9,114.9,160.4,115.7,159.2,115.7z"/>
		<polygon class="st0" points="174.7,111.8 176.3,111.8 179.3,118.5 179.6,118.5 179.6,111.8 180.5,111.8 180.5,119.3 178.9,119.3 
			175.7,112.6 175.5,112.6 175.5,119.3 174.7,119.3 		"/>
		<polygon class="st0" points="193.6,111.8 198.4,111.8 198.4,112.5 194.6,112.5 194.6,115.1 197.8,115.1 197.8,115.8 194.6,115.8 
			194.6,118.5 198.4,118.5 198.4,119.3 193.6,119.3 		"/>
		<polygon class="st0" points="210.3,111.8 215.9,111.8 215.9,112.6 213.5,112.6 213.5,119.3 212.7,119.3 212.7,112.6 210.3,112.6 
					"/>
	</g>
</g>
</svg>
