<?xml version="1.0" encoding="utf-8"?>
<!-- Generator: Adobe Illustrator 22.0.1, SVG Export Plug-In . SVG Version: 6.00 Build 0)  -->
<svg version="1.1" id="bodyenfit" xmlns="http://www.w3.org/2000/svg" xmlns:xlink="http://www.w3.org/1999/xlink" x="0px" y="0px"
	 viewBox="0 0 256.2 198.1" style="enable-background:new 0 0 256.2 198.1;" xml:space="preserve">
<style type="text/css">
	.st0{fill:#FFFFFF;}
	.st1{opacity:0.8;fill:#FFFFFF;}
	.st2{opacity:0.6;fill:#FFFFFF;}
	.st3{opacity:0.2;fill:#FFFFFF;}
	.st4{opacity:0.4;fill:#FFFFFF;}
</style>
<g>
	<path class="st0" d="M63,86.8h8.6c3.3,0,5.8,1.4,7.5,4.3c0.6,0.9,1,1.9,1.1,3c0.1,1,0.2,1.9,0.2,4.5c0,2.7-0.1,3.7-0.3,4.8
		c-0.1,0.5-0.2,1-0.4,1.5c-0.2,0.4-0.4,0.8-0.7,1.3c-0.7,1.2-1.7,2.2-3,2.9c-1.3,0.8-2.8,1.2-4.6,1.2H63C63,110.2,63,86.8,63,86.8z
		 M66.8,106.6h4.4c2.1,0,3.6-0.7,4.5-2.2c0.4-0.5,0.7-1.2,0.8-2.1c0.1-0.8,0.2-1.4,0.2-3.7c0-2.2-0.1-2.8-0.2-3.8
		c-0.1-0.9-0.5-1.7-1-2.3c-1-1.5-2.5-2.2-4.4-2.1h-4.4V106.6z"/>
	<path class="st0" d="M173.5,86.8h8.6c3.3,0,5.8,1.4,7.5,4.3c0.6,0.9,1,1.9,1.1,3c0.1,1,0.2,1.9,0.2,4.5c0,2.7-0.1,3.7-0.3,4.8
		c-0.1,0.5-0.2,1-0.4,1.5c-0.2,0.4-0.4,0.8-0.7,1.3c-0.7,1.2-1.7,2.2-3,2.9c-1.3,0.8-2.8,1.2-4.6,1.2h-8.3L173.5,86.8L173.5,86.8z
		 M177.2,106.6h4.4c2.1,0,3.6-0.7,4.5-2.2c0.4-0.5,0.7-1.2,0.8-2.1c0.1-0.8,0.2-1.4,0.2-3.7c0-2.2-0.1-2.8-0.2-3.8
		c-0.1-0.9-0.5-1.7-1-2.3c-1-1.5-2.5-2.2-4.4-2.1h-4.4L177.2,106.6L177.2,106.6z"/>
	<path class="st0" d="M83.3,101.2c0-1.9,0.2-3.4,0.5-4.4c0.3-1,0.8-1.8,1.4-2.5c0.5-0.6,1.2-1.1,2-1.6c0.9-0.4,1.9-0.7,3.3-0.7
		c1.4,0,2.5,0.3,3.3,0.7c0.8,0.5,1.5,1,1.9,1.6c0.7,0.7,1.2,1.5,1.5,2.5c0.3,1,0.4,2.5,0.4,4.4c0,1.9-0.1,3.3-0.4,4.3
		c-0.3,1-0.8,1.9-1.5,2.6c-0.2,0.3-0.5,0.5-0.8,0.8c-0.3,0.3-0.7,0.5-1.1,0.7c-0.9,0.5-2,0.8-3.3,0.8c-1.3,0-2.4-0.3-3.3-0.8
		c-0.9-0.5-1.5-1-2-1.5c-0.6-0.7-1.1-1.6-1.4-2.6C83.4,104.6,83.3,103.1,83.3,101.2 M94.1,101.3c0-1.3-0.1-2.2-0.2-2.8
		c-0.1-0.6-0.3-1.1-0.7-1.5c-0.3-0.4-0.6-0.7-1.1-1c-0.5-0.2-1-0.4-1.7-0.4c-0.6,0-1.1,0.1-1.6,0.4c-0.5,0.2-0.9,0.6-1.2,1
		c-0.3,0.4-0.5,0.9-0.7,1.5c-0.1,0.6-0.2,1.5-0.2,2.8c0,1.3,0.1,2.2,0.2,2.7c0.1,0.6,0.4,1.1,0.7,1.6c0.3,0.3,0.7,0.7,1.2,0.9
		c0.5,0.3,1.1,0.4,1.6,0.4c0.6,0,1.2-0.1,1.7-0.4c0.5-0.3,0.9-0.6,1.1-0.9c0.3-0.5,0.6-1,0.7-1.6C94.1,103.4,94.1,102.5,94.1,101.3"
		/>
	<path class="st0" d="M101.9,104.7c1.4,1.5,3.3,2.3,5.5,2.3c1,0,1.8-0.2,2.5-0.6c0.6-0.4,1-1,1-1.7c0-0.6-0.2-1.1-0.6-1.4
		c-0.4-0.3-0.9-0.4-1.6-0.4l-3.1-0.3c-1.5-0.1-2.7-0.6-3.6-1.5c-0.9-0.9-1.4-2.1-1.4-3.6c0-1.8,0.7-3.2,1.9-4.2
		c1.2-0.9,2.7-1.4,4.6-1.4c0.8,0,1.5,0.1,2.2,0.2c0.6,0.1,1.2,0.3,1.8,0.5c1.1,0.4,2,1.1,2.9,1.8l-2.2,2.6c-0.7-0.5-1.4-0.9-2.1-1.2
		c-0.7-0.3-1.6-0.4-2.6-0.4c-1.1,0-1.9,0.2-2.3,0.6c-0.5,0.4-0.7,0.9-0.7,1.6c0,0.4,0.2,0.8,0.5,1.1c0.3,0.3,0.9,0.5,1.8,0.6
		l2.9,0.2c1.8,0.1,3.1,0.7,3.9,1.7c0.8,1,1.1,2.2,1.1,3.7c0,1.7-0.7,3.1-2.1,4c-1.3,1-3.1,1.5-5.2,1.5c-2.8,0-5.4-1.1-7.7-3.2
		L101.9,104.7z"/>
	<path class="st0" d="M119,104.7c1.4,1.5,3.3,2.3,5.5,2.3c1,0,1.8-0.2,2.5-0.6c0.6-0.4,1-1,1-1.7c0-0.6-0.2-1.1-0.6-1.4
		c-0.4-0.3-0.9-0.4-1.6-0.4l-3.1-0.3c-1.5-0.1-2.7-0.6-3.6-1.5c-0.9-0.9-1.4-2.1-1.4-3.6c0-1.8,0.7-3.2,1.9-4.2
		c1.2-0.9,2.7-1.4,4.6-1.4c0.8,0,1.5,0.1,2.2,0.2c0.6,0.1,1.2,0.3,1.8,0.5c1.1,0.4,2,1.1,2.9,1.8l-2.2,2.6c-0.7-0.5-1.4-0.9-2.1-1.2
		c-0.7-0.3-1.6-0.4-2.6-0.4c-1.1,0-1.9,0.2-2.3,0.6c-0.5,0.4-0.7,0.9-0.7,1.6c0,0.4,0.2,0.8,0.5,1.1c0.3,0.3,0.9,0.5,1.8,0.6
		l2.9,0.2c1.8,0.1,3.1,0.7,3.9,1.7c0.8,1,1.1,2.2,1.1,3.7c0,1.7-0.7,3.1-2.1,4c-1.3,1-3.1,1.5-5.2,1.5c-2.8,0-5.4-1.1-7.7-3.2
		L119,104.7z"/>
	<path class="st0" d="M134.7,86.8h3.5v3.6h-3.5V86.8z M134.7,92.3h3.5v18h-3.5V92.3z"/>
	<path class="st0" d="M144.8,102.6c0,1.4,0.4,2.5,1.2,3.3c0.7,0.8,1.7,1.1,3,1.1c1.4,0,2.7-0.6,3.8-1.8l2.5,2.2
		c-1.8,2-3.9,2.9-6.3,2.9c-0.9,0-1.8-0.1-2.7-0.4c-0.4-0.2-0.9-0.4-1.3-0.6c-0.4-0.2-0.8-0.5-1.2-0.8c-0.7-0.7-1.3-1.6-1.8-2.8
		c-0.5-1.2-0.8-2.7-0.8-4.5c0-1.8,0.2-3.3,0.7-4.4c0.4-1.2,1-2.1,1.7-2.8c0.7-0.7,1.5-1.2,2.3-1.5c0.8-0.3,1.7-0.5,2.5-0.5
		c2,0,3.7,0.7,5,2c1.4,1.4,2.1,3.2,2.1,5.6v3L144.8,102.6L144.8,102.6z M152.1,99.6c0-1.4-0.4-2.5-1.1-3.2c-0.7-0.7-1.5-1-2.6-1
		c-1.1,0-1.9,0.3-2.6,1c-0.7,0.7-1,1.8-1.1,3.2H152.1z"/>
	<path class="st0" d="M158.9,92.3h3.5v1.9h0.1c1.2-1.4,2.7-2.1,4.5-2.1c1.4,0,2.6,0.5,3.7,1.4l-2.6,3.1c-0.7-0.6-1.5-0.9-2.3-0.9
		c-0.9,0-1.7,0.3-2.3,0.9c-0.7,0.6-1.1,1.5-1.1,2.9v10.8h-3.5L158.9,92.3L158.9,92.3z"/>
	<path class="st0" d="M203.8,108.6L203.8,108.6c-0.4,0.6-0.9,1.1-1.6,1.4c-0.7,0.3-1.6,0.4-2.8,0.4c-1.9,0-3.4-0.6-4.5-1.6
		c-1.1-1-1.7-2.3-1.7-3.9c0-1.5,0.5-2.8,1.4-3.8c1-1,2.4-1.5,4.2-1.6h4.8v-1.9c0-1.6-1.2-2.4-3.6-2.3c-0.9,0-1.6,0.1-2.1,0.3
		c-0.5,0.2-0.9,0.6-1.2,1.1l-2.8-2.2c1.3-1.8,3.3-2.7,5.9-2.6c2.2,0,3.9,0.4,5.2,1.3c1.3,0.9,2,2.4,2,4.6v12.3h-3.5L203.8,108.6
		L203.8,108.6z M203.8,102.6h-4.2c-2,0-3,0.8-3,2.2c0,0.6,0.3,1.1,0.8,1.6c0.5,0.5,1.3,0.7,2.5,0.7c1.5,0,2.5-0.2,3.1-0.5
		c0.5-0.4,0.8-1.2,0.8-2.6V102.6z"/>
	<path class="st0" d="M211.6,86.8h3.5v5.5h2.6V95h-2.6v10.5c0,0.9,0.4,1.4,1.2,1.3h1.3v3.4h-1.8c-1.2,0-2.2-0.4-3-1.2
		c-0.8-0.7-1.2-1.8-1.2-3.3V95h-1.8v-2.8h1.8L211.6,86.8L211.6,86.8z"/>
	<path class="st0" d="M230.4,108.6L230.4,108.6c-0.4,0.6-0.9,1.1-1.6,1.4c-0.7,0.3-1.6,0.4-2.8,0.4c-1.9,0-3.4-0.6-4.5-1.6
		c-1.1-1-1.7-2.3-1.7-3.9c0-1.5,0.5-2.8,1.4-3.8c1-1,2.4-1.5,4.2-1.6h4.8v-1.9c0-1.6-1.2-2.4-3.6-2.3c-0.9,0-1.6,0.1-2.1,0.3
		c-0.5,0.2-0.9,0.6-1.2,1.1l-2.8-2.2c1.3-1.8,3.3-2.7,5.9-2.6c2.2,0,3.9,0.4,5.2,1.3c1.3,0.9,2,2.4,2,4.6v12.3h-3.5L230.4,108.6
		L230.4,108.6z M230.4,102.6h-4.2c-2,0-3,0.8-3,2.2c0,0.6,0.3,1.1,0.8,1.6c0.5,0.5,1.3,0.7,2.5,0.7c1.5,0,2.5-0.2,3.1-0.5
		c0.5-0.4,0.8-1.2,0.8-2.6L230.4,102.6L230.4,102.6z"/>
	<path class="st0" d="M34,101.6h1h1.2h2.5h2.4c0.6,0,1.1-0.5,1.1-1.1v-1.9v-1.9c0-0.6-0.5-1.1-1.1-1.1h-2.4h-2.5h-1.2h-1h-3.6h-5.8
		v5.9h5.8C30.4,101.6,34,101.6,34,101.6z"/>
	<path class="st0" d="M47.2,83.8H31.5c-3.5,0-6.3,2.6-6.8,5.9h9.8c0,0,0.1,0,0.1,0H44c2.3,0,4.1,1.9,4.1,4.1v4.7v4.7
		c0,2.3-1.9,4.1-4.1,4.1h-5.2h-2.5H24.7c0.5,3.3,3.4,5.9,6.8,5.9h15.7c3.8,0,6.9-3.1,6.9-6.9V90.8C54.1,86.9,51,83.8,47.2,83.8"/>
	<path class="st1" d="M34,95.7h1h1.2v-5.9h-1.8h-9.8c0,0.3-0.1,0.7-0.1,1v4.9h5.8H34z"/>
	<path class="st2" d="M36.3,95.7h2.5h2.4c0.6,0,1.1,0.5,1.1,1.1v1.9h5.9v-4.7c0-2.3-1.9-4.1-4.1-4.1h-9.4c0,0-0.1,0-0.1,0h1.8V95.7z
		"/>
	<path class="st3" d="M36.3,101.6h-1.2h-1h-3.6h-5.8v4.9c0,0.3,0,0.7,0.1,1h11.6C36.3,107.5,36.3,101.6,36.3,101.6z"/>
	<path class="st4" d="M42.2,100.5c0,0.6-0.5,1.1-1.1,1.1h-2.4h-2.5v5.9h2.5H44c2.3,0,4.1-1.9,4.1-4.1v-4.7h-5.9V100.5z"/>
</g>
</svg>
