<?xml version="1.0" encoding="utf-8"?>
<!-- Generator: Adobe Illustrator 22.0.1, SVG Export Plug-In . SVG Version: 6.00 Build 0)  -->
<svg version="1.1" id="bodyenfit" xmlns="http://www.w3.org/2000/svg" xmlns:xlink="http://www.w3.org/1999/xlink" x="0px" y="0px"
	 viewBox="0 0 256.2 198.1" style="enable-background:new 0 0 256.2 198.1;" xml:space="preserve">
<style type="text/css">
	.st0{fill:#FFFFFF;}
</style>
<path class="st0" d="M78.8,106.8v-11H77v-3.3h1.9v-0.6c0-1.8,0.6-3.6,1.8-4.8c1.1-1.1,2.7-1.4,4-1.4c1,0,1.8,0.1,2.3,0.3l-0.1,3.4
	c-0.4-0.2-0.8-0.3-1.4-0.3c-1.5,0-2.1,1.1-2.1,2.5v0.7h2.9v3.3h-2.8v11L78.8,106.8L78.8,106.8z"/>
<path class="st0" d="M72.8,90.6c-1.5,0-2.5-1.1-2.5-2.4s1-2.4,2.5-2.4s2.5,1.1,2.5,2.4C75.4,89.5,74.4,90.6,72.8,90.6L72.8,90.6z
	 M70.6,106.8V92.5h4.4v14.3C75.1,106.8,70.6,106.8,70.6,106.8z"/>
<path class="st0" d="M56.2,88.6v3.9h3.2v3.3h-3.2v5.2c0,1.8,0.4,2.5,1.8,2.5c0.6,0,0.9,0,1.3-0.1v3.4c-0.6,0.2-1.6,0.4-2.9,0.4
	c-1.4,0-2.7-0.5-3.4-1.3c-0.8-0.8-1.3-2.2-1.3-4.3v-5.9h-1.8v-3.2h1.9v-2.7L56.2,88.6z"/>
<path class="st0" d="M65.7,88.6v3.9h3.2v3.3h-3.2v5.2c0,1.8,0.4,2.5,1.8,2.5c0.6,0,0.9,0,1.3-0.1v3.4c-0.6,0.2-1.6,0.4-2.9,0.4
	c-1.4,0-2.7-0.5-3.4-1.3c-0.8-0.8-1.3-2.2-1.3-4.3v-5.9h-1.9v-3.2h1.9v-2.7L65.7,88.6z"/>
<path class="st0" d="M89.9,107.2c-1.5,0-2.6-1.1-2.6-2.7c0-1.6,1.1-2.7,2.7-2.7c1.5,0,2.6,1.1,2.6,2.7
	C92.5,106,91.5,107.2,89.9,107.2L89.9,107.2z"/>
<path class="st0" d="M105.7,106.3c-0.7,0.4-2.2,0.8-4.1,0.8c-4.3,0-7.1-2.9-7.1-7.3c0-4.4,3-7.6,7.6-7.6c1.5,0,2.9,0.4,3.6,0.8
	l-0.6,2c-0.6-0.4-1.6-0.7-3-0.7c-3.2,0-5,2.5-5,5.4c0,3.3,2.1,5.3,4.9,5.3c1.5,0,2.5-0.4,3.2-0.7L105.7,106.3z"/>
<path class="st0" d="M114.3,107.2c-3.8,0-6.8-2.8-6.8-7.3c0-4.8,3.2-7.5,7-7.5c4.1,0,6.8,2.9,6.8,7.3
	C121.4,104.8,117.7,107.2,114.3,107.2C114.4,107.2,114.3,107.2,114.3,107.2z M114.4,105.2c2.5,0,4.3-2.3,4.3-5.5
	c0-2.4-1.2-5.4-4.3-5.4c-3,0-4.4,2.8-4.4,5.5C110.1,102.9,111.8,105.2,114.4,105.2L114.4,105.2z"/>
<path class="st0" d="M123.9,96.5c0-1.5-0.1-2.7-0.1-3.9h2.2l0.1,2.3h0.1c0.8-1.3,2.1-2.6,4.5-2.6c1.9,0,3.4,1.2,4,2.9h0.1
	c0.4-0.8,1.1-1.4,1.6-1.8c0.8-0.6,1.8-1,3.1-1c1.9,0,4.7,1.3,4.7,6.2v8.4h-2.5v-8.1c0-2.7-1.1-4.4-3.1-4.4c-1.5,0-2.6,1.1-3.1,2.3
	c-0.1,0.4-0.2,0.8-0.2,1.3v8.8h-2.5v-8.5c0-2.3-1-3.9-2.9-3.9c-1.6,0-2.8,1.3-3.2,2.6c-0.1,0.4-0.2,0.8-0.2,1.3v8.6h-2.5L123.9,96.5
	L123.9,96.5z"/>
<path class="st0" d="M147.6,97.3c0-1.8,0-3.3-0.1-4.6h2.3l0.1,2.5h0.1c1.1-1.8,2.7-2.7,5-2.7c3.4,0,6,2.9,6,7.2
	c0,5.1-3.2,7.6-6.5,7.6c-1.9,0-3.5-0.8-4.4-2.2h-0.1v7.7h-2.6L147.6,97.3L147.6,97.3z M150.2,101.1c0,0.4,0,0.7,0.1,1.1
	c0.4,1.8,2,3,3.9,3c2.7,0,4.3-2.2,4.3-5.5c0-2.9-1.5-5.3-4.2-5.3c-1.8,0-3.4,1.3-3.9,3.2c-0.1,0.4-0.1,0.7-0.1,1.1V101.1z"/>
<path class="st0" d="M174.3,103.4c0,1.3,0.1,2.5,0.2,3.4h-2.3l-0.2-1.8h-0.1c-0.8,1.1-2.3,2.1-4.4,2.1c-2.9,0-4.4-2-4.4-4.1
	c0-3.4,3-5.3,8.6-5.3v-0.3c0-1.2-0.4-3.3-3.2-3.3c-1.3,0-2.7,0.4-3.7,1.1l-0.6-1.8c1.2-0.7,2.9-1.3,4.7-1.3c4.4,0,5.4,2.9,5.4,5.8
	L174.3,103.4L174.3,103.4z M171.8,99.6c-2.8-0.1-6,0.4-6,3.2c0,1.7,1.1,2.5,2.4,2.5c1.9,0,3.1-1.2,3.5-2.4c0.1-0.3,0.1-0.6,0.1-0.8
	L171.8,99.6L171.8,99.6z"/>
<path class="st0" d="M177.7,96.5c0-1.5,0-2.7-0.1-3.9h2.3L180,95h0.1c0.7-1.3,2.3-2.7,4.7-2.7c2,0,5,1.2,5,6v8.5h-2.6v-8.1
	c0-2.3-0.8-4.2-3.3-4.2c-1.7,0-3,1.2-3.4,2.7c-0.1,0.4-0.2,0.8-0.2,1.2v8.6h-2.6L177.7,96.5L177.7,96.5z"/>
<path class="st0" d="M193.9,92.6l3.1,8.4c0.4,0.9,0.7,2,0.9,2.9h0.1c0.3-0.8,0.6-2,0.9-2.9l2.8-8.4h2.7l-3.9,10.1
	c-1.8,4.8-3.1,7.4-4.8,8.9c-1.3,1.1-2.5,1.5-3.2,1.6l-0.6-2.2c0.6-0.2,1.5-0.6,2.2-1.3c0.7-0.6,1.5-1.5,2.2-2.9
	c0.1-0.3,0.2-0.4,0.2-0.6c0-0.1-0.1-0.4-0.2-0.6l-5.2-13.1L193.9,92.6L193.9,92.6z"/>
<path class="st0" d="M207.5,88.8c1.1,0,1.9,0.8,1.9,2s-0.8,2-1.9,2c-1.1,0-2-0.8-2-2S206.4,88.8,207.5,88.8L207.5,88.8z M207.5,89.1
	c-0.8,0-1.5,0.7-1.5,1.6c0,0.9,0.7,1.7,1.5,1.7c0.8,0,1.5-0.7,1.5-1.6C209.1,89.8,208.4,89.1,207.5,89.1
	C207.5,89.1,207.5,89.1,207.5,89.1z M207.1,91.9h-0.4v-2.2c0.2,0,0.4-0.1,0.6-0.1c0.4,0,0.6,0.1,0.7,0.1s0.2,0.2,0.2,0.4
	c0,0.3-0.2,0.5-0.4,0.6l0,0c0.2,0,0.4,0.2,0.4,0.6c0.1,0.4,0.1,0.5,0.1,0.6H208c-0.1-0.1-0.1-0.3-0.1-0.6c-0.1-0.3-0.2-0.4-0.5-0.4
	h-0.3V91.9L207.1,91.9z M207.1,90.7h0.3c0.3,0,0.6-0.1,0.6-0.4c0-0.2-0.1-0.4-0.6-0.4c-0.1,0-0.2,0-0.3,0V90.7z"/>
</svg>
