<?xml version="1.0" encoding="utf-8"?>
<!-- Generator: Adobe Illustrator 22.0.1, SVG Export Plug-In . SVG Version: 6.00 Build 0)  -->
<svg version="1.1" id="bodyenfit" xmlns="http://www.w3.org/2000/svg" xmlns:xlink="http://www.w3.org/1999/xlink" x="0px" y="0px"
	 viewBox="0 0 256.2 198.1" style="enable-background:new 0 0 256.2 198.1;" xml:space="preserve">
<style type="text/css">
	.st0{fill:#FFFFFF;}
	.st1{opacity:0.35;fill:#FFFFFF;}
</style>
<g>
	<path class="st0" d="M66.9,78.6c-11.1,0-20,9-20,20s9,20,20,20c10.1,0,18.5-7.5,19.8-17.3h0c1.1-7.6,2.1-15.2,3.2-22.8L66.9,78.6
		L66.9,78.6z M66.9,115c-9,0-16.4-7.3-16.4-16.4c0-9,7.3-16.4,16.4-16.4s16.4,7.3,16.4,16.4C83.2,107.7,75.9,115,66.9,115z"/>
	<path class="st1" d="M66.9,82.3c-9,0-16.4,7.3-16.4,16.4c0,9,7.3,16.4,16.4,16.4s16.4-7.3,16.4-16.4S75.9,82.3,66.9,82.3z
		 M66.9,110.8c-6.7,0-12.2-5.5-12.2-12.2c0-6.7,5.5-12.2,12.2-12.2c6.7,0,12.2,5.5,12.2,12.2C79,105.3,73.6,110.8,66.9,110.8z"/>
	<path class="st0" d="M135.7,78.6c0.2,0.1,0.4,0.1,0.7,0.2c1.4,0.4,2.2,1.7,2,3.2c-0.9,6.1-1.7,12.2-2.5,18.3c0,0.2-0.1,0.5-0.1,0.8
		c-3.4,0-6.7,0-10.1,0c-0.3,2.3-0.6,4.6-1,6.8c-0.2,1.6-0.4,3.2-0.7,4.7c-0.1,0.9,0.1,1.2,1,1.2c0.9,0,1.9,0,2.8,0
		c0.9,0,1.1-0.2,1.3-1.1c0.4-2.5,0.7-5.1,1.1-7.6c1.7,0,3.3,0,5,0c-0.2,1.2-0.3,2.3-0.5,3.5c-0.3,2.2-0.6,4.4-0.9,6.6
		c-0.3,2-1.8,3.5-3.8,3.5c-2.8,0-5.7,0-8.5,0c-2,0-3.2-1.5-2.9-3.4c0.7-5.1,1.4-10.2,2.1-15.3c0.8-5.4,1.5-10.9,2.3-16.3
		c0.1-0.4,0.1-0.9,0.2-1.3c0.2-1.9,1.4-3.1,3.3-3.5c0.1,0,0.2-0.1,0.2-0.1C129.7,78.6,132.7,78.6,135.7,78.6z M126.3,96.2
		c1.7,0,3.2,0,4.8,0c0.1,0,0.3-0.3,0.4-0.5c0.5-3.7,1-7.4,1.5-11.1c0.1-0.8-0.1-1.1-0.9-1.1c-1,0-2,0-2.9,0c-0.7,0-1.1,0.3-1.2,1
		C127.4,88.3,126.8,92.2,126.3,96.2z"/>
	<path class="st0" d="M158.2,78.6c0.1,0,0.2,0.1,0.4,0.1c1.5,0.3,2.4,1.5,2.2,3c-0.3,2.6-0.7,5.1-1,7.6c-0.7,4.8-1.3,9.6-2,14.3
		c-0.7,4.7-1.3,9.4-2,14.1c0,0.2-0.1,0.4-0.1,0.6c-1.7,0-3.3,0-5,0c0.2-1.5,0.4-3,0.6-4.5c0.7-5.1,1.4-10.1,2.1-15.2
		c0.7-4.8,1.3-9.6,2-14.3c0.1-0.7-0.1-1.1-0.8-1.1c-1.2,0-2.4,0-3.6,0c-0.4,0-0.5,0.2-0.5,0.6c-0.5,3.3-0.9,6.5-1.4,9.8
		c-1.1,8.1-2.3,16.2-3.4,24.3c0,0.1,0,0.3-0.1,0.4c-1.7,0-3.4,0-5.1,0c0.3-2,0.5-4,0.8-5.9c1.5-11.1,3.1-22.1,4.6-33.2
		c0-0.3,0.2-0.6,0.3-0.8C150.2,78.6,154.2,78.6,158.2,78.6z"/>
	<path class="st0" d="M206,78.6c0,0.2,0.1,0.5,0,0.7c-1.7,12-3.3,24-5,36c-0.3,1.9-1.8,3.3-3.8,3.3c-2.8,0-5.7,0-8.5,0
		c-2,0-3.2-1.4-2.9-3.3c0.3-2.6,0.7-5.1,1.1-7.7c1.3-9.4,2.6-18.8,3.9-28.2c0-0.3,0.2-0.5,0.3-0.7c1.6,0,3.3,0,4.9,0
		c0,0.2,0,0.4,0,0.6c-0.5,3.3-0.9,6.6-1.4,9.9c-1.1,7.9-2.2,15.8-3.3,23.7c-0.1,0.6,0.1,0.9,0.8,0.9c1.1,0,2.1,0,3.2,0
		c0.7,0,1-0.4,1.1-1.1c1.4-10,2.8-19.9,4.1-29.9c0.2-1.4,0.5-2.8,0.7-4.2C202.8,78.6,204.4,78.6,206,78.6z"/>
	<path class="st0" d="M113.3,78.6c0.4,0.1,0.7,0.2,1.1,0.4c1.1,0.5,1.7,1.5,1.6,2.6c-0.4,3.5-0.9,7-1.4,10.5c-1.7,0-3.3,0-5.1,0
		c0.2-1.2,0.3-2.5,0.5-3.7c0.2-1.4,0.4-2.7,0.6-4.1c0.1-0.6-0.2-0.9-0.8-1c-1.1,0-2.2,0-3.3,0c-0.6,0-0.9,0.4-1,0.9
		c-0.4,3.2-0.9,6.3-1.3,9.5c-0.1,0.5,0.2,0.8,0.6,1c2.2,1.3,4.4,2.6,6.7,3.9c1.5,0.9,1.9,1.8,1.7,3.5c-0.6,4.3-1.2,8.7-1.8,13
		c-0.3,1.9-1.8,3.3-3.8,3.3c-2.9,0-5.7,0-8.6,0c-1.9,0-3.1-1.4-2.8-3.3c0.4-3.3,0.9-6.5,1.4-9.7c0-0.2,0.3-0.5,0.4-0.5
		c1.6,0,3.1,0,4.8,0c-0.2,1.8-0.5,3.5-0.7,5.3c-0.1,0.9-0.3,1.7-0.4,2.6c-0.1,0.7,0.1,0.9,0.8,0.9c1,0,2.1,0,3.1,0
		c0.7,0,1-0.3,1.1-1c0.4-3.1,0.8-6.2,1.2-9.3c0.1-0.6-0.1-0.9-0.6-1.2c-2.3-1.3-4.6-2.7-6.9-4c-1.2-0.7-1.7-1.6-1.5-3
		c0.6-4.4,1.2-8.8,1.8-13.2c0.3-1.8,1.4-3,3.2-3.3c0.1,0,0.3-0.1,0.4-0.1C107.3,78.6,110.3,78.6,113.3,78.6z"/>
	<path class="st0" d="M180.6,78.6c0.1,0,0.3,0.1,0.4,0.1c1.5,0.3,2.4,1.6,2.2,3.2c-0.4,3.2-0.9,6.4-1.3,9.6
		c-0.1,0.5-0.2,0.7-0.7,0.7c-1.3,0-2.5,0-3.8,0c-0.2,0-0.4,0-0.6,0c0.3-2.4,0.7-4.8,1-7.2c0.2-1.3,0-1.5-1.3-1.5c-0.8,0-1.7,0-2.5,0
		c-0.7,0-1.1,0.3-1.2,1c-0.4,3.1-0.9,6.3-1.3,9.4c-0.1,0.5,0.2,0.8,0.6,1c2.3,1.3,4.5,2.7,6.8,4c1.3,0.7,1.8,1.8,1.6,3.3
		c-0.6,4.4-1.2,8.8-1.8,13.1c-0.3,1.9-1.8,3.3-3.8,3.3c-2.9,0-5.8,0-8.7,0c-1.8,0-3-1.3-2.8-3c0.4-3.4,0.9-6.8,1.4-10.2
		c0-0.1,0.1-0.2,0.1-0.3c1.7,0,3.3,0,5,0c-0.2,1.5-0.4,2.9-0.6,4.3c-0.2,1.1-0.3,2.2-0.5,3.3c-0.1,0.8,0.1,1.1,0.9,1.1
		c1,0,2,0,2.9,0c0.8,0,1.1-0.3,1.2-1c0.4-3.1,0.8-6.1,1.2-9.2c0.1-0.6-0.1-0.9-0.6-1.2c-2.3-1.3-4.6-2.7-6.8-4
		c-1.3-0.8-1.7-1.6-1.5-3.1c0.6-4.4,1.2-8.7,1.8-13.1c0.3-1.9,1.4-3.1,3.3-3.4c0.1,0,0.2-0.1,0.3-0.1
		C174.6,78.6,177.6,78.6,180.6,78.6z"/>
</g>
</svg>
