<?xml version="1.0" encoding="utf-8"?>
<!-- Generator: Adobe Illustrator 22.0.1, SVG Export Plug-In . SVG Version: 6.00 Build 0)  -->
<svg version="1.1" id="bodyenfit" xmlns="http://www.w3.org/2000/svg" xmlns:xlink="http://www.w3.org/1999/xlink" x="0px" y="0px"
	 viewBox="0 0 256.2 198.1" style="enable-background:new 0 0 256.2 198.1;" xml:space="preserve">
<style type="text/css">
	.st0{fill:#FFFFFF;}
</style>
<g>
	<g>
		<g>
			<path class="st0" d="M100.6,96.8h-1.8v-2.7h1.9v-3.7h3.3v3.7h3.1v2.7h-3.1v5.5c0,2.2,1.8,2.6,2.7,2.6c0.4,0,0.6-0.1,0.6-0.1v3
				c0,0-0.4,0.1-1,0.1c-1.9,0-5.7-0.6-5.7-5.1L100.6,96.8L100.6,96.8z"/>
			<path class="st0" d="M110.1,97.6c0-0.4-0.2-0.6-0.6-0.6h-1.1v-2.9h3.1c1.2,0,1.8,0.5,1.8,1.7v0.8c0,0.5-0.1,0.9-0.1,0.9h0.1
				c0.6-2,2.2-3.5,4.3-3.5c0.3,0,0.6,0.1,0.6,0.1v3.3c0,0-0.3-0.1-0.8-0.1c-1.4,0-3.1,0.8-3.7,2.9c-0.2,0.7-0.3,1.4-0.3,2.2v5.4
				h-3.4V97.6z"/>
			<path class="st0" d="M126.8,99.2h0.4v-0.1c0-2-0.8-2.7-2.5-2.7c-0.6,0-1.8,0.2-1.8,0.9V98h-3.2v-1.4c0-2.5,3.6-2.8,5-2.8
				c4.5,0,5.9,2.4,5.9,5.4v5.1c0,0.4,0.2,0.6,0.6,0.6h1.1v2.9h-3.1c-1.3,0-1.7-0.7-1.7-1.5c0-0.3,0-0.6,0-0.6h-0.1
				c0,0-1,2.4-4.1,2.4c-2.4,0-4.6-1.5-4.6-4.3C118.7,99.5,124.6,99.2,126.8,99.2z M124.2,105.4c1.8,0,3.1-1.9,3.1-3.6v-0.3h-0.6
				c-1.8,0-4.6,0.2-4.6,2.1C122.2,104.6,122.8,105.4,124.2,105.4z"/>
			<path class="st0" d="M133.7,97.5c-0.1-0.3-0.4-0.5-0.8-0.5h-0.3v-2.9h2c1.1,0,1.7,0.3,2,1.3l2.6,7.2c0.3,0.8,0.5,2,0.5,2h0.1
				c0,0,0.2-1.1,0.5-2l2.6-7.2c0.3-0.9,0.9-1.3,2-1.3h1.8V97h-0.3c-0.4,0-0.6,0.1-0.8,0.5l-3.9,10.3h-4L133.7,97.5z"/>
			<path class="st0" d="M154.1,93.8c3.9,0,6.1,2.9,6.1,6.5c0,0.4-0.1,1.3-0.1,1.3h-9.4c0.3,2.4,2,3.7,4.1,3.7c2.2,0,3.8-1.5,3.8-1.5
				l1.4,2.3c0,0-2.1,2.1-5.5,2.1c-4.5,0-7.3-3.3-7.3-7.1C147.2,96.7,150,93.8,154.1,93.8z M156.7,99.1c-0.1-1.6-1.2-2.8-2.6-2.8
				c-1.7,0-3,1-3.3,2.8H156.7z"/>
			<path class="st0" d="M163.1,92.2c0-0.4-0.2-0.6-0.6-0.6h-1.1v-2.9h3.2c1.3,0,1.8,0.6,1.8,1.8v13.7c0,0.4,0.2,0.6,0.6,0.6h1v2.9
				H165c-1.3,0-1.8-0.5-1.8-1.8V92.2z"/>
			<path class="st0" d="M175.6,93.8c3,0,3.9,1.7,3.9,1.7h0.1c0,0,0-0.3,0-0.8v-2.4c0-0.4-0.2-0.6-0.6-0.6h-1.1v-2.9h3.2
				c1.3,0,1.8,0.6,1.8,1.8v13.7c0,0.4,0.2,0.6,0.6,0.6h1v2.9h-3.1c-1.2,0-1.7-0.6-1.7-1.4c0-0.3,0-0.5,0-0.5h-0.1
				c0,0-1.1,2.2-4.3,2.2c-3.7,0-6.1-2.9-6.1-7.1C169.4,96.6,171.9,93.8,175.6,93.8z M179.6,100.9c0-2.1-1.1-4.2-3.4-4.2
				c-1.9,0-3.4,1.5-3.4,4.2c0,2.6,1.4,4.3,3.4,4.3C177.9,105.2,179.6,103.9,179.6,100.9z"/>
			<path class="st0" d="M192.6,93.8c3.9,0,6.1,2.9,6.1,6.5c0,0.4-0.1,1.3-0.1,1.3h-9.4c0.3,2.4,2,3.7,4.1,3.7c2.2,0,3.8-1.5,3.8-1.5
				l1.4,2.3c0,0-2.1,2.1-5.5,2.1c-4.5,0-7.3-3.3-7.3-7.1C185.7,96.7,188.6,93.8,192.6,93.8z M195.2,99.1c-0.1-1.6-1.2-2.8-2.6-2.8
				c-1.7,0-3,1-3.3,2.8H195.2z"/>
			<path class="st0" d="M208.5,99.2h0.4v-0.1c0-2-0.8-2.7-2.5-2.7c-0.6,0-1.8,0.2-1.8,0.9V98h-3.2v-1.4c0-2.5,3.6-2.8,5-2.8
				c4.5,0,5.9,2.4,5.9,5.4v5.1c0,0.4,0.2,0.6,0.6,0.6h1.1v2.9h-3.1c-1.3,0-1.7-0.7-1.7-1.5c0-0.3,0-0.6,0-0.6h-0.1
				c0,0-1,2.4-4.1,2.4c-2.4,0-4.6-1.5-4.6-4.3C200.4,99.5,206.3,99.2,208.5,99.2z M205.9,105.4c1.8,0,3.1-1.9,3.1-3.6v-0.3h-0.6
				c-1.8,0-4.6,0.2-4.6,2.1C203.8,104.6,204.5,105.4,205.9,105.4z"/>
			<path class="st0" d="M216.4,92.2c0-0.4-0.2-0.6-0.6-0.6h-1.1v-2.9h3.2c1.3,0,1.8,0.6,1.8,1.8v13.7c0,0.4,0.2,0.6,0.6,0.6h1v2.9
				h-3.2c-1.3,0-1.8-0.5-1.8-1.8V92.2z"/>
		</g>
	</g>
	<path class="st0" d="M49.8,105c0,0.2,0,0.3,0,0.4c0.2,2.6,2.1,6.1,5,6.4c9.2,0.6,19.8,0.7,28.7,0c2.8-0.5,4.8-3.8,5-6.4
		c0-0.2,0-0.5,0.1-0.7c-5.5,2.8-12.3,4.5-19.6,4.5C61.8,109.2,55.2,107.6,49.8,105z"/>
	<path class="st0" d="M79.5,103.9c0,0-0.7,0.2-2,0.4c-0.7,0.1-1.4,0.3-2.3,0.4c-0.9,0.1-1.9,0.3-3.1,0.3c-1.1,0.1-2.3,0.2-3.6,0.2
		c-1.3,0-2.7,0-4.1-0.1c-0.7,0-1.4-0.1-2.2-0.2c-0.7-0.1-1.5-0.2-2.2-0.3c-0.7-0.1-1.5-0.2-2.2-0.4c-0.8-0.1-1.5-0.3-2.2-0.5
		c-0.8-0.2-1.5-0.4-2.2-0.5c-0.7-0.2-1.5-0.4-2.2-0.6c-0.7-0.2-1.4-0.5-2.1-0.7c-0.7-0.3-1.4-0.5-2-0.9c-0.6-0.3-1.3-0.6-1.9-1
		c-0.6-0.4-1.2-0.7-1.7-1.1C43,98.8,42.4,98.4,42,98c-0.5-0.4-0.9-0.8-1.4-1.1c-0.4-0.4-0.8-0.8-1.2-1.1c-0.4-0.4-0.7-0.7-1-1
		c-0.6-0.7-1.1-1.3-1.6-1.8c-0.8-1.1-1.2-1.7-1.2-1.7l0.2-0.2c0,0,0.7,0.4,1.7,1.2c0.3,0.2,0.6,0.4,0.9,0.6c0.3,0.2,0.7,0.4,1,0.7
		c0.4,0.3,0.8,0.5,1.2,0.8s0.9,0.6,1.3,0.8c0.5,0.3,1,0.6,1.5,0.9c0.5,0.3,1,0.6,1.6,0.9c0.5,0.3,1.1,0.6,1.7,0.9
		c0.6,0.3,1.2,0.6,1.8,0.9s1.2,0.6,1.9,0.9c0.6,0.3,1.3,0.6,1.9,0.9c0.7,0.3,1.3,0.5,2,0.8l1,0.3c0.3,0.1,0.7,0.2,1,0.3
		c0.7,0.2,1.4,0.4,2.1,0.6c0.7,0.2,1.4,0.3,2.1,0.5c0.7,0.2,1.4,0.3,2.1,0.4c0.7,0.1,1.4,0.2,2.1,0.3c1.4,0.2,2.7,0.3,4,0.4
		c1.3,0.1,2.5,0.1,3.6,0.1c2.2,0,4.1-0.1,5.3-0.2c1.3-0.1,2-0.2,2-0.2L79.5,103.9z"/>
	<path class="st0" d="M88.5,91c-0.2-2.6-1.8-5.9-5-6c-1.9-0.1-3.9-0.2-5.9-0.3V84c0-2.4-2-4.3-4.3-4.3h-8.1c-2.4,0-4.3,2-4.3,4.3
		v0.5c-2,0.1-4,0.2-5.9,0.4c-2.9,0.3-4.8,3.8-5,6.4c-0.1,1.2-0.2,2.2-0.2,3.2c5.3,3.2,12,5.2,19.3,5.2c7.5,0,14.4-2.1,19.8-5.5
		C88.6,93.2,88.6,92.1,88.5,91z M66.9,93.8h-5.4v-2h5.4C66.9,91.8,66.9,93.8,66.9,93.8z M63.4,84.5V84c0-1,0.8-1.8,1.7-1.8h8.1
		c1,0,1.7,0.8,1.7,1.8v0.5C71.1,84.4,67.2,84.4,63.4,84.5z M74.3,95.3c-1.4,0-2.5-1.1-2.5-2.5c0-1.4,1.1-2.5,2.5-2.5
		c1.4,0,2.5,1.1,2.5,2.5C76.8,94.2,75.7,95.3,74.3,95.3z"/>
	<polygon class="st0" points="83.6,105 84.3,105 85.1,101.5 83.5,102.6 	"/>
	<polygon class="st0" points="80.8,99 80.5,99.5 82.6,100.9 82.6,100.8 84.2,99.9 	"/>
	<polygon class="st0" points="86.7,98.8 81.4,102 80.4,101.9 82,103 88.2,99.3 	"/>
</g>
</svg>
