<?xml version="1.0" encoding="utf-8"?>
<!-- Generator: Adobe Illustrator 22.0.1, SVG Export Plug-In . SVG Version: 6.00 Build 0)  -->
<svg version="1.1" id="bodyenfit" xmlns="http://www.w3.org/2000/svg" xmlns:xlink="http://www.w3.org/1999/xlink" x="0px" y="0px"
	 viewBox="0 0 256.2 198.1" style="enable-background:new 0 0 256.2 198.1;" xml:space="preserve">
<style type="text/css">
	.st0{fill:#FFFFFF;}
</style>
<g>
	<g>
		<path class="st0" d="M71.5,92.9V89h3.2c0-5.3,2.4-8,7.2-8c0.6,0,1.2,0.1,1.9,0.2v3.7c-0.5,0-0.8-0.1-1-0.1c-1.2,0-2.1,0.3-2.6,0.9
			c-0.5,0.6-0.8,1.7-0.8,3.4h4.4v3.9h-4.4v15.2h-4.6V92.9H71.5z"/>
		<path class="st0" d="M87.3,99.4V89h4.6V100c0,1.5,0.3,2.7,0.9,3.3c0.6,0.7,1.6,1,3.1,1c1.4,0,2.5-0.3,3.1-1
			c0.6-0.7,0.9-1.8,0.9-3.3V89h4.6v10.5c0,2.8-0.8,5-2.3,6.6c-1.5,1.6-3.6,2.4-6.4,2.4c-2.7,0-4.8-0.8-6.4-2.4
			C88.1,104.4,87.3,102.2,87.3,99.4z"/>
		<path class="st0" d="M108.3,108.1V90.8c2.8-1.4,5.7-2.1,8.8-2.1c2.7,0,4.8,0.7,6.3,2.1c1.5,1.4,2.3,3.4,2.3,5.9v11.5h-4.6V96.2
			c0-0.5,0-0.9-0.1-1.3c-0.1-0.3-0.3-0.7-0.6-1.1c-0.3-0.4-0.7-0.7-1.4-0.8s-1.5-0.3-2.4-0.3c-1.1,0-2.3,0.1-3.6,0.3v15.1
			L108.3,108.1L108.3,108.1z"/>
		<path class="st0" d="M128.6,98.5c0-3.2,0.8-5.6,2.3-7.3c1.6-1.7,3.8-2.6,6.7-2.6c1.9,0,3.7,0.3,5.5,1.1v3.8
			c-1.5-0.6-3.1-0.9-4.8-0.9c-1.7,0-3.1,0.4-3.9,1.2c-0.9,0.8-1.3,2.4-1.3,4.7c0,2.3,0.4,3.9,1.3,4.7c0.9,0.8,2.2,1.2,3.9,1.2
			c1.6,0,3.2-0.3,4.8-0.9v3.8c-1.8,0.7-3.7,1.1-5.5,1.1c-2.9,0-5.1-0.8-6.7-2.6C129.4,104.2,128.6,101.7,128.6,98.5z"/>
		<path class="st0" d="M146.4,92.9V89h3.2v-5.7h4.6V89h4.5v3.9h-4.5v9.5c0,0.8,0.2,1.4,0.5,1.7c0.3,0.3,0.9,0.4,1.8,0.4
			c0.8,0,1.6-0.1,2.2-0.4v3.8c-0.9,0.4-1.9,0.6-2.9,0.6c0,0-0.1,0-0.1,0c-1.9,0-3.4-0.6-4.5-1.7c-1.1-1.1-1.6-2.7-1.6-4.6v-9.2
			H146.4z"/>
		<path class="st0" d="M162.7,86.3v-4.2h4.7v4.2H162.7z M162.8,108.1V89h4.6v19.2L162.8,108.1L162.8,108.1z"/>
		<path class="st0" d="M171,98.8c0-3.1,0.7-5.5,2.1-7.4c1.4-1.9,3.5-2.8,6.5-2.8c2.8,0,4.9,0.9,6.4,2.7c1.4,1.8,2.2,4,2.2,6.6
			c0,1.1,0,1.9-0.1,2.4h-12.4c0.1,1.7,0.6,2.8,1.5,3.4c0.9,0.6,2,0.8,3.4,0.8c2.2,0,4.4-0.5,6.5-1.5v3.7c-2.1,1.2-4.5,1.7-7.2,1.7
			c-0.8,0-1.6-0.1-2.4-0.2c-0.7-0.1-1.5-0.4-2.3-0.9c-0.8-0.5-1.5-1-2.1-1.7c-0.6-0.7-1-1.6-1.4-2.8C171.2,101.7,171,100.3,171,98.8
			z M175.7,97.1h7.7c-0.1-1.3-0.5-2.4-1.2-3.3c-0.7-0.9-1.6-1.4-2.7-1.4s-2.1,0.4-2.7,1.1C176.2,94.2,175.8,95.5,175.7,97.1z"/>
		<path class="st0" d="M191.7,108.1V81.7h4.6v26.5L191.7,108.1L191.7,108.1z"/>
		<path class="st0" d="M199.7,101.9c0-0.4,0-0.8,0.1-1.2s0.3-0.9,0.6-1.5c0.3-0.6,0.8-1.2,1.3-1.6c0.6-0.5,1.4-0.9,2.4-1.2
			s2.3-0.5,3.8-0.5c1,0,2.2,0.1,3.4,0.3c0-2.4-1.4-3.7-4.1-3.7c-2.2,0-4.1,0.3-5.6,1v-3.8c1.8-0.7,3.7-1,5.9-1
			c2.7,0,4.8,0.7,6.3,2.1c1.4,1.4,2.2,3.4,2.2,6v5.2c0,1.7-0.7,3.3-2,4.5s-3.4,1.9-6.1,1.9c-2.8,0-4.9-0.6-6.3-1.9
			C200.3,105.2,199.7,103.7,199.7,101.9z M204.3,101.3c0,2.1,1.2,3.1,3.6,3.1h0c2.3,0,3.5-1,3.5-2.9V99c-1.1-0.1-2-0.2-2.8-0.2
			C205.7,98.8,204.3,99.6,204.3,101.3z"/>
		<path class="st0" d="M219.3,102V81.6h4.6V89c1.1-0.2,2.2-0.3,3.1-0.3c2.9,0,5,0.8,6.6,2.5c1.5,1.7,2.3,4.1,2.3,7.2
			c0,1.7-0.2,3.2-0.7,4.5c-0.5,1.3-1,2.3-1.6,3c-0.6,0.7-1.3,1.2-2.2,1.6c-0.8,0.4-1.6,0.7-2.2,0.8c-0.6,0.1-1.3,0.1-1.9,0.1
			c-2.7,0-4.8-0.6-6.1-1.9C219.9,105.3,219.3,103.7,219.3,102z M223.9,102.4c0,1.4,1.2,2.1,3.5,2.1c1.5,0,2.5-0.5,3.1-1.5
			c0.6-1,0.9-2.6,0.9-4.9c0-2.2-0.4-3.7-1.1-4.5c-0.8-0.9-1.9-1.3-3.3-1.3c-1.1,0-2.1,0.1-3,0.3L223.9,102.4L223.9,102.4z"/>
	</g>
</g>
<path class="st0" d="M42.2,115c7.5-0.4,13.8-5,16.8-11.4L42.2,97V115z"/>
<path class="st0" d="M59.6,88.9c-2.2-6.1-7.3-10.8-13.7-12.3c-1.5-0.3-3-0.6-4.6-0.6c-10.8,0-19.5,8.7-19.5,19.5
	c0,10.4,8.2,18.9,18.5,19.4V94.8L59.6,88.9z"/>
<path class="st0" d="M59.7,101.6c0.6-1.9,1-4,1-6.1c0-1.6-0.2-3.2-0.6-4.7l-15.9,4.8L59.7,101.6z"/>
</svg>
