<?xml version="1.0" encoding="utf-8"?>
<!-- Generator: Adobe Illustrator 22.0.1, SVG Export Plug-In . SVG Version: 6.00 Build 0)  -->
<svg version="1.1" id="bodyenfit" xmlns="http://www.w3.org/2000/svg" xmlns:xlink="http://www.w3.org/1999/xlink" x="0px" y="0px"
	 viewBox="0 0 256.2 198.1" style="enable-background:new 0 0 256.2 198.1;" xml:space="preserve">
<style type="text/css">
	.st0{fill:#FFFFFF;}
	.st1{fill:#FFFFFF;fill-opacity:0.8;}
</style>
<path class="st0" d="M92.4,92.7h-3.9c-0.2,0-0.4-0.2-0.4-0.5s0.2-0.5,0.4-0.5h8.8c0.3,0,0.5,0.2,0.5,0.5s-0.2,0.5-0.4,0.5h-3.9v10.6
	c0,0.3-0.2,0.5-0.5,0.5c-0.2,0-0.4-0.2-0.4-0.5L92.4,92.7L92.4,92.7z"/>
<path class="st0" d="M110.1,97c1.4,0,2.5-0.9,2.5-2.2c0-1.1-1.1-2.1-2.5-2.1h-4.3V97H110.1z M109,98h-3.3v5.3c0,0.3-0.2,0.5-0.5,0.5
	c-0.3,0-0.5-0.2-0.5-0.5V92.5c0-0.4,0.4-0.8,0.8-0.8h4.5c2,0,3.5,1.5,3.5,3.1c0,1.7-1.5,3.1-3.3,3.2c1,1.6,2,3.2,3.1,5
	c0,0.1,0.1,0.2,0.1,0.3c0,0.3-0.2,0.5-0.5,0.5c-0.2,0-0.3-0.1-0.4-0.3L109,98L109,98z"/>
<path class="st0" d="M128.8,99.1l-2.3-6.1c-0.1-0.2-0.3-0.3-0.5-0.3s-0.4,0.1-0.5,0.3l-2.3,6.1H128.8L128.8,99.1z M122.9,100.1
	c-0.4,1.1-0.8,2.3-1.2,3.4c-0.1,0.2-0.3,0.3-0.4,0.3c-0.2,0-0.5-0.2-0.5-0.5c0-0.1,0-0.1,0-0.2l3.7-10.5c0.2-0.6,0.8-1,1.6-1
	c0.6,0,1.2,0.4,1.5,1l3.8,10.5c0,0.1,0,0.1,0,0.2c0,0.3-0.2,0.5-0.5,0.5c-0.2,0-0.4-0.1-0.4-0.3l-1.2-3.4H122.9L122.9,100.1z"/>
<path id="Fill-7" class="st0" d="M137.7,95.7c0-2.9,1.8-4.1,4.6-4.1h3.4c0.2,0,0.5,0.2,0.5,0.5s-0.2,0.5-0.5,0.5h-3.4
	c-2.2,0-3.5,0.8-3.5,3v4.2c0,1.7,1.2,2.9,3.5,2.9h3.3c0.3,0,0.5,0.2,0.5,0.5c0,0.3-0.2,0.5-0.5,0.5h-3.4c-2.9,0-4.6-1.7-4.6-3.9
	v-4.2H137.7z"/>
<path class="st0" d="M156.9,92.7h-4.1c-0.2,0-0.4-0.2-0.4-0.5s0.2-0.5,0.4-0.5h8.8c0.3,0,0.5,0.2,0.5,0.5s-0.2,0.5-0.4,0.5h-3.9
	v10.6c0,0.3-0.2,0.5-0.5,0.5c-0.2,0-0.4-0.2-0.4-0.5V92.7L156.9,92.7z"/>
<path class="st0" d="M175.3,99.1l-2.2-6.1c-0.1-0.2-0.3-0.3-0.5-0.3s-0.4,0.1-0.5,0.3l-2.3,6.1H175.3L175.3,99.1z M169.4,100.1
	c-0.4,1.1-0.8,2.3-1.2,3.4c-0.1,0.2-0.3,0.3-0.4,0.3c-0.2,0-0.5-0.2-0.5-0.5c0-0.1,0-0.1,0-0.2l3.7-10.5c0.2-0.6,0.8-1,1.6-1
	c0.6,0,1.2,0.4,1.5,1l3.8,10.5c0,0.1,0,0.1,0,0.2c0,0.3-0.2,0.5-0.5,0.5c-0.2,0-0.4-0.1-0.4-0.3l-1.2-3.4H169.4L169.4,100.1
	L169.4,100.1z"/>
<path class="st0" d="M186.1,98.1v4.8h4.6c1.6,0,2.8-1.1,2.8-2.4s-1.2-2.4-2.8-2.4H186.1L186.1,98.1z M190.4,97.1
	c1.4,0,2.5-0.9,2.5-2.2c0-1.1-1.1-2.2-2.5-2.2h-4.3v4.4H190.4L190.4,97.1z M190.7,103.8h-4.8c-0.5,0-0.8-0.4-0.8-0.8V92.5
	c0-0.4,0.3-0.8,0.8-0.8h4.5c2,0,3.5,1.5,3.5,3.2c0,1-0.5,2-1.5,2.6c1.1,0.6,2,1.7,2,2.9C194.4,102.3,192.8,103.8,190.7,103.8
	L190.7,103.8z"/>
<path class="st0" d="M201.9,92.2c0-0.3,0.2-0.5,0.5-0.5c0.3,0,0.5,0.2,0.5,0.5v10.6h5.9c0.3,0,0.5,0.2,0.5,0.5
	c0,0.3-0.2,0.5-0.5,0.5h-6.1c-0.5,0-0.8-0.4-0.8-0.8V92.2z"/>
<path class="st0" d="M215.9,92.5c0-0.4,0.4-0.8,0.8-0.8h6.8c0.3,0,0.5,0.2,0.5,0.5s-0.2,0.5-0.5,0.5h-6.6V97h5.4
	c0.3,0,0.5,0.2,0.5,0.5s-0.2,0.5-0.5,0.5h-5.5v4.8h6.5c0.3,0,0.5,0.2,0.5,0.5c0,0.3-0.2,0.5-0.5,0.5h-6.8c-0.5,0-0.8-0.4-0.8-0.8
	L215.9,92.5L215.9,92.5z"/>
<g>
	<path class="st1" d="M41.9,77.5c-4.4,0-7.9,3.5-7.9,7.9s3.5,7.9,7.9,7.9c1,0,2.6-0.5,4.4-1.2c5.9-2.5,12.5-2.5,18.4,0
		c1.8,0.7,3.3,1.2,4.4,1.2c4.4,0,7.9-3.5,7.9-7.9s-3.5-7.9-7.9-7.9c-1,0-2.6,0.5-4.4,1.2c-5.9,2.5-12.5,2.5-18.4,0
		C44.5,78.1,43,77.5,41.9,77.5"/>
	<path class="st1" d="M62.3,112.9c-2.2,3.7-7,5.1-10.7,2.9c-3.7-2.2-5.1-7-2.9-10.8c0.5-0.9,1.8-2.1,3.2-3.2
		c5.1-3.8,8.4-9.6,9.2-15.9c0.2-1.9,0.6-3.4,1.1-4.4c2.2-3.7,7-5.1,10.7-2.9c3.7,2.2,5.1,7,2.9,10.7c-0.5,0.9-1.8,2.1-3.2,3.2
		c-5.1,3.8-8.4,9.6-9.2,15.9C63.2,110.4,62.8,111.9,62.3,112.9"/>
	<path class="st1" d="M48.7,112.9c2.2,3.7,7,5.1,10.7,2.9c3.7-2.2,5.1-7,2.9-10.8c-0.5-0.9-1.8-2.1-3.2-3.2
		c-5.1-3.8-8.4-9.6-9.2-15.9c-0.2-1.9-0.6-3.4-1.1-4.4c-2.2-3.7-7-5.1-10.7-2.9c-3.7,2.2-5.1,7-2.9,10.8c0.5,0.9,1.8,2.1,3.2,3.2
		c5.1,3.8,8.4,9.6,9.2,15.9C47.8,110.4,48.2,111.9,48.7,112.9"/>
</g>
</svg>
