<?xml version="1.0" encoding="utf-8"?>
<!-- Generator: Adobe Illustrator 22.0.1, SVG Export Plug-In . SVG Version: 6.00 Build 0)  -->
<svg version="1.1" id="bodyenfit" xmlns="http://www.w3.org/2000/svg" xmlns:xlink="http://www.w3.org/1999/xlink" x="0px" y="0px"
	 viewBox="0 0 256.2 198.1" style="enable-background:new 0 0 256.2 198.1;" xml:space="preserve">
<style type="text/css">
	.st0{fill:#154373;}
	.st1{fill:#FFFFFF;}
	.st2{fill:#1D1D1B;}
</style>
<path class="st0" d="M40.8,46.7h60v105h-60V46.7z"/>
<path class="st1" d="M71.9,124.4h-1v-2.9h1V124.4z M76.6,111.7h-1v-2.9h1V111.7z M57.3,106.7c-0.1,0-0.6,0-0.6,0.1
	c0,0.1,0.2,0.1,0.6,0.1c0.8,0.1,1.2,0.6,1.7,0.6c0.5,0,1.1-0.4,0.9-1.1c0-0.1-0.1-0.1-0.1,0c-0.1,0.3-0.5,0.5-1,0.5
	C58.3,106.9,58.1,106.7,57.3,106.7L57.3,106.7z M51.5,109.6c0.1,0.1,1.1,1.4-0.4,1.9c-0.1,0-0.1,0.1,0,0.1c1.1,0.5,1.7-0.4,1.7-0.4
	c0.6,1.3-0.3,2-0.3,2c0.1,0.2,0.7,0.6,1.5,0.8c0.3-0.2,0.7-0.5,0.9-1c0,0,0.2,0.6,0,1.1c2.3,0.2,3.1-1.6,4.8-1.3
	c0.1,0,0.1,0,0.1-0.1c0-1.1-0.7-3.2-2.9-3.6c-2.2-0.4-1.6-1.3-1.6-1.3c0.9,0,1.4,0.4,1.4,0.4c0.2-0.3-0.1-0.6-0.1-0.6
	c0.1-0.1,0.1-0.5,0.1-0.5c-1,0-1.3-0.2-1.3-0.2c-0.2-0.6,0.3-1.5,1.8-0.5c0.4-0.3,0.4-0.9,0.4-0.9c0.1-0.1,0.2-0.2,0.2-0.3
	c0-0.3-1.2-0.9-1.5-1c-0.1-0.4-0.5-0.9-2-0.7c-0.7,0.1-1.2-0.1-0.9-0.5c0-0.1-0.1-0.1-0.1,0c-0.2,0.2-0.4,0.6,0.2,0.9
	c0.7,0.3,0.7,1,0.7,1.1c0,0.1-0.2,0.1-0.2,0c-0.3-1.1-1.8-1.3-2.7-0.8c0.1,0.6,0.7,1,1,1c0.2,0,0.5-0.2,0.5-0.5c0-0.1,0.1-0.1,0.1,0
	c0.1,0.4-0.4,1.2-1.3,0.7c-0.9,0.9-0.5,2-0.4,2.4c0.2,0.7-0.2,1.4-0.8,1.1c0,0-0.1,0-0.1,0.1C50.2,109.5,50.8,110,51.5,109.6
	L51.5,109.6z M56.4,105.1c-0.4,0.5-1.1,0.4-1.3-0.4C56,104.7,56.4,104.7,56.4,105.1z M82.9,106.9c-0.4,0-0.9-0.2-1-0.5
	c0-0.1-0.1-0.1-0.1,0c-0.2,0.8,0.3,1.1,0.9,1.1c0.6,0,0.9-0.4,1.7-0.6c0.4-0.1,0.6,0,0.6-0.1c0-0.1-0.5-0.1-0.6-0.1
	C83.5,106.7,83.4,106.9,82.9,106.9L82.9,106.9z M91.4,109C91.4,108.9,91.4,108.9,91.4,109c-0.7,0.3-1.1-0.4-0.9-1.2
	c0.1-0.4,0.4-1.5-0.4-2.4c-0.9,0.5-1.5-0.3-1.3-0.7c0-0.1,0.1-0.1,0.1,0c0,0.3,0.3,0.5,0.5,0.5c0.4,0,1-0.4,1-1
	c-0.9-0.6-2.4-0.4-2.7,0.8c0,0.1-0.2,0.1-0.2,0c0-0.1,0-0.8,0.7-1.1c0.6-0.3,0.4-0.7,0.2-0.9c-0.1-0.1-0.2-0.1-0.1,0
	c0.2,0.4-0.3,0.6-0.9,0.5c-1.4-0.2-1.9,0.3-2,0.7c-0.3,0.1-1.5,0.8-1.5,1c0,0.1,0.1,0.3,0.2,0.3c0,0,0,0.5,0.4,0.9
	c1.5-0.9,1.9-0.1,1.8,0.5c0,0-0.3,0.2-1.3,0.2c0,0,0.1,0.4,0.1,0.5c0,0-0.2,0.3-0.1,0.6c0,0,0.5-0.4,1.4-0.4c0,0,0.6,0.9-1.6,1.3
	s-2.9,2.5-2.9,3.6c0,0.1,0,0.1,0.1,0.1c1.8-0.3,2.6,1.5,4.8,1.3c-0.2-0.5,0-1.1,0-1.1c0.2,0.5,0.6,0.8,0.9,1
	c0.8-0.2,1.3-0.6,1.5-0.8c0,0-0.9-0.7-0.3-2c0,0,0.5,0.9,1.7,0.4c0.1,0,0.1-0.1,0-0.1c-1.5-0.5-0.5-1.8-0.4-1.9
	C90.8,110,91.4,109.5,91.4,109L91.4,109z M86.5,104.7c-0.2,0.8-0.8,0.9-1.3,0.4C85.3,104.7,85.7,104.7,86.5,104.7z M70.4,91.9
	c0,0.2,0.1,0.4,0.1,0.4c0.1,0.2,0.1,0.3,0.1,0.4c-0.1,0.1-0.2,0.1-0.4-0.1c-0.1-0.1-0.3-0.1-0.4-0.1c-0.3,0-0.5,0.2-0.5,0.4
	c0,0.2,0.2,0.4,0.5,0.4c0.2,0,0.4-0.1,0.4-0.1c0.2-0.1,0.3-0.1,0.4-0.1c0.1,0.1,0,0.7-0.1,1.2c-0.5,0.1-0.8,0.5-0.8,0.8
	c0,0.7,0.7,1,1.1,1.3c0.4-0.2,1.1-0.6,1.1-1.3c0-0.3-0.3-0.7-0.8-0.8c-0.1-0.5-0.2-1.2-0.1-1.2c0.1-0.1,0.2-0.1,0.4,0.1
	c0.1,0.1,0.3,0.1,0.4,0.1c0.3,0,0.5-0.2,0.5-0.4c0-0.2-0.2-0.4-0.5-0.4c-0.2,0-0.4,0.1-0.4,0.1c-0.2,0.1-0.3,0.1-0.4,0.1
	c-0.1-0.1-0.1-0.2,0.1-0.4c0.1-0.1,0.1-0.3,0.1-0.4c0-0.3-0.2-0.5-0.4-0.5C70.6,91.4,70.4,91.6,70.4,91.9L70.4,91.9z M70.8,96.8
	c-0.4,0-0.8,0.4-0.8,0.9c0,0.4,0.3,0.7,0.8,0.8c0.4,0,0.8-0.4,0.8-0.9C71.6,97.1,71.2,96.8,70.8,96.8z M70.8,104.4
	c3.2,0,5,0.6,5,0.6c0-1.6,0-2.5,0.9-2.4c-0.5-1.4,1.7-1.9,1.7-3.7c0-1.2-0.8-1.3-1.1-1.3c-0.7,0-0.6,0.5-1.2,0.5c-0.1,0-0.1,0-0.1,0
	c0,0.2,0.2,0.5,0.4,0.5c0.4,0,0.4-0.4,0.7-0.4c0.1,0,0.3,0.1,0.3,0.5c0,0.7-0.5,1.6-1.1,2.2c-0.1-0.2-0.3-0.3-0.5-0.3
	c-0.3,0-0.6,0.4-0.6,0.8c0,0.2,0,0.3,0.1,0.4c-0.2,0.1-0.4,0.2-0.5,0.2c-0.3,0-0.7-0.1-0.7-0.7c0-1.3,1.7-2.4,1.7-4
	c0-0.8-0.5-1.6-1.6-1.6c-1.2,0-0.9,1.1-1.9,1.1c0,0-0.1,0-0.1,0.1c0,0.1,0.2,0.7,0.7,0.7c0.6,0,0.7-1,1.2-1c0.2,0,0.5,0.1,0.5,0.8
	c0,0.5-0.2,1.3-0.6,2.1c-0.1-0.1-0.3-0.2-0.5-0.2c-0.4,0-0.7,0.4-0.7,0.9c0,0.3,0.1,0.6,0.3,0.8c-0.3,0.3-0.5,0.6-0.9,0.6
	c-0.7,0-1-0.4-1-0.8c0-0.5,0.8-0.6,0.8-1.4c0-0.5-0.3-0.8-0.6-0.8c-0.3,0-0.5,0.2-0.5,0.2c0,0-0.2-0.2-0.5-0.2
	c-0.3,0-0.6,0.3-0.6,0.8c0,0.7,0.8,0.9,0.8,1.4c0,0.4-0.3,0.8-1,0.8c-0.4,0-0.6-0.3-0.9-0.6c0.2-0.2,0.3-0.5,0.3-0.8
	c0-0.5-0.3-0.9-0.7-0.9c-0.2,0-0.4,0.1-0.5,0.2c-0.4-0.8-0.6-1.6-0.6-2.1c0-0.7,0.3-0.8,0.5-0.8c0.5,0,0.7,1,1.2,1
	c0.5,0,0.7-0.6,0.7-0.7c0,0,0-0.1-0.1-0.1c-1,0-0.8-1.1-1.9-1.1c-1.1,0-1.6,0.8-1.6,1.6c0,1.6,1.7,2.8,1.7,4c0,0.6-0.4,0.7-0.7,0.7
	c-0.1,0-0.3-0.1-0.5-0.2c0.1-0.1,0.1-0.3,0.1-0.4c0-0.4-0.3-0.8-0.6-0.8c-0.2,0-0.4,0.1-0.5,0.3c-0.6-0.6-1.1-1.5-1.1-2.2
	c0-0.4,0.2-0.5,0.3-0.5c0.3,0,0.3,0.4,0.7,0.4c0.3,0,0.4-0.4,0.4-0.5c0-0.1-0.1,0-0.1,0c-0.6,0-0.5-0.5-1.2-0.5
	c-0.2,0-1.1,0.1-1.1,1.3c0,1.8,2.2,2.3,1.7,3.7c0.9-0.1,0.9,0.8,0.9,2.4C65.8,105,67.6,104.4,70.8,104.4L70.8,104.4z M65,106.8
	c-0.9,0.2-1.5,0.4-1.8,0.4c0-0.4,0.2-0.7,0.5-0.8c0,0,0.1-0.1,0-0.1c-0.8-0.5-1.2,0.5-1.2,0.5c-0.3,0-0.7,0.1-0.7,0.4
	c0,1.1-2.5,1.7-3.1,1.8c1,0.4,1.5,1.7,1.5,1.7c0.7-0.7,1.6-1.4,1.8-1.4c0.2,0,0.3,0.2,0.3,0.4c0,0.1,0.1,0.1,0.1,0
	c0.4-0.6,0.2-0.7,0.2-0.9c0-0.1,0-0.7,0.6-0.6v7.4l-0.3,0.1c-0.1,0-1.2-0.9-2.5-1.8c-1.2-0.9-1.9-0.3-3.3,0.4
	c-1.9,1-3.7,0.1-3.7,0.1c-1.6,1.1-2.1,4.4-2.1,4.4c-0.3,0.1-0.8,0.3-1.3,0.3c-1.2,0-1.4-0.7-1.4-1.2c0-1.9,2.4-2.7,2.4-4.5
	c0-0.4-0.2-2.3-2.5-2.3h-2c-0.8,0-1.1-0.6-1.2-0.8c0-0.1-0.1,0-0.1,0c0.1,0.1-0.1,0.4-0.1,0.9c0,0.7,0.4,1.2,1.3,1.2
	c0.4,0,0.7-0.1,0.8-0.2c0.1,0,0.1,0,0.1,0.1c-0.4,0.4-0.4,1.2-0.2,1.4c0,0,0.1,0,0.1,0c0.2-0.8,0.9-1.6,1.9-1.6c1.2,0,1.2,1,1.2,1.3
	c0,1.5-2.7,2.6-2.7,4.7c0,2.1,2.2,2.6,3.5,2.2c-0.1,2.1-2.5,2.8-2.6,1.3c0-0.1-0.1-0.1-0.1,0c-0.3,0.7-0.2,1.4,0.7,1.6
	c0.1,0,0,0.1,0,0.1c-0.9,0.6-0.4,2.9-0.4,3.6c0.1,1-0.9,0.9-1,0.8c0,0-0.1,0,0,0.1c0.7,0.8,1.6,0.1,1.6,0.1c0.7,0.2,0.2,0.8-0.2,1
	c-0.1,0-0.1,0.1,0,0.1c0.1,0,1.1,0.1,1.3-0.7c0.4,0.5,1.1,0.3,1.2,0.3c0.2-0.1,1.1-0.4,1.2,0.6c0,0.1,0.1,0,0.1,0
	c0.7-0.9-0.1-1.4-0.5-1.5c0-0.1,0.6-0.5,1.1,0.1c0,0,0.1,0.1,0.1,0c0.1-1.1-0.9-1.2-1.5-0.7c0-0.1-0.2-0.7,0.7-0.7c0,0,0.1,0,0-0.1
	c-0.7-0.7-1.3-0.1-1.4,0.1c-0.3,0.4-1.1,0.2-1.2,0.2c0.2-3.9,3.7-2.5,4.2-4.5c0-0.1,0.1-0.1,0.1,0c0.1,0.5,1.3,0.5,1.5-0.4
	c0-0.1,0-0.1,0-0.1c-1,1-3.3-2.1-0.2-4.7c2.6-2.2,5-1,5.9-0.2c0,0.3-0.1,0.4-0.3,0.4c0,0-0.1,0.1,0,0.1c0.2,0.1,0.6,0.1,0.8-0.2
	c0.6,0.4,0.1,0.9-0.1,1c-0.1,0,0,0.1,0,0.1c0.5,0.1,0.9-0.4,1-0.7l0.1,0.1v2.2c0,3.2,3.7,3.6,7.7,6.3c4-2.7,7.7-3.1,7.7-6.3v-2.2
	l0.1-0.1c0,0.3,0.4,0.8,1,0.7c0.1,0,0.1,0,0-0.1c-0.2-0.1-0.7-0.6-0.1-1c0.2,0.2,0.5,0.3,0.8,0.2c0.1,0,0.1-0.1,0-0.1
	c-0.1,0-0.3-0.1-0.3-0.4c0.9-0.7,3.3-1.9,5.9,0.2c3.1,2.5,0.8,5.7-0.2,4.7c0,0-0.1,0,0,0.1c0.2,0.9,1.4,0.9,1.5,0.4
	c0,0,0.1-0.1,0.1,0c0.5,1.9,4,0.5,4.2,4.5c-0.1,0-0.8,0.1-1.2-0.2c-0.1-0.2-0.7-0.8-1.4-0.1c0,0,0,0.1,0,0.1c0.9,0,0.7,0.6,0.7,0.7
	c-0.6-0.5-1.5-0.4-1.5,0.7c0,0.1,0,0.1,0.1,0c0.5-0.7,1.1-0.2,1.1-0.1c-0.4,0.1-1.2,0.6-0.5,1.5c0,0,0.1,0.1,0.1,0
	c0.1-1.1,1-0.7,1.2-0.6c0.1,0.1,0.8,0.3,1.2-0.3c0.2,0.8,1.2,0.7,1.3,0.7c0.1,0,0.1-0.1,0-0.1c-0.4-0.3-0.8-0.8-0.2-1
	c0,0,0.9,0.8,1.6-0.1c0.1-0.1,0-0.1,0-0.1c-0.1,0-1.1,0.1-1-0.8c0-0.7,0.5-3-0.4-3.6c-0.1,0-0.1-0.1,0-0.1c0.9-0.2,1.1-0.9,0.7-1.6
	c0-0.1-0.1-0.1-0.1,0c-0.1,1.5-2.5,0.8-2.6-1.3c1.3,0.3,3.5-0.1,3.5-2.2c0-2.1-2.7-3.2-2.7-4.7c0-0.3,0-1.3,1.2-1.3
	c1,0,1.7,0.7,1.9,1.6c0,0,0.1,0.1,0.1,0c0.1-0.2,0.1-1-0.2-1.4c0,0,0-0.1,0.1-0.1c0.1,0.1,0.5,0.2,0.8,0.2c0.8,0,1.3-0.4,1.3-1.2
	c0-0.5-0.2-0.7-0.1-0.9c0-0.1-0.1-0.1-0.1,0c-0.1,0.2-0.3,0.8-1.2,0.8h-2c-2.3,0-2.5,1.8-2.5,2.3c0,1.9,2.4,2.7,2.4,4.5
	c0,0.4-0.2,1.2-1.4,1.2c-0.5,0-1-0.1-1.3-0.3c0,0-0.5-3.3-2.1-4.4c0,0-1.9,0.9-3.7-0.1c-1.4-0.8-2.1-1.3-3.3-0.4
	c-1.2,0.9-2.3,1.8-2.5,1.8l-0.3-0.1v-7.4c0.6-0.1,0.6,0.4,0.6,0.6c0,0.2-0.2,0.3,0.2,0.9c0,0,0.1,0,0.1,0c0-0.1,0.1-0.4,0.3-0.4
	s1.1,0.7,1.8,1.4c0,0,0.4-1.3,1.5-1.7c-0.6-0.1-3.1-0.7-3.1-1.8c0-0.4-0.4-0.5-0.7-0.4c0,0-0.4-1-1.2-0.5c0,0,0,0.1,0,0.1
	c0.3,0.1,0.5,0.4,0.5,0.8c-0.7-0.2-3.9-1.1-7.6-1.1c-1.8,0-3.5,0.2-4.8,0.4v2.6h-1L65,106.8 M58.1,133.2c-0.3-0.1-0.5-0.3-0.5-0.7
	v-1.6c-0.5-0.2-1.7-0.6-4.2-0.6c-2.1,0-2.7,0.5-2.8,0.6l-0.5,3c0,0,0.8-0.8,3.8-0.6c3.6,0.2,7.4,2.4,7.4,0.1v-1.3
	C58.5,132.1,58.1,133,58.1,133.2L58.1,133.2z M80.4,132.1v1.3c0,2.3,3.7,0.1,7.4-0.1c3-0.2,3.8,0.6,3.8,0.6l-0.5-3
	c0-0.2-0.7-0.6-2.8-0.6c-2.5,0-3.7,0.5-4.2,0.6v1.6c0,0.4-0.2,0.5-0.5,0.7C83.6,133,83.2,132.1,80.4,132.1L80.4,132.1z M70.8,130.7
	c5.8,0,11.8,0.3,12.5,1.2c0.1,0.1,0.1,0,0.1-0.1v-3.1c0-0.9-6.1-1.4-12.6-1.4c-6.5,0-12.6,0.5-12.6,1.4v3.1c0,0.1,0,0.1,0.1,0.1
	C59.1,131,65,130.7,70.8,130.7L70.8,130.7z M65.6,116.2l-0.6-0.1l-0.1,0.1l-0.7-0.3h0.6c0.1,0,0.1,0,0-0.1l-0.5-0.5
	c0,0,0.3,0.1,0.7,0.2c0,0,0.1,0,0,0c-0.2-0.3-0.4-0.7-0.4-0.7l0.7,0.4c0,0,0.1,0,0.1,0l-0.3-0.8l0.6,0.6c0,0,0.1,0,0.1,0
	c-0.1-0.3-0.2-0.8-0.2-0.8l0.4,0.7c0,0,0.1,0,0.1,0c0-0.1,0-0.7,0-0.7s0.2,0.4,0.3,0.7c0,0,0.1,0,0.1,0c0-0.1,0.2-0.5,0.2-0.5l0,0.7
	l-0.1,0l-0.1,0.9c0.9-0.2,2-1.7,2.8-1.7c1,0,1.4,1.2,3.2,0.6c0.5,0.7,0.6,1.3,0.8,2.1c0.7,0.7,1.7,0.4,1.7-0.3c0-1-1-1.1-1-2.1
	c0-0.4,0.3-1.1,1.2-1.1c0.4,0,1.1,0.2,1.5,0.2c0.4,0,0.5-0.3,0.6-0.5c0-0.1,0.2-0.1,0.1,0c0,0.1,0.1,0.2,0.1,0.4
	c0,0.6-0.9,0.7-1,0.6c0,0-0.1,0,0,0c0.1,0.1,0.1,0.5-0.1,0.7c0,0,0,0-0.1,0c-0.1-0.4-0.6-1-1.1-1c-0.2,0-0.5,0.1-0.5,0.5
	c0,0.6,1.1,1.1,1.1,2.3c0,1.2-1.2,1.5-2.4,1.2c0,1.2,1.8,1.9,1.8,1c0-0.1,0,0,0.1,0c0.3,0.4,0.1,0.6-0.2,0.8
	c0.3,0.1,0.4,0.7,0.4,1.1c0.1,0.5,0.7,0.2,0.7,0.2c0,0,0,0,0,0c-0.2,0.6-0.8,0.4-0.8,0.4c-0.3,0.2,0.1,0.4,0.3,0.5c0,0,0,0,0,0.1
	c-0.2,0.1-0.6,0.2-0.8-0.1c-0.1,0.4-0.5,0.4-0.6,0.4c-0.2,0-0.4,0.2-0.3,0.5c0,0,0,0,0,0c-0.5-0.4-0.2-0.8,0-0.9
	c-0.2-0.1-0.4,0-0.5,0.1c0,0,0,0.1,0,0.1c0,0,0,0,0,0c-0.2-0.6,0.3-0.8,0.6-0.6c0-0.1-0.2-0.4-0.7-0.3c0,0,0,0,0,0
	c0.1-0.2,0.3-0.5,0.7-0.2c0.2,0.1,0.6-0.1,0.6-0.1c-0.8-1.5-2.3-0.2-2.6-1.5c0,0,0,0-0.1,0c-0.1,0.3-0.7,0.3-0.9-0.2c0,0,0,0,0,0
	c0.1,0.1,0.3,0.2,0.6-0.2c0.2-0.3,0.2-0.6,0.2-0.8c0-0.9-0.9-2.5-2.4-2.5c-0.9,0-1.9,0.4-2.7,0.9l0.7,0.2c-0.1,0.7-0.7,1.1-1.3,0.9
	l0.1-0.8c-0.1,0-0.4,0.1-0.5,0.3c0,0,0,0,0,0c-0.1-0.4,0.2-0.7,0.4-0.7c0,0,0,0,0,0c-0.3,0-0.5,0.2-0.6,0.3c0,0,0,0,0,0
	C65.5,116.6,65.5,116.3,65.6,116.2L65.6,116.2z M67.7,121.5c-0.3,0.3-0.5,0-0.8,0c-0.3,0-0.4,0.3-0.4,0.4c0,0,0,0,0,0
	c-0.4-0.5,0-0.8,0.3-0.8c0,0-0.4-0.3-0.6,0.1c0,0,0,0,0,0c0-0.6,0.5-0.7,0.8-0.4c0.1-0.2-0.1-0.4-0.4-0.4c0,0,0,0,0,0
	c0.1-0.1,0.2-0.2,0.3-0.2c0.3,0,0.4,0.4,0.6,0.4c0.3,0,0.8-0.5,0.9-0.5c0,0-0.3-0.9-0.3-1.4c0,0,0,0,0,0c-0.2,0.1-0.6,0.1-0.6-0.4
	c0,0,0,0,0,0c0.2,0.3,0.5,0,0.6-0.2c0.2-0.2,1-1.4,2.2-1.4c0.2,0,0.6,0.1,0.8,0.3c-0.4,0.5,0,0.9,0.3,0.9c0,0,0,0,0,0
	c-1.5,0.6-2.2,0.8-2.2,2.1c0,0.7,0.2,1,0.6,0.9c0,0,0,0,0,0c-0.1,0.2-0.3,0.2-0.4,0.2c-0.3,0-0.4-0.2-0.5-0.2
	c-0.2,0-0.7,0.3-0.7,0.6c0,0.1,0.1,0.2,0.3,0.4c0,0,0,0,0,0C68.2,121.9,67.8,122,67.7,121.5L67.7,121.5z M71.7,109.2
	c-0.5,0-0.8,0.1-0.8,0.2C71.1,109.7,71.4,109.7,71.7,109.2z M69.9,110.4c0.3-0.1,0.7,0,0.7,0c0.1,0,0.1,0.1,0,0.1
	c-0.7,0.1-0.7,0.4-1.2,0.4c-0.3,0-0.6-0.3-0.5-0.7c0-0.1,0.1-0.1,0.1,0C69.1,110.3,69.4,110.6,69.9,110.4L69.9,110.4z M60.9,125.8
	c0.5,0.6,0.9,0,1.5,0c0.3,0,0.7,0.1,0.7,0.7c0,0,0,0,0.1,0c0.7-0.9-0.1-1.4-0.5-1.5c0.1-0.1,0.7-0.5,1.1,0.1c0,0,0.1,0,0.1,0
	c0-1.1-0.9-1.2-1.5-0.7c-0.1-0.4,0.2-0.7,0.7-0.7c0.1,0,0.1,0,0-0.1c-0.8-0.8-1.3,0.2-1.5,0.4c-0.3,0.4-1.4-0.4-1.8-0.8
	c0,0,1-1,1-1.9v-0.2c0,0,0,0,0,0c0.1,0.1,0.2,0.1,0.4,0.1c0.2,0,0.6-0.1,0.6-0.8c0-0.1,0-0.1-0.1,0c-0.1,0.2-0.2,0.2-0.3,0.2
	c-0.8,0-2.4-2.6-4.3-2.6c-0.5,0-1.4,0.4-1.9,0.9c0.2,0.1,0.3,0.4,0.2,0.6c0,0.3-0.3,0.5-0.6,0.6c0,0-0.1,0,0,0.1
	c1,0.4,2.7,1,3.1,1.4c0.5,0.4,0.4,1.2,0.1,2.2c-0.3,1-0.8,0.9-1,0.8c0,0,0,0,0,0c0.2,0.3,0.6,0.4,0.8,0.4c0.5,0,0.7-0.3,1-0.3
	c0.4,0,1.3,0.6,1.3,1.1c0,0.3-0.2,0.5-0.5,0.7c0,0,0,0,0,0C59.9,126.5,60.7,126.6,60.9,125.8L60.9,125.8z M82,126.5
	C82,126.5,82,126.5,82,126.5c-0.3-0.2-0.5-0.5-0.5-0.7c0-0.5,0.9-1.1,1.3-1.1c0.3,0,0.4,0.3,1,0.3c0.3,0,0.6-0.1,0.8-0.4
	c0,0,0,0,0,0c-0.2,0-0.8,0.2-1-0.8c-0.3-1.1-0.4-1.8,0.1-2.2c0.4-0.3,2.2-1,3.1-1.4c0.1,0,0-0.1,0-0.1c-0.3-0.1-0.5-0.2-0.6-0.6
	c0-0.2,0-0.5,0.2-0.6c-0.5-0.5-1.4-0.9-1.9-0.9c-1.9,0-3.5,2.6-4.3,2.6c-0.1,0-0.2,0-0.3-0.2c0,0-0.1,0-0.1,0c0,0.8,0.4,0.8,0.6,0.8
	c0.1,0,0.3,0,0.4-0.1c0,0,0,0,0,0v0.2c0,0.9,1,1.9,1,1.9c-0.4,0.4-1.5,1.2-1.8,0.8c-0.1-0.2-0.7-1.2-1.5-0.4c0,0,0,0.1,0,0.1
	c0.4,0,0.8,0.3,0.7,0.7c-0.6-0.5-1.5-0.4-1.5,0.7c0,0,0,0.1,0.1,0c0.4-0.6,1-0.2,1.1-0.1c-0.4,0.1-1.2,0.6-0.5,1.5c0,0,0.1,0,0.1,0
	c0.1-0.6,0.4-0.7,0.7-0.7c0.6,0,1,0.6,1.5,0C81,126.6,81.8,126.5,82,126.5L82,126.5z M66.5,111.5c-0.1,0.1-0.3,0-0.3,0c0,0,0,0,0,0
	c0.1,0.1,0.2,0.4,0.5,0.4c0.1,0,0.3-0.1,0.4-0.2c0,0,1.1,0.4,1.7,0.5c-0.2,0.3-0.4,0.6-0.4,1c-0.4-0.3-2.2-1.2-2.2-1.2l-0.6,0.8
	c-0.1,0.1-0.5-0.2-0.4-0.3l0.4-0.6c-0.1-0.1-0.5-0.1-0.6,0c0,0,0,0,0,0c0.1-0.1,0.3-0.5,0.8-0.3c0-0.3-0.5-0.2-0.6-0.2c0,0,0,0,0,0
	c0.1-0.1,0.5-0.4,1-0.2l0.2-0.3l-0.4-0.4l0.2-0.3l0.3,0.4l2.1-2.8c0.1-0.1,0.5-0.2,0.6-0.2c0,0.2,0,0.6,0,0.7l-2,2.9l0.4,0.1
	l-0.2,0.3l-0.5-0.2L66.5,111.5L66.5,111.5z M73.8,111.1c0,0.3,0.2,0.6,0.5,0.5c0,0,0,0,0,0c-0.1,0.3-0.6,0.6-0.8,0.2
	c-0.2,0.4-0.2,0.9,0.3,1.1c0,0,0,0,0,0.1c-0.3,0.2-0.7,0.1-0.9-0.2c-0.4,0.3-0.3,0.9-0.1,1.1c0,0-1,0.6-2,0.2
	c-0.6-0.3-1.1-0.7-1.9-0.6c0.1-1.1,0.7-1.4,1.7-1.6c0.8-0.1,0.9-0.5,0.8-0.8c-0.3-0.1-0.8,0.2-0.8,0.2c-0.1-0.1,0-0.3,0-0.3
	c-0.1-0.1-0.1-0.3-0.1-0.3c0.6,0,0.7-0.1,0.7-0.1c0.1-0.6-0.5-0.7-1-0.3c-0.2-0.2-0.2-0.4-0.2-0.4c-0.1,0-0.1-0.1-0.1-0.2
	c0-0.1,0.7-0.5,0.9-0.6c0-0.2,0.3-0.5,1-0.4c0.1-0.2-0.1-0.9-0.1-1.1c0-0.1,0-0.1,0.1-0.1c0.3,0.2,0.5,0.7,0.7,0.8
	c0,0,0.8-0.4,0.9-0.4c0,0,0.1,0.9,0.1,0.9c0.1,0.1,0.7,0,1,0.1c0.1,0,0.1,0.1,0,0.1c-0.2,0-0.9,0.3-1,0.5
	C74,110,73.8,110.8,73.8,111.1L73.8,111.1z"/>
<g>
	<path class="st2" d="M123.5,109.5c-0.2,0.1-0.5,0.1-0.8,0.1c-0.2,0-0.4,0-0.6-0.1c-0.2-0.1-0.3-0.1-0.5-0.2
		c-0.2-0.1-0.3-0.2-0.5-0.4c-0.2-0.2-0.3-0.4-0.5-0.6l-2.5-3.7h-0.9v4l1.2,0.3v0.4c-0.3,0.1-0.6,0.2-1,0.2c-0.3,0.1-0.7,0.1-1.1,0.1
		c-0.3,0-0.6,0-0.9,0c-0.3,0-0.6-0.1-0.8-0.1V109c0.4-0.1,0.6-0.3,0.8-0.5c0.2-0.2,0.3-0.5,0.3-1v-9.2l-1.2-0.4v-0.4
		c0.3-0.1,0.6-0.1,0.9-0.1c0.3,0,0.6-0.1,0.9-0.1c0.3,0,0.6,0,1,0c0.3,0,0.7,0,1,0c1.4,0,2.5,0.3,3.1,0.8c0.7,0.5,1,1.3,1,2.4
		c0,0.5-0.1,0.9-0.2,1.3c-0.1,0.4-0.3,0.7-0.5,1c-0.2,0.3-0.5,0.6-0.8,0.8c-0.3,0.2-0.7,0.4-1.1,0.5l2.6,3.5
		c0.2,0.3,0.5,0.6,0.8,0.8c0.3,0.2,0.6,0.4,1,0.5v0.4C124,109.3,123.8,109.4,123.5,109.5L123.5,109.5z M120.1,99
		c-0.4-0.4-1.1-0.6-1.9-0.6c-0.1,0-0.3,0-0.4,0c-0.1,0-0.3,0-0.4,0.1v5.2h0.7c0.4,0,0.7-0.1,1-0.2c0.3-0.1,0.6-0.3,0.8-0.5
		c0.2-0.2,0.4-0.5,0.6-0.9c0.1-0.4,0.2-0.8,0.2-1.3C120.7,100,120.5,99.4,120.1,99L120.1,99z M128,109.3c-0.2,0-0.3,0.1-0.5,0.1
		c-0.2,0-0.4,0-0.5,0.1c-0.2,0-0.4,0-0.7,0c-0.2,0-0.4,0-0.7,0c-0.3,0-0.5-0.1-0.7-0.1V109c0.1,0,0.2-0.1,0.4-0.2
		c0.1-0.1,0.2-0.1,0.3-0.2c0.1-0.1,0.2-0.2,0.2-0.3c0.1-0.1,0.1-0.2,0.1-0.3v-6.3l-1.2-0.5v-0.4c0.4-0.1,0.8-0.2,1.2-0.3
		c0.4-0.1,0.7-0.1,1-0.1h0.6l-0.1,1v7.1l1,0.3v0.4C128.3,109.3,128.1,109.3,128,109.3L128,109.3z M127.6,98
		c-0.1,0.1-0.1,0.3-0.2,0.4c-0.1,0.1-0.2,0.2-0.3,0.2c-0.1,0.1-0.3,0.1-0.4,0.1c-0.1,0-0.3,0-0.4-0.1c-0.1-0.1-0.2-0.1-0.3-0.2
		c-0.2-0.2-0.3-0.5-0.3-0.8c0-0.1,0-0.3,0.1-0.4c0-0.1,0.1-0.2,0.2-0.4c0.1-0.1,0.2-0.2,0.3-0.2c0.1-0.1,0.3-0.1,0.4-0.1
		c0.1,0,0.3,0,0.4,0.1c0.1,0,0.2,0.1,0.3,0.2c0.1,0.1,0.1,0.2,0.2,0.3c0.1,0.1,0.1,0.3,0.1,0.4C127.7,97.7,127.7,97.9,127.6,98
		L127.6,98z M132.3,101.5v8.4c0,0.8-0.1,1.4-0.2,1.9c-0.1,0.4-0.2,0.9-0.4,1.2c-0.2,0.3-0.4,0.5-0.7,0.7s-0.5,0.2-0.8,0.2
		c-0.2,0-0.4,0-0.6-0.1c-0.2-0.1-0.3-0.2-0.5-0.3v-0.3c0.2,0,0.4-0.1,0.6-0.2c0.2-0.1,0.4-0.3,0.5-0.5c0.1-0.2,0.3-0.5,0.4-0.9
		c0.1-0.4,0.1-0.8,0.1-1.2v-8.6l-1.2-0.5v-0.4c0.4-0.1,0.8-0.2,1.2-0.3c0.4-0.1,0.7-0.1,1-0.1h0.6L132.3,101.5L132.3,101.5z
		 M132.5,98c-0.1,0.3-0.3,0.5-0.5,0.6c-0.1,0.1-0.3,0.1-0.4,0.1c-0.1,0-0.3,0-0.4-0.1c-0.1-0.1-0.2-0.1-0.3-0.2
		c-0.1-0.1-0.2-0.2-0.2-0.3c-0.1-0.1-0.1-0.3-0.1-0.4c0-0.1,0-0.3,0.1-0.4c0.1-0.1,0.1-0.2,0.2-0.4c0.1-0.1,0.2-0.2,0.3-0.2
		s0.3-0.1,0.4-0.1c0.1,0,0.2,0,0.4,0.1c0.1,0,0.2,0.1,0.3,0.2c0.1,0.1,0.1,0.2,0.2,0.3c0.1,0.1,0.1,0.3,0.1,0.4
		C132.6,97.7,132.6,97.9,132.5,98L132.5,98z M142.1,109.4c-0.2,0.1-0.5,0.1-0.7,0.1c-0.3,0-0.5-0.1-0.7-0.2
		c-0.2-0.1-0.4-0.3-0.6-0.5l-3.1-4v3.8l1,0.3v0.4c-0.2,0.1-0.3,0.1-0.5,0.1c-0.1,0-0.3,0.1-0.5,0.1c-0.2,0-0.3,0.1-0.5,0.1
		c-0.2,0-0.4,0-0.6,0c-0.2,0-0.4,0-0.7,0c-0.3,0-0.5-0.1-0.7-0.1V109c0.1,0,0.3-0.1,0.4-0.2c0.1-0.1,0.2-0.1,0.3-0.2
		c0.1-0.1,0.2-0.2,0.2-0.3c0.1-0.1,0.1-0.2,0.1-0.3V97.2l-1.2-0.5v-0.4c0.4-0.1,0.9-0.2,1.3-0.3c0.4,0,0.7-0.1,1-0.1h0.6l-0.1,1v7.5
		l1-0.9c0.2-0.2,0.5-0.4,0.7-0.7c0.2-0.3,0.4-0.5,0.6-0.8c0.2-0.3,0.3-0.5,0.4-0.8c0.1-0.3,0.2-0.5,0.2-0.7c0.2-0.1,0.3-0.1,0.5-0.1
		c0.1,0,0.3,0,0.5,0c0.1,0,0.3,0,0.4,0c0.1,0,0.2,0.1,0.4,0.1c0,0.2-0.1,0.4-0.2,0.7c-0.1,0.3-0.3,0.5-0.5,0.8
		c-0.2,0.3-0.5,0.6-0.8,0.9c-0.3,0.3-0.7,0.6-1.1,0.9l-0.7,0.5l2.9,3.5c0.3,0.3,0.5,0.5,0.7,0.7c0.2,0.1,0.4,0.2,0.6,0.2v0.4
		C142.5,109.3,142.3,109.4,142.1,109.4L142.1,109.4z M149,107.9c-0.2,0.3-0.4,0.6-0.7,0.9c-0.3,0.3-0.7,0.5-1.1,0.6
		c-0.4,0.1-0.9,0.2-1.4,0.2c-0.8,0-1.4-0.1-1.8-0.4c-0.4-0.2-0.6-0.6-0.6-1.1c0-0.1,0-0.3,0-0.4c0-0.1,0.1-0.2,0.1-0.4
		c0.4,0.4,0.8,0.7,1.3,0.9c0.4,0.2,0.9,0.3,1.4,0.3c0.5,0,0.9-0.1,1.2-0.3c0.3-0.2,0.4-0.5,0.4-0.8c0-0.2,0-0.3-0.1-0.4
		c-0.1-0.1-0.1-0.3-0.3-0.4c-0.1-0.1-0.3-0.2-0.5-0.4c-0.2-0.1-0.5-0.3-0.8-0.4l-0.9-0.4c-0.5-0.2-1-0.5-1.3-0.9
		c-0.3-0.4-0.4-0.8-0.4-1.4c0-0.4,0.1-0.7,0.2-1c0.2-0.3,0.4-0.6,0.7-0.9c0.3-0.2,0.6-0.4,1-0.6c0.4-0.1,0.8-0.2,1.3-0.2
		c0.4,0,0.7,0,1,0.1c0.3,0,0.5,0.1,0.7,0.2c0.2,0.1,0.3,0.2,0.4,0.4c0.1,0.1,0.1,0.3,0.1,0.5c0,0.1,0,0.3,0,0.4
		c0,0.1-0.1,0.3-0.1,0.4c-0.3-0.2-0.6-0.4-1-0.5c-0.4-0.1-0.7-0.2-1.1-0.2c-0.3,0-0.6,0-0.8,0.1c-0.2,0.1-0.4,0.1-0.5,0.2
		c-0.1,0.1-0.3,0.2-0.3,0.4c-0.1,0.1-0.1,0.3-0.1,0.4c0,0.2,0,0.3,0.1,0.4c0.1,0.1,0.1,0.3,0.2,0.4c0.1,0.1,0.3,0.2,0.4,0.3
		c0.2,0.1,0.4,0.2,0.7,0.3l1,0.4c0.3,0.1,0.6,0.3,0.9,0.4c0.2,0.1,0.4,0.3,0.6,0.5c0.1,0.2,0.2,0.4,0.3,0.6c0.1,0.2,0.1,0.5,0.1,0.7
		C149.3,107.2,149.2,107.6,149,107.9L149,107.9z M158.6,106.7c-0.2,0.6-0.6,1.1-1,1.6c-0.4,0.4-0.9,0.8-1.4,1
		c-0.5,0.2-1.1,0.4-1.6,0.4c-0.6,0-1.1-0.1-1.6-0.3c-0.5-0.2-0.9-0.5-1.3-0.8c-0.4-0.4-0.7-0.8-0.9-1.3c-0.2-0.5-0.3-1.1-0.3-1.8
		c0-0.8,0.1-1.5,0.4-2.1c0.2-0.6,0.6-1.2,1-1.6c0.4-0.4,0.9-0.8,1.4-1c0.5-0.2,1.1-0.4,1.7-0.4c0.6,0,1.1,0.1,1.6,0.3
		s0.9,0.5,1.3,0.9c0.4,0.4,0.7,0.8,0.9,1.3c0.2,0.5,0.3,1.1,0.3,1.8C158.9,105.4,158.8,106.1,158.6,106.7L158.6,106.7z M157,103.3
		c-0.1-0.4-0.3-0.8-0.5-1.1c-0.2-0.3-0.5-0.5-0.8-0.7c-0.3-0.1-0.6-0.2-1-0.2c-0.3,0-0.6,0.1-0.9,0.2c-0.3,0.2-0.6,0.4-0.8,0.7
		c-0.2,0.3-0.4,0.7-0.6,1.2c-0.1,0.5-0.2,1-0.2,1.6c0,0.6,0.1,1.1,0.2,1.5c0.1,0.4,0.3,0.8,0.5,1.1c0.2,0.3,0.5,0.5,0.8,0.7
		c0.3,0.1,0.6,0.2,1,0.2c0.3,0,0.6-0.1,0.9-0.2c0.3-0.1,0.6-0.4,0.8-0.7c0.2-0.3,0.4-0.7,0.6-1.2c0.1-0.5,0.2-1,0.2-1.7
		C157.2,104.2,157.2,103.8,157,103.3L157,103.3z M167.4,101.3l-3.3,8.3l-0.7,0l-3.2-8.2l-0.8-0.5v-0.4h3.6v0.4l-1.1,0.4l2,5.9h0
		l2.1-5.9l-1.1-0.5v-0.4h2.9v0.4L167.4,101.3L167.4,101.3z M175.7,105h-5.5c0,0.5,0.1,1,0.2,1.4c0.1,0.4,0.4,0.7,0.6,1
		c0.2,0.3,0.5,0.5,0.9,0.7c0.3,0.1,0.7,0.2,1.1,0.2c0.2,0,0.5,0,0.7-0.1c0.2,0,0.5-0.1,0.7-0.2c0.2-0.1,0.4-0.1,0.7-0.2
		c0.2-0.1,0.4-0.2,0.6-0.3c0,0,0,0.1,0.1,0.2c0,0.1,0,0.2,0,0.3c0,0.2-0.1,0.4-0.2,0.6c-0.1,0.2-0.4,0.4-0.6,0.5
		c-0.3,0.1-0.6,0.3-1,0.4c-0.4,0.1-0.9,0.1-1.3,0.1c-0.5,0-1-0.1-1.5-0.3c-0.5-0.2-0.9-0.5-1.2-0.9c-0.4-0.4-0.6-0.8-0.8-1.3
		c-0.2-0.5-0.3-1.1-0.3-1.8c0-0.8,0.1-1.5,0.3-2.2c0.2-0.6,0.5-1.1,0.9-1.6c0.4-0.4,0.8-0.7,1.2-1c0.5-0.2,1-0.3,1.4-0.3
		c0.5,0,1,0.1,1.4,0.2c0.4,0.2,0.7,0.4,1,0.7c0.3,0.3,0.5,0.7,0.6,1.1c0.1,0.4,0.2,0.9,0.2,1.5v0.6
		C175.7,104.6,175.7,104.8,175.7,105L175.7,105z M174.1,102.8c-0.1-0.3-0.2-0.6-0.4-0.8c-0.2-0.2-0.4-0.4-0.6-0.5
		c-0.2-0.1-0.5-0.2-0.7-0.2c-0.3,0-0.5,0.1-0.8,0.2c-0.3,0.1-0.5,0.3-0.7,0.6c-0.2,0.2-0.4,0.5-0.5,0.9c-0.1,0.3-0.2,0.7-0.2,1h4
		C174.2,103.6,174.2,103.2,174.1,102.8L174.1,102.8z M182.8,101.7c-0.1,0.2-0.1,0.4-0.2,0.6c-0.2-0.1-0.4-0.2-0.6-0.3
		s-0.4-0.1-0.6-0.1c-0.6,0-1.1,0.3-1.6,0.8v6l1.3,0.3v0.4c-0.1,0.1-0.3,0.1-0.5,0.1c-0.1,0-0.3,0.1-0.5,0.1c-0.2,0-0.4,0-0.6,0.1
		c-0.2,0-0.5,0-0.7,0c-0.3,0-0.5,0-0.8,0c-0.3,0-0.5-0.1-0.7-0.1V109c0.1,0,0.2-0.1,0.4-0.2c0.1-0.1,0.2-0.1,0.3-0.2
		c0.1-0.1,0.2-0.2,0.2-0.3c0.1-0.1,0.1-0.2,0.1-0.3v-6.3l-1.2-0.5v-0.4c0.4-0.1,0.8-0.2,1.2-0.3c0.4-0.1,0.7-0.1,1-0.1h0.4v1.3h0
		l0.5-0.6c0.2-0.3,0.5-0.5,0.8-0.6c0.3-0.1,0.5-0.2,0.9-0.2c0.7,0,1,0.3,1,0.8C182.8,101.3,182.8,101.5,182.8,101.7z M191.8,109.4
		c-0.3,0-0.7,0.1-1.1,0.1c-0.2,0-0.4,0-0.6,0c-0.2,0-0.4-0.1-0.6-0.1V109c0.2-0.1,0.4-0.2,0.5-0.4c0.1-0.2,0.2-0.4,0.2-0.8v-3.6
		c0-0.4,0-0.8-0.1-1.2c-0.1-0.3-0.2-0.6-0.4-0.8c-0.2-0.2-0.4-0.4-0.6-0.4c-0.2-0.1-0.5-0.1-0.8-0.1c-0.2,0-0.4,0-0.5,0
		c-0.2,0-0.4,0.1-0.5,0.1c-0.2,0.1-0.3,0.1-0.5,0.2c-0.1,0.1-0.3,0.1-0.4,0.2v6.3l1,0.3v0.4c-0.2,0.1-0.3,0.1-0.5,0.1
		c-0.2,0-0.3,0.1-0.5,0.1c-0.2,0-0.4,0-0.5,0.1c-0.2,0-0.4,0-0.7,0c-0.2,0-0.4,0-0.7,0c-0.3,0-0.5-0.1-0.7-0.1V109
		c0.1,0,0.2-0.1,0.4-0.2c0.1-0.1,0.2-0.1,0.3-0.2c0.1-0.1,0.2-0.2,0.2-0.3c0.1-0.1,0.1-0.2,0.1-0.3V97.1l-1.2-0.5v-0.4
		c0.4-0.1,0.8-0.2,1.2-0.3c0.4,0,0.7-0.1,1-0.1h0.6l-0.1,1v4.5c0.3-0.3,0.7-0.6,1.2-0.8c0.4-0.2,1-0.3,1.5-0.3
		c0.4,0,0.8,0.1,1.1,0.2c0.6,0.3,1.1,0.8,1.3,1.5c0.1,0.4,0.2,0.8,0.2,1.3v5.2l1,0.3v0.4C192.4,109.3,192.1,109.4,191.8,109.4
		L191.8,109.4z M201,105h-5.5c0,0.5,0.1,1,0.2,1.4c0.1,0.4,0.4,0.7,0.6,1c0.2,0.3,0.5,0.5,0.9,0.7c0.3,0.1,0.7,0.2,1.1,0.2
		c0.2,0,0.5,0,0.7-0.1c0.2,0,0.5-0.1,0.7-0.2c0.2-0.1,0.4-0.1,0.7-0.2c0.2-0.1,0.4-0.2,0.6-0.3c0,0,0,0.1,0.1,0.2c0,0.1,0,0.2,0,0.3
		c0,0.2-0.1,0.4-0.2,0.6c-0.1,0.2-0.4,0.4-0.6,0.5c-0.3,0.1-0.6,0.3-1,0.4c-0.4,0.1-0.9,0.1-1.3,0.1c-0.5,0-1-0.1-1.5-0.3
		c-0.5-0.2-0.9-0.5-1.2-0.9c-0.4-0.4-0.6-0.8-0.8-1.3c-0.2-0.5-0.3-1.1-0.3-1.8c0-0.8,0.1-1.5,0.3-2.2c0.2-0.6,0.5-1.1,0.9-1.6
		c0.4-0.4,0.8-0.7,1.2-1c0.5-0.2,1-0.3,1.4-0.3c0.5,0,1,0.1,1.4,0.2c0.4,0.2,0.7,0.4,1,0.7c0.3,0.3,0.5,0.7,0.6,1.1
		c0.1,0.4,0.2,0.9,0.2,1.5v0.6C201,104.6,201,104.8,201,105L201,105z M199.4,102.8c-0.1-0.3-0.2-0.6-0.4-0.8
		c-0.2-0.2-0.4-0.4-0.6-0.5c-0.2-0.1-0.5-0.2-0.7-0.2c-0.3,0-0.5,0.1-0.8,0.2c-0.3,0.1-0.5,0.3-0.7,0.6c-0.2,0.2-0.4,0.5-0.5,0.9
		c-0.1,0.3-0.2,0.7-0.2,1h4C199.6,103.6,199.5,103.2,199.4,102.8L199.4,102.8z M205.6,109.3c-0.2,0-0.3,0.1-0.5,0.1
		c-0.2,0-0.4,0-0.5,0.1c-0.2,0-0.4,0-0.7,0c-0.2,0-0.4,0-0.7,0c-0.3,0-0.5-0.1-0.7-0.1V109c0.1,0,0.2-0.1,0.4-0.2
		c0.1-0.1,0.2-0.1,0.3-0.2c0.1-0.1,0.2-0.2,0.2-0.3c0.1-0.1,0.1-0.2,0.1-0.3v-6.3l-1.2-0.5v-0.4c0.4-0.1,0.8-0.2,1.2-0.3
		c0.4-0.1,0.7-0.1,1-0.1h0.6l-0.1,1v7.1l1,0.3v0.4C205.9,109.3,205.8,109.3,205.6,109.3L205.6,109.3z M205.3,98
		c-0.1,0.1-0.1,0.3-0.2,0.4c-0.1,0.1-0.2,0.2-0.3,0.2c-0.1,0.1-0.3,0.1-0.4,0.1c-0.1,0-0.3,0-0.4-0.1c-0.1-0.1-0.2-0.1-0.3-0.2
		c-0.2-0.2-0.3-0.5-0.3-0.8c0-0.1,0-0.3,0.1-0.4c0-0.1,0.1-0.2,0.2-0.4c0.1-0.1,0.2-0.2,0.3-0.2c0.1-0.1,0.3-0.1,0.4-0.1
		c0.1,0,0.3,0,0.4,0.1c0.1,0,0.2,0.1,0.3,0.2c0.1,0.1,0.1,0.2,0.2,0.3c0.1,0.1,0.1,0.3,0.1,0.4C205.4,97.7,205.3,97.9,205.3,98
		L205.3,98z M214.8,109.2c-0.2,0.1-0.4,0.3-0.7,0.4c-0.4-0.3-0.7-0.7-0.9-1.1c-0.3,0.3-0.7,0.6-1.1,0.8c-0.2,0.1-0.4,0.2-0.7,0.2
		c-0.2,0.1-0.4,0.1-0.6,0.1c-0.5,0-0.9-0.1-1.3-0.3c-0.4-0.2-0.8-0.5-1.1-0.8c-0.3-0.4-0.5-0.8-0.7-1.3c-0.2-0.5-0.3-1.1-0.3-1.7
		c0-0.8,0.1-1.6,0.4-2.2c0.2-0.7,0.6-1.2,1-1.6c0.4-0.4,0.9-0.8,1.4-1c0.5-0.2,1.1-0.3,1.7-0.3c0.2,0,0.4,0,0.7,0
		c0.2,0,0.4,0.1,0.6,0.1v-3.3l-1.3-0.5v-0.4c0.4-0.1,0.9-0.2,1.3-0.3c0.4,0,0.8-0.1,1-0.1h0.6l-0.1,1v10.7c0.1,0.2,0.2,0.4,0.3,0.6
		c0.1,0.2,0.2,0.4,0.4,0.5C215.2,108.9,215,109.1,214.8,109.2z M213.1,101.6c-0.1-0.1-0.4-0.1-0.6-0.1c-0.2,0-0.5-0.1-0.7-0.1
		c-0.4,0-0.8,0.1-1.1,0.2c-0.3,0.1-0.6,0.4-0.9,0.7c-0.2,0.3-0.4,0.7-0.6,1.2c-0.1,0.5-0.2,1-0.2,1.7c0,0.5,0.1,1,0.2,1.3
		s0.3,0.7,0.5,1s0.4,0.5,0.7,0.6c0.3,0.1,0.5,0.2,0.8,0.2c0.2,0,0.4,0,0.5,0c0.2,0,0.4-0.1,0.5-0.1c0.2-0.1,0.3-0.1,0.5-0.2
		c0.1-0.1,0.3-0.1,0.4-0.2L213.1,101.6L213.1,101.6z"/>
</g>
</svg>
