<?xml version="1.0" encoding="utf-8"?>
<!-- Generator: Adobe Illustrator 22.0.1, SVG Export Plug-In . SVG Version: 6.00 Build 0)  -->
<svg version="1.1" id="bodyenfit" xmlns="http://www.w3.org/2000/svg" xmlns:xlink="http://www.w3.org/1999/xlink" x="0px" y="0px"
	 viewBox="0 0 256.2 198.1" style="enable-background:new 0 0 256.2 198.1;" xml:space="preserve">
<style type="text/css">
	.st0{fill:#FFFFFF;}
</style>
<path class="st0" d="M23.3,96.8v22.5c0,2.6,1.8,4.6,4.1,4.6h65.4v-29c0-0.9,0.2-1.8,0.6-2.8H27.4C25.2,92.1,23.3,94.2,23.3,96.8z
	 M81.4,104.5c2.3,0,5.4,1.1,5.4,6.3v0.5h-7.9c0.1,0.9,0.2,2.8,2.7,2.8c0.9,0,1.7-0.5,1.9-1.3h3.1c-0.8,2.8-3.1,3.7-5.1,3.7
	c-3.2,0-5.7-1.6-5.7-6.3C75.9,108.9,76.3,104.5,81.4,104.5z M70.5,104.5c1.8,0,4.8,0.8,5.1,4.4h-3.1c-0.1-0.7-0.6-1.8-1.8-1.8h-0.2
	c-1.9,0-2.4,1.9-2.4,3.3c0,1.2,0,3.7,2.3,3.7c1.5,0,2.1-1.5,2.1-2h3.1c-0.1,1.2-1,4.5-5.3,4.5c-4.3,0-5.3-3.3-5.3-5.7
	C65,107.1,66.6,104.5,70.5,104.5z M53.3,104.8h2.9v1.7h0c0.4-0.7,1.3-2,3.5-2c2.3,0,4,1.3,4,3.9v8h-3v-7c0-0.8,0-2.3-2-2.3
	c-1.4,0-2.4,0.9-2.4,2.7v6.6h-3L53.3,104.8L53.3,104.8z M46.5,106.9c-1.5,0-1.8,0.9-1.8,1.6h-2.9c0.3-3.5,2.8-4,5.1-4
	c1.6,0,4.6,0.5,4.6,3.3v6.2c0,1.4,0.3,1.7,0.7,1.8v0.5h-3.2c-0.2-0.5-0.2-0.7-0.3-1.4c-0.7,0.7-1.7,1.7-3.7,1.7
	c-1.7,0-3.5-1-3.5-3.4c0-2.3,1.4-3.4,3.4-3.7l2.7-0.4c0.5-0.1,1.1-0.2,1.1-0.9C48.5,107,47.3,106.9,46.5,106.9z M33.9,104.5
	c1.9,0,2.8,1.1,3.3,1.8h0v-5.5h3v15.5h-3v-1.4h0c-0.7,1.3-2.1,1.8-3.3,1.8c-3.4,0-4.8-3-4.8-6.2C29.1,106.4,31.3,104.5,33.9,104.5z"
	/>
<path class="st0" d="M34.7,114.1c1.9,0,2.7-1.6,2.7-3.3c0-1.8-0.5-3.7-2.6-3.7c-1.9,0-2.6,1.7-2.6,3.5
	C32.2,112,32.8,114.1,34.7,114.1z"/>
<path class="st0" d="M44.4,113c0,1.1,0.8,1.4,1.4,1.4c1.4,0,2.7-0.9,2.7-2.3v-1.5c-0.3,0.2-0.8,0.4-2.1,0.6
	C45.3,111.5,44.4,111.8,44.4,113z"/>
<path class="st0" d="M227.2,92.8l-34.3,0v19.9c0,1.3-0.5,7.1-4.7,11.9l39,0c2.3,0,4.1-2.1,4.1-4.6V97.4
	C231.3,94.9,229.4,92.8,227.2,92.8z M201.2,116h-3.1v-15.9h3.1V116z M206.5,116h-3.1v-11.8h3.1V116z M206.5,102.9h-3.1V100h3.1
	V102.9z M213.1,116H210v-9.6h-1.7v-2.2h1.7v-0.9c0-2.4,1.3-3.4,3.5-3.4c0.9,0,1.3,0,1.6,0v2.5h-0.9c-1.1,0-1.1,0.3-1.1,1.3v0.5h2
	v2.2h-2L213.1,116L213.1,116z M226,111h-8.1c0.1,0.9,0.2,2.9,2.8,2.9c0.9,0,1.7-0.5,2-1.3h3.2c-0.8,2.8-3.2,3.8-5.2,3.8
	c-3.3,0-5.9-1.6-5.9-6.5c0-1.4,0.5-6,5.6-6c2.3,0,5.5,1.1,5.5,6.5L226,111L226,111z"/>
<path class="st0" d="M190.1,69.3c0-1.7-1.4-3.1-3-3.1h-2.9c-1.7,0-3-1.4-3-3v-3.6c0-1.7-1.4-3-3-3h-43.5c-1.7,0-4,1-5.2,2.1l-32,32
	c-1.2,1.2-2.1,3.5-2.1,5.2v31.8c0,1.7,1.4,3,3,3h33v17.7l33.9-17.7h5.6c1.4,0,8-1,13.3-6c5.3-5,5.9-11.8,5.9-13.2V69.3z
	 M131.3,111.7c0,0.7-0.5,1.2-1.2,1.2h-22.5c-0.7,0-1.2-0.5-1.2-1.2V108c0-0.7,0.4-1.6,0.9-2.1l23.2-22.6c0.5-0.5,0.9-0.3,0.9,0.4
	L131.3,111.7L131.3,111.7z M177.8,111.7c0,0.7-0.5,1.2-1.2,1.2h-8c-0.7,0-1.2,0.5-1.2,1.2v6.3c0,0.7-0.5,1.2-1.2,1.2h-29.2
	c-0.7,0-1.2-0.5-1.2-1.2v-41c0-0.7,0.4-1.6,0.9-2.1l8.2-8.1c0.5-0.5,1.4-0.9,2.1-0.9h19.4c0.7,0,1.2,0.5,1.2,1.2v16.7
	c0,0.7,0.5,1.2,1.2,1.2h8c0.7,0,1.2,0.5,1.2,1.2L177.8,111.7L177.8,111.7z"/>
</svg>
