<?xml version="1.0" encoding="utf-8"?>
<!-- Generator: Adobe Illustrator 22.0.1, SVG Export Plug-In . SVG Version: 6.00 Build 0)  -->
<svg version="1.1" id="bodyenfit" xmlns="http://www.w3.org/2000/svg" xmlns:xlink="http://www.w3.org/1999/xlink" x="0px" y="0px"
	 viewBox="0 0 256.2 198.1" style="enable-background:new 0 0 256.2 198.1;" xml:space="preserve">
<style type="text/css">
	.st0{fill:#FFFFFF;}
	.st1{fill:#939598;}
	.st2{fill:#FFC314;}
</style>
<g>
	<path class="st0" d="M51.6,73.7c0-0.9,1.9-1.5,3.7-1.5c1.7,0,3.8,0.6,3.8,1.5c0,1.1-2.2,1.9-3.8,1.9C53.6,75.6,51.6,74.9,51.6,73.7
		z M51.5,73.7c0,1.4,2.1,2.1,3.9,2.1c1.6,0,3.9-0.7,3.9-2.1c0-1.1-1.1-2.1-3.9-2.1C52.7,71.6,51.5,72.6,51.5,73.7"/>
	<path class="st0" d="M51.5,73.7c0-1.2,1.4-2,3.8-2c2.4,0,3.8,0.7,3.8,2s-2.2,2-3.8,2C53.5,75.7,51.5,75,51.5,73.7z M51.4,73.7
		c0,1.4,2,2.1,3.9,2.1c1.6,0,3.9-0.7,3.9-2.1c0-0.6-0.4-2.1-3.9-2.1C52.9,71.6,51.4,72.4,51.4,73.7"/>
	<path class="st0" d="M51.7,73.7c0-0.8,1.9-1.4,3.7-1.4c1.7,0,3.7,0.6,3.7,1.4c0,1.1-2.2,1.9-3.7,1.9C53.6,75.6,51.7,74.8,51.7,73.7
		z M51.6,73.7c0,1.2,1.9,2,3.8,2c1.5,0,3.8-0.8,3.8-2c0-0.9-2.2-1.5-3.8-1.5C53.6,72.2,51.6,72.7,51.6,73.7"/>
	<path class="st0" d="M48.3,76.2c0-1.7,3.7-2.8,7.1-2.8c3.3,0,7,1.3,7,2.8c0,2.2-3.5,3.4-7,3.4C52.1,79.6,48.3,78.8,48.3,76.2z
		 M48.1,76.2c0,2.6,3.8,3.5,7.3,3.5c3.4,0,7.2-1.1,7.2-3.5c0-1.9-3.1-3.4-7.2-3.4C51.3,72.8,48.1,74.1,48.1,76.2"/>
	<path class="st0" d="M48.1,76.2c0-1.9,3-3.4,7.3-3.4c4,0,7.2,1.5,7.2,3.4c0,2.4-3.7,3.5-7.2,3.5C51.9,79.7,48.1,78.8,48.1,76.2z
		 M48,76.2c0,2.6,3.8,3.6,7.4,3.6c3.5,0,7.3-1.1,7.3-3.6c0-1.9-3.2-3.5-7.3-3.5C51.1,72.7,48,74.2,48,76.2"/>
	<path class="st0" d="M48.3,76.2c0-1.7,3.7-2.8,7.1-2.8c3.5,0,6.9,1.4,6.9,2.8c0,2.2-3.5,3.4-6.9,3.4C52.1,79.6,48.3,78.7,48.3,76.2
		z M48.2,76.2c0,2.5,3.7,3.5,7.2,3.5c3.5,0,7-1.2,7-3.5c0-1.6-3.8-2.9-7-2.9C51.9,73.3,48.2,74.5,48.2,76.2"/>
	<path class="st0" d="M45.1,80c0-2,5.4-4,10.3-4c5.5,0,10.2,2.2,10.2,4c0,2.6-4.6,4.5-10.2,4.5C51,84.5,45.1,83.1,45.1,80z
		 M45.3,78.4c-0.4,0.4-0.5,0.9-0.5,1.4c0,3.5,6.5,4.8,10.6,4.8c5,0,10.4-1.5,10.4-4.8c0-0.4-0.1-0.9-0.4-1.3
		c-1.4-1.8-5.7-3.3-10-3.3C51.3,75.3,46.8,76.6,45.3,78.4"/>
	<path class="st0" d="M44.9,79.9c0-0.4,0.1-0.9,0.5-1.4l0,0c1.5-1.8,5.8-3.2,10-3.2c4.1,0,8.5,1.4,9.9,3.3c0.3,0.4,0.4,0.9,0.4,1.3
		c0,3.2-5.3,4.7-10.3,4.7C51.4,84.6,44.9,83.3,44.9,79.9 M45.3,78.4c-0.4,0.5-0.5,1.1-0.5,1.5c0,3.5,6.5,4.8,10.6,4.8
		c5,0,10.4-1.5,10.4-4.8c0-0.4-0.1-0.9-0.4-1.4c-1.5-1.9-5.9-3.3-10-3.3C51.1,75.2,46.8,76.6,45.3,78.4"/>
	<path class="st0" d="M45.2,80c0-1.9,5.3-3.9,10.3-3.9c5.4,0,10.1,2.2,10.1,3.9c0,2.5-4.4,4.4-10.1,4.4C51.2,84.4,45.2,83.1,45.2,80
		z M45.1,80c0,3.1,6.1,4.5,10.4,4.5c5.8,0,10.3-1.9,10.3-4.5c0-1.8-4.8-4-10.3-4C50.3,76,45.1,78,45.1,80"/>
	<path class="st0" d="M42.7,83.3c0-2.2,5.8-4.2,12.6-4.2c7.4,0,12.6,2.3,12.6,4.2c0,2.9-6.6,4.7-12.6,4.7
		C50.7,88,42.7,86.7,42.7,83.3z M43.1,81.7c-0.1,0.1-0.5,1.1-0.5,1.6c0,3.7,8.6,5,12.8,5c5.3,0,12.7-1.6,12.7-5
		c0-0.5-0.3-1.1-0.4-1.4c-1.2-2.1-5.2-3.8-12.3-3.8C48.1,78.1,44.5,79.9,43.1,81.7"/>
	<path class="st0" d="M42.6,83.3c0-0.4,0.4-1.4,0.5-1.5l0,0c1.1-1.4,4-3.6,12.3-3.6c6.3,0,10.9,1.4,12.2,3.7
		c0.1,0.2,0.4,0.9,0.4,1.4c0,3.4-7.4,4.9-12.7,4.9C51.2,88.2,42.6,87,42.6,83.3 M43,81.7c-0.1,0.2-0.5,1.1-0.5,1.6
		c0,3.8,8.7,5,12.9,5c5.3,0,12.8-1.6,12.8-5c0-0.5-0.2-1.1-0.4-1.4c-1.4-2.4-6-3.8-12.3-3.8C47.1,78,44.1,80.3,43,81.7"/>
	<path class="st0" d="M42.8,83.3c0-2.2,5.9-4.2,12.6-4.2c7.1,0,12.5,2.2,12.5,4.2c0,2.8-6.5,4.7-12.5,4.7
		C50.3,87.9,42.8,86.5,42.8,83.3z M42.7,83.3c0,3.6,8.6,4.8,12.7,4.8c6.1,0,12.6-1.9,12.6-4.8c0-2-5.2-4.3-12.6-4.3
		C48.5,79,42.7,81,42.7,83.3"/>
	<path class="st0" d="M40.7,86.8c0-2.3,6.8-4.4,14.7-4.4c8.6,0,14.7,2.5,14.7,4.5c0,2.9-7.8,5-14.7,5C49.9,91.9,40.7,90.3,40.7,86.8
		z M41.1,85.3c-0.1,0.2-0.6,1-0.6,1.5c0,3.9,10.1,5.3,14.9,5.3c6.1,0,14.8-1.6,14.8-5.1c0-0.5-0.4-1.2-0.6-1.5
		c-1.4-2.1-6-4.2-14.2-4.2C46.9,81.3,41.9,83.8,41.1,85.3"/>
	<path class="st0" d="M40.5,86.7c0-0.4,0.4-1.1,0.6-1.4l0,0c1-1.6,6.2-3.9,14.3-3.9c8.5,0,12.9,2.1,14.2,4.2
		c0.1,0.1,0.6,0.9,0.6,1.4c0,3.5-8.6,5.1-14.8,5.1C50.2,92,40.5,90.5,40.5,86.7 M41,85.2c0,0-0.6,1-0.6,1.5c0,3.8,9.8,5.4,15,5.4
		c6.2,0,14.9-1.6,14.9-5.2c0-0.5-0.4-1.3-0.6-1.5c-1.3-2-5.8-4.2-14.3-4.2C47.2,81.3,42,83.6,41,85.2"/>
	<path class="st0" d="M40.7,86.8c0-2.3,6.8-4.3,14.7-4.3c8.3,0,14.7,2.4,14.7,4.4c0,2.9-7.7,4.9-14.7,4.9
		C50.3,91.8,40.7,90.4,40.7,86.8z M40.6,86.8c0,3.6,9.6,5.1,14.8,5.1c7,0,14.8-2.1,14.8-5c0-2.1-6.3-4.5-14.8-4.5
		C47.4,82.4,40.6,84.4,40.6,86.8"/>
	<path class="st0" d="M39.9,90.3c0-2.2,6.5-4,15.4-4c9.6,0,15.4,2.1,15.4,4c0,3-9.1,4.6-15.4,4.6C47.9,94.9,39.9,93.3,39.9,90.3z
		 M40.2,88.4c0,0-0.6,1-0.6,1.6c0,3.8,8.8,5,15.7,5c7.4,0,15.7-1.7,15.7-5c0-0.4-0.4-1.4-0.4-1.4c-1.1-1.8-5-3.6-15.3-3.6
		C45.3,85.1,41.4,87,40.2,88.4"/>
	<path class="st0" d="M55.3,85.2c10.8,0,14.2,1.9,15.3,3.5c0,0,0.4,0.9,0.4,1.4c0,3.2-8.1,5-15.7,5c-7.2,0-15.6-1.3-15.6-5
		c0-0.6,0.5-1.6,0.5-1.6C40.9,87.7,43.8,85.2,55.3,85.2z M40.2,88.4L40.2,88.4c0,0.1-0.6,1-0.6,1.7c0,3.8,8.5,5.1,15.7,5.1
		c7.6,0,15.8-1.8,15.8-5.1c0-0.5-0.4-1.4-0.4-1.4c-1-1.7-4.5-3.6-15.4-3.6C44,85,41,87.4,40.2,88.4"/>
	<path class="st0" d="M40,90.3c0-2.2,6.7-3.9,15.3-3.9c9.5,0,15.4,2.1,15.4,3.9c0,3-8.9,4.5-15.4,4.5C47.9,94.8,40,93.2,40,90.3z
		 M39.9,90.3c0,3,7.8,4.7,15.4,4.7c6.5,0,15.5-1.6,15.5-4.7c0-2-5.8-4.1-15.5-4.1C46.5,86.2,39.9,88,39.9,90.3"/>
	<path class="st0" d="M37.9,97.6c0-1.3,6.9-2.5,17.4-2.5c10.9,0,17.5,1.2,17.5,2.5c0,1.5-7.6,2.9-17.5,2.9
		C46.7,100.5,37.9,99.2,37.9,97.6z M37.9,96.4c0,0-0.4,0.7-0.4,1c0,2,8.9,3.3,17.8,3.3c9.7,0,17.8-1.4,17.8-3.3
		c0-0.3-0.3-0.9-0.3-0.9c-0.7-0.9-5.5-2.7-17.5-2.7C43.5,93.8,38.8,95.4,37.9,96.4"/>
	<path class="st0" d="M55.3,93.9c11.4,0,16.7,1.6,17.5,2.7c0,0,0.3,0.6,0.3,0.9c0,1.8-8,3.2-17.8,3.2c-8.5,0-17.7-1.2-17.7-3.2
		c0-0.3,0.4-1,0.4-1C38.7,95.5,43.2,93.9,55.3,93.9z M37.9,96.4L37.9,96.4c0,0-0.4,0.7-0.4,1.1c0,2.1,9.1,3.3,17.8,3.3
		c9.9,0,17.9-1.5,17.9-3.3c0-0.3-0.3-0.9-0.3-0.9c-0.8-1.1-6.1-2.7-17.6-2.7C43.2,93.8,38.7,95.4,37.9,96.4"/>
	<path class="st1" d="M38,97.6c0-1.2,6.1-2.5,17.3-2.5c10.9,0,17.4,1.2,17.4,2.5c0,1.4-7.1,2.9-17.4,2.9C46.2,100.5,38,99.1,38,97.6
		z M37.9,97.6c0,1.7,9.2,2.9,17.4,2.9c9.5,0,17.5-1.4,17.5-2.9c0-1.5-7.5-2.5-17.5-2.5C45.2,95.1,37.9,96.1,37.9,97.6"/>
	<path class="st0" d="M38.7,93.9c0-1.7,5.6-3.7,16.6-3.7c11.3,0,16.6,2.1,16.6,3.7c0,1.8-7.3,3.8-16.6,3.8
		C47.2,97.7,38.7,95.9,38.7,93.9z M38.8,92.4c0,0-0.4,0.8-0.4,1.2c0,2.5,8.6,4.2,17,4.2c9.1,0,16.9-1.9,16.9-4.2
		c0-0.4-0.4-1.2-0.4-1.2c-0.7-1.2-3.9-3.5-16.5-3.5C43,89,39.5,91.2,38.8,92.4"/>
	<path class="st0" d="M55.3,89.1c13.5,0,16,2.7,16.4,3.5c0,0,0.4,0.8,0.4,1.2c0,2.2-7.7,4.1-16.8,4.1c-8,0-16.9-1.7-16.9-4.2
		c0-0.4,0.4-1.2,0.4-1.2C39.3,91.6,41.9,89.1,55.3,89.1z M38.8,92.4L38.8,92.4c0,0-0.4,0.8-0.4,1.3c0,2.6,8.8,4.3,17,4.3
		c9.2,0,16.9-1.9,16.9-4.2c0-0.4-0.4-1.2-0.4-1.2c-0.5-0.8-3-3.5-16.5-3.5C41.9,89,39.2,91.6,38.8,92.4"/>
	<path class="st0" d="M38.8,93.9c0-1.5,5.1-3.6,16.5-3.6s16.5,2.1,16.5,3.6c0,1.7-7.2,3.7-16.5,3.7C47,97.6,38.8,95.8,38.8,93.9z
		 M38.7,93.9c0,2.2,9,3.8,16.6,3.8c9.5,0,16.6-2,16.6-3.8c0-1.6-5.2-3.7-16.6-3.7C44.5,90.2,38.7,92.1,38.7,93.9"/>
	<path class="st0" d="M37.5,101.6c0-0.9,7.1-1.8,17.9-1.8c10.8,0,17.8,0.9,17.8,1.8c0,1.2-9.4,2.2-17.8,2.2
		C48.3,103.8,37.5,103,37.5,101.6z M37.3,100.8c0,0-0.1,0.4-0.1,0.7c0,1.6,10.6,2.4,18.2,2.4c8.8,0,18.1-1,18.1-2.4
		c0-0.4-0.1-0.9-0.1-0.9c-1-1.2-6.2-2.1-18-2.1C43.5,98.6,38.2,99.5,37.3,100.8"/>
	<path class="st0" d="M55.4,98.7c13.4,0,17.2,1.1,18,2l0,0c0,0,0.1,0.5,0.1,0.8c0,1.4-9.3,2.4-18,2.4c-8.6,0-18.2-1-18.2-2.4
		c0,0,0.1-0.7,0.1-0.7C38.4,99.4,44.3,98.7,55.4,98.7z M37.2,100.8L37.2,100.8l-0.1,0.7c0,1.7,10.9,2.5,18.3,2.5
		c8.7,0,18.2-0.9,18.2-2.5c0-0.4-0.1-0.9-0.1-0.9c-1.2-1.4-7.4-2.1-18-2.1C44.2,98.6,38.3,99.3,37.2,100.8"/>
	<path class="st0" d="M37.5,101.6c0-0.8,6.8-1.7,17.9-1.7c11,0,17.8,0.9,17.8,1.7c0,1.1-8.6,2.1-17.8,2.1
		C48.1,103.7,37.5,102.9,37.5,101.6z M37.5,101.6c0,1.5,11.5,2.2,18,2.2c8.5,0,17.9-0.9,17.9-2.2c0-1-7.7-1.8-17.9-1.8
		C45.3,99.8,37.5,100.6,37.5,101.6"/>
	<path class="st0" d="M37.7,106c0-0.7,6.2-1.2,17.7-1.2c11.5,0,17.7,0.5,17.7,1.3c0,0.5-3.5,1.5-17.7,1.5
		C42.2,107.5,37.7,106.6,37.7,106z M37.3,105.2c0,0-0.1,0.6,0.1,0.9c0.3,0.7,3.7,1.7,18,1.7c14.2,0,17.6-1.1,18-1.6
		c0.2-0.3,0.1-0.9,0.1-0.9c-0.9-1.1-4.6-1.7-18-1.7C41.9,103.5,38.1,104.1,37.3,105.2"/>
	<path class="st0" d="M55.3,103.5c13.8,0,17.2,0.7,18,1.7l0,0c0,0,0.1,0.2,0.1,0.4c0,0.2,0,0.3-0.1,0.4c-0.1,0.2-1.5,1.6-17.9,1.6
		c-15.5,0-17.7-1.2-17.9-1.7c-0.1-0.1-0.1-0.4-0.1-0.5c0-0.1,0-0.2,0-0.3C38.1,104.2,41.4,103.5,55.3,103.5z M37.3,105.1L37.3,105.1
		L37.3,105.1c0,0.1-0.1,0.6,0.1,0.9c0.3,0.7,3,1.8,18,1.8c16.2,0,17.8-1.4,18-1.6c0.2-0.3,0.1-0.9,0.1-0.9
		c-0.9-1.1-4.2-1.8-18.1-1.8C41.4,103.4,38.1,104.1,37.3,105.1"/>
	<path class="st0" d="M37.7,106c0-0.6,4.6-1.2,17.6-1.2c13.1,0,17.7,0.6,17.7,1.2c0,0-0.2,1.4-17.7,1.4
		C42.5,107.5,37.7,106.6,37.7,106z M37.6,106c0,0.8,5.5,1.6,17.7,1.6c13.1,0,17.8-0.8,17.8-1.6c0-0.8-6.7-1.3-17.8-1.3
		C50,104.7,37.6,104.8,37.6,106"/>
	<path class="st0" d="M38.8,110.4c0-0.4,5.7-0.4,16.6-0.4c11,0,16.5,0.1,16.5,0.4c0,0.2-3,0.9-16.5,0.9
		C41.5,111.3,38.8,110.8,38.8,110.4z M38.1,109.6c0,0,0.1,0.4,0.2,0.7c0.2,0.5,0.7,1.2,17,1.2c16.6,0,16.9-1,17-1.2
		c0.1-0.1,0.2-0.7,0.2-0.7c-1.1-0.6-5.3-1.1-17.3-1.1C42.7,108.6,39,108.9,38.1,109.6"/>
	<path class="st0" d="M55.3,108.7c10.6,0,16,0.3,17.2,1c0,0.2-0.1,0.5-0.2,0.6c-0.7,1-9.6,1.2-17,1.2c-16.5,0-16.8-0.8-16.9-1.2
		c0,0-0.2-0.6-0.2-0.7C39.1,108.9,43.8,108.7,55.3,108.7z M38.1,109.5L38.1,109.5l0.2,0.8c0.2,0.5,0.4,1.2,17,1.2
		c10.8,0,16.5-0.4,17.1-1.2c0.1-0.2,0.2-0.6,0.2-0.7v-0.1l0,0c-1.2-0.7-6.5-1.1-17.3-1.1C42,108.5,38.9,108.9,38.1,109.5"/>
	<path class="st0" d="M53.2,110.1h2.2c7.8,0,16.1,0,16.5,0.4c-0.2,0.1-2.1,0.8-16.5,0.8c-15.3,0-16.5-0.6-16.5-0.8
		C38.9,110.1,44.6,110.1,53.2,110.1z M38.7,110.3L38.7,110.3c0,0.7,5.6,1.1,16.6,1.1c11.4,0,16.6-0.5,16.6-0.9
		c0-0.3-2.4-0.5-16.6-0.5h-2.2C43.8,110,39.1,110,38.7,110.3"/>
	<path class="st0" d="M55.3,114.5c11.3,0,13.3-0.2,14.4-0.6c-0.9,0.1-4.2,0.1-14.4,0.1c-10.1,0-13.5,0-14.4-0.1
		C42.1,114.3,43.6,114.5,55.3,114.5z M44.7,113.3c-4,0.1-4.1,0.5-4.1,0.6c0,0.1,0,0.4,14.7,0.4c14.7,0,14.7-0.2,14.7-0.4
		c0-0.2,0-0.5-4.1-0.6c-2.7-0.1-5.5-0.1-10.6-0.1C50.7,113.1,47.6,113.1,44.7,113.3"/>
	<path class="st0" d="M40.7,113.9c0-0.2,0.5-0.4,4-0.6l0,0c3-0.1,6.1-0.1,10.6-0.1c5.1,0,8,0.1,10.6,0.1c4,0.1,4,0.5,4,0.6
		c-0.2,0.2-5.1,0.3-14.7,0.3C45.8,114.2,40.9,114.1,40.7,113.9z M44.7,113.2L44.7,113.2c-4.1,0.1-4.1,0.5-4.1,0.7
		c0,0.2,0,0.4,14.7,0.4c14.8,0,14.8-0.2,14.8-0.4c0-0.2,0-0.6-4.2-0.7c-2.7-0.1-5.5-0.1-10.6-0.1C50.8,113.1,47.7,113.1,44.7,113.2"
		/>
	<path class="st0" d="M41.5,114c1.5,0.1,5.3,0.1,13.8,0.1c8.6,0,12.4,0,13.8-0.1c-1.2,0.3-4,0.5-13.8,0.5
		C45.4,114.5,42.8,114.3,41.5,114z M40.9,114c1.2,0.4,2.9,0.6,14.4,0.6c11.6,0,13.4-0.3,14.4-0.6l0-0.1c-0.9,0.1-4.2,0.1-14.4,0.1
		c-9.9,0-13.5,0-14.4-0.1L40.9,114"/>
	<path class="st0" d="M55.3,116.7c6.5,0,10.7,0.2,11.4,0.3c-0.5,0.1-2.6,0.2-11.4,0.2c-8.5,0-10.9-0.1-11.4-0.2
		C44.7,116.8,48.5,116.7,55.3,116.7z M43.5,116.9c0,0.3,0.6,0.7,0.6,0.7c1,0.3,3.6,0.5,11.2,0.5c7.1,0,10.1-0.1,11.3-0.4
		c0,0,0.6-0.4,0.6-0.7c0-0.3-5.9-0.4-11.8-0.4C48.6,116.5,43.5,116.6,43.5,116.9"/>
	<path class="st0" d="M55.3,116.6c7.2,0,11.6,0.1,11.8,0.4c0,0.2-0.4,0.6-0.5,0.7c-1.1,0.3-4.2,0.4-11.2,0.4
		c-7.1,0-10.1-0.1-11.2-0.5c-0.2-0.1-0.6-0.4-0.6-0.6C43.8,116.8,45.5,116.6,55.3,116.6z M43.5,116.9c0,0.3,0.6,0.7,0.6,0.7
		c1.1,0.4,4.1,0.5,11.2,0.5s10.1-0.1,11.3-0.4c0.1,0,0.6-0.4,0.6-0.8c0-0.1,0-0.5-11.9-0.5C43.5,116.5,43.5,116.8,43.5,116.9"/>
	<path class="st0" d="M55.3,116.7c5.6,0,9.4,0.1,10.9,0.2c-1.4,0.1-5.1,0.2-10.9,0.2c-5.9,0-9.5-0.1-10.9-0.2
		C45.9,116.8,49.6,116.7,55.3,116.7z M43.9,116.9v0.1c0.7,0.1,4.5,0.2,11.4,0.2c6.8,0,10.7-0.1,11.4-0.2v-0.1
		c-0.8-0.1-4.9-0.3-11.4-0.3C48.3,116.6,44.6,116.8,43.9,116.9"/>
	<path class="st0" d="M55.5,119c7.3,0,7.6,0.3,7.8,0.4c-0.4,0.2-3.1,0.4-7.8,0.4c-6.7,0-7.9-0.2-8.1-0.3
		C47.8,119.2,48.5,119,55.5,119z M47.1,119.4c0,0.1,0.4,0.5,0.4,0.5c0.8,0.3,3,0.6,7.8,0.6c3.7,0,6.4-0.2,7.6-0.6
		c0,0,0.6-0.4,0.6-0.5c0-0.3-2.7-0.6-8.2-0.6C50.4,118.9,47.1,119,47.1,119.4"/>
	<path class="st0" d="M55.4,118.9c6.4,0,8.1,0.3,8.1,0.5c0,0.1-0.3,0.3-0.6,0.4c-1.2,0.3-4,0.6-7.5,0.6c-4.1,0-6.8-0.2-7.8-0.6
		c-0.2-0.2-0.4-0.4-0.4-0.4C47.2,119.2,48.6,118.9,55.4,118.9z M47.1,119.4c0,0.1,0.3,0.4,0.5,0.5c1,0.4,3.7,0.6,7.8,0.6
		c3.5,0,6.3-0.2,7.6-0.6c0.2-0.1,0.7-0.4,0.7-0.6c0-0.5-4.5-0.6-8.3-0.6C48.1,118.8,47.1,119.1,47.1,119.4"/>
	<path class="st0" d="M55.5,119.1c5.9,0,7.2,0.2,7.6,0.3c-0.7,0.1-3.1,0.3-7.6,0.3c-6,0-7.5-0.2-7.9-0.3
		C48,119.2,49.2,119.1,55.5,119.1z M47.5,119.4L47.5,119.4v0.1c0.2,0.1,1.6,0.4,8.1,0.4c4.5,0,7.4-0.2,7.9-0.4l0.1-0.1l-0.2-0.1
		c-0.2-0.1-0.9-0.4-7.8-0.4C48.2,118.9,47.7,119.2,47.5,119.4"/>
	<path class="st0" d="M55.3,120.7c3.4,0,3.9,0.3,4,0.4c-0.1,0.2-2.7,0.3-4,0.3c-1.7,0-3.7-0.1-3.8-0.3
		C51.7,120.9,52.6,120.7,55.3,120.7z M51.2,121c0,0.2,0.3,0.6,0.3,0.6c0.4,0.3,1.7,0.5,3.8,0.5c1.8,0,3.3-0.2,3.9-0.5
		c0,0,0.3-0.3,0.3-0.6c0-0.1,0-0.5-4.2-0.5C53.7,120.6,51.2,120.7,51.2,121"/>
	<path class="st0" d="M51.5,121.6c-0.1-0.1-0.3-0.4-0.3-0.6c0-0.2,1.8-0.4,4-0.4c3.9,0,4.2,0.3,4.2,0.4c0,0.3-0.3,0.6-0.3,0.6
		c-0.6,0.3-2.1,0.4-3.9,0.4C53.3,122.1,51.9,121.9,51.5,121.6z M51.1,121c0,0.2,0.3,0.6,0.3,0.6c0.4,0.3,1.8,0.5,3.9,0.5
		c1.8,0,3.3-0.2,3.9-0.5c0,0,0.3-0.3,0.3-0.7c0-0.2,0-0.5-4.3-0.5C54.6,120.5,51.1,120.5,51.1,121"/>
	<path class="st0" d="M55.3,120.7c2.7,0,3.6,0.2,3.9,0.3c-0.3,0.1-1.9,0.2-3.9,0.2c-2.2,0-3.4-0.1-3.7-0.2
		C51.9,120.9,52.8,120.7,55.3,120.7z M51.4,121L51.4,121L51.4,121c0.2,0.4,2.7,0.4,3.8,0.4c0.9,0,3.9,0,4.1-0.3l0-0.1l-0.1,0
		c-0.4-0.2-1.8-0.4-4-0.4C52.4,120.6,51.6,120.9,51.4,121"/>
	<path class="st0" d="M46.8,108c0.6,1,1.5,1.8,2.4,2.5l12,0.1c0.9-0.7,1.8-1.5,2.4-2.5c-2,0.1-5.3,0.2-8.5,0.2
		C51.8,108.3,48.6,108.1,46.8,108z"/>
	<path class="st0" d="M65.3,102.4c0-0.7-0.1-1.4-0.2-2l-9.3,1.2l-10.5-1c-0.1,0.5-0.2,1.1-0.2,1.7l20.2,0.4
		C65.3,102.5,65.3,102.4,65.3,102.4z"/>
	<path class="st0" d="M55.5,103.4c-4.9,0-8.5,0.1-10.3,0.2c0.1,1.1,0.4,2.1,0.9,3l18.3,0.1c0.5-1,0.8-2,0.9-3.1
		C63.3,103.5,59.9,103.4,55.5,103.4z"/>
	<path class="st0" d="M52.7,112.2c0.8,0.2,1.6,0.3,2.5,0.3c0.9,0,1.7-0.1,2.5-0.3c-0.7,0-1.6,0-2.7,0
		C54.1,112.2,53.4,112.2,52.7,112.2z"/>
	<path class="st0" d="M65.1,100.2c-0.2-0.9-0.5-1.7-0.9-2.5c-1.8,0.2-5.5,0.6-9.1,0.6c-3.6,0-7.1-0.4-8.8-0.6
		c-0.4,0.8-0.8,1.7-1,2.6c2.1-0.1,5.9-0.3,9.8-0.3C59.5,99.9,63.4,100.1,65.1,100.2z"/>
	<path class="st0" d="M55.2,92.3c-3.3,0-6.1,1.5-8,3.9l16.1,0.1C61.4,93.8,58.5,92.3,55.2,92.3z"/>
	<path class="st2" d="M64.2,97.7c-0.3-0.5-0.6-1-0.9-1.4l0,0C63.6,96.7,63.9,97.2,64.2,97.7C64.2,97.7,64.2,97.7,64.2,97.7z"/>
	<path class="st2" d="M45.3,100.2c0,0.1,0,0.2-0.1,0.3h0C45.3,100.4,45.3,100.3,45.3,100.2C45.3,100.2,45.3,100.2,45.3,100.2z"/>
	<path class="st2" d="M45.1,102.2L45.1,102.2c0,0.1,0,0.1,0,0.2C45.1,102.3,45.1,102.2,45.1,102.2z"/>
	<path class="st2" d="M65.1,100.4c0-0.1,0-0.1,0-0.2c0,0,0,0,0,0C65.1,100.2,65.1,100.3,65.1,100.4L65.1,100.4z"/>
	<path class="st2" d="M47.2,96.2c-0.3,0.4-0.6,0.9-0.9,1.4c0,0,0,0,0,0C46.6,97.1,46.9,96.6,47.2,96.2L47.2,96.2z"/>
	<path class="st0" d="M46.8,108c1.8,0.1,5,0.3,8.3,0.3c3.2,0,6.5-0.1,8.5-0.2c0.3-0.4,0.5-0.9,0.8-1.4L46,106.6
		C46.3,107.1,46.5,107.5,46.8,108z"/>
	<path class="st0" d="M65.2,103.6c0-0.3,0.1-0.7,0.1-1l-20.2-0.4c0,0.1,0,0.1,0,0.2c0,0.4,0,0.8,0.1,1.2c1.8-0.1,5.3-0.2,10.3-0.2
		C59.9,103.4,63.3,103.5,65.2,103.6z"/>
	<path class="st0" d="M65.1,100.4c0-0.1,0-0.1,0-0.2c-1.7-0.1-5.5-0.3-10-0.3c-3.9,0-7.7,0.2-9.8,0.3c0,0.1,0,0.2-0.1,0.3l10.5,1
		L65.1,100.4z"/>
	<path class="st0" d="M52.7,112.2c0.6,0,1.4,0,2.3,0c1.1,0,2,0,2.7,0c1.2-0.3,2.4-0.9,3.4-1.6l-12-0.1
		C50.2,111.3,51.4,111.8,52.7,112.2z"/>
	<path class="st0" d="M64.2,97.7c-0.3-0.5-0.6-1-0.9-1.4l-16.1-0.1c-0.3,0.4-0.7,0.9-0.9,1.4c1.7,0.2,5.2,0.6,8.8,0.6
		C58.7,98.2,62.3,97.9,64.2,97.7z"/>
	<path class="st0" d="M85.6,103.1c-0.2-0.1-0.3-0.2-0.3-0.5c0-0.9,0.1-1.8,0.1-2.1c0-0.2,0.1-0.4,0.2-0.4c0.1,0,0.1,0.1,0.1,0.3
		c0,0.2,0.1,0.5,0.1,0.8c0.3,1.2,1.2,1.6,2.2,1.6c1.4,0,2.1-0.9,2.1-1.8c0-0.8-0.2-1.5-1.5-2.5L87.9,98c-1.7-1.3-2.3-2.4-2.3-3.7
		c0-1.7,1.4-2.9,3.6-2.9c1,0,1.7,0.2,2.1,0.3c0.1,0,0.2,0.1,0.2,0.2c0,0.2-0.1,0.7-0.1,1.9c0,0.4-0.1,0.5-0.2,0.5
		c-0.1,0-0.2-0.1-0.2-0.3c0-0.1-0.1-0.6-0.4-1c-0.2-0.3-0.7-0.7-1.7-0.7c-1.1,0-1.9,0.7-1.9,1.6c0,0.7,0.4,1.3,1.6,2.2l0.4,0.3
		c1.9,1.4,2.5,2.5,2.5,4c0,0.9-0.3,2-1.5,2.7c-0.8,0.5-1.6,0.6-2.5,0.6C87,103.5,86.3,103.4,85.6,103.1z"/>
	<path class="st0" d="M99.8,96.1c0-2.4,0-2.8,0-3.3c0-0.5-0.2-0.8-0.5-0.9c-0.2-0.1-0.4-0.1-0.6-0.1c-0.1,0-0.2,0-0.2-0.1
		c0-0.1,0.1-0.1,0.4-0.1c0.6,0,1.6,0.1,2,0.1c0.4,0,1.3-0.1,1.9-0.1c0.2,0,0.3,0,0.3,0.1c0,0.1-0.1,0.1-0.2,0.1
		c-0.2,0-0.3,0-0.5,0.1c-0.4,0.1-0.6,0.3-0.6,0.9c0,0.5,0,0.9,0,3.3v2.7c0,1.5,0,2.7,0.1,3.4c0.1,0.4,0.2,0.7,0.6,0.7
		c0.2,0,0.6,0.1,0.8,0.1c0.2,0,0.2,0.1,0.2,0.1c0,0.1-0.1,0.2-0.3,0.2c-1,0-2-0.1-2.4-0.1c-0.4,0-1.3,0.1-2,0.1
		c-0.2,0-0.3-0.1-0.3-0.2c0-0.1,0.1-0.1,0.2-0.1c0.2,0,0.4,0,0.6-0.1c0.3-0.1,0.4-0.3,0.4-0.8c0.1-0.7,0.1-1.9,0.1-3.4L99.8,96.1
		L99.8,96.1z"/>
	<path class="st0" d="M112.7,98.8c0,2,0,3.1,0.3,3.4c0.3,0.2,0.7,0.3,1.9,0.3c0.8,0,1.4,0,1.8-0.4c0.2-0.2,0.4-0.6,0.4-0.9
		c0-0.1,0.1-0.2,0.2-0.2c0.1,0,0.1,0.1,0.1,0.2s-0.1,1.3-0.2,1.8c-0.1,0.4-0.2,0.4-1,0.4c-2.2,0-3.3-0.1-4.5-0.1
		c-0.4,0-1.3,0.1-2,0.1c-0.2,0-0.3-0.1-0.3-0.2c0-0.1,0.1-0.1,0.2-0.1c0.2,0,0.4,0,0.6-0.1c0.3-0.1,0.4-0.4,0.4-0.9
		c0.1-0.7,0.1-1.9,0.1-3.3v-2.7c0-2.4,0-2.8,0-3.3c0-0.5-0.1-0.8-0.7-0.9c-0.1,0-0.3-0.1-0.5-0.1c-0.2,0-0.2,0-0.2-0.1
		c0-0.1,0.1-0.1,0.3-0.1c0.7,0,1.7,0.1,2.1,0.1c0.4,0,1.5-0.1,2.1-0.1c0.2,0,0.3,0,0.3,0.1c0,0.1-0.1,0.1-0.3,0.1
		c-0.2,0-0.4,0-0.6,0.1c-0.4,0.1-0.6,0.3-0.6,0.9c0,0.5,0,0.9,0,3.3L112.7,98.8L112.7,98.8z"/>
	<path class="st0" d="M121.8,93.1c-0.4-0.9-0.6-1-1.2-1.2c-0.2-0.1-0.5-0.1-0.6-0.1c-0.1,0-0.2-0.1-0.2-0.1c0-0.1,0.2-0.1,0.4-0.1
		c0.8,0,1.7,0.1,2.2,0.1c0.4,0,1.1-0.1,1.9-0.1c0.2,0,0.4,0,0.4,0.1c0,0.1-0.1,0.1-0.2,0.1c-0.2,0-0.5,0-0.6,0.1
		c-0.1,0.1-0.1,0.2-0.1,0.3c0,0.2,0.1,0.6,0.4,1.2l2.7,7.1h0.1c0.7-1.7,2.7-6.7,3.1-7.8c0.1-0.2,0.1-0.4,0.1-0.6
		c0-0.1-0.1-0.2-0.2-0.3c-0.2-0.1-0.4-0.1-0.6-0.1c-0.1,0-0.3,0-0.3-0.1c0-0.1,0.1-0.2,0.4-0.2c0.8,0,1.4,0.1,1.6,0.1
		c0.3,0,1-0.1,1.5-0.1c0.2,0,0.3,0,0.3,0.1c0,0.1-0.1,0.1-0.2,0.1c-0.2,0-0.5,0-0.8,0.2c-0.2,0.1-0.4,0.4-0.9,1.4
		c-0.6,1.5-1,2.3-1.9,4.2c-1,2.3-1.7,4-2.1,4.7c-0.4,0.9-0.5,1.2-0.7,1.2c-0.2,0-0.3-0.2-0.6-0.9L121.8,93.1z"/>
	<path class="st0" d="M138.4,96.1c0-2.4,0-2.8,0-3.3c0-0.5-0.2-0.8-0.7-0.9c-0.1,0-0.4-0.1-0.6-0.1c-0.2,0-0.2,0-0.2-0.1
		c0-0.1,0.1-0.1,0.3-0.1c0.8,0,1.8,0.1,2.2,0.1c0.5,0,3.6,0,3.9,0c0.3,0,0.6-0.1,0.7-0.1c0.1,0,0.2-0.1,0.2-0.1s0.1,0.1,0.1,0.1
		c0,0.1-0.1,0.3-0.1,1c0,0.2-0.1,0.9-0.1,1c0,0.1-0.1,0.2-0.2,0.2s-0.1-0.1-0.1-0.2c0-0.1,0-0.4-0.1-0.6c-0.1-0.3-0.3-0.5-1.1-0.6
		c-0.2,0-1.9-0.1-2.2-0.1c-0.1,0-0.1,0-0.1,0.1v3.9c0,0.1,0,0.2,0.1,0.2c0.3,0,2.1,0,2.5,0c0.4,0,0.6-0.1,0.7-0.2
		c0.1-0.1,0.2-0.2,0.2-0.2c0.1,0,0.1,0,0.1,0.1c0,0.1-0.1,0.3-0.1,1.1c0,0.3-0.1,0.9-0.1,1.1c0,0.1,0,0.3-0.1,0.3
		c-0.1,0-0.1-0.1-0.1-0.1c0-0.2,0-0.4-0.1-0.6c-0.1-0.3-0.3-0.6-0.9-0.6c-0.3,0-1.8,0-2.2,0c-0.1,0-0.1,0.1-0.1,0.2v1.2
		c0,0.5,0,2,0,2.4c0,1.1,0.3,1.3,1.9,1.3c0.4,0,1.1,0,1.5-0.2c0.4-0.2,0.6-0.5,0.7-1.2c0-0.2,0.1-0.2,0.2-0.2s0.1,0.1,0.1,0.3
		c0,0.4-0.1,1.4-0.2,1.7c-0.1,0.4-0.2,0.4-0.8,0.4c-2.4,0-3.4-0.1-4.3-0.1c-0.4,0-1.4,0.1-2,0.1c-0.2,0-0.3-0.1-0.3-0.2
		c0-0.1,0.1-0.1,0.2-0.1c0.2,0,0.4,0,0.6-0.1c0.3-0.1,0.4-0.4,0.4-0.9c0.1-0.7,0.1-1.9,0.1-3.3L138.4,96.1L138.4,96.1z"/>
	<path class="st0" d="M152.1,98.8c0,1.4,0,2.7-0.1,3.3c-0.1,0.4-0.1,0.8-0.4,0.9c-0.1,0-0.3,0.1-0.6,0.1c-0.2,0-0.2,0.1-0.2,0.1
		c0,0.1,0.1,0.2,0.3,0.2c0.6,0,1.6-0.1,1.9-0.1c0.2,0,1.4,0.1,2.3,0.1c0.2,0,0.3-0.1,0.3-0.2c0-0.1-0.1-0.1-0.2-0.1
		c-0.2,0-0.5,0-0.8-0.1c-0.5-0.1-0.6-0.4-0.6-0.9c-0.1-0.7-0.1-1.9-0.1-3.3v-0.2c0-0.1,0.1-0.1,0.1-0.1l1.4,0c0.1,0,0.2,0,0.3,0.1
		c0.2,0.2,0.9,1.3,1.6,2.2c0.9,1.2,1.5,1.9,2.1,2.3c0.4,0.2,0.8,0.3,1.7,0.3h1.5c0.2,0,0.3,0,0.3-0.2c0-0.1-0.1-0.1-0.2-0.1
		c-0.1,0-0.3,0-0.4-0.1c-0.2-0.1-0.9-0.2-1.7-1.1c-0.9-1-2-2.4-3.4-4.1c1.6-1.3,2.1-2.3,2.1-3.5c0-1.1-0.6-1.8-1.1-2.1
		c-0.8-0.6-1.9-0.7-2.9-0.7c-0.5,0-1.7,0.1-2.2,0.1c-0.3,0-1.3-0.1-2.1-0.1c-0.2,0-0.3,0-0.3,0.1c0,0.1,0.1,0.1,0.3,0.1
		c0.2,0,0.5,0,0.6,0.1c0.5,0.1,0.6,0.4,0.7,0.9c0,0.5,0,0.9,0,3.3L152.1,98.8L152.1,98.8z M154,92.6c0-0.1,0-0.2,0.1-0.2
		c0.2-0.1,0.4-0.1,0.8-0.1c0.9,0,2.4,0.6,2.4,2.9c0,1.3-0.4,2-0.9,2.3c-0.3,0.2-0.5,0.3-1.1,0.3c-0.4,0-0.9-0.1-1.2-0.2
		c-0.1-0.1-0.1-0.1-0.1-0.3V92.6"/>
	<path class="st0" d="M175.5,96.1c0-2.4,0-2.8,0-3.3c0-0.5-0.2-0.8-0.7-0.9c-0.1,0-0.4-0.1-0.6-0.1c-0.2,0-0.3,0-0.3-0.1
		c0-0.1,0.1-0.1,0.3-0.1c0.8,0,1.8,0.1,2.2,0.1c0.5,0,3.6,0,3.9,0c0.3,0,0.6-0.1,0.7-0.1c0.1,0,0.2-0.1,0.2-0.1
		c0.1,0,0.1,0.1,0.1,0.1c0,0.1-0.1,0.3-0.1,1c0,0.2-0.1,0.9-0.1,1c0,0.1,0,0.2-0.2,0.2c-0.1,0-0.1-0.1-0.1-0.2c0-0.1,0-0.4-0.1-0.6
		c-0.1-0.3-0.3-0.5-1.1-0.6c-0.2,0-1.9-0.1-2.2-0.1c-0.1,0-0.1,0-0.1,0.1v3.9c0,0.1,0,0.2,0.1,0.2c0.4,0,2.1,0,2.5,0
		c0.4,0,0.6-0.1,0.7-0.2c0.1-0.1,0.2-0.2,0.2-0.2c0.1,0,0.1,0,0.1,0.1c0,0.1-0.1,0.3-0.1,1.1c0,0.3-0.1,0.9-0.1,1.1
		c0,0.1,0,0.3-0.1,0.3c-0.1,0-0.1-0.1-0.1-0.1c0-0.2,0-0.4-0.1-0.6c-0.1-0.3-0.3-0.6-0.9-0.6c-0.3,0-1.8,0-2.2,0
		c-0.1,0-0.1,0.1-0.1,0.2v1.2c0,0.5,0,2,0,2.4c0,1.1,0.3,1.3,1.9,1.3c0.4,0,1.1,0,1.5-0.2s0.6-0.5,0.7-1.2c0-0.2,0.1-0.2,0.2-0.2
		c0.1,0,0.1,0.1,0.1,0.3c0,0.4-0.1,1.4-0.2,1.7c-0.1,0.4-0.2,0.4-0.9,0.4c-2.4,0-3.4-0.1-4.3-0.1c-0.4,0-1.4,0.1-2,0.1
		c-0.2,0-0.3-0.1-0.3-0.2c0-0.1,0.1-0.1,0.2-0.1c0.2,0,0.4,0,0.6-0.1c0.3-0.1,0.4-0.4,0.4-0.9c0.1-0.7,0.1-1.9,0.1-3.3L175.5,96.1
		L175.5,96.1z"/>
	<path class="st0" d="M199.1,102.3c0,0.4,0,0.4-0.2,0.6c-1,0.5-2.5,0.7-3.7,0.7c-3.8,0-7.2-1.8-7.2-6.1c0-2.5,1.3-4.2,2.7-5.1
		c1.5-0.9,2.9-1,4.2-1c1.1,0,2.4,0.2,2.8,0.2c0.3,0.1,0.9,0.2,1.2,0.2c0.2,0,0.2,0.1,0.2,0.2c0,0.2-0.1,0.6-0.1,2.5
		c0,0.2-0.1,0.3-0.2,0.3c-0.1,0-0.1-0.1-0.2-0.2c-0.1-0.4-0.1-0.9-0.5-1.3c-0.5-0.5-1.7-1.2-3.5-1.2c-0.9,0-2,0.1-3.1,1
		c-0.9,0.7-1.4,1.9-1.4,3.8c0,3.4,2.1,5.8,5.4,5.8c0.4,0,0.9,0,1.3-0.2c0.2-0.1,0.3-0.3,0.3-0.6v-1.5c0-0.8,0-1.4,0-1.9
		c0-0.5-0.2-0.8-0.7-0.9c-0.1,0-0.4-0.1-0.6-0.1c-0.1,0-0.2,0-0.2-0.1c0-0.1,0.1-0.2,0.3-0.2c0.8,0,1.8,0.1,2.2,0.1
		c0.5,0,1.3-0.1,1.8-0.1c0.2,0,0.3,0,0.3,0.2c0,0.1-0.1,0.1-0.2,0.1c-0.1,0-0.2,0-0.4,0.1c-0.4,0.1-0.6,0.3-0.6,0.9
		c0,0.5,0,1.1,0,1.9L199.1,102.3L199.1,102.3z"/>
	<path class="st0" d="M216.8,102.3c0,0.4,0,0.4-0.2,0.6c-1,0.5-2.5,0.7-3.7,0.7c-3.8,0-7.2-1.8-7.2-6.1c0-2.5,1.3-4.2,2.7-5.1
		c1.5-0.9,2.9-1,4.2-1c1.1,0,2.4,0.2,2.7,0.2c0.3,0.1,0.9,0.2,1.2,0.2c0.2,0,0.2,0.1,0.2,0.2c0,0.2-0.1,0.6-0.1,2.5
		c0,0.2-0.1,0.3-0.2,0.3s-0.1-0.1-0.2-0.2c-0.1-0.4-0.1-0.9-0.5-1.3c-0.5-0.5-1.7-1.2-3.5-1.2c-0.9,0-2,0.1-3.1,1
		c-0.9,0.7-1.4,1.9-1.4,3.8c0,3.4,2.1,5.8,5.4,5.8c0.4,0,0.9,0,1.3-0.2c0.2-0.1,0.3-0.3,0.3-0.6v-1.5c0-0.8,0-1.4,0-1.9
		c0-0.5-0.1-0.8-0.7-0.9c-0.1,0-0.4-0.1-0.6-0.1c-0.1,0-0.2,0-0.2-0.1c0-0.1,0.1-0.2,0.3-0.2c0.8,0,1.8,0.1,2.2,0.1
		c0.5,0,1.3-0.1,1.8-0.1c0.2,0,0.3,0,0.3,0.2c0,0.1-0.1,0.1-0.2,0.1c-0.1,0-0.2,0-0.4,0.1c-0.4,0.1-0.6,0.3-0.6,0.9
		c0,0.5,0,1.1,0,1.9L216.8,102.3L216.8,102.3z"/>
	<path class="st0" d="M88.1,106.9l-1.3,0c-0.5,0-0.7,0.1-0.8,0.2c-0.1,0.1-0.1,0.2-0.1,0.3c0,0.1-0.1,0.1-0.1,0.1
		c-0.1,0-0.1-0.1-0.1-0.1c0-0.1,0.2-0.9,0.2-1c0-0.1,0.1-0.2,0.1-0.2c0.1,0,0.2,0.1,0.4,0.1c0.2,0,0.6,0.1,0.9,0.1h3.4
		c0.6,0,0.7-0.1,0.8-0.1c0.1,0,0.1,0.1,0.1,0.2c0,0.2,0,0.8,0,1c0,0.1,0,0.1-0.1,0.1c-0.1,0-0.1-0.1-0.1-0.2l0-0.1
		c0-0.2-0.2-0.5-1-0.5l-1.1,0v3.5c0,0.8,0,1.4,0,1.8c0,0.2,0.1,0.4,0.3,0.5c0.1,0,0.3,0,0.4,0c0.1,0,0.1,0,0.1,0.1
		c0,0.1-0.1,0.1-0.2,0.1c-0.6,0-1.1,0-1.3,0c-0.2,0-0.7,0-1.1,0c-0.1,0-0.2,0-0.2-0.1c0,0,0-0.1,0.1-0.1c0.1,0,0.2,0,0.3,0
		c0.2,0,0.2-0.2,0.2-0.5c0.1-0.4,0.1-1,0.1-1.8L88.1,106.9L88.1,106.9z"/>
	<path class="st0" d="M100,108.9c0-1.3,0-1.5,0-1.8c0-0.3-0.1-0.4-0.4-0.5c-0.1,0-0.2,0-0.3,0c-0.1,0-0.1,0-0.1-0.1
		c0-0.1,0.1-0.1,0.2-0.1c0.4,0,1,0,1.2,0c0.3,0,2,0,2.1,0c0.2,0,0.3,0,0.4-0.1c0,0,0.1,0,0.1,0c0,0,0.1,0,0.1,0.1
		c0,0.1-0.1,0.2-0.1,0.6c0,0.1,0,0.5-0.1,0.6c0,0.1,0,0.1-0.1,0.1s-0.1-0.1-0.1-0.1s0-0.2-0.1-0.3c-0.1-0.1-0.1-0.2-0.6-0.3
		c-0.1,0-1,0-1.2,0c-0.1,0-0.1,0-0.1,0.1v2.2c0,0.1,0,0.1,0.1,0.1c0.2,0,1.2,0,1.4,0c0.2,0,0.3,0,0.4-0.1c0.1-0.1,0.1-0.1,0.1-0.1
		c0,0,0.1,0,0.1,0.1s-0.1,0.2-0.1,0.6c0,0.2,0,0.5,0,0.6c0,0.1,0,0.2-0.1,0.2c-0.1,0-0.1,0-0.1-0.1c0-0.1,0-0.2,0-0.3
		c0-0.2-0.2-0.3-0.5-0.3c-0.2,0-1,0-1.2,0c-0.1,0-0.1,0-0.1,0.1v0.7c0,0.3,0,1.1,0,1.3c0,0.6,0.2,0.7,1,0.7c0.2,0,0.6,0,0.8-0.1
		c0.2-0.1,0.3-0.3,0.4-0.6c0-0.1,0-0.1,0.1-0.1c0.1,0,0.1,0.1,0.1,0.1c0,0.2-0.1,0.8-0.1,0.9c-0.1,0.2-0.1,0.2-0.4,0.2
		c-1.3,0-1.9-0.1-2.4-0.1c-0.2,0-0.7,0-1.1,0c-0.1,0-0.2,0-0.2-0.1c0,0,0-0.1,0.1-0.1s0.2,0,0.3,0c0.2,0,0.2-0.2,0.2-0.5
		c0.1-0.4,0.1-1,0.1-1.8L100,108.9L100,108.9z"/>
	<path class="st0" d="M112.5,112c-0.8-0.7-1.1-1.7-1.1-2.5c0-0.6,0.2-1.6,1-2.3c0.6-0.6,1.4-0.9,2.7-0.9c0.5,0,0.8,0,1.2,0.1
		c0.3,0,0.6,0.1,0.9,0.1c0.1,0,0.1,0.1,0.1,0.1c0,0.1,0,0.2-0.1,0.5c0,0.3,0,0.7,0,0.9c0,0.1,0,0.2-0.1,0.2c-0.1,0-0.1-0.1-0.1-0.2
		c0-0.3-0.1-0.6-0.3-0.8c-0.3-0.3-0.9-0.5-1.7-0.5c-0.7,0-1.2,0.2-1.6,0.5c-0.6,0.6-0.8,1.4-0.8,2.2c0,2,1.6,3,2.7,3
		c0.7,0,1.2-0.1,1.6-0.5c0.1-0.2,0.2-0.4,0.3-0.6c0-0.1,0.1-0.2,0.1-0.2c0.1,0,0.1,0.1,0.1,0.1c0,0.1-0.1,0.9-0.2,1.1
		c-0.1,0.1-0.1,0.2-0.2,0.2c-0.3,0.1-1,0.2-1.5,0.2C114.2,113,113.2,112.7,112.5,112z"/>
	<path class="st0" d="M130.4,109.1C130.5,109.1,130.5,109.1,130.4,109.1l0.1-0.2c0-1.3,0-1.5,0-1.8c0-0.3-0.1-0.4-0.4-0.5
		c-0.1,0-0.2,0-0.3,0c-0.1,0-0.1,0-0.1-0.1s0.1-0.1,0.2-0.1c0.5,0,1,0,1.2,0c0.2,0,0.7,0,1.1,0c0.1,0,0.2,0,0.2,0.1
		s-0.1,0.1-0.2,0.1c-0.1,0-0.1,0-0.2,0c-0.2,0.1-0.3,0.2-0.3,0.5c0,0.3,0,0.5,0,1.8v1.5c0,0.8,0,1.4,0,1.8c0,0.2,0.1,0.4,0.3,0.5
		c0.1,0,0.3,0,0.4,0c0.1,0,0.1,0,0.1,0.1c0,0.1-0.1,0.1-0.2,0.1c-0.6,0-1.1,0-1.3,0c-0.2,0-0.7,0-1.1,0c-0.1,0-0.2,0-0.2-0.1
		c0,0,0-0.1,0.1-0.1c0.1,0,0.2,0,0.3,0c0.2,0,0.2-0.2,0.2-0.5c0.1-0.4,0.1-1,0.1-1.8v-0.7c0,0,0-0.1-0.1-0.1h-3.2c0,0-0.1,0-0.1,0.1
		v0.7c0,0.8,0,1.4,0.1,1.8c0,0.2,0.1,0.4,0.3,0.5c0.1,0,0.3,0,0.4,0c0.1,0,0.1,0,0.1,0.1c0,0.1-0.1,0.1-0.2,0.1c-0.6,0-1.1,0-1.3,0
		c-0.2,0-0.7,0-1.1,0c-0.1,0-0.2,0-0.2-0.1c0,0,0-0.1,0.1-0.1s0.2,0,0.3,0c0.2,0,0.2-0.2,0.2-0.5c0-0.4,0-1,0-1.8v-1.5
		c0-1.3,0-1.5,0-1.8c0-0.3-0.1-0.4-0.4-0.5c-0.1,0-0.2,0-0.3,0c-0.1,0-0.1,0-0.1-0.1s0.1-0.1,0.2-0.1c0.5,0,1,0,1.2,0
		c0.2,0,0.7,0,1.1,0c0.1,0,0.2,0,0.2,0.1s-0.1,0.1-0.1,0.1c-0.1,0-0.1,0-0.2,0c-0.2,0.1-0.3,0.2-0.3,0.5c0,0.3,0,0.5,0,1.8v0.2
		c0,0,0,0.1,0.1,0.1H130.4z"/>
	<path class="st0" d="M141.8,111.7c0,0.7,0.1,0.9,0.3,0.9c0.1,0.1,0.3,0.1,0.4,0.1c0.1,0,0.1,0,0.1,0.1c0,0.1-0.1,0.1-0.2,0.1
		c-0.6,0-0.9,0-1.1,0c-0.1,0-0.5,0-0.9,0c-0.1,0-0.2,0-0.2-0.1c0-0.1,0.1-0.1,0.1-0.1c0.1,0,0.2,0,0.4-0.1c0.2-0.1,0.2-0.3,0.2-1.1
		l0.1-5c0-0.2,0-0.3,0.1-0.3s0.2,0.1,0.3,0.2c0.1,0.1,1.4,1.5,2.6,2.7c0.6,0.6,1.7,1.8,1.9,1.9h0l-0.1-3.8c0-0.5-0.1-0.7-0.3-0.8
		c-0.1-0.1-0.3-0.1-0.4-0.1s-0.1,0-0.1-0.1c0-0.1,0.1-0.1,0.2-0.1c0.4,0,0.9,0,1,0c0.1,0,0.4,0,0.8,0c0.1,0,0.2,0,0.2,0.1
		c0,0.1-0.1,0.1-0.1,0.1c-0.1,0-0.1,0-0.2,0c-0.2,0.1-0.3,0.2-0.3,0.7l-0.1,5.4c0,0.2,0,0.3-0.1,0.3c-0.1,0-0.2-0.1-0.3-0.2
		c-0.5-0.5-1.6-1.6-2.5-2.5c-0.9-0.9-1.9-2-2-2.1h0L141.8,111.7z"/>
	<path class="st0" d="M158.8,113c2.2,0,3.5-1.5,3.5-3.5c0-1.9-1.3-3.2-3.4-3.2c-2.5,0-3.5,1.9-3.5,3.3
		C155.4,111.2,156.4,113,158.8,113z M161.1,109.8c0,2.4-1.4,2.7-2,2.7 M159.2,112.5c-1.6,0-2.6-1.4-2.6-3.2c0-2.1,1.1-2.7,2.1-2.7
		c1.4,0,2.5,1.2,2.5,3.1"/>
	<path class="st0" d="M172.1,110.4c0,1.1,0,1.7,0.2,1.8c0.1,0.1,0.4,0.2,1,0.2c0.4,0,0.8,0,1-0.2c0.1-0.1,0.2-0.4,0.2-0.5
		c0-0.1,0-0.1,0.1-0.1s0.1,0,0.1,0.1c0,0.1-0.1,0.7-0.1,1c-0.1,0.2-0.1,0.2-0.5,0.2c-1.2,0-1.8-0.1-2.5-0.1c-0.2,0-0.7,0-1.1,0
		c-0.1,0-0.2,0-0.2-0.1c0,0,0-0.1,0.1-0.1c0.1,0,0.2,0,0.3,0c0.2,0,0.2-0.2,0.2-0.5c0.1-0.4,0.1-1,0.1-1.8v-1.5c0-1.3,0-1.5,0-1.8
		c0-0.3-0.1-0.4-0.4-0.5c-0.1,0-0.2,0-0.3,0c-0.1,0-0.1,0-0.1-0.1c0-0.1,0.1-0.1,0.2-0.1c0.4,0,0.9,0,1.2,0c0.2,0,0.8,0,1.2,0
		c0.1,0,0.2,0,0.2,0.1c0,0.1-0.1,0.1-0.1,0.1s-0.2,0-0.3,0c-0.2,0.1-0.3,0.2-0.3,0.5c0,0.3,0,0.5,0,1.8L172.1,110.4L172.1,110.4z"/>
	<path class="st0" d="M185.6,113c2.2,0,3.5-1.5,3.5-3.5c0-1.9-1.3-3.2-3.4-3.2c-2.5,0-3.5,1.9-3.5,3.3
		C182.2,111.2,183.2,113,185.6,113z M186,112.5c-1.6,0-2.6-1.4-2.6-3.2c0-2.1,1.1-2.7,2.1-2.7c1.4,0,2.5,1.2,2.5,3.1
		C188,112.3,186.6,112.5,186,112.5"/>
	<path class="st0" d="M203.2,112.3c0,0.2,0,0.2-0.1,0.3c-0.6,0.3-1.4,0.4-2.1,0.4c-2.1,0-3.9-1-3.9-3.3c0-1.4,0.7-2.3,1.5-2.8
		c0.8-0.5,1.6-0.6,2.3-0.6c0.6,0,1.3,0.1,1.5,0.1c0.2,0,0.5,0.1,0.7,0.1c0.1,0,0.1,0,0.1,0.1c0,0.1-0.1,0.3-0.1,1.4
		c0,0.1,0,0.2-0.1,0.2c-0.1,0-0.1,0-0.1-0.1c0-0.2-0.1-0.5-0.3-0.7c-0.2-0.3-0.9-0.7-1.9-0.7c-0.5,0-1.1,0-1.7,0.5
		c-0.5,0.4-0.8,1.1-0.8,2.1c0,1.8,1.2,3.2,3,3.2c0.2,0,0.5,0,0.7-0.1c0.1-0.1,0.2-0.2,0.2-0.3v-0.8c0-0.4,0-0.7,0-1
		c0-0.3-0.1-0.4-0.4-0.5c-0.1,0-0.2,0-0.3,0c-0.1,0-0.1,0-0.1-0.1s0.1-0.1,0.2-0.1c0.4,0,1,0,1.2,0c0.3,0,0.7,0,1,0
		c0.1,0,0.2,0,0.2,0.1s-0.1,0.1-0.1,0.1c-0.1,0-0.1,0-0.2,0c-0.2,0-0.3,0.2-0.3,0.5c0,0.2,0,0.6,0,1L203.2,112.3L203.2,112.3z"/>
	<path class="st0" d="M213.4,110.7c0-0.5-0.1-0.6-0.2-0.9c-0.1-0.1-1.2-2-1.5-2.4c-0.2-0.3-0.4-0.5-0.6-0.6
		c-0.1-0.1-0.2-0.1-0.4-0.1c-0.1,0-0.1,0-0.1-0.1s0.1-0.1,0.2-0.1c0.2,0,0.8,0,1.1,0c0.2,0,0.5,0,0.9,0c0.1,0,0.1,0,0.1,0.1
		s-0.1,0.1-0.2,0.1c-0.1,0-0.1,0.1-0.1,0.1c0,0.1,0.1,0.2,0.1,0.3c0.1,0.2,1.3,2.3,1.4,2.5c0.1-0.2,1.1-2.1,1.3-2.3
		c0.1-0.2,0.1-0.3,0.1-0.4c0-0.1,0-0.2-0.2-0.2c-0.1,0-0.1,0-0.1-0.1s0.1-0.1,0.1-0.1c0.3,0,0.6,0,0.8,0c0.2,0,0.7,0,0.9,0
		c0.1,0,0.1,0,0.1,0.1c0,0.1-0.1,0.1-0.2,0.1s-0.2,0-0.4,0.1c-0.2,0.1-0.3,0.2-0.4,0.4c-0.3,0.4-1.5,2.4-1.6,2.7
		c-0.1,0.3-0.1,0.6-0.1,0.8v0.7c0,0.1,0,0.5,0,0.9c0,0.2,0.1,0.4,0.4,0.5c0.1,0,0.3,0,0.4,0c0.1,0,0.1,0,0.1,0.1
		c0,0.1-0.1,0.1-0.2,0.1c-0.5,0-1.1,0-1.3,0c-0.2,0-0.7,0-1.1,0c-0.1,0-0.2,0-0.2-0.1c0,0,0.1-0.1,0.1-0.1c0.1,0,0.2,0,0.3,0
		c0.2,0,0.2-0.2,0.3-0.5c0-0.4,0-0.7,0-0.9L213.4,110.7L213.4,110.7z"/>
</g>
</svg>
