<?xml version="1.0" encoding="utf-8"?>
<!-- Generator: Adobe Illustrator 22.0.1, SVG Export Plug-In . SVG Version: 6.00 Build 0)  -->
<svg version="1.1" id="bodyenfit" xmlns="http://www.w3.org/2000/svg" xmlns:xlink="http://www.w3.org/1999/xlink" x="0px" y="0px"
	 viewBox="0 0 256.2 198.1" style="enable-background:new 0 0 256.2 198.1;" xml:space="preserve">
<style type="text/css">
	.st0{fill:#010101;}
	.st1{fill:#FFFFFF;}
</style>
<polygon class="st0" points="34.4,139 189.1,139 221.5,62.8 66.8,62.8 "/>
<path class="st1" d="M123.2,110.2c0.2-2.1,1.1-2.8,1.9-3.5c1.3-1,2.9-1.2,3.8-1.2c2.1-0.2,3.3,0.4,4.7,0.7c1.6-3.6,1.3-4.1,0.7-4.2
	c-0.7-0.1-1.2,0.7-1.6,1.2c-1.1,1.2-1.7,1.6-2.5,1.5c-1.3-0.1-1.7-1.5-0.4-2.9c0.7-0.7,1.7-1.5,5-1.5c3.7,0,5.9,2.3,4.9,4.7
	l-2.2,5.5c-0.1,0.4-0.5,1.2-0.2,1.3c0.4,0.2,1-0.5,1.5-0.4c0.7,0.1,0.5,0.6,0.1,1.2c-1.1,1.7-5.3,3.1-7-0.1
	c-1.6,1.1-3.1,1.8-4.7,1.7C125,114.1,123,112.3,123.2,110.2L123.2,110.2z M128.3,110.7c-0.2,0.9,0.6,1.2,1.5,1c0.7-0.1,1.6-0.8,2-2
	l0.8-2.3C129.8,107.5,128.6,109.3,128.3,110.7L128.3,110.7z M111.6,103.6c-0.4-1.1-0.4-1.8-1.9-2l0.4-1.3h9.3l-0.4,1.5h-1.3
	c-0.5,0-0.9,0-0.6,0.9l0.8,2.4l3.8-2.6c0.7-0.4,0.1-0.7-0.4-0.7h-1.1l0.3-1.5h7.2l-0.7,1.6c-0.6,0-0.9,0.1-1.5,0.4
	c-0.5,0.2-1.4,0.8-2.8,1.7l-4.3,3l1.6,4.7c0.4,1.1,1.2,0.9,2.2,0.9l-0.4,1.5h-9.1l0.3-1.5c0.9,0,1.4,0.1,1.1-0.9l-0.4-1.3l-2,1.6
	c-0.9,0.6-0.4,0.6,0.1,0.8l-0.4,1.3h-5.2l0.6-1.5c1.2,0,2.1-0.7,2.5-0.9l4-2.8L111.6,103.6L111.6,103.6z M178,103.6
	c-0.3-1.1-0.3-1.7-1.8-1.9l0.4-1.3h9.3l-0.4,1.5h-1.4c-0.4,0-0.9,0.1-0.6,0.9l0.8,2.4l3.8-2.6c0.6-0.4,0.1-0.7-0.4-0.7h-1.1l0.3-1.5
	h7.1l-0.7,1.6c-0.6,0-0.9,0.1-1.5,0.4c-0.5,0.2-1.5,0.8-2.8,1.7l-4.3,3l1.6,4.7c0.3,0.9,1.6,0.9,2.5,0.9l-0.4,1.5h-9.5l0.3-1.5
	c0.9,0,1.4,0,1.1-0.9l-0.4-1.3l-2.1,1.5c-0.8,0.6-0.4,0.6,0.1,0.8l-0.4,1.3h-5.9l0.6-1.5c0.3,0,1.2,0,1.7-0.1
	c0.8-0.1,1.2-0.7,1.4-0.8l4-2.8L178,103.6L178,103.6z M89.4,109l2.4-5.9c0.3-0.8,0.1-1-1.7-1.2l0.6-1.5h8.4l-4.1,9.2
	c-0.7,1.7-0.7,2.3,0.5,1.5l2.3-1.6c1.6-1.1,2-1.2,2.4-2.5l1.6-4.1c0.2-0.5,0.3-1-1.5-1l0.6-1.5h8l-4.5,10.6
	c-0.6,1.5-0.4,1.5,0.9,1.5l-0.6,1.6h-7.1l-0.1-0.2l1.4-3.6l-4.2,3C91.4,115.5,87.1,114.6,89.4,109L89.4,109z M151.3,110.9l9.4-21.1
	c0.4-0.8-0.8-1.1-1.5-1.1l0.6-1.6h7.8l-10.7,24.5c-0.9,2.1,0,1.1,1.6,1.1l-0.4,1.3h-10.2l0.6-1.6C150.5,112.5,150.8,112,151.3,110.9
	L151.3,110.9z M165.9,109.5c-0.4,2.7,0.5,3.3,1.8,3.2c0.9-0.1,1.6-0.6,2.2-1.3l0.2-0.1l1.2,0.1l0.1,0.2c-1.2,1.9-3.4,2.9-5.3,2.8
	c-2.7,0-5-1.5-4.9-5.1c0.1-4.5,5.1-9.2,9.8-9.2c3.4,0,5,2,4.9,3.6C175.9,107.2,173,109.1,165.9,109.5L165.9,109.5z M167.1,107.3
	c3.9-1,5.3-3.1,5.1-4.6c-0.1-0.7-1.3-0.6-2,0.1C169.2,103.6,168.2,104.4,167.1,107.3L167.1,107.3z M94.8,89
	c5.8-14,11.3-18,17.8-18.5c3.7-0.3,9.5,0.8,8.5,6c-1.6,8.3-10.2,14-18.8,13.3c-1.9-0.1-1,1.9-0.4,1.9c10.1,0.6,15.9-3.1,20.1-7.5
	c2.7-2.8,4.5-7.1,3.5-10.4c-1.5-4.7-8.4-5.2-12.1-5.2c-11.1,0.2-20.8,5.9-26,18.3c-3.7,9.2-7.8,16.9-14.8,25.5
	c-3.8-0.7-8.5-1.6-13.6-1.3c-3.7,0.2-8.9,0.6-10.2,5c-1.2,4.2,4.4,6.5,8.9,6.6c6,0.2,11.8-2.1,16.4-5.5l60.8,9.1
	c-1.6,3.2-3.8,5.2-8.5,6c0,0.7,0.4,1.2,2,1.2c5.2,0,9.2-2.7,11.4-6.5l18,2c8.5,0.9,15.2,0.2,21.5-2c5.1-1.8,9.8-4.8,14.1-8.9
	c1.1-1.1,0.4-1.9-0.6-1.1c-8.5,6.5-17.7,8.9-30.6,7.3l-19.9-2.4l8.2-19.4h2.1c1.1-0.1,1.7-2,0.7-2h-1.8l4-9.5
	c2.5-5.9,6.5-11.7,10.2-11.2c-0.7,0.6-1.5,1.6-1.4,2.4c0.1,0.8,0.8,2.2,2.6,2.1c1.9-0.1,3.3-1,3.6-2.8c0.4-2.5-2.3-3.2-4.7-3.3
	c-6.2-0.1-12,3.9-15.3,11.2l-4.8,11h-2.4c-1.4,0-2.1,2-0.6,2h2.1l-8.2,18.7l-57.1-7.8C86,107,90.7,98.8,94.8,89L94.8,89z
	 M56.3,120.1c-2.7-0.1-6.4-1.4-5.5-3.6c0.5-1.1,3-1.8,5.9-1.9c4,0,9.2,0.9,12,1.5C65.5,119.4,60.6,120.2,56.3,120.1L56.3,120.1z"/>
<path class="st1" d="M197.1,74c0,2.7,2.3,4.8,4.9,4.8c2.6,0,4.9-2.1,4.9-4.8c0-2.7-2.3-4.9-4.9-4.9C199.4,69.2,197.1,71.3,197.1,74
	L197.1,74z M197.9,74c0-2.3,1.8-4.2,4.1-4.2s4.1,1.8,4.1,4.2s-1.9,4.2-4.1,4.2C199.7,78.2,197.9,76.3,197.9,74L197.9,74z
	 M200.2,76.9h0.9v-2.6h0.3l1.8,2.6h1.1l-1.8-2.7h0.1c0.6,0,1.5-0.5,1.5-1.5c0-1.4-1.2-1.6-1.6-1.6h-2.2v5.8H200.2z M201.1,71.9h0.9
	c0.8,0,1,0.4,1,0.8c0,0.4-0.1,0.8-1.1,0.8h-0.8L201.1,71.9L201.1,71.9z"/>
</svg>
