<?xml version="1.0" encoding="utf-8"?>
<!-- Generator: Adobe Illustrator 22.0.1, SVG Export Plug-In . SVG Version: 6.00 Build 0)  -->
<svg version="1.1" id="bodyenfit" xmlns="http://www.w3.org/2000/svg" xmlns:xlink="http://www.w3.org/1999/xlink" x="0px" y="0px"
	 viewBox="0 0 256.2 198.1" style="enable-background:new 0 0 256.2 198.1;" xml:space="preserve">
<style type="text/css">
	.st0{fill:#FFFFFF;}
	.st1{opacity:0.8;fill:#FFFFFF;}
	.st2{opacity:0.9;fill:#FFFFFF;}
	.st3{opacity:0.7;fill:#FFFFFF;}
	.st4{opacity:0.4;fill:#FFFFFF;}
	.st5{opacity:0.6;fill:#FFFFFF;}
	.st6{opacity:0.5;fill:#FFFFFF;}
</style>
<path class="st0" d="M55.5,98.6L55.5,98.6L55.5,98.6z"/>
<polygon class="st0" points="55.5,98.6 55.5,98.6 55.5,98.6 "/>
<path class="st0" d="M55.5,98.6L55.5,98.6L55.5,98.6z"/>
<path class="st0" d="M71.4,82.8c-4-4-9.6-6.6-15.8-6.6v22.4H78C77.9,92.4,75.4,86.8,71.4,82.8z"/>
<path class="st1" d="M55.5,121c6.2,0,11.8-2.5,15.8-6.6L55.5,98.6V121z"/>
<path class="st2" d="M77.9,98.6H55.5l0,0l0,0l15.8,15.8C75.4,110.4,77.9,104.8,77.9,98.6z"/>
<path class="st3" d="M55.5,98.6l-15.8,15.8c4,4,9.6,6.6,15.8,6.6V98.6L55.5,98.6z"/>
<path class="st4" d="M55.5,98.6V76.2c-6.2,0-11.8,2.5-15.8,6.6L55.5,98.6L55.5,98.6z"/>
<path class="st5" d="M55.5,98.6H33.2c0,6.2,2.5,11.8,6.6,15.8L55.5,98.6L55.5,98.6z"/>
<path class="st6" d="M39.7,82.8c-4,4-6.6,9.6-6.6,15.8h22.4L39.7,82.8z"/>
<g>
	<path class="st0" d="M88.7,105.9c0.9,0.9,1.9,1.6,3,2.2c1.2,0.6,2.4,0.8,3.6,0.8c1.6,0,2.8-0.4,3.7-1.1c0.9-0.7,1.3-1.7,1.3-2.9
		c0-0.6-0.1-1.1-0.3-1.6c-0.2-0.4-0.5-0.8-0.8-1.1c-0.4-0.3-0.8-0.6-1.3-0.8c-0.5-0.2-1-0.5-1.6-0.8l-3.5-1.5
		c-0.6-0.2-1.1-0.5-1.7-0.9c-0.6-0.3-1.1-0.8-1.6-1.3s-0.8-1.1-1.1-1.8c-0.3-0.7-0.4-1.5-0.4-2.3c0-0.9,0.2-1.8,0.6-2.5
		c0.4-0.8,0.9-1.5,1.6-2c0.7-0.6,1.5-1,2.4-1.3c0.9-0.3,1.9-0.5,3-0.5c1.5,0,2.8,0.3,4,0.8c1.2,0.6,2.3,1.3,3.1,2.2l-1.7,2
		c-0.7-0.7-1.6-1.3-2.5-1.7s-1.9-0.6-3-0.6c-1.4,0-2.4,0.3-3.3,0.9c-0.8,0.6-1.2,1.5-1.2,2.6c0,0.6,0.1,1.1,0.3,1.5
		c0.2,0.4,0.5,0.8,0.9,1.1s0.8,0.6,1.3,0.8c0.5,0.2,0.9,0.4,1.4,0.6l3.4,1.5c0.7,0.3,1.3,0.6,2,1c0.6,0.4,1.1,0.8,1.6,1.3
		c0.4,0.5,0.8,1.1,1.1,1.8c0.3,0.7,0.4,1.5,0.4,2.3c0,1-0.2,1.9-0.6,2.7c-0.4,0.8-0.9,1.6-1.6,2.2s-1.6,1.1-2.6,1.5
		s-2.2,0.5-3.4,0.5c-1.7,0-3.3-0.3-4.7-1c-1.5-0.6-2.7-1.5-3.8-2.6L88.7,105.9z"/>
	<path class="st0" d="M107.3,89.6c-0.6,0-1.1-0.2-1.5-0.6s-0.6-0.8-0.6-1.4s0.2-1.1,0.6-1.4c0.4-0.4,0.9-0.5,1.5-0.5
		s1.1,0.2,1.5,0.5c0.4,0.4,0.6,0.8,0.6,1.4s-0.2,1-0.6,1.4S107.9,89.6,107.3,89.6z M105.7,93.3h3v17.9h-3V93.3z"/>
	<path class="st0" d="M112.5,93.3h2.5l0.3,2.6h0.1c0.8-0.9,1.6-1.6,2.6-2.2c0.9-0.6,1.9-0.9,3-0.9c1.4,0,2.5,0.3,3.2,0.9
		c0.8,0.6,1.3,1.4,1.7,2.5c0.9-1,1.9-1.9,2.8-2.5c0.9-0.6,2-0.9,3.1-0.9c1.8,0,3.2,0.6,4.1,1.8c0.9,1.2,1.3,2.9,1.3,5.2v11.4h-3
		v-10.9c0-1.7-0.3-2.9-0.8-3.7c-0.5-0.7-1.4-1.1-2.5-1.1c-1.4,0-2.9,0.9-4.5,2.8v13h-3v-11c0-1.7-0.3-2.9-0.8-3.7
		c-0.5-0.7-1.4-1.1-2.5-1.1c-1.4,0-2.9,0.9-4.5,2.8v13h-3L112.5,93.3L112.5,93.3z"/>
	<path class="st0" d="M143.8,112.7v6.1h-3V93.3h2.5l0.2,2h0.1c0.8-0.7,1.7-1.3,2.7-1.8s2-0.7,3-0.7c1.2,0,2.2,0.2,3.1,0.6
		c0.9,0.4,1.6,1,2.2,1.8c0.6,0.8,1,1.8,1.3,2.9s0.5,2.4,0.5,3.8c0,1.5-0.2,2.9-0.6,4.1c-0.4,1.2-1,2.2-1.7,3
		c-0.7,0.8-1.5,1.5-2.5,1.9c-0.9,0.4-1.9,0.6-3,0.6c-0.8,0-1.7-0.2-2.5-0.6c-0.8-0.4-1.7-0.9-2.5-1.5L143.8,112.7z M143.8,107.2
		c0.8,0.7,1.6,1.2,2.4,1.5c0.8,0.3,1.4,0.4,2,0.4c0.7,0,1.4-0.2,2.1-0.5c0.6-0.3,1.2-0.8,1.6-1.4c0.5-0.6,0.8-1.3,1.1-2.2
		c0.3-0.9,0.4-1.9,0.4-3c0-1-0.1-1.9-0.3-2.7s-0.4-1.5-0.8-2.1c-0.4-0.6-0.9-1-1.5-1.3c-0.6-0.3-1.3-0.5-2.2-0.5
		c-0.8,0-1.5,0.2-2.3,0.6c-0.8,0.4-1.6,1-2.5,1.8C143.8,97.8,143.8,107.2,143.8,107.2z"/>
	<path class="st0" d="M158.9,84.9h3v22.9c0,0.5,0.1,0.8,0.3,1c0.2,0.2,0.4,0.3,0.6,0.3c0.1,0,0.2,0,0.3,0s0.2,0,0.4-0.1l0.4,2.3
		c-0.2,0.1-0.4,0.2-0.7,0.2s-0.6,0.1-1,0.1c-1.2,0-2-0.3-2.5-1c-0.5-0.7-0.7-1.7-0.7-3L158.9,84.9L158.9,84.9z"/>
	<path class="st0" d="M167.6,89.6c-0.6,0-1.1-0.2-1.5-0.6s-0.6-0.8-0.6-1.4s0.2-1.1,0.6-1.4c0.4-0.4,0.9-0.5,1.5-0.5
		s1.1,0.2,1.5,0.5c0.4,0.4,0.6,0.8,0.6,1.4s-0.2,1-0.6,1.4C168.6,89.4,168.1,89.6,167.6,89.6z M166,93.3h3v17.9h-3V93.3z"/>
	<path class="st0" d="M171.4,102.3c0-1.5,0.2-2.8,0.7-4c0.5-1.2,1.1-2.2,1.9-3c0.8-0.8,1.7-1.4,2.7-1.8s2.1-0.6,3.3-0.6
		s2.2,0.2,3,0.6s1.6,0.9,2.2,1.5l-1.5,2c-0.5-0.5-1.1-0.8-1.7-1.1c-0.6-0.3-1.2-0.4-1.9-0.4c-0.8,0-1.6,0.2-2.3,0.5
		c-0.7,0.3-1.3,0.8-1.8,1.4s-0.9,1.3-1.2,2.2c-0.3,0.8-0.4,1.8-0.4,2.8s0.1,2,0.4,2.8c0.3,0.8,0.6,1.6,1.1,2.2s1.1,1.1,1.8,1.4
		c0.7,0.3,1.4,0.5,2.3,0.5c0.9,0,1.6-0.2,2.3-0.5c0.7-0.4,1.3-0.8,1.9-1.3l1.4,2c-0.8,0.7-1.7,1.3-2.7,1.7s-2,0.6-3.1,0.6
		c-1.2,0-2.3-0.2-3.3-0.6c-1-0.4-1.9-1-2.7-1.8c-0.8-0.8-1.3-1.8-1.8-3C171.6,105.1,171.4,103.8,171.4,102.3z"/>
	<path class="st0" d="M186,106.6c0-2,0.9-3.5,2.6-4.5c1.8-1,4.6-1.8,8.4-2.2c0-0.6-0.1-1.1-0.2-1.7c-0.1-0.5-0.3-1-0.6-1.4
		c-0.3-0.4-0.7-0.8-1.1-1c-0.5-0.3-1.1-0.4-1.8-0.4c-1.1,0-2,0.2-2.9,0.6s-1.7,0.8-2.4,1.3l-1.2-2.1c0.8-0.5,1.9-1.1,3.1-1.6
		c1.2-0.5,2.5-0.8,4-0.8c2.2,0,3.8,0.7,4.8,2c1,1.3,1.5,3.1,1.5,5.4v11h-2.5l-0.3-2.1h-0.1c-0.9,0.7-1.8,1.3-2.8,1.8s-2,0.8-3.2,0.8
		c-1.5,0-2.8-0.4-3.8-1.3C186.5,109.4,186,108.2,186,106.6z M189,106.3c0,1,0.3,1.8,0.9,2.2c0.6,0.4,1.3,0.7,2.2,0.7
		s1.7-0.2,2.5-0.6c0.8-0.4,1.6-1,2.5-1.8v-5c-1.5,0.2-2.8,0.4-3.8,0.7c-1,0.3-1.9,0.6-2.5,1c-0.6,0.4-1.1,0.8-1.3,1.3
		C189.1,105.3,189,105.8,189,106.3z"/>
	<path class="st0" d="M204,95.8h-2.7v-2.3l2.8-0.2l0.4-5h2.5v5h4.8v2.5H207v10c0,1.1,0.2,2,0.6,2.6c0.4,0.6,1.1,0.9,2.2,0.9
		c0.3,0,0.7,0,1-0.1c0.4-0.1,0.7-0.2,1-0.3l0.6,2.3c-0.5,0.2-1,0.3-1.6,0.5c-0.6,0.1-1.1,0.2-1.7,0.2c-1,0-1.8-0.1-2.4-0.4
		c-0.6-0.3-1.2-0.7-1.6-1.2c-0.4-0.5-0.7-1.1-0.9-1.9c-0.2-0.7-0.3-1.5-0.3-2.4L204,95.8L204,95.8z"/>
	<path class="st0" d="M211.9,102.3c0-1.5,0.2-2.8,0.7-4c0.5-1.2,1.1-2.2,1.8-3c0.8-0.8,1.6-1.4,2.6-1.9c1-0.4,2-0.6,3-0.6
		c1.1,0,2.1,0.2,3,0.6s1.6,1,2.3,1.7c0.6,0.7,1.1,1.6,1.4,2.7c0.3,1,0.5,2.2,0.5,3.5c0,0.7,0,1.2-0.1,1.7H215
		c0.1,1.9,0.7,3.5,1.8,4.6c1.1,1.1,2.5,1.7,4.2,1.7c0.9,0,1.7-0.1,2.4-0.4c0.7-0.3,1.4-0.6,2.1-1l1.1,2c-0.8,0.5-1.7,0.9-2.6,1.3
		c-1,0.4-2.1,0.6-3.3,0.6s-2.3-0.2-3.4-0.6c-1-0.4-2-1-2.7-1.8c-0.8-0.8-1.4-1.8-1.8-2.9C212.1,105.1,211.9,103.8,211.9,102.3z
		 M224.5,100.9c0-1.8-0.4-3.3-1.2-4.2c-0.8-1-1.9-1.5-3.3-1.5c-0.6,0-1.2,0.1-1.8,0.4c-0.6,0.3-1.1,0.6-1.6,1.1s-0.9,1.1-1.2,1.8
		c-0.3,0.7-0.5,1.5-0.6,2.4H224.5z"/>
</g>
</svg>
