<?xml version="1.0" encoding="utf-8"?>
<!-- Generator: Adobe Illustrator 22.0.1, SVG Export Plug-In . SVG Version: 6.00 Build 0)  -->
<svg version="1.1" id="bodyenfit" xmlns="http://www.w3.org/2000/svg" xmlns:xlink="http://www.w3.org/1999/xlink" x="0px" y="0px"
	 viewBox="0 0 256.2 198.1" style="enable-background:new 0 0 256.2 198.1;" xml:space="preserve">
<style type="text/css">
	.st0{fill:#FFFFFF;}
</style>
<g>
	<path class="st0" d="M123.5,109.5c-0.2,0.1-0.5,0.1-0.8,0.1c-0.2,0-0.4,0-0.6-0.1c-0.2-0.1-0.3-0.1-0.5-0.2
		c-0.2-0.1-0.3-0.2-0.5-0.4c-0.2-0.2-0.3-0.4-0.5-0.6l-2.5-3.7h-0.9v4l1.2,0.3v0.4c-0.3,0.1-0.6,0.2-1,0.2c-0.3,0.1-0.7,0.1-1.1,0.1
		c-0.3,0-0.6,0-0.9,0c-0.3,0-0.6-0.1-0.8-0.1V109c0.4-0.1,0.6-0.3,0.8-0.5c0.2-0.2,0.3-0.5,0.3-1v-9.2l-1.2-0.4v-0.4
		c0.3-0.1,0.6-0.1,0.9-0.1c0.3,0,0.6-0.1,0.9-0.1c0.3,0,0.6,0,1,0c0.3,0,0.7,0,1,0c1.4,0,2.5,0.3,3.1,0.8c0.7,0.5,1,1.3,1,2.4
		c0,0.5-0.1,0.9-0.2,1.3c-0.1,0.4-0.3,0.7-0.5,1c-0.2,0.3-0.5,0.6-0.8,0.8c-0.3,0.2-0.7,0.4-1.1,0.5l2.6,3.5
		c0.2,0.3,0.5,0.6,0.8,0.8c0.3,0.2,0.6,0.4,1,0.5v0.4C124,109.3,123.8,109.4,123.5,109.5L123.5,109.5z M120.1,99
		c-0.4-0.4-1.1-0.6-1.9-0.6c-0.1,0-0.3,0-0.4,0c-0.1,0-0.3,0-0.4,0.1v5.2h0.7c0.4,0,0.7-0.1,1-0.2c0.3-0.1,0.6-0.3,0.8-0.5
		c0.2-0.2,0.4-0.5,0.6-0.9c0.1-0.4,0.2-0.8,0.2-1.3C120.7,100,120.5,99.4,120.1,99L120.1,99z M128,109.3c-0.2,0-0.3,0.1-0.5,0.1
		c-0.2,0-0.4,0-0.5,0.1c-0.2,0-0.4,0-0.7,0c-0.2,0-0.4,0-0.7,0c-0.3,0-0.5-0.1-0.7-0.1V109c0.1,0,0.2-0.1,0.4-0.2
		c0.1-0.1,0.2-0.1,0.3-0.2c0.1-0.1,0.2-0.2,0.2-0.3c0.1-0.1,0.1-0.2,0.1-0.3v-6.3l-1.2-0.5v-0.4c0.4-0.1,0.8-0.2,1.2-0.3
		c0.4-0.1,0.7-0.1,1-0.1h0.6l-0.1,1v7.1l1,0.3v0.4C128.3,109.3,128.1,109.3,128,109.3L128,109.3z M127.6,98
		c-0.1,0.1-0.1,0.3-0.2,0.4c-0.1,0.1-0.2,0.2-0.3,0.2c-0.1,0.1-0.3,0.1-0.4,0.1c-0.1,0-0.3,0-0.4-0.1c-0.1-0.1-0.2-0.1-0.3-0.2
		c-0.2-0.2-0.3-0.5-0.3-0.8c0-0.1,0-0.3,0.1-0.4c0-0.1,0.1-0.2,0.2-0.4c0.1-0.1,0.2-0.2,0.3-0.2c0.1-0.1,0.3-0.1,0.4-0.1
		c0.1,0,0.3,0,0.4,0.1c0.1,0,0.2,0.1,0.3,0.2c0.1,0.1,0.1,0.2,0.2,0.3c0.1,0.1,0.1,0.3,0.1,0.4C127.7,97.7,127.7,97.9,127.6,98
		L127.6,98z M132.3,101.5v8.4c0,0.8-0.1,1.4-0.2,1.9c-0.1,0.4-0.2,0.9-0.4,1.2c-0.2,0.3-0.4,0.5-0.7,0.7s-0.5,0.2-0.8,0.2
		c-0.2,0-0.4,0-0.6-0.1c-0.2-0.1-0.3-0.2-0.5-0.3v-0.3c0.2,0,0.4-0.1,0.6-0.2c0.2-0.1,0.4-0.3,0.5-0.5c0.1-0.2,0.3-0.5,0.4-0.9
		c0.1-0.4,0.1-0.8,0.1-1.2v-8.6l-1.2-0.5v-0.4c0.4-0.1,0.8-0.2,1.2-0.3c0.4-0.1,0.7-0.1,1-0.1h0.6L132.3,101.5L132.3,101.5z
		 M132.5,98c-0.1,0.3-0.3,0.5-0.5,0.6c-0.1,0.1-0.3,0.1-0.4,0.1c-0.1,0-0.3,0-0.4-0.1c-0.1-0.1-0.2-0.1-0.3-0.2
		c-0.1-0.1-0.2-0.2-0.2-0.3c-0.1-0.1-0.1-0.3-0.1-0.4c0-0.1,0-0.3,0.1-0.4c0.1-0.1,0.1-0.2,0.2-0.4c0.1-0.1,0.2-0.2,0.3-0.2
		s0.3-0.1,0.4-0.1c0.1,0,0.2,0,0.4,0.1c0.1,0,0.2,0.1,0.3,0.2c0.1,0.1,0.1,0.2,0.2,0.3c0.1,0.1,0.1,0.3,0.1,0.4
		C132.6,97.7,132.6,97.9,132.5,98L132.5,98z M142.1,109.4c-0.2,0.1-0.5,0.1-0.7,0.1c-0.3,0-0.5-0.1-0.7-0.2
		c-0.2-0.1-0.4-0.3-0.6-0.5l-3.1-4v3.8l1,0.3v0.4c-0.2,0.1-0.3,0.1-0.5,0.1c-0.1,0-0.3,0.1-0.5,0.1c-0.2,0-0.3,0.1-0.5,0.1
		c-0.2,0-0.4,0-0.6,0c-0.2,0-0.4,0-0.7,0c-0.3,0-0.5-0.1-0.7-0.1V109c0.1,0,0.3-0.1,0.4-0.2c0.1-0.1,0.2-0.1,0.3-0.2
		c0.1-0.1,0.2-0.2,0.2-0.3c0.1-0.1,0.1-0.2,0.1-0.3V97.2l-1.2-0.5v-0.4c0.4-0.1,0.9-0.2,1.3-0.3c0.4,0,0.7-0.1,1-0.1h0.6l-0.1,1v7.5
		l1-0.9c0.2-0.2,0.5-0.4,0.7-0.7c0.2-0.3,0.4-0.5,0.6-0.8c0.2-0.3,0.3-0.5,0.4-0.8c0.1-0.3,0.2-0.5,0.2-0.7c0.2-0.1,0.3-0.1,0.5-0.1
		c0.1,0,0.3,0,0.5,0c0.1,0,0.3,0,0.4,0c0.1,0,0.2,0.1,0.4,0.1c0,0.2-0.1,0.4-0.2,0.7c-0.1,0.3-0.3,0.5-0.5,0.8
		c-0.2,0.3-0.5,0.6-0.8,0.9c-0.3,0.3-0.7,0.6-1.1,0.9l-0.7,0.5l2.9,3.5c0.3,0.3,0.5,0.5,0.7,0.7c0.2,0.1,0.4,0.2,0.6,0.2v0.4
		C142.5,109.3,142.3,109.4,142.1,109.4L142.1,109.4z M149,107.9c-0.2,0.3-0.4,0.6-0.7,0.9c-0.3,0.3-0.7,0.5-1.1,0.6
		c-0.4,0.1-0.9,0.2-1.4,0.2c-0.8,0-1.4-0.1-1.8-0.4c-0.4-0.2-0.6-0.6-0.6-1.1c0-0.1,0-0.3,0-0.4c0-0.1,0.1-0.2,0.1-0.4
		c0.4,0.4,0.8,0.7,1.3,0.9c0.4,0.2,0.9,0.3,1.4,0.3c0.5,0,0.9-0.1,1.2-0.3c0.3-0.2,0.4-0.5,0.4-0.8c0-0.2,0-0.3-0.1-0.4
		c-0.1-0.1-0.1-0.3-0.3-0.4c-0.1-0.1-0.3-0.2-0.5-0.4c-0.2-0.1-0.5-0.3-0.8-0.4l-0.9-0.4c-0.5-0.2-1-0.5-1.3-0.9
		c-0.3-0.4-0.4-0.8-0.4-1.4c0-0.4,0.1-0.7,0.2-1c0.2-0.3,0.4-0.6,0.7-0.9c0.3-0.2,0.6-0.4,1-0.6c0.4-0.1,0.8-0.2,1.3-0.2
		c0.4,0,0.7,0,1,0.1c0.3,0,0.5,0.1,0.7,0.2c0.2,0.1,0.3,0.2,0.4,0.4c0.1,0.1,0.1,0.3,0.1,0.5c0,0.1,0,0.3,0,0.4
		c0,0.1-0.1,0.3-0.1,0.4c-0.3-0.2-0.6-0.4-1-0.5c-0.4-0.1-0.7-0.2-1.1-0.2c-0.3,0-0.6,0-0.8,0.1c-0.2,0.1-0.4,0.1-0.5,0.2
		c-0.1,0.1-0.3,0.2-0.3,0.4c-0.1,0.1-0.1,0.3-0.1,0.4c0,0.2,0,0.3,0.1,0.4c0.1,0.1,0.1,0.3,0.2,0.4c0.1,0.1,0.3,0.2,0.4,0.3
		c0.2,0.1,0.4,0.2,0.7,0.3l1,0.4c0.3,0.1,0.6,0.3,0.9,0.4c0.2,0.1,0.4,0.3,0.6,0.5c0.1,0.2,0.2,0.4,0.3,0.6c0.1,0.2,0.1,0.5,0.1,0.7
		C149.3,107.2,149.2,107.6,149,107.9L149,107.9z M158.6,106.7c-0.2,0.6-0.6,1.1-1,1.6c-0.4,0.4-0.9,0.8-1.4,1
		c-0.5,0.2-1.1,0.4-1.6,0.4c-0.6,0-1.1-0.1-1.6-0.3c-0.5-0.2-0.9-0.5-1.3-0.8c-0.4-0.4-0.7-0.8-0.9-1.3c-0.2-0.5-0.3-1.1-0.3-1.8
		c0-0.8,0.1-1.5,0.4-2.1c0.2-0.6,0.6-1.2,1-1.6c0.4-0.4,0.9-0.8,1.4-1c0.5-0.2,1.1-0.4,1.7-0.4c0.6,0,1.1,0.1,1.6,0.3
		s0.9,0.5,1.3,0.9c0.4,0.4,0.7,0.8,0.9,1.3c0.2,0.5,0.3,1.1,0.3,1.8C158.9,105.4,158.8,106.1,158.6,106.7L158.6,106.7z M157,103.3
		c-0.1-0.4-0.3-0.8-0.5-1.1c-0.2-0.3-0.5-0.5-0.8-0.7c-0.3-0.1-0.6-0.2-1-0.2c-0.3,0-0.6,0.1-0.9,0.2c-0.3,0.2-0.6,0.4-0.8,0.7
		c-0.2,0.3-0.4,0.7-0.6,1.2c-0.1,0.5-0.2,1-0.2,1.6c0,0.6,0.1,1.1,0.2,1.5c0.1,0.4,0.3,0.8,0.5,1.1c0.2,0.3,0.5,0.5,0.8,0.7
		c0.3,0.1,0.6,0.2,1,0.2c0.3,0,0.6-0.1,0.9-0.2c0.3-0.1,0.6-0.4,0.8-0.7c0.2-0.3,0.4-0.7,0.6-1.2c0.1-0.5,0.2-1,0.2-1.7
		C157.2,104.2,157.2,103.8,157,103.3L157,103.3z M167.4,101.3l-3.3,8.3l-0.7,0l-3.2-8.2l-0.8-0.5v-0.4h3.6v0.4l-1.1,0.4l2,5.9h0
		l2.1-5.9l-1.1-0.5v-0.4h2.9v0.4L167.4,101.3L167.4,101.3z M175.7,105h-5.5c0,0.5,0.1,1,0.2,1.4c0.1,0.4,0.4,0.7,0.6,1
		c0.2,0.3,0.5,0.5,0.9,0.7c0.3,0.1,0.7,0.2,1.1,0.2c0.2,0,0.5,0,0.7-0.1c0.2,0,0.5-0.1,0.7-0.2c0.2-0.1,0.4-0.1,0.7-0.2
		c0.2-0.1,0.4-0.2,0.6-0.3c0,0,0,0.1,0.1,0.2c0,0.1,0,0.2,0,0.3c0,0.2-0.1,0.4-0.2,0.6c-0.1,0.2-0.4,0.4-0.6,0.5
		c-0.3,0.1-0.6,0.3-1,0.4c-0.4,0.1-0.9,0.1-1.3,0.1c-0.5,0-1-0.1-1.5-0.3c-0.5-0.2-0.9-0.5-1.2-0.9c-0.4-0.4-0.6-0.8-0.8-1.3
		c-0.2-0.5-0.3-1.1-0.3-1.8c0-0.8,0.1-1.5,0.3-2.2c0.2-0.6,0.5-1.1,0.9-1.6c0.4-0.4,0.8-0.7,1.2-1c0.5-0.2,1-0.3,1.4-0.3
		c0.5,0,1,0.1,1.4,0.2c0.4,0.2,0.7,0.4,1,0.7c0.3,0.3,0.5,0.7,0.6,1.1c0.1,0.4,0.2,0.9,0.2,1.5v0.6
		C175.7,104.6,175.7,104.8,175.7,105L175.7,105z M174.1,102.8c-0.1-0.3-0.2-0.6-0.4-0.8c-0.2-0.2-0.4-0.4-0.6-0.5
		c-0.2-0.1-0.5-0.2-0.7-0.2c-0.3,0-0.5,0.1-0.8,0.2c-0.3,0.1-0.5,0.3-0.7,0.6c-0.2,0.2-0.4,0.5-0.5,0.9c-0.1,0.3-0.2,0.7-0.2,1h4
		C174.2,103.6,174.2,103.2,174.1,102.8L174.1,102.8z M182.8,101.7c-0.1,0.2-0.1,0.4-0.2,0.6c-0.2-0.1-0.4-0.2-0.6-0.3
		s-0.4-0.1-0.6-0.1c-0.6,0-1.1,0.3-1.6,0.8v6l1.3,0.3v0.4c-0.1,0.1-0.3,0.1-0.5,0.1c-0.1,0-0.3,0.1-0.5,0.1c-0.2,0-0.4,0-0.6,0.1
		c-0.2,0-0.5,0-0.7,0c-0.3,0-0.5,0-0.8,0c-0.3,0-0.5-0.1-0.7-0.1V109c0.1,0,0.2-0.1,0.4-0.2c0.1-0.1,0.2-0.1,0.3-0.2
		c0.1-0.1,0.2-0.2,0.2-0.3c0.1-0.1,0.1-0.2,0.1-0.3v-6.3l-1.2-0.5v-0.4c0.4-0.1,0.8-0.2,1.2-0.3c0.4-0.1,0.7-0.1,1-0.1h0.4v1.3h0
		l0.5-0.6c0.2-0.3,0.5-0.5,0.8-0.6c0.3-0.1,0.5-0.2,0.9-0.2c0.7,0,1,0.3,1,0.8C182.8,101.3,182.8,101.5,182.8,101.7z M191.8,109.4
		c-0.3,0-0.7,0.1-1.1,0.1c-0.2,0-0.4,0-0.6,0c-0.2,0-0.4-0.1-0.6-0.1V109c0.2-0.1,0.4-0.2,0.5-0.4c0.1-0.2,0.2-0.4,0.2-0.8v-3.6
		c0-0.4,0-0.8-0.1-1.2c-0.1-0.3-0.2-0.6-0.4-0.8c-0.2-0.2-0.4-0.4-0.6-0.4c-0.2-0.1-0.5-0.1-0.8-0.1c-0.2,0-0.4,0-0.5,0
		c-0.2,0-0.4,0.1-0.5,0.1c-0.2,0.1-0.3,0.1-0.5,0.2c-0.1,0.1-0.3,0.1-0.4,0.2v6.3l1,0.3v0.4c-0.2,0.1-0.3,0.1-0.5,0.1
		c-0.2,0-0.3,0.1-0.5,0.1c-0.2,0-0.4,0-0.5,0.1c-0.2,0-0.4,0-0.7,0c-0.2,0-0.4,0-0.7,0c-0.3,0-0.5-0.1-0.7-0.1V109
		c0.1,0,0.2-0.1,0.4-0.2c0.1-0.1,0.2-0.1,0.3-0.2c0.1-0.1,0.2-0.2,0.2-0.3c0.1-0.1,0.1-0.2,0.1-0.3V97.1l-1.2-0.5v-0.4
		c0.4-0.1,0.8-0.2,1.2-0.3c0.4,0,0.7-0.1,1-0.1h0.6l-0.1,1v4.5c0.3-0.3,0.7-0.6,1.2-0.8c0.4-0.2,1-0.3,1.5-0.3
		c0.4,0,0.8,0.1,1.1,0.2c0.6,0.3,1.1,0.8,1.3,1.5c0.1,0.4,0.2,0.8,0.2,1.3v5.2l1,0.3v0.4C192.4,109.3,192.1,109.4,191.8,109.4
		L191.8,109.4z M201,105h-5.5c0,0.5,0.1,1,0.2,1.4c0.1,0.4,0.4,0.7,0.6,1c0.2,0.3,0.5,0.5,0.9,0.7c0.3,0.1,0.7,0.2,1.1,0.2
		c0.2,0,0.5,0,0.7-0.1c0.2,0,0.5-0.1,0.7-0.2c0.2-0.1,0.4-0.1,0.7-0.2c0.2-0.1,0.4-0.2,0.6-0.3c0,0,0,0.1,0.1,0.2c0,0.1,0,0.2,0,0.3
		c0,0.2-0.1,0.4-0.2,0.6c-0.1,0.2-0.4,0.4-0.6,0.5c-0.3,0.1-0.6,0.3-1,0.4c-0.4,0.1-0.9,0.1-1.3,0.1c-0.5,0-1-0.1-1.5-0.3
		c-0.5-0.2-0.9-0.5-1.2-0.9c-0.4-0.4-0.6-0.8-0.8-1.3c-0.2-0.5-0.3-1.1-0.3-1.8c0-0.8,0.1-1.5,0.3-2.2c0.2-0.6,0.5-1.1,0.9-1.6
		c0.4-0.4,0.8-0.7,1.2-1c0.5-0.2,1-0.3,1.4-0.3c0.5,0,1,0.1,1.4,0.2c0.4,0.2,0.7,0.4,1,0.7c0.3,0.3,0.5,0.7,0.6,1.1
		c0.1,0.4,0.2,0.9,0.2,1.5v0.6C201,104.6,201,104.8,201,105L201,105z M199.4,102.8c-0.1-0.3-0.2-0.6-0.4-0.8
		c-0.2-0.2-0.4-0.4-0.6-0.5c-0.2-0.1-0.5-0.2-0.7-0.2c-0.3,0-0.5,0.1-0.8,0.2c-0.3,0.1-0.5,0.3-0.7,0.6c-0.2,0.2-0.4,0.5-0.5,0.9
		c-0.1,0.3-0.2,0.7-0.2,1h4C199.6,103.6,199.5,103.2,199.4,102.8L199.4,102.8z M205.6,109.3c-0.2,0-0.3,0.1-0.5,0.1
		c-0.2,0-0.4,0-0.5,0.1c-0.2,0-0.4,0-0.7,0c-0.2,0-0.4,0-0.7,0c-0.3,0-0.5-0.1-0.7-0.1V109c0.1,0,0.2-0.1,0.4-0.2
		c0.1-0.1,0.2-0.1,0.3-0.2c0.1-0.1,0.2-0.2,0.2-0.3c0.1-0.1,0.1-0.2,0.1-0.3v-6.3l-1.2-0.5v-0.4c0.4-0.1,0.8-0.2,1.2-0.3
		c0.4-0.1,0.7-0.1,1-0.1h0.6l-0.1,1v7.1l1,0.3v0.4C205.9,109.3,205.8,109.3,205.6,109.3L205.6,109.3z M205.3,98
		c-0.1,0.1-0.1,0.3-0.2,0.4c-0.1,0.1-0.2,0.2-0.3,0.2c-0.1,0.1-0.3,0.1-0.4,0.1c-0.1,0-0.3,0-0.4-0.1c-0.1-0.1-0.2-0.1-0.3-0.2
		c-0.2-0.2-0.3-0.5-0.3-0.8c0-0.1,0-0.3,0.1-0.4c0-0.1,0.1-0.2,0.2-0.4c0.1-0.1,0.2-0.2,0.3-0.2c0.1-0.1,0.3-0.1,0.4-0.1
		c0.1,0,0.3,0,0.4,0.1c0.1,0,0.2,0.1,0.3,0.2c0.1,0.1,0.1,0.2,0.2,0.3c0.1,0.1,0.1,0.3,0.1,0.4C205.4,97.7,205.3,97.9,205.3,98
		L205.3,98z M214.8,109.2c-0.2,0.1-0.4,0.3-0.7,0.4c-0.4-0.3-0.7-0.7-0.9-1.1c-0.3,0.3-0.7,0.6-1.1,0.8c-0.2,0.1-0.4,0.2-0.7,0.2
		c-0.2,0.1-0.4,0.1-0.6,0.1c-0.5,0-0.9-0.1-1.3-0.3c-0.4-0.2-0.8-0.5-1.1-0.8c-0.3-0.4-0.5-0.8-0.7-1.3c-0.2-0.5-0.3-1.1-0.3-1.7
		c0-0.8,0.1-1.6,0.4-2.2c0.2-0.7,0.6-1.2,1-1.6c0.4-0.4,0.9-0.8,1.4-1c0.5-0.2,1.1-0.3,1.7-0.3c0.2,0,0.4,0,0.7,0
		c0.2,0,0.4,0.1,0.6,0.1v-3.3l-1.3-0.5v-0.4c0.4-0.1,0.9-0.2,1.3-0.3c0.4,0,0.8-0.1,1-0.1h0.6l-0.1,1v10.7c0.1,0.2,0.2,0.4,0.3,0.6
		c0.1,0.2,0.2,0.4,0.4,0.5C215.2,108.9,215,109.1,214.8,109.2z M213.1,101.6c-0.1-0.1-0.4-0.1-0.6-0.1c-0.2,0-0.5-0.1-0.7-0.1
		c-0.4,0-0.8,0.1-1.1,0.2c-0.3,0.1-0.6,0.4-0.9,0.7c-0.2,0.3-0.4,0.7-0.6,1.2c-0.1,0.5-0.2,1-0.2,1.7c0,0.5,0.1,1,0.2,1.3
		s0.3,0.7,0.5,1s0.4,0.5,0.7,0.6c0.3,0.1,0.5,0.2,0.8,0.2c0.2,0,0.4,0,0.5,0c0.2,0,0.4-0.1,0.5-0.1c0.2-0.1,0.3-0.1,0.5-0.2
		c0.1-0.1,0.3-0.1,0.4-0.2L213.1,101.6L213.1,101.6z"/>
</g>
<path class="st0" d="M69,110.2C69,110.1,69,110.1,69,110.2c-0.2,0.4,0.1,0.7,0.4,0.7c0.4,0,0.5-0.3,1.2-0.4c0.1,0,0.1-0.1,0-0.1
	c0,0-0.4-0.1-0.7,0C69.4,110.6,69.1,110.3,69,110.2z"/>
<path class="st0" d="M70.3,110.2c0.5-0.3,1.1-0.3,1,0.3c0,0-0.1,0.1-0.7,0.1c0,0,0,0.2,0.1,0.3c0,0-0.1,0.2,0,0.3
	c0,0,0.5-0.2,0.8-0.2c0.1,0.3,0,0.7-0.8,0.8c-1,0.2-1.6,0.5-1.7,1.6c0.8-0.1,1.3,0.3,1.9,0.6c0.9,0.4,2-0.2,2-0.2
	c-0.2-0.2-0.3-0.8,0.1-1.1c0.2,0.4,0.6,0.4,0.9,0.2c0,0,0-0.1,0-0.1c-0.4-0.2-0.5-0.7-0.3-1.1c0.2,0.3,0.7,0.1,0.8-0.2c0,0,0,0,0,0
	c-0.3,0.1-0.5-0.3-0.5-0.5c0-0.2,0.2-1.1-0.2-1.6c0.1-0.2,0.8-0.5,1-0.5c0.1,0,0.1-0.1,0-0.1c-0.3-0.1-0.9,0-1-0.1
	c0,0-0.1-0.9-0.1-0.9c0,0-0.9,0.4-0.9,0.4c-0.2,0-0.4-0.6-0.7-0.8c-0.1,0-0.1,0-0.1,0.1c0.1,0.2,0.2,0.9,0.1,1.1
	c-0.7-0.1-1,0.2-1,0.4c-0.2,0-0.9,0.4-0.9,0.6c0,0,0,0.1,0.1,0.2C70.2,109.7,70.1,110,70.3,110.2z M71.7,109.2
	c-0.2,0.4-0.5,0.5-0.8,0.2C70.9,109.3,71.2,109.2,71.7,109.2z"/>
<path class="st0" d="M56.4,105.1c0-0.4-0.4-0.4-1.3-0.4C55.3,105.5,56,105.6,56.4,105.1z"/>
<path class="st0" d="M86.5,104.7c-0.8,0-1.2,0-1.3,0.4C85.7,105.6,86.3,105.5,86.5,104.7z"/>
<path class="st0" d="M65.5,111.9l-0.4,0.6c-0.1,0.1,0.4,0.4,0.4,0.3l0.6-0.8c0,0,1.8,1,2.2,1.2c0-0.4,0.2-0.7,0.4-1
	c-0.5-0.1-1.7-0.5-1.7-0.5c-0.1,0.1-0.2,0.2-0.4,0.2c-0.3,0-0.5-0.3-0.5-0.4c0,0,0,0,0,0c0.1,0,0.3,0.1,0.3,0v0l0.2-0.3l0.5,0.2
	l0.2-0.3l-0.4-0.1l2-2.9c0-0.1,0-0.5,0-0.7c-0.1,0-0.6,0.1-0.6,0.2l-2.1,2.8l-0.3-0.4l-0.2,0.3l0.4,0.4l-0.2,0.3
	c-0.4-0.3-0.8,0.1-1,0.2c0,0,0,0,0,0c0.1,0,0.6-0.1,0.6,0.2c-0.5-0.1-0.7,0.2-0.8,0.3c0,0,0,0,0,0C65.1,111.9,65.4,111.8,65.5,111.9
	z"/>
<rect x="75.5" y="108.8" class="st0" width="1" height="2.9"/>
<path class="st0" d="M77.3,113c-0.1,0.1-0.1,0.5-0.6,0.5c-0.4,0-1-0.2-1.5-0.2c-0.9,0-1.2,0.6-1.2,1.1c0,1,1,1.2,1,2.1
	c0,0.7-1,0.9-1.7,0.3c-0.2-0.8-0.3-1.4-0.8-2.1c-1.9,0.6-2.2-0.6-3.2-0.6c-0.8,0-1.9,1.5-2.8,1.7l0.1-0.9l0.1,0l0-0.7
	c0,0-0.2,0.5-0.2,0.5c0,0.1-0.1,0.1-0.1,0c-0.1-0.2-0.3-0.7-0.3-0.7s0,0.6,0,0.7c0,0,0,0.1-0.1,0l-0.4-0.7c0,0,0.1,0.5,0.2,0.8
	c0,0,0,0.1-0.1,0l-0.6-0.6l0.3,0.8c0,0,0,0.1-0.1,0l-0.7-0.4c0,0,0.3,0.4,0.4,0.7c0,0,0,0.1,0,0c-0.4-0.1-0.7-0.2-0.7-0.2l0.5,0.5
	c0,0,0,0.1,0,0.1h-0.6l0.7,0.3l0.1-0.1l0.6,0.1c-0.2,0.2-0.1,0.4,0,0.5c0,0,0,0,0,0c0.1-0.1,0.2-0.3,0.6-0.3c0,0,0,0,0,0
	c-0.1,0.1-0.5,0.3-0.4,0.7c0,0,0,0,0,0c0.1-0.2,0.4-0.3,0.5-0.3l-0.1,0.8c0.6,0.2,1.3-0.2,1.3-0.9l-0.7-0.2c0.7-0.5,1.7-0.9,2.7-0.9
	c1.5,0,2.4,1.6,2.4,2.5c0,0.2,0,0.6-0.2,0.8c-0.3,0.4-0.5,0.3-0.6,0.2c0,0,0,0,0,0c0.1,0.5,0.8,0.5,0.9,0.2c0-0.1,0.1,0,0.1,0
	c0.3,1.2,1.8-0.1,2.6,1.5c0,0-0.4,0.2-0.6,0.1c-0.4-0.3-0.7,0-0.7,0.2c0,0,0,0,0,0c0.5-0.1,0.7,0.2,0.7,0.3c-0.4-0.2-0.9,0-0.6,0.6
	c0,0,0,0,0,0c0,0,0-0.1,0-0.1c0.1-0.2,0.3-0.3,0.5-0.1c-0.2,0.1-0.5,0.5,0,0.9c0,0,0,0,0,0c-0.1-0.3,0.1-0.5,0.3-0.5
	c0.1,0,0.4,0,0.6-0.4c0.2,0.4,0.6,0.2,0.8,0.1c0,0,0,0,0-0.1c-0.3-0.1-0.6-0.3-0.3-0.5c0,0,0.6,0.2,0.8-0.4c0,0,0,0,0,0
	s-0.6,0.3-0.7-0.2c-0.1-0.4-0.1-1-0.4-1.1c0.3-0.1,0.4-0.4,0.2-0.8c0,0-0.1-0.1-0.1,0c0,0.8-1.8,0.1-1.8-1c1.2,0.3,2.4,0,2.4-1.2
	c0-1.2-1.1-1.7-1.1-2.3c0-0.4,0.3-0.5,0.5-0.5c0.5,0,1,0.6,1.1,1c0,0,0,0,0.1,0c0.2-0.2,0.2-0.6,0.1-0.7c0,0,0-0.1,0,0
	c0.1,0.1,1,0,1-0.6c0-0.2-0.1-0.3-0.1-0.4C77.5,113,77.4,112.9,77.3,113z"/>
<path class="st0" d="M71.3,117.8C71.4,117.8,71.4,117.8,71.3,117.8c-0.3,0-0.7-0.4-0.3-0.9c-0.3-0.2-0.6-0.3-0.8-0.3
	c-1.1,0-2,1.2-2.2,1.4c-0.1,0.2-0.4,0.5-0.6,0.2c0,0,0,0,0,0c0,0.5,0.4,0.5,0.6,0.4c0,0,0,0,0,0c-0.1,0.5,0.3,1.4,0.3,1.4
	c-0.1,0-0.5,0.5-0.9,0.5c-0.2,0-0.3-0.4-0.6-0.4c-0.1,0-0.2,0.1-0.3,0.2c0,0,0,0,0,0c0.3,0,0.4,0.2,0.4,0.4
	c-0.3-0.3-0.8-0.2-0.8,0.4c0,0,0,0,0,0c0.2-0.3,0.6-0.1,0.6-0.1c-0.2,0-0.7,0.3-0.3,0.8c0,0,0,0,0,0c0-0.1,0.1-0.4,0.4-0.4
	c0.4,0,0.6,0.3,0.8,0c0.1,0.4,0.5,0.4,0.7,0.4c0,0,0,0,0,0c-0.2-0.1-0.3-0.3-0.3-0.4c0-0.3,0.6-0.6,0.7-0.6c0.2,0,0.2,0.2,0.5,0.2
	c0.1,0,0.3-0.1,0.4-0.2c0,0,0,0,0,0c-0.4,0.1-0.6-0.3-0.6-0.9C69.2,118.6,69.8,118.4,71.3,117.8z"/>
<path class="st0" d="M40.8,46.7v105h60v-105H40.8z M85.3,104.2c0.1-0.4,0.6-0.9,2-0.7c0.7,0.1,1.2-0.1,0.9-0.5c0-0.1,0.1-0.1,0.1,0
	c0.2,0.2,0.4,0.6-0.2,0.9c-0.7,0.3-0.7,1-0.7,1.1c0,0.1,0.1,0.1,0.2,0c0.3-1.1,1.8-1.3,2.7-0.8c-0.1,0.6-0.7,1-1,1
	c-0.2,0-0.5-0.2-0.5-0.5c0-0.1-0.1-0.1-0.1,0c-0.1,0.4,0.4,1.2,1.3,0.7c0.9,0.9,0.5,2,0.4,2.4c-0.2,0.7,0.2,1.4,0.8,1.1
	c0,0,0.1,0,0.1,0.1c0,0.4-0.6,1-1.3,0.6c-0.1,0.1-1.1,1.4,0.4,1.9c0.1,0,0.1,0.1,0,0.1c-1.1,0.5-1.7-0.4-1.7-0.4
	c-0.6,1.3,0.3,2,0.3,2c-0.1,0.2-0.7,0.6-1.5,0.8c-0.3-0.2-0.7-0.5-0.9-1c0,0-0.2,0.6,0,1.1c-2.3,0.2-3.1-1.6-4.8-1.3
	c0,0-0.1,0-0.1-0.1c0-1.1,0.7-3.2,2.9-3.6c2.2-0.4,1.6-1.3,1.6-1.3c-0.9,0-1.4,0.4-1.4,0.4c-0.2-0.3,0.1-0.6,0.1-0.6
	c-0.1-0.1-0.1-0.5-0.1-0.5c1,0,1.3-0.2,1.3-0.2c0.1-0.6-0.3-1.5-1.8-0.5c-0.4-0.3-0.4-0.9-0.4-0.9c-0.1-0.1-0.2-0.2-0.2-0.3
	C83.8,105,85,104.3,85.3,104.2z M81.8,106.3c0-0.1,0.1-0.1,0.1,0c0.1,0.4,0.5,0.5,1,0.5c0.6,0,0.7-0.2,1.5-0.2c0.1,0,0.6,0,0.6,0.1
	c0,0.1-0.2,0.1-0.6,0.1c-0.8,0.1-1.2,0.6-1.7,0.6C82.1,107.5,81.6,107.1,81.8,106.3z M69.8,92.5c0.2,0,0.3,0.1,0.4,0.1
	c0.2,0.1,0.3,0.1,0.4,0.1c0.1-0.1,0.1-0.2-0.1-0.4c-0.1-0.1-0.1-0.3-0.1-0.4c0-0.3,0.2-0.5,0.4-0.5c0.2,0,0.4,0.2,0.4,0.5
	c0,0.2-0.1,0.4-0.1,0.4c-0.1,0.2-0.1,0.3-0.1,0.4c0.1,0.1,0.2,0.1,0.4-0.1c0.1-0.1,0.3-0.1,0.4-0.1c0.3,0,0.5,0.2,0.5,0.4
	c0,0.2-0.2,0.4-0.5,0.4c-0.2,0-0.4-0.1-0.4-0.1c-0.2-0.1-0.3-0.1-0.4-0.1c-0.1,0.1,0,0.7,0.1,1.2c0.5,0.1,0.8,0.5,0.8,0.8
	c0,0.7-0.7,1-1.1,1.3c-0.4-0.2-1.1-0.6-1.1-1.3c0-0.3,0.3-0.7,0.8-0.8c0.1-0.5,0.2-1.2,0.1-1.2c-0.1-0.1-0.2-0.1-0.4,0.1
	c-0.1,0.1-0.3,0.1-0.4,0.1c-0.3,0-0.5-0.2-0.5-0.4C69.4,92.7,69.5,92.5,69.8,92.5z M71.6,97.5c0,0.4-0.3,0.8-0.8,0.9
	c-0.4,0-0.7-0.3-0.8-0.8c0-0.4,0.3-0.8,0.8-0.9C71.2,96.8,71.6,97.1,71.6,97.5z M64.4,97.7c0.7,0,0.6,0.5,1.2,0.5c0.1,0,0.1,0,0.1,0
	c0,0.2-0.2,0.5-0.4,0.5c-0.4,0-0.4-0.4-0.7-0.4c-0.1,0-0.3,0.1-0.3,0.5c0,0.7,0.5,1.6,1.1,2.2c0.1-0.2,0.3-0.3,0.5-0.3
	c0.3,0,0.6,0.4,0.6,0.8c0,0.2,0,0.3-0.1,0.4c0.2,0.1,0.4,0.2,0.5,0.2c0.3,0,0.7-0.1,0.7-0.7c0-1.3-1.7-2.4-1.7-4
	c0-0.8,0.5-1.6,1.6-1.6c1.2,0,0.9,1.1,1.9,1.1c0,0,0.1,0,0.1,0.1c0,0.1-0.2,0.7-0.7,0.7c-0.5,0-0.7-1-1.2-1c-0.2,0-0.5,0.1-0.5,0.8
	c0,0.5,0.3,1.3,0.6,2.1c0.1-0.1,0.3-0.2,0.5-0.2c0.4,0,0.7,0.4,0.7,0.9c0,0.3-0.1,0.6-0.3,0.8c0.2,0.3,0.5,0.6,0.9,0.6
	c0.7,0,1-0.4,1-0.8c0-0.5-0.8-0.6-0.8-1.4c0-0.5,0.3-0.8,0.6-0.8c0.3,0,0.5,0.2,0.5,0.2c0,0,0.2-0.2,0.5-0.2c0.3,0,0.6,0.3,0.6,0.8
	c0,0.7-0.8,0.9-0.8,1.4c0,0.4,0.3,0.8,1,0.8c0.3,0,0.6-0.3,0.9-0.6c-0.2-0.2-0.3-0.5-0.3-0.8c0-0.5,0.3-0.9,0.7-0.9
	c0.2,0,0.4,0.1,0.5,0.2c0.4-0.8,0.6-1.6,0.6-2.1c0-0.7-0.3-0.8-0.5-0.8c-0.5,0-0.6,1-1.2,1c-0.5,0-0.7-0.6-0.7-0.7
	c0,0,0-0.1,0.1-0.1c1,0,0.8-1.1,1.9-1.1c1.1,0,1.6,0.8,1.6,1.6c0,1.6-1.7,2.8-1.7,4c0,0.6,0.4,0.7,0.7,0.7c0.1,0,0.3-0.1,0.5-0.2
	c-0.1-0.1-0.1-0.3-0.1-0.4c0-0.4,0.3-0.8,0.6-0.8c0.2,0,0.4,0.1,0.5,0.3c0.6-0.7,1.1-1.5,1.1-2.2c0-0.4-0.2-0.5-0.3-0.5
	c-0.3,0-0.3,0.4-0.7,0.4c-0.3,0-0.4-0.3-0.4-0.5c0-0.1,0.1,0,0.1,0c0.6,0,0.5-0.5,1.2-0.5c0.2,0,1.1,0.1,1.1,1.3
	c0,1.8-2.2,2.3-1.7,3.7c-0.9-0.1-0.9,0.8-0.9,2.4c0,0-1.8-0.6-5-0.6c-3.2,0-5,0.6-4.9,0.6c0-1.6,0-2.5-0.9-2.4
	c0.5-1.3-1.7-1.9-1.7-3.7C63.3,97.8,64.1,97.7,64.4,97.7z M59.8,106.3c0-0.1,0.1-0.1,0.1,0c0.2,0.8-0.3,1.1-0.9,1.1
	c-0.6,0-0.9-0.4-1.7-0.6c-0.4-0.1-0.6,0-0.6-0.1s0.5-0.1,0.6-0.1v0c0.9,0,1,0.2,1.5,0.2C59.2,106.9,59.7,106.7,59.8,106.3z
	 M50.3,108.9c0.7,0.3,1-0.4,0.8-1.1c-0.1-0.4-0.4-1.5,0.4-2.4c0.9,0.5,1.5-0.3,1.3-0.7c0-0.1-0.1-0.1-0.1,0c0,0.3-0.3,0.5-0.5,0.5
	c-0.4,0-1-0.4-1-1c0.9-0.6,2.4-0.4,2.7,0.8c0,0.1,0.2,0.1,0.2,0c0-0.1-0.1-0.8-0.7-1.1c-0.6-0.3-0.4-0.7-0.2-0.9
	c0.1-0.1,0.2-0.1,0.1,0c-0.2,0.4,0.3,0.6,0.9,0.5c1.4-0.2,1.9,0.3,2,0.7c0.3,0.1,1.5,0.8,1.5,1c0,0.1-0.1,0.3-0.2,0.3
	c0,0,0,0.5-0.4,0.9c-1.5-0.9-2-0.1-1.8,0.5c0,0,0.3,0.2,1.3,0.2c0,0-0.1,0.4-0.1,0.5c0,0,0.2,0.3,0.1,0.6c0,0-0.5-0.4-1.4-0.4
	c0,0-0.6,0.9,1.6,1.3c2.2,0.4,2.9,2.5,2.9,3.6c0,0.1,0,0.1-0.1,0.1c-1.8-0.3-2.6,1.5-4.8,1.3c0.2-0.5,0-1.1,0-1.1
	c-0.2,0.5-0.6,0.8-0.9,1c-0.8-0.2-1.3-0.6-1.5-0.8c0,0,0.9-0.7,0.3-2c0,0-0.5,0.9-1.7,0.4c-0.1-0.1-0.1-0.1,0-0.1
	c1.5-0.5,0.5-1.8,0.4-1.9C50.8,110,50.2,109.5,50.3,108.9C50.2,108.9,50.3,108.9,50.3,108.9z M61.3,133.5c0,2.3-3.7,0.1-7.4-0.1
	c-3-0.2-3.8,0.6-3.8,0.6l0.5-3c0-0.2,0.7-0.6,2.8-0.6c2.5,0,3.7,0.5,4.2,0.6v1.6c0,0.4,0.2,0.5,0.5,0.7c0-0.1,0.4-1,3.3-1V133.5z
	 M58,121.4c-0.4-0.3-2.2-1-3.1-1.4c-0.1,0,0-0.1,0-0.1c0.3-0.1,0.5-0.2,0.6-0.6c0-0.2,0-0.5-0.2-0.6c0.5-0.5,1.4-0.9,1.9-0.9
	c1.9,0,3.5,2.6,4.3,2.6c0.1,0,0.2,0,0.3-0.2c0,0,0.1,0,0.1,0c0,0.8-0.4,0.8-0.6,0.8c-0.1,0-0.3,0-0.4-0.1c0,0,0,0,0,0v0.2
	c0,0.9-1,1.9-1,1.9c0.4,0.4,1.5,1.2,1.8,0.8c0.1-0.2,0.7-1.2,1.5-0.4c0,0,0,0.1,0,0.1c-0.4,0-0.8,0.3-0.7,0.7
	c0.6-0.5,1.5-0.4,1.5,0.7c0,0.1,0,0.1-0.1,0c-0.4-0.6-1-0.2-1.1-0.1c0.4,0.1,1.2,0.6,0.5,1.5c0,0-0.1,0-0.1,0
	c-0.1-0.6-0.4-0.7-0.7-0.7c-0.6,0-1,0.5-1.5,0c-0.2,0.8-1,0.7-1.2,0.7c0,0,0,0,0,0c0.3-0.2,0.5-0.4,0.5-0.7c0-0.5-0.9-1.1-1.3-1.1
	c-0.3,0-0.4,0.3-1,0.3c-0.3,0-0.6-0.1-0.8-0.4c0,0,0,0,0,0c0.2,0,0.8,0.2,1-0.8C58.4,122.6,58.5,121.8,58,121.4z M58.3,131.9
	C58.3,132,58.2,131.9,58.3,131.9l-0.1-3.1c0-0.9,6.1-1.4,12.6-1.4c6.5,0,12.6,0.5,12.6,1.4v3.1c0,0.1,0,0.1-0.1,0.1
	c-0.8-0.9-6.7-1.2-12.5-1.2C65,130.7,59.1,131,58.3,131.9z M78.7,123.7C78.6,123.7,78.6,123.7,78.7,123.7c0.7-0.9,1.3,0.1,1.4,0.3
	c0.3,0.4,1.4-0.4,1.8-0.8c0,0-1-1-1-1.9v-0.2c0,0,0,0,0,0c-0.1,0.1-0.2,0.1-0.4,0.1c-0.2,0-0.6-0.1-0.6-0.8c0-0.1,0-0.1,0.1,0
	c0.1,0.2,0.2,0.2,0.3,0.2c0.8,0,2.4-2.6,4.3-2.6c0.5,0,1.4,0.4,1.9,0.9c-0.2,0.1-0.3,0.4-0.2,0.6c0,0.3,0.3,0.5,0.6,0.6
	c0,0,0.1,0,0,0.1c-1,0.4-2.7,1-3.1,1.4c-0.5,0.4-0.4,1.2-0.1,2.2c0.3,1,0.8,0.9,1,0.8c0,0,0,0,0,0c-0.3,0.3-0.6,0.4-0.8,0.4
	c-0.5,0-0.7-0.3-1-0.3c-0.4,0-1.3,0.6-1.3,1.1c0,0.3,0.2,0.5,0.5,0.7c0,0,0,0,0,0c-0.2,0-1.1,0.1-1.2-0.7c-0.4,0.6-0.9,0-1.5,0
	c-0.3,0-0.7,0.1-0.7,0.7c0,0,0,0-0.1,0c-0.7-0.9,0.1-1.4,0.5-1.5c-0.1-0.1-0.7-0.5-1.1,0.1c0,0-0.1,0-0.1,0c0-1.1,0.9-1.2,1.5-0.7
	C79.4,124,79.1,123.7,78.7,123.7z M87.7,133.4c-3.6,0.2-7.4,2.4-7.4,0.1v-1.3c2.8,0,3.2,0.9,3.3,1c0.3-0.1,0.5-0.3,0.5-0.7v-1.6
	c0.4-0.2,1.7-0.6,4.2-0.6c2.1,0,2.7,0.5,2.8,0.6l0.5,3C91.6,133.9,90.7,133.2,87.7,133.4z M95.5,112.6c-0.4,0-0.7-0.1-0.8-0.2
	c-0.1,0-0.1,0-0.1,0.1c0.4,0.4,0.4,1.2,0.2,1.4c0,0.1-0.1,0-0.1,0c-0.2-0.8-0.9-1.6-1.9-1.6c-1.2,0-1.2,1-1.2,1.3
	c0,1.5,2.7,2.6,2.7,4.7c0,2.1-2.2,2.5-3.5,2.2c0.1,2.1,2.5,2.8,2.6,1.3c0-0.1,0.1-0.1,0.1,0c0.3,0.7,0.2,1.4-0.7,1.6
	c-0.1,0,0,0.1,0,0.1c0.9,0.6,0.4,2.9,0.4,3.6c-0.1,1,0.9,0.9,1,0.8c0,0,0.1,0,0,0.1c-0.7,0.8-1.6,0.1-1.6,0.1
	c-0.6,0.2-0.2,0.8,0.2,1c0.1,0,0.1,0.1,0,0.1c-0.1,0-1.1,0.1-1.3-0.7c-0.4,0.5-1.1,0.3-1.2,0.3c-0.2-0.1-1.1-0.4-1.2,0.6
	c0,0.1-0.1,0-0.1,0c-0.7-0.9,0.1-1.4,0.5-1.5c0,0-0.6-0.5-1.1,0.1c0,0-0.1,0.1-0.1,0c-0.1-1.1,0.9-1.2,1.5-0.7
	c0-0.1,0.2-0.8-0.7-0.7c0,0-0.1,0,0-0.1c0.7-0.7,1.3-0.1,1.4,0.1c0.3,0.4,1.1,0.2,1.2,0.2c-0.2-3.9-3.7-2.5-4.2-4.5
	c0-0.1-0.1-0.1-0.1,0c-0.1,0.5-1.3,0.5-1.5-0.4c0-0.1,0-0.1,0-0.1c1,1,3.3-2.1,0.2-4.7c-2.6-2.2-5-1-5.9-0.2
	c-0.1,0.3,0.1,0.4,0.3,0.4c0,0,0.1,0.1,0,0.1c-0.3,0.1-0.6,0.1-0.8-0.2c-0.6,0.4-0.1,0.9,0.1,1c0.1,0,0,0.1,0,0.1
	c-0.5,0.1-0.9-0.4-1-0.7l-0.1,0.1v2.2c0,3.2-3.7,3.6-7.7,6.3c-4-2.7-7.7-3.1-7.7-6.3v-2.2l-0.1-0.1c0,0.3-0.4,0.8-1,0.7
	c0,0-0.1,0,0-0.1c0.2-0.1,0.7-0.6,0.1-1c-0.2,0.2-0.5,0.3-0.8,0.2c-0.1,0-0.1-0.1,0-0.1c0.1,0,0.3-0.1,0.3-0.4
	c-0.9-0.7-3.3-1.9-5.9,0.2c-3.1,2.5-0.8,5.7,0.2,4.7c0,0,0.1,0,0,0.1c-0.2,0.9-1.4,0.8-1.5,0.4c0,0-0.1-0.1-0.1,0
	c-0.5,1.9-3.9,0.5-4.2,4.5c0.1,0,0.8,0.1,1.2-0.2c0.1-0.2,0.7-0.8,1.4-0.1c0.1,0.1,0,0.1,0,0.1c-0.9,0-0.7,0.6-0.7,0.7
	c0.6-0.5,1.5-0.4,1.5,0.7c0,0.1,0,0.1-0.1,0c-0.5-0.7-1.1-0.2-1.1-0.1c0.4,0.1,1.2,0.6,0.5,1.5c0,0-0.1,0.1-0.1,0
	c-0.1-1-1-0.7-1.2-0.6c-0.1,0.1-0.8,0.3-1.2-0.3c-0.2,0.8-1.2,0.7-1.3,0.7c-0.1,0-0.1-0.1,0-0.1c0.4-0.3,0.8-0.8,0.2-1
	c0,0-0.9,0.8-1.6-0.1c-0.1-0.1,0-0.1,0-0.1c0.1,0,1.1,0.1,1-0.8c0-0.7-0.5-3,0.4-3.6c0.1,0,0.1-0.1,0-0.1c-0.9-0.2-1-0.9-0.7-1.6
	c0-0.1,0.1-0.1,0.1,0c0.1,1.5,2.5,0.8,2.6-1.3c-1.3,0.3-3.5-0.1-3.5-2.2c0-2.1,2.7-3.2,2.7-4.7c0-0.2,0-1.3-1.2-1.3
	c-1,0-1.7,0.8-1.9,1.6c0,0,0,0-0.1,0c-0.1-0.2-0.1-1,0.2-1.4c0,0,0-0.1-0.1-0.1c-0.1,0.1-0.5,0.2-0.8,0.2c-0.8,0-1.3-0.4-1.3-1.2
	c0-0.5,0.2-0.7,0.1-0.9c0-0.1,0.1-0.1,0.1,0c0.1,0.2,0.3,0.8,1.2,0.8h2c2.3,0,2.5,1.8,2.5,2.3c0,1.9-2.4,2.7-2.4,4.5
	c0,0.4,0.2,1.2,1.4,1.2c0.5,0,1-0.1,1.3-0.3c0,0,0.5-3.3,2.1-4.4c0,0,1.9,0.9,3.7-0.1c1.4-0.8,2.1-1.3,3.3-0.4
	c1.3,0.9,2.3,1.8,2.5,1.8l0.3-0.1v-7.4c-0.6-0.1-0.6,0.4-0.6,0.6c0,0.2,0.2,0.3-0.2,0.9c0,0-0.1,0-0.1,0c0-0.1-0.1-0.4-0.3-0.4
	c-0.2,0-1.1,0.7-1.8,1.4c0,0-0.4-1.3-1.5-1.7c0.6-0.1,3.1-0.7,3.1-1.8c0-0.4,0.4-0.5,0.7-0.4c0,0,0.4-1,1.2-0.5c0,0,0,0.1,0,0.1
	c-0.3,0.1-0.5,0.4-0.5,0.8c0.3-0.1,0.9-0.3,1.8-0.4v2.4h1v-2.6c1.3-0.2,3-0.4,4.8-0.4c3.7,0,6.9,0.9,7.6,1.1c0-0.4-0.2-0.7-0.5-0.8
	c0,0-0.1-0.1,0-0.1c0.8-0.5,1.2,0.5,1.2,0.5c0.3,0,0.7,0.1,0.7,0.4c0,1.1,2.5,1.7,3.1,1.8c-1,0.4-1.5,1.7-1.5,1.7
	c-0.7-0.7-1.6-1.4-1.8-1.4s-0.3,0.2-0.3,0.4c0,0.1-0.1,0.1-0.1,0c-0.4-0.6-0.2-0.7-0.2-0.9c0-0.1,0-0.6-0.6-0.6v7.4l0.3,0.1
	c0.1,0,1.2-0.9,2.5-1.8c1.2-0.9,1.9-0.3,3.3,0.4c1.9,1,3.7,0.1,3.7,0.1c1.6,1.1,2.1,4.4,2.1,4.4c0.3,0.1,0.8,0.3,1.3,0.3
	c1.2,0,1.4-0.7,1.4-1.2c0-1.9-2.4-2.7-2.4-4.5c0-0.4,0.2-2.3,2.5-2.3h2c0.8,0,1-0.6,1.2-0.8c0-0.1,0.1,0,0.1,0
	c-0.1,0.1,0.1,0.4,0.1,0.9C96.8,112.1,96.3,112.6,95.5,112.6z"/>
<rect x="70.8" y="121.5" class="st0" width="1" height="2.9"/>
</svg>
