<?xml version="1.0" encoding="utf-8"?>
<!-- Generator: Adobe Illustrator 22.0.1, SVG Export Plug-In . SVG Version: 6.00 Build 0)  -->
<svg version="1.1" id="bodyenfit" xmlns="http://www.w3.org/2000/svg" xmlns:xlink="http://www.w3.org/1999/xlink" x="0px" y="0px"
	 viewBox="0 0 256.2 198.1" style="enable-background:new 0 0 256.2 198.1;" xml:space="preserve">
<style type="text/css">
	.st0{fill:#FFFFFF;}
</style>
<path class="st0" d="M73.1,82.2c0.8,0.2,0.9-0.1,0.9-0.7c0-2.4,0-4.8,0-7.3c0-2-0.8-2.8-2.7-2.8c-4.6,0-9.1,0-13.7,0
	c-4.6,0-9.3,0-13.9,0c-1.7,0-2.5,0.8-2.5,2.5c0,9.3,0,18.6,0,27.8c0,1.7,0.8,2.5,2.5,2.5c2.5,0,5,0,7.4,0c0.7,0,0.9-0.1,0.6-0.9
	c-1-3.6-0.8-7.1,0.5-10.6C55.5,84.4,64.2,80,73.1,82.2z M73.5,73.8c0.1,0,0.1,0,0.1,0c0,2.8,0,5.5,0,8.3c-0.1,0-0.1,0-0.1,0
	C73.5,79.3,73.5,76.6,73.5,73.8z M51.5,104C51.5,104.1,51.5,104.1,51.5,104c-2.7,0.1-5.4,0.1-8.1,0.1c0,0,0,0,0-0.1
	C46.1,104,48.8,104,51.5,104z"/>
<path class="st0" d="M79.4,112.8c-6.2,4.8-14.5,5-21,0.5c-0.2-0.2-0.4-0.4-0.7-0.4c-0.4,0.3-0.3,0.7-0.3,1.1c0,3.5,0,7,0,10.5
	c0,0.3,0.1,0.7-0.2,1c0,0,0,0,0,0c0,0,0,0,0,0c0.1,1.4,0.9,2.2,2.6,2.2c5.9,0,11.8,0,17.7,0c1.8,0,2.7-0.9,2.7-2.7
	c0-3.9,0-7.8,0-11.7c0-0.2,0.1-0.5-0.1-0.7C79.7,112.4,79.6,112.6,79.4,112.8z"/>
<path class="st0" d="M58.8,99c0,5.4,4.4,9.8,9.8,9.9c5.4,0,9.8-4.4,9.8-9.8c0-5.5-4.4-9.8-9.8-9.8C63.2,89.2,58.8,93.6,58.8,99z
	 M71.5,99.1c0,1.6-1.3,2.8-2.9,2.8c-1.6,0-2.9-1.3-2.9-2.9c0-1.6,1.3-2.9,2.9-2.8C70.3,96.2,71.5,97.5,71.5,99.1z"/>
<path class="st0" d="M57.3,124.4c0-3.6,0-7.1,0-10.7c0-0.3-0.1-0.8,0.4-0.9c-0.2-0.1-0.2-0.4-0.5-0.4c0,4.3,0,8.5,0,12.8
	C57.4,125,57.3,124.7,57.3,124.4z"/>
<path class="st0" d="M57.4,124.4c0-3.5,0-7,0-10.5c0-0.4-0.1-0.8,0.3-1.1c-0.5,0.1-0.4,0.5-0.4,0.9c0,3.6,0,7.1,0,10.7
	c0,0.3,0.1,0.6-0.1,0.9c0,0,0,0,0,0C57.5,125.1,57.4,124.7,57.4,124.4z"/>
<path class="st0" d="M73.7,73.8c-0.1,0-0.1,0-0.1,0c0,2.8,0,5.5,0,8.3c0,0,0.1,0,0.1,0C73.7,79.3,73.7,76.5,73.7,73.8z"/>
<path class="st0" d="M43.4,104.1c2.7,0,5.4,0,8.1,0c0,0,0-0.1,0-0.1C48.8,104,46.1,104,43.4,104.1C43.4,104.1,43.4,104.1,43.4,104.1
	z"/>
<path class="st0" d="M179.3,83.7c-7.7,0-15.4,0-23,0c-1.9,0-2.5,0.6-2.5,2.5c0,7.7,0,15.4,0,23c0,1.9,0.6,2.5,2.5,2.5
	c3.8,0,7.7,0,11.5,0c3.8,0,7.7,0,11.5,0c2.1,0,2.6-0.6,2.6-2.6c0-7.6,0-15.3,0-22.9C181.8,84.3,181.2,83.7,179.3,83.7z M168.7,108.2
	c-4.1,0.5-6.4-1.3-6.9-5.4c-0.1-1.1,0.1-1.7,1.3-1.4c0.3,0.1,0.6,0,0.9,0c0.3,0,0.6,0,0.9,0c0.9-0.1,1.3,0.1,1.2,1.1
	c-0.1,0.6,0.1,1.1,0.5,1.6c0.6,0.7,1.4,0.8,2.1,0.3c0.8-0.5,0.9-1.2,0.5-2c-0.4-0.8-1-1.3-1.6-1.8c-1.1-0.9-2.3-1.8-3.4-2.8
	c-1.2-1.1-2.1-2.5-2.2-4.3c-0.3-3.7,3.1-6.3,7.1-5.4c2.6,0.6,4.3,2.6,4.4,5.4c0,0.7-0.2,1-0.9,1c-0.5-0.1-1-0.1-1.6,0
	c-1.1,0.1-1.9,0-1.9-1.5c0-0.7-0.5-1.3-1.4-1.3c-0.6,0-1,0.2-1.3,0.7c-0.4,0.7-0.1,1.4,0.5,1.9c0.8,0.7,1.7,1.4,2.6,2.1
	c1.1,0.9,2.2,1.8,3,3C175.3,103.1,173.3,107.6,168.7,108.2z"/>
<path class="st0" d="M147.6,83.8c-7.9,0-15.9,0-23.8,0c-1,0-1.9,0.4-2,1.6c-0.1,0.3-0.1,0.6-0.1,0.9c0,7.7,0,15.5,0,23.2
	c0,0.3-0.1,0.7,0.2,1c0.2,1.3,1.2,1.4,2.3,1.4c4.6,0,9.1,0,13.7,0c3.2,0,6.5,0,9.7,0c1.6,0,2.3-0.7,2.3-2.3c0-0.5,0-1,0-1.6
	c0-7.3,0-14.6,0-21.9C149.8,84.5,149.2,83.8,147.6,83.8z M136.6,108.3c-4.1,0.5-6.4-1.4-6.8-5.5c-0.1-1.2,0.2-1.6,1.4-1.4
	c0.3,0,0.5,0,0.8,0s0.5,0,0.8,0c0.9-0.1,1.5,0,1.4,1.2c-0.1,0.4,0.2,0.9,0.4,1.2c0.5,0.9,1.4,1.1,2.2,0.6c0.9-0.5,0.9-1.4,0.5-2.2
	c-0.5-0.9-1.3-1.5-2.1-2.1c-1.4-1.1-2.8-2.1-3.8-3.5c-1.5-2-1.6-4.6-0.4-6.4c1.3-1.9,4.1-2.8,6.8-2c2.4,0.7,3.8,2.6,3.9,5
	c0.1,0.9-0.2,1.3-1.1,1.1c-0.4-0.1-0.8,0-1.2,0c-1.2,0.1-2.1,0.1-2.1-1.5c0-0.7-0.5-1.2-1.3-1.2c-0.6-0.1-1,0.1-1.3,0.6
	c-0.4,0.7-0.1,1.2,0.3,1.8c0.7,0.9,1.7,1.5,2.6,2.2c1.2,0.9,2.3,1.8,3.2,3C143.4,103.1,141.4,107.7,136.6,108.3z"/>
<path class="st0" d="M115.4,83.7c-7.7,0-15.4,0-23.2,0c-1.9,0-2.5,0.6-2.5,2.5c0,7.7,0,15.4,0,23.2c0,1.9,0.6,2.4,2.5,2.5
	c3.8,0,7.7,0,11.5,0c3.9,0,7.8,0,11.7,0c1.8,0,2.4-0.6,2.4-2.4c0-7.8,0-15.5,0-23.3C117.8,84.4,117.2,83.7,115.4,83.7z M109.5,103.9
	c-0.6,2.9-2.6,4.4-5.8,4.4c-3.2,0-5.2-1.6-5.6-4.6c-0.5-3.8-0.5-7.6,0-11.3c0.4-3,2.4-4.5,5.5-4.5c3.4-0.1,5.3,1.4,5.9,4.3
	c0.4,2,0.2,3.9,0.3,5.9C109.7,100.1,109.9,102,109.5,103.9z"/>
<path class="st0" d="M211.4,83.7c-7.7,0-15.4,0-23.2,0c-1.9,0-2.5,0.6-2.5,2.5c0,3.8,0,7.7,0,11.5s0,7.7,0,11.5c0,2,0.5,2.6,2.5,2.6
	c7.7,0,15.4,0,23,0c2,0,2.5-0.6,2.5-2.5c0-7.7,0-15.3,0-23C213.8,84.4,213.2,83.7,211.4,83.7z M205.5,103.8
	c-0.6,2.9-2.4,4.4-5.6,4.5c-3.2,0.1-5.4-1.4-5.8-4.3c-0.6-3.9-0.6-7.9,0-11.8c0.5-3,2.5-4.3,5.8-4.3c3.2,0,5,1.5,5.6,4.5
	c0.1,0.4,0.2,0.8,0.2,1.1c0,1.6,0,3.1,0,4.6C205.8,100,205.9,101.9,205.5,103.8z"/>
<path class="st0" d="M103.8,92c-1.1,0-1.2,0.8-1.2,1.6c0,1.5,0,3,0,4.5s0,3,0,4.5c0,0.8,0.2,1.5,1.2,1.6c1.1,0,1.2-0.8,1.2-1.6
	c0-3,0-5.9,0-8.9C105,92.9,104.9,92,103.8,92z"/>
<path class="st0" d="M199.8,92c-1.1,0-1.2,0.8-1.3,1.6c0,2.3,0,4.7,0,7c0,0.9-0.2,1.8,0.2,2.7c0.1,0.8,0.6,1,1.2,0.9
	c0.8-0.1,1-0.8,1-1.5c0-3.1,0-6.1,0-9.2C201,92.8,200.8,92,199.8,92z"/>
</svg>
