<?xml version="1.0" encoding="utf-8"?>
<!-- Generator: Adobe Illustrator 22.0.1, SVG Export Plug-In . SVG Version: 6.00 Build 0)  -->
<svg version="1.1" id="bodyenfit" xmlns="http://www.w3.org/2000/svg" xmlns:xlink="http://www.w3.org/1999/xlink" x="0px" y="0px"
	 viewBox="0 0 256.2 198.1" style="enable-background:new 0 0 256.2 198.1;" xml:space="preserve">
<style type="text/css">
	.st0{fill:#939598;}
	.st1{clip-path:url(#SVGID_2_);fill:url(#SVGID_3_);}
	.st2{fill:#124B8E;}
	.st3{fill:#EC2227;}
	.st4{fill:#2BACE2;}
	.st5{fill:#BA2025;}
	.st6{fill:#E01F26;}
	.st7{fill:#A61E22;}
	.st8{fill:#29B6E9;}
	.st9{clip-path:url(#SVGID_5_);fill:url(#SVGID_6_);}
	.st10{fill:#0498D1;}
	.st11{fill:#087EAD;}
	.st12{fill:#1F3769;}
	.st13{clip-path:url(#SVGID_8_);fill:#FFFFFF;}
	.st14{opacity:0.8;fill:#FFFFFF;}
	.st15{clip-path:url(#SVGID_10_);fill:url(#SVGID_11_);}
	.st16{fill:#FFFFFF;}
</style>
<polygon class="st0" points="144.5,58.2 128,82.9 111.7,58.2 68.3,58.2 108.6,117.6 147.3,117.6 188,58.2 188,58.2 "/>
<g>
	<g>
		<defs>
			<polygon id="SVGID_1_" points="144.5,58.2 128,82.9 111.7,58.2 68.3,58.2 108.6,117.6 147.3,117.6 188,58.2 188,58.2 			"/>
		</defs>
		<clipPath id="SVGID_2_">
			<use xlink:href="#SVGID_1_"  style="overflow:visible;"/>
		</clipPath>
		
			<linearGradient id="SVGID_3_" gradientUnits="userSpaceOnUse" x1="-621.9583" y1="189.9545" x2="-620.6848" y2="189.9545" gradientTransform="matrix(94 0 0 48.4585 58532.3398 -9117.0264)">
			<stop  offset="0" style="stop-color:#939598"/>
			<stop  offset="0.1966" style="stop-color:#F7F8F9"/>
			<stop  offset="0.3933" style="stop-color:#939598"/>
			<stop  offset="0.5337" style="stop-color:#F7F8F9"/>
			<stop  offset="0.6798" style="stop-color:#939598"/>
			<stop  offset="0.8595" style="stop-color:#F7F8F9"/>
			<stop  offset="1" style="stop-color:#949698"/>
		</linearGradient>
		<rect x="68.3" y="58.2" class="st1" width="119.7" height="59.3"/>
	</g>
</g>
<polygon class="st2" points="110.2,114.8 145.8,114.8 128,87.9 "/>
<polygon class="st3" points="110.2,61 73.6,61 110.2,114.8 128,87.9 "/>
<polygon class="st4" points="145.9,61 128,87.9 145.8,114.8 182.5,61 "/>
<polygon class="st5" points="111.6,112.7 77.4,63 73.6,61 110.2,114.8 "/>
<polygon class="st6" points="110.2,61 73.6,61 77.4,63 109.1,63 "/>
<polygon class="st7" points="109.1,63 110.2,61 128,87.9 126.7,89.8 "/>
<polygon class="st8" points="128,87.9 129.3,89.8 147,63 145.9,61 "/>
<g>
	<g>
		<defs>
			<polygon id="SVGID_4_" points="128,87.9 129.3,89.8 147,63 145.9,61 			"/>
		</defs>
		<clipPath id="SVGID_5_">
			<use xlink:href="#SVGID_4_"  style="overflow:visible;"/>
		</clipPath>
		
			<linearGradient id="SVGID_6_" gradientUnits="userSpaceOnUse" x1="-609.2466" y1="194.5644" x2="-607.9731" y2="194.5644" gradientTransform="matrix(14.9476 0 0 24.4707 9234.4297 -4685.7231)">
			<stop  offset="0" style="stop-color:#29B6E9"/>
			<stop  offset="5.615230e-03" style="stop-color:#29B6E9"/>
			<stop  offset="1" style="stop-color:#7DD3F7"/>
		</linearGradient>
		<rect x="128" y="61" class="st9" width="19" height="28.8"/>
	</g>
</g>
<polygon class="st10" points="178.7,63 182.5,61 145.9,61 147,63 "/>
<polygon class="st11" points="182.5,61 178.7,63 144.4,112.7 145.8,114.8 "/>
<polygon class="st12" points="144.4,112.7 111.6,112.7 110.2,114.8 145.8,114.8 "/>
<polygon class="st2" points="89.1,123 84.8,134 80.5,123 75.3,123 82.3,139.7 87.2,139.7 94.1,123 "/>
<rect x="106.1" y="122.9" class="st2" width="4.6" height="16.8"/>
<rect x="140.2" y="122.9" class="st2" width="4.6" height="16.8"/>
<polygon class="st2" points="121.2,126.6 118.7,135.3 116.1,126.6 111.3,126.6 115.6,139.7 121.4,139.7 125.7,126.6 "/>
<rect x="146.3" y="126.6" class="st2" width="4.6" height="13.1"/>
<rect x="146.3" y="122.9" class="st2" width="4.6" height="2.4"/>
<path class="st2" d="M161.5,126.6h-9v13.1h4.6v-10.4h3.4v10.4h4.6v-9.8C165.2,127.4,163.5,126.6,161.5,126.6"/>
<path class="st2" d="M130.5,137v-7.6h3.6v7.6H130.5 M135.4,139.7c2.3,0,3.4-1,3.4-3.1c0-1.8,0-6.7,0-6.7c0-2.7-1.8-3.2-3.4-3.2h-6
	c-1.7,0-3.4,0.5-3.4,3.2c0,0,0,5,0,6.7c0,2,1.1,3.1,3.4,3.1H135.4z"/>
<path class="st2" d="M100,137H96v-3.6h3.9V137 M104.6,129.9c0-2.7-1.7-3.3-3.9-3.3H94l-1,2.4h7v1.9h-4.7c-1.9,0-3.7,0.6-3.7,3.3
	c0,1.5,0,2.5,0,2.5c0,1.9,1.1,2.9,3.6,2.9c1.8,0,9.4,0,9.4,0V129.9z"/>
<path class="st2" d="M171.2,129.3h3.9v3.3h-3.9V129.3z M166.6,130.2v6.2c0,1.1,0.4,1.9,0.6,2.3c0.6,0.6,1.5,1.1,3.3,1.1h7.4l0.6-2.4
	h-7.4v-2.2h5c2,0,3.3-0.8,3.3-3.1c0-1.5,0-2.4,0-2.4c0-2.4-1.5-3.1-3.7-3.1c-1.1,0-3.2,0-5.2,0C168.2,126.6,166.6,127.6,166.6,130.2
	"/>
<polygon class="st0" points="467,58.2 450.5,82.9 434.2,58.2 390.8,58.2 431.1,117.6 469.8,117.6 510.5,58.2 510.5,58.2 "/>
<g>
	<g>
		<defs>
			<polygon id="SVGID_7_" points="467,58.2 450.5,82.9 434.2,58.2 390.8,58.2 431.1,117.6 469.8,117.6 510.5,58.2 510.5,58.2 			"/>
		</defs>
		<use xlink:href="#SVGID_7_"  style="overflow:visible;fill:#FFFFFF;"/>
		<clipPath id="SVGID_8_">
			<use xlink:href="#SVGID_7_"  style="overflow:visible;"/>
		</clipPath>
		<rect x="390.8" y="58.2" class="st13" width="119.7" height="59.3"/>
	</g>
</g>
<polygon class="st14" points="432.7,114.8 468.3,114.8 450.5,87.9 "/>
<polygon class="st14" points="432.7,61 396.1,61 432.7,114.8 450.5,87.9 "/>
<polygon class="st14" points="468.4,61 450.5,87.9 468.3,114.8 505,61 "/>
<polygon class="st5" points="434.1,112.7 399.9,63 396.1,61 432.7,114.8 "/>
<polygon class="st6" points="432.7,61 396.1,61 399.9,63 431.6,63 "/>
<polygon class="st7" points="431.6,63 432.7,61 450.5,87.9 449.2,89.8 "/>
<polygon class="st8" points="450.5,87.9 451.8,89.8 469.5,63 468.4,61 "/>
<g>
	<g>
		<defs>
			<polygon id="SVGID_9_" points="450.5,87.9 451.8,89.8 469.5,63 468.4,61 			"/>
		</defs>
		<clipPath id="SVGID_10_">
			<use xlink:href="#SVGID_9_"  style="overflow:visible;"/>
		</clipPath>
		
			<linearGradient id="SVGID_11_" gradientUnits="userSpaceOnUse" x1="-587.6712" y1="194.5644" x2="-586.3978" y2="194.5644" gradientTransform="matrix(14.9476 0 0 24.4707 9234.4297 -4685.7231)">
			<stop  offset="0" style="stop-color:#29B6E9"/>
			<stop  offset="5.615230e-03" style="stop-color:#29B6E9"/>
			<stop  offset="1" style="stop-color:#7DD3F7"/>
		</linearGradient>
		<rect x="450.5" y="61" class="st15" width="19" height="28.8"/>
	</g>
</g>
<polygon class="st10" points="501.2,63 505,61 468.4,61 469.5,63 "/>
<polygon class="st11" points="505,61 501.2,63 466.9,112.7 468.3,114.8 "/>
<polygon class="st12" points="466.9,112.7 434.1,112.7 432.7,114.8 468.3,114.8 "/>
<polygon class="st16" points="411.6,123 407.3,134 403,123 397.8,123 404.8,139.7 409.7,139.7 416.6,123 "/>
<rect x="428.6" y="122.9" class="st16" width="4.6" height="16.8"/>
<rect x="462.7" y="122.9" class="st16" width="4.6" height="16.8"/>
<polygon class="st16" points="443.7,126.6 441.2,135.3 438.6,126.6 433.8,126.6 438.1,139.7 443.9,139.7 448.2,126.6 "/>
<rect x="468.8" y="126.6" class="st16" width="4.6" height="13.1"/>
<rect x="468.8" y="122.9" class="st16" width="4.6" height="2.4"/>
<path class="st16" d="M484,126.6h-9v13.1h4.6v-10.4h3.4v10.4h4.6v-9.8C487.7,127.4,486,126.6,484,126.6"/>
<path class="st16" d="M453,137v-7.6h3.6v7.6H453 M457.9,139.7c2.3,0,3.4-1,3.4-3.1c0-1.8,0-6.7,0-6.7c0-2.7-1.8-3.2-3.4-3.2h-6
	c-1.7,0-3.4,0.5-3.4,3.2c0,0,0,5,0,6.7c0,2,1.1,3.1,3.4,3.1H457.9z"/>
<path class="st16" d="M422.5,137h-3.9v-3.6h3.9V137 M427.1,129.9c0-2.7-1.7-3.3-3.9-3.3h-6.6l-1,2.4h7v1.9h-4.7
	c-1.9,0-3.7,0.6-3.7,3.3c0,1.5,0,2.5,0,2.5c0,1.9,1.1,2.9,3.6,2.9c1.8,0,9.4,0,9.4,0V129.9z"/>
<path class="st16" d="M493.7,129.3h3.9v3.3h-3.9V129.3z M489.1,130.2v6.2c0,1.1,0.4,1.9,0.6,2.3c0.6,0.6,1.5,1.1,3.3,1.1h7.4
	l0.6-2.4h-7.4v-2.2h5c2,0,3.3-0.8,3.3-3.1c0-1.5,0-2.4,0-2.4c0-2.4-1.5-3.1-3.7-3.1c-1.1,0-3.2,0-5.2,0
	C490.7,126.6,489.1,127.6,489.1,130.2"/>
</svg>
