<?xml version="1.0" encoding="utf-8"?>
<!-- Generator: Adobe Illustrator 22.0.1, SVG Export Plug-In . SVG Version: 6.00 Build 0)  -->
<svg version="1.1" id="bodyenfit" xmlns="http://www.w3.org/2000/svg" xmlns:xlink="http://www.w3.org/1999/xlink" x="0px" y="0px"
	 viewBox="0 0 256.2 198.1" style="enable-background:new 0 0 256.2 198.1;" xml:space="preserve">
<style type="text/css">
	.st0{fill:#FFFFFF;}
</style>
<path class="st0" d="M75.6,89.8c-1.9-5.9-7-10.1-12.9-10.1s-11,4.2-12.9,10.2c1.7,1.4,6.1,4.2,12.9,4.2C69.3,94,73.9,91.1,75.6,89.8
	"/>
<path class="st0" d="M67.1,101.8c-0.6-1.5-2.3-2.6-4.5-2.6c-2.1,0-3.9,1.1-4.5,2.7c-6.1-1.2-9.2-4.9-9.2-4.9v11.4
	c0,0,4.7,4.9,13.7,4.9c8.6,0,13.7-4.9,13.7-4.9V96.9C76.4,96.9,73,100.6,67.1,101.8 M62.9,106.5c-1.8,0.1-3.4-3.3-3.4-4.4
	c0-1.4,1.9-2,3.4-2c1.5,0,3,0.9,3,1.8C65.8,102.9,64.8,106.4,62.9,106.5"/>
<path class="st0" d="M65.1,102c-0.4,0.3,0,1.5,0,1.5l0.3-0.9C65.6,102.3,65.5,101.8,65.1,102"/>
<path class="st0" d="M60.2,102c-0.4-0.3-0.5,0.3-0.3,0.6l0.2,0.9C60.2,103.6,60.6,102.3,60.2,102"/>
<path class="st0" d="M90,91.7v3.2h-0.9l1.6,5l1.5-5h-1v-3.2h5.6v3.2h-1l-3.5,9.5c-0.9,2.2-1.9,3.7-4.9,3.7c-1.1,0-1.9-0.2-2.5-0.3
	v-3c0.4,0.1,1.1,0.4,1.8,0.4c0.5,0,1.3-0.1,1.7-1c0.1-0.2,0.1-0.4,0.2-0.6l-3.3-8.7h-1v-3.2H90z"/>
<path class="st0" d="M108.1,99.3c-0.2,0.8-0.4,1.9-1.4,2.9c-1.1,1-2.5,1.3-3.9,1.3c-3.1,0-5.8-1.5-5.8-6c0-0.7,0-1.5,0.3-2.3
	c0.8-2.7,2.9-3.8,5.3-3.8c1.8,0,3.2,0.6,4.1,1.5c1.7,1.6,1.6,4.3,1.6,5.3h-7c0,0.9,0,2.5,1.5,2.5c1.2,0,1.4-1,1.4-1.5H108.1z
	 M104.2,96c0-0.3,0-0.6-0.1-0.9c-0.2-0.6-0.8-0.8-1.3-0.8c-1.3,0-1.4,1.3-1.4,1.8H104.2z"/>
<polygon class="st0" points="108.8,87.5 113.9,87.5 113.9,100 114.8,100 114.8,103.2 108.8,103.2 108.8,100 109.8,100 109.8,90.7 
	108.8,90.7 "/>
<polygon class="st0" points="115.2,87.5 120.3,87.5 120.3,100 121.2,100 121.2,103.2 115.2,103.2 115.2,100 116.2,100 116.2,90.7 
	115.2,90.7 "/>
<path class="st0" d="M124.4,92.1c1.1-0.6,2.2-0.7,3.2-0.7c4,0,5.9,2.4,5.9,6.1c0,0.9-0.1,1.7-0.4,2.6c-0.6,1.7-1.5,2.4-2.5,2.9
	c-0.9,0.4-2,0.6-3,0.6c-0.5,0-1.1,0-1.6-0.1c-0.9-0.2-1.9-0.5-2.7-1.3c-1.6-1.5-1.6-3.7-1.6-4.7C121.7,96.4,121.7,93.6,124.4,92.1
	 M127.6,94.5c-0.4,0-0.7,0.1-1,0.4c-0.7,0.7-0.7,1.9-0.7,2.5c0,0.6,0,1.4,0.3,2c0.2,0.4,0.6,0.9,1.3,0.9c1.6,0,1.6-2.1,1.6-2.9
	C129.2,96.7,129.2,94.5,127.6,94.5"/>
<polygon class="st0" points="133.8,91.7 139.2,91.7 139.2,94.9 138.3,94.9 139.2,99.3 141.2,91.7 145.5,91.7 147.4,99.3 148.2,94.9 
	147.4,94.9 147.4,91.7 152.4,91.7 152.4,94.9 151.5,94.9 149.4,103.2 145,103.2 143.1,95.5 141.1,103.2 136.8,103.2 134.7,94.9 
	133.8,94.9 "/>
<path class="st0" d="M159.3,87.5c1.6,0,3.5,0.1,4.6,1.3c0.7,0.7,1.1,1.9,1.1,2.9c0,1.4-0.6,2.2-1,2.5c-0.4,0.4-1,0.7-1.6,1
	c0.7,0.2,1.3,0.4,1.9,1c0.7,0.7,1.1,1.8,1.1,2.9c0,1.4-0.7,2.3-1.1,2.8c-1.2,1.3-2.9,1.3-4.7,1.3h-7.2V100l1.4,0v-9.3l-1.4,0v-3.2
	H159.3z M157.9,93.8c1.3,0,1.5,0,1.8,0c0.4-0.1,1.2-0.4,1.2-1.5c0-0.8-0.5-1.3-0.8-1.5c-0.4-0.2-0.6-0.2-2.2-0.2V93.8z M157.9,100
	h1.2c0.9,0,2.1,0,2.1-1.5c0-0.8-0.4-1.3-1-1.5c-0.4-0.2-0.6-0.2-2.4-0.2L157.9,100L157.9,100z"/>
<path class="st0" d="M171,91.7v8.3h1v3.2h-6.1V100h1v-5.1h-1v-3.2H171z M166.5,87.5h4.5v3h-4.5L166.5,87.5L166.5,87.5z"/>
<path class="st0" d="M176.9,93.7c0.2-0.6,0.6-2.1,2.8-2.1c0.5,0,0.7,0,1.1,0.1v3.7c-0.3-0.1-0.6-0.1-1-0.1c-0.8,0-1.5,0.3-1.9,0.7
	c-0.5,0.5-0.6,1.1-0.6,2.2l0,1.9h1.4v3.2h-6.3V100h1v-5.1h-1v-3.2h4.5L176.9,93.7z"/>
<path class="st0" d="M192.5,87.5V100h0.9v3.2h-4.7l-0.1-1.4c-0.2,0.2-0.3,0.5-0.5,0.7c-0.5,0.5-1.4,0.9-2.5,0.9
	c-1.1,0-2-0.4-2.8-1.1c-1-1-1.7-2.8-1.7-5.1c0-3.5,1.6-5.9,4.4-5.9c1.7,0,2.4,0.9,2.9,1.5v-2.2h-1v-3.2H192.5z M186.9,94.5
	c-1.4,0-1.6,1.7-1.6,3.1c0,0.7,0,2.8,1.5,2.8c1.3,0,1.6-1.5,1.6-3.1C188.4,96.3,188.3,94.5,186.9,94.5"/>
<path class="st0" d="M198.8,95.8c-2.4,0-4.6-1.9-4.6-4.6c0-2.7,2.1-4.6,4.6-4.6c2.7,0,4.6,2.1,4.6,4.6
	C203.4,93.8,201.4,95.8,198.8,95.8 M203,91.2c0-2.3-1.8-4.2-4.2-4.2c-2.4,0-4.2,1.9-4.2,4.2c0,2.3,1.9,4.2,4.2,4.2
	C201.2,95.4,203,93.6,203,91.2 M201.9,92.4c-0.1,0.7-0.4,1.8-1.4,1.8c-0.8,0-1-0.7-1.3-1.6c-0.2-0.9-0.3-1.1-0.9-1.1V93
	c0,0.4,0,0.4,0.7,0.4v0.8c-0.4,0-0.8,0-1.3,0c-0.4,0-0.9,0-1.4,0v-0.8c0.5-0.1,0.6-0.1,0.6-0.4v-3.6c0-0.4,0-0.4-0.6-0.5v-0.8
	c0.8,0,1,0,1.4,0c0.2,0,1.3,0,1.5,0c0.5,0,1,0,1.4,0.2c0.5,0.3,0.8,0.7,0.8,1.3c0,0.8-0.6,1.2-1,1.3c0,0-0.3,0.1-0.4,0.1
	c0.3,0.2,0.4,0.4,0.6,0.9l0.1,0.5c0,0.2,0,0.2,0.1,0.3c0,0,0,0.2,0.1,0.2c0.1,0,0.2,0,0.3-0.7L201.9,92.4z M198.3,90.5
	c0.6,0,0.7,0,0.9,0c0.7-0.1,0.7-0.7,0.7-0.8c0-0.7-0.7-0.7-0.9-0.7c-0.7,0-0.7,0-0.7,0.6V90.5z"/>
</svg>
