<?xml version="1.0" encoding="utf-8"?>
<!-- Generator: Adobe Illustrator 22.0.1, SVG Export Plug-In . SVG Version: 6.00 Build 0)  -->
<svg version="1.1" id="bodyenfit" xmlns="http://www.w3.org/2000/svg" xmlns:xlink="http://www.w3.org/1999/xlink" x="0px" y="0px"
	 viewBox="0 0 256.2 198.1" style="enable-background:new 0 0 256.2 198.1;" xml:space="preserve">
<style type="text/css">
	.st0{fill:#020202;}
	.st1{fill:#F36B2A;}
	.st2{fill:#FFFFFF;}
</style>
<g>
	<g>
		<path class="st0" d="M87.4,107.7h-3.6c-0.3,0-0.5-0.1-0.6-0.2c-0.1-0.1-0.2-0.3-0.2-0.6V91.9c0-0.3,0.1-0.5,0.2-0.6
			s0.3-0.2,0.6-0.2h7.1c2.1,0,3.5,0.4,4.3,1.2c0.8,0.8,1.1,1.9,1.1,3.2v3c0,1.3-0.4,2.4-1.1,3.2c-0.8,0.8-2.2,1.2-4.3,1.2h-2.7v3.8
			c0,0.3-0.1,0.5-0.2,0.6C88,107.6,87.7,107.7,87.4,107.7z M88.2,95.4v3.5h2.1c0.4,0,0.7-0.1,0.9-0.4c0.1-0.2,0.2-0.5,0.2-0.8v-1.2
			c0-0.3-0.1-0.6-0.2-0.8c-0.1-0.2-0.4-0.4-0.9-0.4L88.2,95.4L88.2,95.4z"/>
		<path class="st0" d="M103.2,107.7h-3.6c-0.3,0-0.5-0.1-0.6-0.2c-0.1-0.1-0.2-0.3-0.2-0.6V91.9c0-0.3,0.1-0.5,0.2-0.6
			s0.3-0.2,0.6-0.2h7.7c1.7,0,2.9,0.4,3.6,1.1c0.7,0.7,1,1.6,1,2.8V96c0,0.6-0.1,1.2-0.3,1.7s-0.5,0.8-1,1c0.8,0.1,1.5,0.4,2,1
			c0.5,0.6,0.8,1.4,0.8,2.3v4.9c0,0.3-0.1,0.5-0.2,0.6s-0.4,0.2-0.6,0.2h-3.6c-0.3,0-0.5-0.1-0.6-0.2s-0.2-0.3-0.2-0.6v-3.5
			c0-0.3-0.1-0.6-0.2-0.8c-0.1-0.2-0.4-0.2-0.7-0.2H104v4.5c0,0.3-0.1,0.5-0.2,0.6C103.7,107.6,103.5,107.7,103.2,107.7z M104,95.2
			v3h1.7c0.4,0,0.7-0.1,0.8-0.3c0.1-0.2,0.2-0.5,0.2-0.8v-0.8c0-0.3-0.1-0.6-0.2-0.8c-0.1-0.2-0.4-0.3-0.8-0.3
			C105.7,95.2,104,95.2,104,95.2z"/>
		<path class="st0" d="M129.9,103.3c0,0.7-0.1,1.3-0.3,1.9s-0.6,1.1-1.1,1.5c-0.5,0.4-1.3,0.7-2.2,1c-0.9,0.2-2.1,0.4-3.5,0.4
			c-1.4,0-2.6-0.1-3.6-0.4c-0.9-0.2-1.7-0.6-2.2-1c-0.5-0.4-0.9-0.9-1.1-1.5c-0.2-0.6-0.3-1.2-0.3-1.9v-7.9c0-0.7,0.1-1.3,0.3-1.9
			c0.2-0.6,0.6-1.1,1.1-1.5c0.5-0.4,1.3-0.7,2.2-1c0.9-0.2,2.1-0.4,3.6-0.4s2.6,0.1,3.5,0.4c0.9,0.2,1.7,0.6,2.2,1
			c0.5,0.4,0.9,0.9,1.1,1.5s0.3,1.2,0.3,1.9V103.3z M120.8,102.5c0,0.3,0.1,0.6,0.4,0.8c0.2,0.2,0.8,0.3,1.6,0.3s1.4-0.1,1.6-0.3
			c0.2-0.2,0.4-0.5,0.4-0.8v-6.2c0-0.3-0.1-0.6-0.4-0.8c-0.2-0.2-0.8-0.3-1.6-0.3c-0.8,0-1.4,0.1-1.6,0.3c-0.2,0.2-0.4,0.5-0.4,0.8
			V102.5z"/>
		<path class="st0" d="M137.1,107.7h-3.4c-0.3,0-0.5-0.1-0.6-0.2c-0.1-0.1-0.2-0.3-0.2-0.6V91.9c0-0.3,0.1-0.5,0.2-0.6
			c0.1-0.1,0.3-0.2,0.6-0.2h3.7c0.2,0,0.4,0,0.6,0.2c0.2,0.1,0.3,0.3,0.4,0.5l2.1,3.8c0.1,0.1,0.1,0.2,0.2,0.3
			c0,0.1,0.1,0.1,0.2,0.1h0.2c0.1,0,0.2,0,0.2-0.1c0-0.1,0.1-0.2,0.2-0.3l2.1-3.8c0.1-0.2,0.3-0.4,0.4-0.5s0.4-0.2,0.6-0.2h3.8
			c0.3,0,0.5,0.1,0.6,0.2c0.1,0.1,0.2,0.4,0.2,0.6v15c0,0.3-0.1,0.5-0.2,0.6c-0.1,0.1-0.4,0.2-0.6,0.2h-3.6c-0.3,0-0.5-0.1-0.6-0.2
			c-0.1-0.1-0.2-0.3-0.2-0.6v-8.1l-1.3,2.5c-0.1,0.3-0.3,0.4-0.5,0.6c-0.2,0.1-0.4,0.2-0.7,0.2h-0.9c-0.3,0-0.5-0.1-0.7-0.2
			s-0.4-0.3-0.5-0.6l-1.4-2.5v8.1c0,0.3-0.1,0.5-0.2,0.6C137.6,107.6,137.4,107.7,137.1,107.7z"/>
		<path class="st0" d="M166.5,103.3c0,0.7-0.1,1.3-0.3,1.9s-0.6,1.1-1.1,1.5c-0.5,0.4-1.3,0.7-2.2,1c-0.9,0.2-2.1,0.4-3.5,0.4
			c-1.4,0-2.6-0.1-3.6-0.4c-0.9-0.2-1.7-0.6-2.2-1c-0.5-0.4-0.9-0.9-1.1-1.5c-0.2-0.6-0.3-1.2-0.3-1.9v-7.9c0-0.7,0.1-1.3,0.3-1.9
			c0.2-0.6,0.6-1.1,1.1-1.5c0.5-0.4,1.3-0.7,2.2-1c0.9-0.2,2.1-0.4,3.6-0.4c1.4,0,2.6,0.1,3.5,0.4c0.9,0.2,1.7,0.6,2.2,1
			s0.9,0.9,1.1,1.5s0.3,1.2,0.3,1.9V103.3z M157.4,102.5c0,0.3,0.1,0.6,0.4,0.8c0.2,0.2,0.8,0.3,1.6,0.3c0.8,0,1.4-0.1,1.6-0.3
			c0.2-0.2,0.4-0.5,0.4-0.8v-6.2c0-0.3-0.1-0.6-0.4-0.8c-0.2-0.2-0.8-0.3-1.6-0.3c-0.8,0-1.4,0.1-1.6,0.3c-0.2,0.2-0.4,0.5-0.4,0.8
			L157.4,102.5L157.4,102.5z"/>
		<path class="st0" d="M180.5,107.7h-5.6c-1.9,0-3.4-0.4-4.3-1.1c-0.9-0.8-1.4-1.9-1.4-3.6v-7.2c0-1.6,0.5-2.8,1.4-3.6
			s2.4-1.2,4.3-1.2h5.6c0.3,0,0.5,0.1,0.6,0.2c0.1,0.1,0.2,0.4,0.2,0.6v2.8c0,0.3-0.1,0.5-0.2,0.6c-0.1,0.1-0.4,0.2-0.6,0.2h-4.6
			c-0.5,0-0.8,0.1-1.1,0.3c-0.2,0.2-0.4,0.5-0.4,0.9v5.5c0,0.4,0.1,0.7,0.4,0.8c0.2,0.2,0.6,0.3,1.1,0.3h4.6c0.3,0,0.5,0.1,0.6,0.2
			c0.1,0.1,0.2,0.4,0.2,0.6v2.7c0,0.3-0.1,0.5-0.2,0.6C181,107.6,180.8,107.7,180.5,107.7z"/>
		<path class="st0" d="M188.7,106.9c0,0.3-0.1,0.5-0.2,0.6c-0.1,0.1-0.4,0.2-0.6,0.2h-3.4c-0.3,0-0.5-0.1-0.6-0.2
			c-0.1-0.1-0.2-0.3-0.2-0.6v-6.1c0-0.5,0.1-1,0.2-1.6c0.2-0.6,0.4-1.3,0.7-2.1l2-5.2c0.1-0.3,0.2-0.5,0.4-0.6
			c0.2-0.1,0.4-0.2,0.8-0.2h6.2c0.3,0,0.5,0.1,0.7,0.2c0.2,0.1,0.3,0.3,0.4,0.6l2,5.2c0.3,0.8,0.5,1.5,0.7,2.1
			c0.2,0.6,0.2,1.1,0.2,1.6v6.1c0,0.3-0.1,0.5-0.2,0.6c-0.1,0.1-0.4,0.2-0.6,0.2h-3.5c-0.3,0-0.5-0.1-0.7-0.2s-0.2-0.3-0.2-0.6v-3.2
			h-4.1L188.7,106.9L188.7,106.9z M190,95.9l-1.1,3.5h3.6l-1.1-3.5c-0.1-0.1-0.1-0.2-0.2-0.3c-0.1-0.1-0.2-0.1-0.2-0.1h-0.6
			c-0.1,0-0.2,0-0.2,0.1C190.1,95.7,190.1,95.8,190,95.9z"/>
		<path class="st0" d="M207.7,107.7H204c-0.3,0-0.5-0.1-0.6-0.2c-0.1-0.1-0.2-0.3-0.2-0.6V95.5h-3.4c-0.3,0-0.5-0.1-0.6-0.2
			c-0.1-0.1-0.2-0.3-0.2-0.6v-2.8c0-0.3,0.1-0.5,0.2-0.6c0.1-0.1,0.3-0.2,0.6-0.2H212c0.3,0,0.5,0.1,0.6,0.2s0.2,0.4,0.2,0.6v2.8
			c0,0.3-0.1,0.5-0.2,0.6c-0.1,0.1-0.4,0.2-0.6,0.2h-3.4v11.3c0,0.3-0.1,0.5-0.2,0.6C208.2,107.6,208,107.7,207.7,107.7z"/>
	</g>
	<g>
		<path class="st1" d="M73.7,99.3c0-1.9,0-3.8,0-5.7c0-1.7-0.8-3.1-2.2-4c-0.9-0.6-1.8-1.1-2.8-1.6c-2.4-1.3-4.8-2.7-7.2-4.1
			c-1.4-0.8-2.9-0.9-4.4-0.2c-1.5,0.8-2.9,1.6-4.3,2.5c-1.9,1.1-3.8,2.2-5.7,3.2c-1.6,0.9-2.5,2.3-2.5,4.1c0,3.8,0,7.7,0,11.5
			c0,1.5,0.7,2.8,1.9,3.7c1,0.7,2,1.2,3,1.8c2.4,1.4,4.8,2.8,7.2,4.2c1.4,0.8,2.9,0.9,4.4,0.1c1.4-0.8,2.8-1.6,4.3-2.4
			c1.8-1,3.5-2.1,5.3-3.1c1.9-1,2.9-2.6,2.9-4.8C73.6,102.7,73.7,101,73.7,99.3z"/>
		<path class="st2" d="M66.3,94.7c-1.1-2.2-3-3.3-5.4-3.4c-1.6,0-3.2,0-4.9,0c-2.1,0-3.7,1.6-3.7,3.7c0,1.4,0,2.8,0,4.2
			c0,1.5,0,3,0,4.5c0,0.5,0.2,0.9,0.6,1.1c1.4,0.8,2.8,1.6,4.1,2.4c0.2,0.1,0.4,0.2,0.5,0.1c0.2-0.1,0.1-0.3,0.1-0.5
			c0-1.1,0-2.3,0-3.4c0-0.3,0-0.4,0.4-0.4c1,0,2.1,0,3.1,0c0.7,0,1.4-0.2,2.1-0.4c1.9-0.9,3.1-2.3,3.5-4.4
			C67,97.1,66.9,95.9,66.3,94.7z M60.8,98.3c-0.2,0-0.5,0-0.7,0c-0.2,0-0.4,0-0.7,0l0,0c-0.5,0-1,0-1.5,0c-0.2,0-0.2,0-0.2-0.2
			c0-0.6,0-1.2,0-1.7c0-0.2,0.1-0.2,0.2-0.2c1,0,1.9,0,2.9,0c0.7,0,1.1,0.5,1.1,1.1C61.9,97.8,61.4,98.3,60.8,98.3z"/>
	</g>
</g>
</svg>
