<?xml version="1.0" encoding="utf-8"?>
<!-- Generator: Adobe Illustrator 22.0.1, SVG Export Plug-In . SVG Version: 6.00 Build 0)  -->
<svg version="1.1" id="bodyenfit" xmlns="http://www.w3.org/2000/svg" xmlns:xlink="http://www.w3.org/1999/xlink" x="0px" y="0px"
	 viewBox="0 0 256.2 198.1" style="enable-background:new 0 0 256.2 198.1;" xml:space="preserve">
<style type="text/css">
	.st0{fill:#FFFFFF;}
</style>
<g>
	<g>
		<path class="st0" d="M59.5,96.1c-0.9-7.1-6.1-12.9-12.9-14.7L42,86.1c5.9,0,10.9,4.2,12.1,9.8c-4.9,0.6-9.3,3.1-12.1,7
			c-2.8-3.8-7.2-6.4-12.2-7C31,90.3,36,86.1,42,86.1l-4.7-4.7c-6.8,1.8-11.9,7.6-12.9,14.7c-0.1,0.7-0.1,1.5-0.1,2.3
			c0,1,0.1,2.1,0.3,3.1c1-0.3,2.1-0.4,3.3-0.4c0.7,0,1.4,0,2.1,0.2c4.2,0.7,7.6,3.5,9.2,7.2c0.3,0.7,0.5,1.4,0.7,2.1
			c0.2,0.9,0.3,1.8,0.3,2.8c0,0.9-0.1,1.7-0.3,2.5c0,0,0,0.1,0,0.1h4.1c0,0,0-0.1,0-0.1c-0.2-0.8-0.3-1.7-0.3-2.5
			c0-1,0.1-1.9,0.3-2.8c0.2-0.7,0.4-1.5,0.7-2.1c1.7-3.8,5.1-6.5,9.2-7.2c0.7-0.1,1.4-0.2,2.1-0.2c1.1,0,2.2,0.1,3.3,0.4
			c0.2-1,0.3-2.1,0.3-3.1C59.7,97.7,59.6,96.9,59.5,96.1z"/>
	</g>
</g>
<g>
	<path class="st0" d="M69,99.4c0-1.7,0.3-3.1,0.8-4.3c0.5-1.1,1.2-2,2-2.5c0.8-0.5,1.8-0.8,3-0.8c1.7,0,3.1,0.7,4.2,2
		c1.1,1.3,1.6,3.1,1.6,5.6c0,2.4-0.6,4.3-1.7,5.7c-1,1.2-2.4,1.8-4.1,1.8c-1.7,0-3.1-0.6-4.1-1.8C69.6,103.7,69,101.8,69,99.4z
		 M71.5,99.3c0,1.7,0.3,2.9,1,3.8c0.7,0.8,1.4,1.3,2.4,1.3c1,0,1.7-0.4,2.4-1.3c0.6-0.8,0.9-2.1,0.9-3.8c0-1.7-0.3-2.9-0.9-3.8
		c-0.6-0.8-1.4-1.2-2.4-1.2c-1,0-1.8,0.4-2.4,1.2C71.8,96.4,71.5,97.6,71.5,99.3z"/>
	<path class="st0" d="M81.9,101.9l2.4-0.3c0.3,1.9,1.1,2.8,2.6,2.8c0.7,0,1.3-0.2,1.7-0.6c0.4-0.4,0.6-0.8,0.6-1.4
		c0-0.3-0.1-0.6-0.2-0.8c-0.1-0.2-0.3-0.4-0.7-0.6c-0.3-0.1-1-0.4-2.2-0.7c-1-0.3-1.8-0.7-2.3-1c-0.5-0.3-0.9-0.8-1.1-1.4
		s-0.4-1.2-0.4-1.9c0-0.8,0.2-1.5,0.5-2.1c0.3-0.7,0.9-1.1,1.5-1.4c0.7-0.3,1.4-0.5,2.4-0.5c1.4,0,2.5,0.4,3.3,1.1
		c0.8,0.7,1.2,1.8,1.3,3.3l-2.4,0.1c-0.1-0.8-0.3-1.3-0.7-1.6c-0.3-0.3-0.8-0.5-1.5-0.5c-0.7,0-1.1,0.1-1.5,0.4
		c-0.3,0.3-0.5,0.6-0.5,1c0,0.4,0.2,0.7,0.5,1s1,0.6,2.2,0.9c1.2,0.3,2.1,0.7,2.6,1.1c0.5,0.4,1,0.9,1.2,1.5
		c0.3,0.6,0.4,1.4,0.4,2.2c0,1.3-0.4,2.3-1.2,3.2c-0.8,0.9-2,1.3-3.6,1.3C83.8,106.9,82.2,105.2,81.9,101.9z"/>
	<path class="st0" d="M104.4,106.6h-2.6l-1-3.3H96l-1,3.3h-2.6L97,92h2.5L104.4,106.6z M99.9,100.9l-1.7-5.4l-1.6,5.4H99.9z"/>
	<path class="st0" d="M105.7,106.6V92h2.4v6.5L113,92h3.2l-4.5,5.7l4.7,8.9h-3.1l-3.3-6.8l-2,2.4v4.4L105.7,106.6L105.7,106.6z"/>
	<path class="st0" d="M128.4,106.6h-2.6l-1-3.3H120l-1,3.3h-2.6L121,92h2.5L128.4,106.6z M124,100.9l-1.7-5.4l-1.6,5.4H124z"/>
	<path class="st0" d="M133.7,92h2.4v7.9c0,1.2,0,2,0.1,2.4c0.1,0.7,0.3,1.1,0.7,1.5c0.4,0.3,0.9,0.5,1.6,0.5c0.6,0,1-0.1,1.4-0.4
		c0.3-0.3,0.6-0.6,0.7-1s0.2-1.4,0.2-2.8v-8h2.4v7.7c0,2-0.1,3.4-0.3,4.2c-0.2,0.9-0.7,1.6-1.4,2.1c-0.7,0.5-1.7,0.8-2.9,0.8
		c-1.2,0-2.2-0.2-2.9-0.7s-1.2-1.1-1.5-1.9c-0.3-0.8-0.5-2.3-0.5-4.5L133.7,92L133.7,92z"/>
	<path class="st0" d="M145.8,106.6V92h2.4l4.9,9.7V92h2.2v14.6h-2.4l-4.8-9.5v9.5H145.8z"/>
	<path class="st0" d="M157.7,106.6V92h2.4v14.6H157.7z"/>
	<path class="st0" d="M165.5,106.6L161.2,92h2.6l3,10.8l2.9-10.8h2.6l-4.3,14.6H165.5z"/>
	<path class="st0" d="M173.6,106.6V92h8.9v2.4H176v3.2h6v2.4h-6v3.9h6.7v2.4L173.6,106.6L173.6,106.6z"/>
	<path class="st0" d="M184.7,106.6V92h5.1c1.3,0,2.2,0.1,2.8,0.4c0.6,0.3,1,0.7,1.4,1.4c0.3,0.7,0.5,1.4,0.5,2.3
		c0,1.1-0.3,2.1-0.8,2.8s-1.3,1.1-2.3,1.3c0.5,0.3,1,0.8,1.3,1.2c0.3,0.4,0.8,1.2,1.4,2.4l1.4,2.8h-2.9l-1.7-3.1
		c-0.6-1.1-1-1.9-1.3-2.1c-0.2-0.3-0.5-0.5-0.7-0.6c-0.3-0.1-0.7-0.2-1.2-0.2h-0.5v6.1C187.1,106.6,184.7,106.6,184.7,106.6z
		 M187.1,98.2h1.8c1.1,0,1.8,0,2.1-0.1c0.3-0.1,0.5-0.3,0.7-0.6c0.2-0.3,0.3-0.7,0.3-1.2s-0.1-0.8-0.3-1.1c-0.2-0.3-0.4-0.5-0.7-0.6
		c-0.2-0.1-0.9-0.1-2-0.1h-1.9L187.1,98.2L187.1,98.2z"/>
	<path class="st0" d="M196.1,101.9l2.4-0.3c0.3,1.9,1.1,2.8,2.6,2.8c0.7,0,1.3-0.2,1.7-0.6c0.4-0.4,0.6-0.8,0.6-1.4
		c0-0.3-0.1-0.6-0.2-0.8c-0.1-0.2-0.3-0.4-0.7-0.6c-0.3-0.1-1-0.4-2.2-0.7c-1-0.3-1.8-0.7-2.3-1s-0.9-0.8-1.1-1.4s-0.4-1.2-0.4-1.9
		c0-0.8,0.2-1.5,0.5-2.1c0.3-0.7,0.9-1.1,1.5-1.4c0.7-0.3,1.4-0.5,2.4-0.5c1.4,0,2.5,0.4,3.3,1.1c0.8,0.7,1.2,1.8,1.3,3.3l-2.4,0.1
		c-0.1-0.8-0.3-1.3-0.7-1.6s-0.8-0.5-1.5-0.5s-1.1,0.1-1.5,0.4c-0.3,0.3-0.5,0.6-0.5,1c0,0.4,0.2,0.7,0.5,1c0.3,0.3,1,0.6,2.2,0.9
		c1.2,0.3,2.1,0.7,2.6,1.1c0.5,0.4,1,0.9,1.2,1.5c0.3,0.6,0.4,1.4,0.4,2.2c0,1.3-0.4,2.3-1.2,3.2c-0.8,0.9-2,1.3-3.6,1.3
		C198.1,106.9,196.4,105.2,196.1,101.9z"/>
	<path class="st0" d="M207.8,106.6V92h2.4v14.6H207.8z"/>
	<path class="st0" d="M215.2,106.6V94.5h-3.5v-2.4h9.5v2.4h-3.5v12.1L215.2,106.6L215.2,106.6z"/>
	<path class="st0" d="M225.8,106.6v-6.1l-4.4-8.4h2.8l2.8,5.8l2.8-5.8h2.8l-4.4,8.4v6.1H225.8z"/>
</g>
</svg>
