<?xml version="1.0" encoding="utf-8"?>
<!-- Generator: Adobe Illustrator 22.0.1, SVG Export Plug-In . SVG Version: 6.00 Build 0)  -->
<svg version="1.1" id="bodyenfit" xmlns="http://www.w3.org/2000/svg" xmlns:xlink="http://www.w3.org/1999/xlink" x="0px" y="0px"
	 viewBox="0 0 256.2 198.1" style="enable-background:new 0 0 256.2 198.1;" xml:space="preserve">
<style type="text/css">
	.st0{fill:#FFFFFF;}
</style>
<g id="g10" transform="matrix(1.3333333,0,0,-1.3333333,0,400)">
	<g id="g12" transform="scale(0.1)">
		<path id="path14" class="st0" d="M641.9,1948.5h632.8v632.8H641.9V1948.5z M684.1,2539.1h548.4v-548.4H684.1V2539.1z"/>
		<path id="path16" class="st0" d="M750.5,2343.7c0,36.2,20.2,54.3,60.5,54.3c40.5,0,60.7-18.1,60.7-54.3v-34.6h-42.2v34.6
			c0,11.6-6.1,17.5-18.3,17.6c-12.3,0-18.5-5.9-18.5-17.6v-23.3c0-11.5,13.2-25.6,39.5-42.2c26.3-16.5,39.5-36.3,39.5-59.5v-32.7
			c0-36.1-20.2-54.1-60.5-54.1c-40.5,0-60.7,18-60.7,54.1v34.7h42.2v-34.7c0-11.6,6.2-17.4,18.5-17.4c12.2,0,18.3,5.8,18.3,17.4
			v29.4c0,12.5-13.2,27.1-39.5,43.7c-26.3,16.6-39.5,36.7-39.5,60.4V2343.7"/>
		<path id="path18" class="st0" d="M1018.9,2393.8v-36.7h-39.5V2136h-42.2v221.1h-39.5v36.7H1018.9"/>
		<path id="path20" class="st0" d="M1079.1,2393.8l27.4-72.6l27.3,72.6h42.5l-48.6-128.8l48.6-129h-42.5l-27.3,72.6l-27.4-72.6
			h-42.5l48.6,129l-48.6,128.8H1079.1"/>
	</g>
</g>
</svg>
