<?xml version="1.0" encoding="utf-8"?>
<!-- Generator: Adobe Illustrator 22.0.1, SVG Export Plug-In . SVG Version: 6.00 Build 0)  -->
<svg version="1.1" id="bodyenfit" xmlns="http://www.w3.org/2000/svg" xmlns:xlink="http://www.w3.org/1999/xlink" x="0px" y="0px"
	 viewBox="0 0 256.2 198.1" style="enable-background:new 0 0 256.2 198.1;" xml:space="preserve">
<style type="text/css">
	.st0{fill:#FFFFFF;}
</style>
<g>
	<g>
		<path class="st0" d="M94,110.4V91.3h8.6c3.3,0,5.4,2,5.4,4.9c0,2.4-1.6,4-3.4,4.4c2,0.3,3.7,2.4,3.7,4.7c0,3.1-2,5.2-5.6,5.2
			C102.8,110.4,94,110.4,94,110.4z M105.5,96.5c0-1.7-1.2-3.1-3.3-3.1h-5.8v6.2h5.8C104.3,99.5,105.5,98.2,105.5,96.5z M105.8,105
			c0-1.8-1.2-3.3-3.6-3.3h-5.9v6.6h5.9C104.5,108.2,105.8,107,105.8,105z"/>
		<path class="st0" d="M112.1,103V91.3h2.4v11.6c0,3.5,1.9,5.7,5.4,5.7s5.5-2.2,5.5-5.7V91.3h2.4v11.7c0,4.8-2.7,7.8-7.9,7.8
			C114.8,110.7,112.1,107.6,112.1,103z"/>
		<path class="st0" d="M137.1,110.4v-17H131v-2.1h14.6v2.1h-6.1v17H137.1z"/>
		<path class="st0" d="M148.5,110.4V91.3h2.4v17h8.9v2.1H148.5z"/>
		<path class="st0" d="M163.1,110.4V91.3h12.6v2.1h-10.2v6.2h10v2.1h-10v6.6h10.2v2.1L163.1,110.4L163.1,110.4z"/>
		<path class="st0" d="M190.6,110.4l-4.9-7.6h-3.9v7.6h-2.4V91.3h7.8c3.5,0,6.1,2.2,6.1,5.8c0,3.4-2.4,5.3-5,5.5l5.2,7.8H190.6z
			 M190.8,97c0-2.2-1.6-3.6-3.9-3.6h-5.1v7.3h5.1C189.2,100.7,190.8,99.2,190.8,97z"/>
	</g>
	<path class="st0" d="M84.2,81v22.5c0,5-4.1,9.1-9.1,9.1c-5,0-9.1-4.1-9.1-9.1V81h-4.5v22.5c0,4,1.8,7.6,4.5,10.1
		c2.4,2.2,5.6,3.5,9.1,3.5s6.7-1.4,9.1-3.5c2.8-2.5,4.5-6.1,4.5-10.1V81H84.2z"/>
	<path class="st0" d="M80,91.3v12.1c0,2.7-2.2,4.9-4.9,4.9s-4.9-2.2-4.9-4.9V91.3h-2.4v12.1c0,2.2,0.9,4.1,2.4,5.4
		c1.3,1.2,3,1.9,4.9,1.9s3.6-0.7,4.9-1.9c1.5-1.3,2.4-3.3,2.4-5.4V91.3C82.4,91.3,80,91.3,80,91.3z"/>
	<path class="st0" d="M68.8,83.5l3.5,2l-3.5,2L68.8,83.5 M67.7,81.5v7.9l6.9-4L67.7,81.5L67.7,81.5z"/>
	<path class="st0" d="M81.3,83.5v4l-3.5-2L81.3,83.5 M82.4,81.5l-6.9,4l6.9,4V81.5L82.4,81.5z"/>
</g>
</svg>
