<?xml version="1.0" encoding="utf-8"?>
<!-- Generator: Adobe Illustrator 22.0.1, SVG Export Plug-In . SVG Version: 6.00 Build 0)  -->
<svg version="1.1" id="bodyenfit" xmlns="http://www.w3.org/2000/svg" xmlns:xlink="http://www.w3.org/1999/xlink" x="0px" y="0px"
	 viewBox="0 0 256.2 198.1" style="enable-background:new 0 0 256.2 198.1;" xml:space="preserve">
<style type="text/css">
	.st0{opacity:0.4;fill:#FFFFFF;}
	.st1{fill:#FFFFFF;}
</style>
<g>
	<path class="st0" d="M44.3,116.7c11.1,0,20,0.8,20,1.8c0,1-8.9,1.8-20,1.8s-20-0.8-20-1.8C24.2,117.6,33.2,116.7,44.3,116.7"/>
	<polygon class="st1" points="24.2,80.9 64.3,80.9 64.3,111.9 59.2,111.9 59.2,107.9 60.2,107.9 60.2,84.8 28.2,84.8 28.2,107.9 
		47.6,107.9 47.6,111.9 24.2,111.9 	"/>
	<path class="st1" d="M31.6,95.8h6.8v9.2h-6.8V95.8z M50,87.9h6.8v26.4l-6.8,1V87.9z M40.8,92.2h6.8V105h-6.8V92.2z"/>
	<path class="st1" d="M93.5,108c-0.5,0.1-1,0.3-1.7,0.4c-0.6,0.1-1.3,0.3-1.9,0.4c-0.6,0.1-1.4,0.1-2,0.3c-0.6,0-1.4,0.1-2,0.1
		c-1.5,0-2.9-0.3-4.1-0.6c-1.1-0.5-2.2-1.1-3.1-1.9c-0.8-0.9-1.4-1.9-1.9-3.1c-0.4-1.1-0.6-2.6-0.6-4.1c0-1.5,0.1-2.9,0.5-4.1
		c0.4-1.3,0.9-2.3,1.7-3.1c0.8-0.9,1.5-1.5,2.6-1.9c1.1-0.5,2.3-0.8,3.7-0.8c0.8,0,1.4,0.1,1.9,0.3c0.6,0.1,1.1,0.4,1.8,0.6V82
		l5.2-0.9V108z M81.7,99.2c0,1.7,0.4,2.9,1.1,4c0.8,1,1.8,1.5,3.3,1.5c0.5,0,0.9,0,1.3,0s0.8-0.1,1-0.1V95c-0.4-0.3-0.8-0.4-1.3-0.5
		c-0.5-0.1-1-0.3-1.7-0.3C82.9,94.1,81.7,95.8,81.7,99.2"/>
	<path class="st1" d="M105.3,89.5c1.5,0,2.8,0.1,3.8,0.5s1.9,0.9,2.6,1.5c0.6,0.6,1,1.4,1.3,2.4c0.3,0.9,0.4,2,0.4,3.2v11
		c-0.8,0.1-1.8,0.4-3.2,0.6c-1.4,0.3-2.9,0.4-4.9,0.4c-1.1,0-2.3-0.1-3.3-0.4c-1-0.3-1.8-0.5-2.6-1c-0.8-0.5-1.3-1.1-1.7-1.9
		s-0.5-1.8-0.5-2.9s0.3-2,0.6-2.8s1-1.4,1.8-1.8c0.8-0.5,1.5-0.8,2.6-1c0.9-0.3,1.9-0.3,2.9-0.3c0.6,0,1.3,0,1.8,0.1
		c0.5,0,1,0.1,1.3,0.3v-0.5c0-0.9-0.3-1.7-0.8-2.2s-1.5-0.8-2.8-0.8c-0.9,0-1.8,0.1-2.7,0.3c-0.9,0.1-1.7,0.3-2.3,0.5L99,90.6
		c0.3-0.1,0.6-0.3,1.1-0.3c0.5-0.1,1-0.3,1.5-0.3c0.5-0.3,1.1-0.4,1.8-0.4C104,89.5,104.6,89.5,105.3,89.5 M105.7,105
		c0.5,0,1,0,1.5,0c0.5,0,0.9,0,1.1-0.1v-4c-0.3,0-0.5-0.1-1-0.1c-0.4,0-0.8-0.1-1.1-0.1c-0.5,0-1,0-1.4,0.1c-0.4,0-0.8,0.1-1.1,0.4
		c-0.4,0.1-0.6,0.4-0.8,0.6c-0.3,0.3-0.3,0.6-0.3,1c0,0.8,0.3,1.4,0.9,1.7C104,104.9,104.8,105,105.7,105"/>
	<path class="st1" d="M118,85.3l5.2-0.8V90h6.4v4.3h-6.4v6.5c0,1.1,0.3,2,0.6,2.7c0.4,0.6,1.1,1,2.4,1c0.5,0,1.1,0,1.8-0.1
		c0.6-0.1,1.1-0.3,1.7-0.4l0.8,4.1c-0.6,0.3-1.4,0.5-2.2,0.6s-1.8,0.3-2.9,0.3c-1.4,0-2.7-0.1-3.6-0.6c-1-0.3-1.8-0.9-2.3-1.5
		c-0.5-0.6-1-1.5-1.1-2.6c-0.3-1-0.4-2-0.4-3.3C118,101,118,85.3,118,85.3z"/>
	<path class="st1" d="M139.9,89.5c1.5,0,2.8,0.1,4,0.5c1,0.4,1.9,0.9,2.6,1.5c0.6,0.6,1,1.4,1.3,2.4c0.3,0.9,0.4,2,0.4,3.2v11
		c-0.8,0.1-1.8,0.4-3.2,0.6c-1.4,0.3-2.9,0.4-4.9,0.4c-1.1,0-2.3-0.1-3.3-0.4c-1-0.3-1.8-0.5-2.6-1c-0.8-0.5-1.3-1.1-1.7-1.9
		s-0.5-1.8-0.5-2.9s0.3-2,0.6-2.8s1-1.4,1.8-1.8c0.8-0.5,1.5-0.8,2.6-1c0.9-0.3,1.9-0.3,2.9-0.3c0.6,0,1.3,0,1.8,0.1
		c0.5,0,1,0.1,1.3,0.3v-0.5c0-0.9-0.3-1.7-0.8-2.2c-0.5-0.5-1.5-0.8-2.8-0.8c-0.9,0-1.8,0.1-2.7,0.3c-0.9,0.1-1.7,0.3-2.3,0.5
		l-0.6-4.2c0.3-0.1,0.6-0.3,1.1-0.3c0.5-0.1,1-0.3,1.5-0.3c0.5-0.3,1-0.4,1.7-0.4C138.7,89.5,139.4,89.5,139.9,89.5 M140.4,105
		c0.5,0,1,0,1.5,0s0.9,0,1.1-0.1v-4c-0.3,0-0.5-0.1-1-0.1c-0.4,0-0.8-0.1-1.1-0.1c-0.5,0-1,0-1.4,0.1c-0.4,0-0.8,0.1-1.1,0.4
		c-0.4,0.1-0.6,0.4-0.8,0.6c-0.1,0.3-0.3,0.6-0.3,1c0,0.8,0.3,1.4,0.9,1.7C138.6,104.9,139.4,105,140.4,105"/>
	<path class="st1" d="M163.9,98c-0.5,1.8-1,3.6-1.5,5.4s-1.1,3.6-1.7,5.4h-4.1c-0.4-1-0.9-2.2-1.4-3.6c-0.5-1.4-1-2.8-1.5-4.5
		s-1-3.3-1.7-5.1c-0.5-1.8-1.1-3.6-1.7-5.5h5.6c0.1,0.9,0.4,1.8,0.6,2.8c0.3,1,0.5,2,0.8,3.1c0.3,1,0.5,2.2,0.8,3.2
		c0.3,1,0.5,2.2,0.9,3.1c0.3-1,0.6-2,0.9-3.2c0.3-1.1,0.6-2.2,0.9-3.2c0.3-1,0.5-2,0.8-3.1c0.3-1,0.5-1.9,0.6-2.8h3.8
		c0.1,0.9,0.4,1.8,0.6,2.8c0.3,1,0.5,2,0.8,3.1c0.3,1,0.5,2.2,0.8,3.2c0.3,1.1,0.6,2.2,0.9,3.2c0.3-1,0.5-2,0.9-3.1
		c0.3-1,0.5-2.2,0.8-3.2c0.3-1,0.5-2,0.8-3.1c0.3-1,0.4-1.9,0.6-2.8h5.5c-0.5,1.8-1,3.7-1.7,5.5c-0.5,1.8-1.1,3.6-1.7,5.1
		c-0.5,1.7-1,3.1-1.5,4.5s-1,2.6-1.4,3.6h-4.1c-0.6-1.8-1.1-3.6-1.8-5.4C164.9,101.5,164.4,99.7,163.9,98"/>
	<path class="st1" d="M178.9,99.5c0-1.7,0.3-3.1,0.8-4.3c0.5-1.3,1.1-2.3,2-3.1c0.8-0.8,1.8-1.4,2.8-1.9c1-0.4,2.2-0.6,3.3-0.6
		c2.7,0,4.7,0.8,6.3,2.4s2.3,4,2.3,7.1c0,0.3,0,0.6,0,1s0,0.6-0.1,1h-12c0.1,1.1,0.6,1.9,1.5,2.6c0.9,0.6,2,1,3.6,1
		c1,0,1.9-0.1,2.8-0.3c0.9-0.1,1.7-0.4,2.3-0.6l0.8,4.3c-0.3,0.1-0.6,0.3-1.1,0.4c-0.5,0.1-1,0.3-1.5,0.4c-0.6,0.1-1.1,0.3-1.9,0.3
		c-0.6,0.1-1.3,0.1-2,0.1c-1.7,0-3.2-0.3-4.3-0.8c-1.3-0.5-2.3-1.1-3.1-2s-1.4-1.9-1.8-3.1C179.2,102.2,178.9,100.9,178.9,99.5
		 M191.4,97.4c0-0.5-0.1-0.9-0.3-1.3c-0.1-0.4-0.4-0.8-0.6-1.1c-0.3-0.4-0.6-0.6-1-0.8c-0.4-0.3-0.9-0.4-1.5-0.4s-1.1,0.1-1.5,0.3
		c-0.4,0.3-0.8,0.5-1,0.8c-0.3,0.4-0.5,0.8-0.6,1.1c-0.1,0.4-0.3,0.9-0.4,1.3h7V97.4z"/>
	<path class="st1" d="M207.3,89.5c1.5,0,2.8,0.1,4,0.5c1,0.4,1.9,0.9,2.6,1.5c0.6,0.6,1,1.4,1.3,2.4c0.3,0.9,0.4,2,0.4,3.2v11
		c-0.8,0.1-1.8,0.4-3.2,0.6c-1.4,0.3-2.9,0.4-4.9,0.4c-1.1,0-2.3-0.1-3.3-0.4c-1-0.3-1.8-0.5-2.6-1c-0.8-0.5-1.3-1.1-1.7-1.9
		c-0.4-0.8-0.5-1.8-0.5-2.9s0.3-2,0.6-2.8s1-1.4,1.8-1.8c0.8-0.5,1.5-0.8,2.6-1c0.9-0.3,1.9-0.3,2.9-0.3c0.6,0,1.3,0,1.8,0.1
		c0.5,0,1,0.1,1.3,0.3v-0.5c0-0.9-0.3-1.7-0.8-2.2c-0.5-0.5-1.5-0.8-2.8-0.8c-0.9,0-1.8,0.1-2.7,0.3c-0.9,0.1-1.7,0.3-2.3,0.5
		l-0.6-4.2c0.3-0.1,0.6-0.3,1.1-0.3c0.5-0.1,1-0.3,1.5-0.3c0.5-0.1,1.1-0.1,1.7-0.3C206.1,89.5,206.6,89.5,207.3,89.5 M207.8,105
		c0.5,0,1,0,1.5,0s0.9,0,1.1-0.1v-4c-0.3,0-0.5-0.1-1-0.1c-0.4,0-0.8-0.1-1.1-0.1c-0.5,0-1,0-1.4,0.1c-0.4,0-0.8,0.1-1.1,0.4
		c-0.4,0.1-0.6,0.4-0.8,0.6c-0.1,0.3-0.3,0.6-0.3,1c0,0.8,0.3,1.4,0.9,1.7C206,104.9,206.7,105,207.8,105"/>
	<path class="st1" d="M231.5,94.8c-0.5-0.1-1-0.3-1.7-0.4c-0.6-0.1-1.3-0.3-2-0.3c-0.4,0-0.8,0-1.1,0.1c-0.5,0-0.8,0.1-1,0.3v14.3
		h-5.2V91.1c0.9-0.4,2-0.6,3.3-0.9c1.3-0.3,2.7-0.4,4.3-0.4c0.3,0,0.6,0,1,0c0.4,0,0.8,0.1,1.1,0.1c0.4,0,0.8,0.1,1.1,0.3
		c0.4,0.1,0.8,0.1,1,0.3L231.5,94.8z"/>
</g>
</svg>
