<?xml version="1.0" encoding="utf-8"?>
<!-- Generator: Adobe Illustrator 22.0.1, SVG Export Plug-In . SVG Version: 6.00 Build 0)  -->
<svg version="1.1" id="bodyenfit" xmlns="http://www.w3.org/2000/svg" xmlns:xlink="http://www.w3.org/1999/xlink" x="0px" y="0px"
	 viewBox="0 0 256.2 198.1" style="enable-background:new 0 0 256.2 198.1;" xml:space="preserve">
<style type="text/css">
	.st0{fill:#FFFFFF;}
</style>
<g>
	<path class="st0" d="M88.2,112.8c-4.1,0.9-6.5,1.3-9.8,1.3c-12.9,0-21.8-8.2-21.8-20.2c0-5.9,2.2-11,6.4-14.8
		c4-3.6,8.5-5.2,15.2-5.2c2.8,0,5.6,0.3,8.1,0.9c1.9,0.5,3.1,0.9,5.8,2.1L90.4,83c-1.4-0.5-2.5-0.9-3.2-1.1c-2.8-0.9-5.5-1.4-8-1.4
		c-8.7,0-14.7,5.3-14.7,13c0,7.9,6.6,14,15.3,14c1.8,0,2.8-0.2,5.1-0.8V96h7.4v15.9C90.4,112.2,89.1,112.5,88.2,112.8z"/>
	<path class="st0" d="M104.3,122.7c-0.9,1.5-1.6,2.5-3.4,4.9l-5.2-3.6c1.6-2,2.2-2.9,2.9-4.6c1.1-2.4,1.5-4.8,1.5-8V86h7v30.7
		C106,119.7,105.4,120.9,104.3,122.7z M103.6,80.9c-2.2,0-3.9-2.1-3.9-4.8s1.8-4.8,3.9-4.8s3.9,2.1,3.9,4.8S105.8,80.9,103.6,80.9z"
		/>
	<path class="st0" d="M135.8,113.7h-1.5c-3.5,0-4.6-0.6-5.9-3c-2.6,2.3-4.9,3.3-7.6,3.3c-4.6,0-7.9-3.1-7.9-7.4
		c0-0.9,0.2-1.9,0.5-2.8c0.9-2.5,2.6-3.8,6.6-5l7.8-2.2v-2.3c0-2.9-1.1-4.3-3.3-4.3c-2.1,0-3.8,1.1-3.8,2.5c0,0.2,0.1,0.4,0.2,0.7
		l-6.7,1.5c-0.3-0.8-0.4-1.1-0.4-1.9c0-4.8,4.2-7.6,11.6-7.6c6.5,0,9.5,2.7,9.5,8.7v11.4c0,2.5,0.3,2.9,2.2,3.1L135.8,113.7z
		 M127.7,101.1l-7,2.3c-0.4,1.1-0.5,1.6-0.5,2.3c0,1.8,1.1,2.8,2.8,2.8c0.9,0,1.9-0.3,2.9-0.8c0.5-0.2,0.8-0.5,1.8-1.2
		C127.7,106.5,127.7,101.1,127.7,101.1z"/>
	<path class="st0" d="M142.4,113.3V70.5h7v42.8H142.4z"/>
	<path class="st0" d="M173.4,113.3v-3.7c-1,1.6-1.5,2.1-2.8,2.9c-1.6,1-3.3,1.5-5.1,1.5c-6.5,0-11.2-5.8-11.2-13.6
		c0-8.5,5.8-15.3,13-15.3c0.8,0,1.6,0.1,2.4,0.3c1.5,0.4,2.1,0.6,3.6,1.6V70.5h7v42.8H173.4z M173.4,97c0-1.5-0.2-2.9-0.4-3.5
		c-0.5-1.5-2.4-2.5-4.6-2.5c-3.9,0-6.8,3.8-6.8,9c0,4.9,2.3,8.4,5.6,8.4c2.2,0,4.3-1.5,6.1-4.1L173.4,97L173.4,97z"/>
</g>
<g>
	<path class="st0" d="M197.3,86.2c-4.3,0-7.8-3.5-7.8-7.8c0-4.3,3.5-7.8,7.8-7.8c4.3,0,7.8,3.5,7.8,7.8
		C205.2,82.7,201.6,86.2,197.3,86.2z M197.3,72.3c-3.3,0-6,2.7-6,6c0,3.3,2.7,6,6,6c3.3,0,6-2.7,6-6C203.4,75,200.7,72.3,197.3,72.3
		z M200.1,82.4c-0.7,0.4-1.6,0.6-2.5,0.6c-2.8,0-4.7-1.8-4.7-4.5c0-2.8,1.9-4.7,4.7-4.7c0.5,0,1,0.1,1.4,0.2
		c0.5,0.2,0.9,0.3,1.6,0.8l-1,1.5c-0.8-0.4-1.3-0.6-2-0.6c-1.5,0-2.5,1-2.5,2.7c0,1.7,0.9,2.8,2.5,2.8c0.7,0,1-0.1,2.1-0.7l0.9,1.5
		C200.4,82.2,200.3,82.3,200.1,82.4z"/>
</g>
</svg>
