<?xml version="1.0" encoding="utf-8"?>
<!-- Generator: Adobe Illustrator 23.1.1, SVG Export Plug-In . SVG Version: 6.00 Build 0)  -->
<svg version="1.1" id="Capa_1" xmlns="http://www.w3.org/2000/svg" xmlns:xlink="http://www.w3.org/1999/xlink" x="0px" y="0px"
	 viewBox="0 0 485.2 485.2" style="enable-background:new 0 0 485.2 485.2;" xml:space="preserve">
<style type="text/css">
	.st0{fill:#FFFFFF;}
</style>
<path class="st0" d="M297.1,246.6l-11.3-11.3l11.3-11.3l117-117c11.9-11.9,11.9-31.3,0-43.2c-5.7-5.7-13.4-8.9-21.6-8.9
	c-8.2,0-15.9,3.2-21.6,8.9l-117,117l-11.3,11.3l-11.3-11.3l-117-117c-5.7-5.7-13.4-8.9-21.6-8.9c-8.2,0-15.9,3.2-21.6,8.9
	c-11.9,11.9-11.9,31.3,0,43.2l117,117l11.3,11.3l-11.3,11.3l-117,117c-11.9,11.9-11.9,31.3,0,43.2c5.7,5.7,13.4,8.9,21.6,8.9
	c8.2,0,15.9-3.2,21.6-8.9l117-117l11.3-11.3l11.3,11.3l117,117c5.7,5.7,13.4,8.9,21.6,8.9c8.2,0,15.9-3.2,21.6-8.9
	c11.9-11.9,11.9-31.3,0-43.2L297.1,246.6z"/>
</svg>
