<?xml version="1.0" encoding="utf-8"?>
<!-- Generator: Adobe Illustrator 23.0.6, SVG Export Plug-In . SVG Version: 6.00 Build 0)  -->
<svg version="1.1" id="Layer_1" xmlns="http://www.w3.org/2000/svg" xmlns:xlink="http://www.w3.org/1999/xlink" x="0px" y="0px"
	 viewBox="0 0 168.5 35.8" style="enable-background:new 0 0 168.5 35.8;" xml:space="preserve">
<style type="text/css">
	.st0{fill:#00CE8F;}
</style>
<path class="st0" d="M21.1,17c0.6-0.3,1-0.5,1.3-0.6c0.2-0.1,0.7-0.4,1.3-0.9c1.8-1.4,2.7-3.4,2.7-6.2c0-2.3-0.8-4.4-2.4-6.2
	c-0.9-1-2.2-1.8-3.9-2.3C18.2,0.3,16.2,0,13.8,0H0v35.4h15.5c4.9,0,8.3-1.1,10.2-3.3c1.7-1.9,2.5-4.1,2.5-6.5c0-2.2-0.6-4.1-2-5.6
	C25,18.5,23.3,17.5,21.1,17 M7.9,6.7h3.8c2.3,0,4,0.3,5,0.8c1,0.5,1.5,1.5,1.5,3.1c0,1.6-0.5,2.6-1.6,3.1c-1.1,0.5-2.7,0.7-4.9,0.7
	H7.9V6.7z M18.4,27.9c-1.1,0.6-2.8,0.8-5.1,0.8H7.9v-8.2h4.7c2.6,0,4.6,0.3,5.7,0.8c1.2,0.5,1.8,1.6,1.8,3.2
	C20.1,26.2,19.5,27.3,18.4,27.9"/>
<path class="st0" d="M52.2,10.4c-2-1.8-4.4-2.7-7.1-2.7c-3.5,0-6.6,1.3-9.3,3.8c-2.7,2.5-4,5.9-4,10.2s1.3,7.7,3.9,10.3
	c2.6,2.6,5.6,3.9,9.1,3.9c2.8,0,5.2-0.9,7.4-2.6v2.2h7.6V8.2h-7.6L52.2,10.4L52.2,10.4z M50.5,27.3c-1.2,1.4-2.7,2.1-4.5,2.1
	c-1.8,0-3.3-0.7-4.6-2.1c-1.3-1.4-2-3.2-2-5.4c0-2.2,0.6-4.1,1.9-5.5c1.3-1.5,2.8-2.2,4.6-2.2c1.8,0,3.3,0.7,4.5,2.2
	c1.2,1.5,1.8,3.3,1.8,5.5C52.3,24.1,51.7,25.9,50.5,27.3"/>
<polygon class="st0" points="72.9,0 65.3,0 65.3,35.4 72.9,35.4 72.9,28 72.9,18.2 "/>
<polygon class="st0" points="73.8,21.9 82.3,8.1 91.8,8.1 83.4,21.9 91.8,35.4 82.3,35.4 "/>
<polygon class="st0" points="104.4,0 96.9,0 96.9,35.4 104.4,35.4 104.4,28 104.4,18.2 "/>
<polygon class="st0" points="105.4,21.9 113.8,8.1 123.4,8.1 114.9,21.9 123.4,35.4 113.8,35.4 "/>
<path class="st0" d="M145.8,8.2v14.7c0,2.1-0.6,3.7-1.7,4.8c-1.1,1.1-2.4,1.6-4,1.6c-3.1,0-4.6-2.1-4.6-6.3V8.2H128v16.5
	c0,3.7,1,6.5,3,8.3c2,1.9,4.5,2.8,7.5,2.8c3,0,5.4-1.3,7.3-4v3.6h7.6V8.2H145.8z"/>
<path class="st0" d="M160.2,31.6c0-2.3,1.8-4.2,4.1-4.2c2.3,0,4.1,1.8,4.2,4c0,2.4-1.8,4.3-4.1,4.3C162.1,35.8,160.3,34,160.2,31.6"
	/>
</svg>
