<?xml version="1.0" encoding="utf-8"?>
<!-- Generator: Adobe Illustrator 23.0.6, SVG Export Plug-In . SVG Version: 6.00 Build 0)  -->
<svg version="1.1" id="Layer_1" xmlns="http://www.w3.org/2000/svg" xmlns:xlink="http://www.w3.org/1999/xlink" x="0px" y="0px"
	 viewBox="0 0 544.7 200" style="enable-background:new 0 0 544.7 200;" xml:space="preserve">
<style type="text/css">
	.st0{fill-rule:evenodd;clip-rule:evenodd;fill:#5152A3;}
	.st1{fill:#EABE2C;}
	.st2{fill:#FFFFFF;}
	.st3{fill:url(#SVGID_1_);}
	.st4{fill:url(#SVGID_2_);}
	.st5{fill:#33334C;}
</style>
<circle class="st0" cx="100" cy="100" r="100"/>
<g>
	<circle class="st1" cx="66.5" cy="53.9" r="11.8"/>
	<circle class="st2" cx="133.5" cy="53.9" r="11.8"/>
	<g>
		<g>
			<linearGradient id="SVGID_1_" gradientUnits="userSpaceOnUse" x1="43.8919" y1="97.633" x2="85.4124" y2="132.4728">
				<stop  offset="0" style="stop-color:#EABE2C"/>
				<stop  offset="0.3364" style="stop-color:#EABE2C"/>
				<stop  offset="0.6267" style="stop-color:#E7BD2C"/>
				<stop  offset="0.7347" style="stop-color:#E1B82B"/>
				<stop  offset="0.8123" style="stop-color:#D8B129"/>
				<stop  offset="0.8753" style="stop-color:#CBA727"/>
				<stop  offset="0.9295" style="stop-color:#BA9923"/>
				<stop  offset="0.9767" style="stop-color:#A5881D"/>
				<stop  offset="1" style="stop-color:#987E19"/>
			</linearGradient>
			<path class="st3" d="M100,109.2c-1.5,0-4.8-1.6-6.5-4c-2-3-7.7-12.1-10.3-16.2c-2.2-3.4-7-12.7-15.7-12.7
				c-6.4,0-7.9,1.7-10.9,6.8c-3.5,5.9-4.5,19.6-5.2,33.1c-0.6,12.2,0,19.1,0.4,23.3c0.4,4.7,3.6,18.3,9.3,18.3c5.7,0,7.3-10.3,8-15
				c0.9-5.6,1.7-14.3,2-18.9c0.3-4.6,1.9-10.3,4.9-10.3c1.4,0,2.8,1,4.4,2.6c0,0,0,0,0,0c0.2,0.2,0.4,0.5,0.7,0.7
				c1.6,1.5,3.2,2.1,5.8,2.5c3,0.5,4.5,0.6,8.5-1.2c1.9-0.8,3.2-2,4.3-3.3c1.2-1.4,2-2.8,2.8-4c0.9-1.4,3.1-4.8,4.5-7.1
				c-0.3,0.5-0.6,0.9-0.8,1.3C104.8,107.6,101.5,109.2,100,109.2z"/>
			<linearGradient id="SVGID_2_" gradientUnits="userSpaceOnUse" x1="107.9259" y1="102.6437" x2="108.1956" y2="102.87">
				<stop  offset="0" style="stop-color:#EABE2C"/>
				<stop  offset="0.3364" style="stop-color:#EABE2C"/>
				<stop  offset="0.6267" style="stop-color:#E7BD2C"/>
				<stop  offset="0.7347" style="stop-color:#E1B82B"/>
				<stop  offset="0.8123" style="stop-color:#D8B129"/>
				<stop  offset="0.8753" style="stop-color:#CBA727"/>
				<stop  offset="0.9295" style="stop-color:#BA9923"/>
				<stop  offset="0.9767" style="stop-color:#A5881D"/>
				<stop  offset="1" style="stop-color:#987E19"/>
			</linearGradient>
			<path class="st4" d="M107.3,103.9c0.4-0.7,1-1.5,1.5-2.3C108.8,101.6,108.2,102.6,107.3,103.9z"/>
		</g>
	</g>
	<path class="st2" d="M148.5,116.3c-0.6-13.5-1.7-27.2-5.2-33.1c-3-5.1-4.5-6.8-10.9-6.8c-8.7,0-13.5,9.2-15.7,12.7
		c-1.9,2.9-5.4,8.6-7.9,12.6c-0.6,0.9-1.1,1.7-1.5,2.3c-1.5,2.3-3.7,5.7-4.5,7.1c-0.7,1.2-1.6,2.6-2.8,4c-1.1,1.3-2.5,2.4-4.3,3.3
		c-4,1.8-5.5,1.7-8.5,1.2c-2.7-0.4-4.3-1-5.8-2.5c1.8,1.9,3.8,4.4,6,7c4.3,4.9,8.9,7.1,12.1,7.1c0.2,0,0.4,0,0.6,0
		c0.2,0,0.4,0,0.6,0c3.2,0,7.8-2.2,12.1-7.1c2.7-3,4.9-6,7-7.9c1.5-1.4,2.9-2.3,4.1-2.3c3,0,4.6,5.6,4.9,10.3
		c0.3,4.6,1.1,13.3,2,18.9c0.8,4.7,2.3,15,8,15c5.7,0,8.9-13.6,9.3-18.3C148.5,135.4,149.1,128.5,148.5,116.3z"/>
	<path class="st1" d="M51.9,139.6c0.4,4.7,3.6,18.3,9.3,18.3s7.3-10.3,8-15c0.9-5.6,1.7-14.3,2-18.9c0.2-2.6,0.7-5.6,1.8-7.6H51.5
		C50.9,128.5,51.5,135.4,51.9,139.6z"/>
	<path class="st1" d="M107.3,103.9c0.4-0.7,1-1.5,1.5-2.3C108.8,101.6,108.2,102.6,107.3,103.9z"/>
</g>
<g>
	<path class="st5" d="M301.2,86.9h-9.7V60l0.5-15.1h-0.2l-14.3,42h-8.8l-14.2-42h-0.2l0.5,15.1v26.9H245V35.3h15.6l9.3,28.2
		l3.3,11.7h0.2l3.4-11.6l9.2-28.2h15.2V86.9z"/>
	<path class="st5" d="M313.1,36.5c0-3.9,2.2-5.8,6.6-5.8c4.4,0,6.6,1.9,6.6,5.8c0,3.8-2.2,5.7-6.6,5.7
		C315.3,42.2,313.1,40.3,313.1,36.5z M325,86.9h-10.7V47.8H325V86.9z"/>
	<path class="st5" d="M347.9,89.8c0,4.9-1.3,8.4-3.8,10.6c-2.5,2.2-5.9,3.3-10.2,3.3c-3.8,0-6.9-0.8-9.4-2.5l1.7-7.7
		c1.4,1.3,3.2,1.9,5.5,1.9c1.8,0,3.1-0.5,4-1.6c0.9-1,1.4-2.7,1.4-5.1v-41h10.7V89.8z M347.5,32.2c1.1,1,1.7,2.4,1.7,4.3
		c0,1.8-0.6,3.2-1.7,4.2c-1.1,1-2.8,1.5-4.9,1.5c-2.1,0-3.8-0.5-4.9-1.5c-1.1-1-1.7-2.4-1.7-4.2c0-1.8,0.6-3.2,1.7-4.3
		c1.1-1,2.8-1.5,4.9-1.5C344.7,30.7,346.3,31.2,347.5,32.2z"/>
	<path class="st5" d="M393.4,50.7c2.6,2.5,3.9,6,3.9,10.6v25.7h-10.7V64.4c0-5.9-2.3-8.9-7-8.9c-2.5,0-4.6,0.9-6.4,2.7
		c-1.7,1.8-2.6,4.5-2.6,8.1v20.7h-10.7V47.8h9.6l0.3,7c1.3-2.6,3.1-4.5,5.4-5.8c2.3-1.3,5-2,8-2C387.4,47.1,390.8,48.3,393.4,50.7z"
		/>
</g>
<g>
	<path class="st5" d="M262.2,147.7l-9.2,9.4v16.6h-6.3V122h6.3v26.6l26-26.6h8.2l-20.6,21l20.8,30.6h-7.5L262.2,147.7z"/>
	<path class="st5" d="M331.7,168.7l-0.4,4.9c-1.5,0.5-3,0.8-4.7,0.8c-2,0-3.6-0.4-4.8-1.3c-1.2-0.9-1.9-2.4-2.2-4.5
		c-1.2,1.8-3,3.2-5.3,4.3c-2.3,1-4.8,1.5-7.3,1.5c-3.9,0-7-0.9-9.5-2.7c-2.5-1.8-3.8-4.4-3.8-7.8c0-3,1.3-5.5,3.9-7.7
		c2.6-2.2,6.4-3.7,11.3-4.5l10.4-1.7v-2.2c0-2.6-0.8-4.7-2.4-6.3c-1.6-1.6-3.9-2.3-6.7-2.3c-2.6,0-4.9,0.6-6.8,1.9
		c-1.9,1.3-3.4,3.1-4.4,5.6l-4.6-3.4c1-2.9,3-5.2,5.8-7c2.8-1.7,6.2-2.6,10-2.6c4.6,0,8.4,1.1,11.2,3.4c2.8,2.2,4.2,5.6,4.2,9.9
		v19.2c0,0.9,0.2,1.6,0.7,2.1c0.5,0.5,1.2,0.7,2.3,0.7C329.7,169.1,330.7,169,331.7,168.7z M315.8,166.6c2.4-1.6,3.6-3.6,3.6-6.1
		v-5.4l-8.8,1.6c-3.5,0.6-6.1,1.5-7.8,2.7c-1.7,1.2-2.6,2.7-2.6,4.5c0,1.6,0.6,2.9,1.9,3.7c1.3,0.9,3,1.3,5.2,1.3
		C310.6,169,313.5,168.2,315.8,166.6z"/>
	<path class="st5" d="M371.6,137.6c2.9,2.6,4.3,6.2,4.3,11v25h-6.3v-22.8c0-4.1-0.9-7-2.6-8.8c-1.7-1.8-4.1-2.7-7-2.7
		c-2.1,0-4,0.5-5.9,1.4c-1.8,0.9-3.3,2.4-4.5,4.5c-1.2,2.1-1.8,4.7-1.8,7.8v20.8h-6.3v-39.1h5.5l0.4,6.1c1.3-2.3,3.1-4.1,5.4-5.2
		c2.3-1.1,4.9-1.7,7.7-1.7C365,133.8,368.7,135,371.6,137.6z"/>
	<path class="st5" d="M414.2,170.9c-2.6,2.3-6,3.5-10.1,3.5c-3.2,0-5.8-0.9-7.8-2.6c-2-1.7-3-4.4-3.1-7.9v-24h-7.8v-5.4h7.8v-9.4
		l6.3-1.7v11.1H414v5.4h-14.5v22.9c0,1.9,0.5,3.3,1.6,4.3c1.1,1,2.5,1.4,4.3,1.4c2.5,0,4.7-1,6.6-2.9L414.2,170.9z"/>
	<path class="st5" d="M454.2,139.2c3.4,3.6,5,8.6,5,14.9c0,6.4-1.7,11.3-5,14.9c-3.4,3.6-8,5.4-13.9,5.4c-5.9,0-10.5-1.8-13.9-5.4
		c-3.4-3.6-5-8.6-5-14.9c0-6.4,1.7-11.3,5-14.9c3.4-3.6,8-5.4,13.9-5.4C446.2,133.8,450.8,135.6,454.2,139.2z M431,143.1
		c-2.2,2.7-3.4,6.3-3.4,11c0,4.6,1.1,8.3,3.4,11c2.2,2.7,5.3,4,9.3,4c4,0,7.1-1.3,9.3-4c2.2-2.7,3.4-6.3,3.4-11
		c0-4.6-1.1-8.3-3.4-11c-2.2-2.7-5.3-4-9.3-4C436.4,139.2,433.3,140.5,431,143.1z"/>
	<path class="st5" d="M502.5,139.2c3.4,3.6,5,8.6,5,14.9c0,6.4-1.7,11.3-5,14.9c-3.4,3.6-8,5.4-13.9,5.4c-5.9,0-10.5-1.8-13.9-5.4
		c-3.4-3.6-5-8.6-5-14.9c0-6.4,1.7-11.3,5-14.9c3.4-3.6,8-5.4,13.9-5.4C494.6,133.8,499.2,135.6,502.5,139.2z M479.4,143.1
		c-2.2,2.7-3.4,6.3-3.4,11c0,4.6,1.1,8.3,3.4,11c2.2,2.7,5.3,4,9.3,4c4,0,7.1-1.3,9.3-4c2.2-2.7,3.4-6.3,3.4-11
		c0-4.6-1.1-8.3-3.4-11c-2.2-2.7-5.3-4-9.3-4C484.7,139.2,481.6,140.5,479.4,143.1z"/>
	<path class="st5" d="M543.3,134.5l-1.3,6.1c-1.3-0.7-2.9-1-4.9-1c-1.7,0-3.3,0.5-4.9,1.4c-1.6,1-2.9,2.4-3.9,4.4
		c-1,2-1.5,4.3-1.5,7.1v21.1h-6.3v-39.1h5.1l0.9,6.4c2.2-4.8,6.4-7.2,12.5-7.2C540.8,133.8,542.3,134,543.3,134.5z"/>
</g>
</svg>
