<?xml version="1.0" encoding="utf-8"?>
<!-- Generator: Adobe Illustrator 16.0.0, SVG Export Plug-In . SVG Version: 6.00 Build 0)  -->
<!DOCTYPE svg PUBLIC "-//W3C//DTD SVG 1.1//EN" "http://www.w3.org/Graphics/SVG/1.1/DTD/svg11.dtd">
<svg version="1.1" id="Layer_1" xmlns="http://www.w3.org/2000/svg" xmlns:xlink="http://www.w3.org/1999/xlink" x="0px" y="0px"
	 width="482.566px" height="121.46px" viewBox="0 0 482.566 121.46" enable-background="new 0 0 482.566 121.46"
	 xml:space="preserve">
<g>
	<path d="M60.73,0C27.189,0,0,27.188,0,60.73c0,33.542,27.189,60.729,60.73,60.729c30.7,0,56.013-22.799,60.091-52.38h0.049
		c3.198-23.029,6.396-46.058,9.608-69.08H60.73z M60.73,110.311c-27.338,0-49.581-22.242-49.581-49.58
		c0-27.339,22.242-49.581,49.581-49.581c27.339,0,49.581,22.242,49.581,49.581C110.311,88.068,88.069,110.311,60.73,110.311z"/>
	<linearGradient id="SVGID_1_" gradientUnits="userSpaceOnUse" x1="85.5156" y1="103.6602" x2="35.9448" y2="17.801">
		<stop  offset="0" style="stop-color:#7ED1E5"/>
		<stop  offset="1" style="stop-color:#1D4860"/>
	</linearGradient>
	<path fill="url(#SVGID_1_)" d="M60.73,11.149c-27.338,0-49.581,22.242-49.581,49.581c0,27.338,22.242,49.58,49.581,49.58
		c27.339,0,49.581-22.242,49.581-49.58C110.311,33.392,88.069,11.149,60.73,11.149z M60.73,97.566
		c-20.312,0-36.836-16.525-36.836-36.836s16.524-36.84,36.836-36.84S97.568,40.42,97.568,60.73S81.042,97.566,60.73,97.566z"/>
	<path fill-rule="evenodd" clip-rule="evenodd" d="M269.331,0c0.656,0.18,1.314,0.358,1.973,0.535
		c4.368,1.201,6.792,5.144,6.153,9.684c-2.604,18.447-5.147,36.904-7.717,55.355c-0.105,0.746-0.259,1.485-0.417,2.392
		c-10.227,0-20.357,0-30.604,0c-0.981,7-1.941,13.829-2.895,20.657c-0.67,4.787-1.335,9.576-1.997,14.363
		c-0.384,2.795,0.238,3.53,3.037,3.543c2.833,0.02,5.666,0.031,8.497,0c2.627-0.025,3.458-0.73,3.824-3.31
		c1.09-7.654,2.147-15.314,3.239-23.123c5.052,0,10.053,0,15.276,0c-0.484,3.58-0.952,7.11-1.438,10.637
		c-0.916,6.628-1.893,13.254-2.748,19.889c-0.785,6.085-5.519,10.46-11.631,10.482c-8.634,0.034-17.27,0.034-25.905,0
		c-6.037-0.022-9.585-4.42-8.726-10.423c2.213-15.438,4.322-30.887,6.473-46.337c2.29-16.47,4.577-32.944,6.869-49.417
		c0.181-1.299,0.391-2.596,0.551-3.895c0.729-5.893,4.18-9.542,10.108-10.699c0.248-0.048,0.477-0.218,0.715-0.334
		C251.091,0,260.211,0,269.331,0z M240.746,53.249c5.019,0,9.761,0.038,14.497-0.075c0.394-0.007,1.02-0.991,1.105-1.586
		c1.604-11.193,3.154-22.399,4.684-33.608c0.335-2.464-0.419-3.345-2.869-3.388c-2.967-0.055-5.936,0-8.902-0.017
		c-2.065-0.009-3.259,1.051-3.539,3.026C244.06,29.346,242.438,41.093,240.746,53.249z"/>
	<path fill-rule="evenodd" clip-rule="evenodd" d="M337.539,0c0.373,0.135,0.737,0.314,1.123,0.399
		c4.585,1.022,7.348,4.515,6.8,9.181c-0.912,7.744-2.053,15.462-3.121,23.182c-2.005,14.491-4.036,28.979-6.045,43.469
		c-1.981,14.285-3.953,28.572-5.933,42.857c-0.085,0.61-0.241,1.208-0.388,1.913c-5.03,0-10.04,0-15.273,0
		c0.621-4.593,1.216-9.079,1.841-13.56c2.142-15.377,4.307-30.755,6.442-46.133c2.016-14.486,3.999-28.98,6.004-43.471
		c0.299-2.164-0.418-3.184-2.573-3.234c-3.66-0.075-7.323,0.02-10.982-0.044c-1.309-0.024-1.396,0.749-1.525,1.696
		c-1.364,9.922-2.748,19.842-4.128,29.758c-3.413,24.557-6.828,49.115-10.248,73.669c-0.055,0.399-0.147,0.796-0.244,1.306
		c-5.123,0-10.194,0-15.47,0c0.832-6.065,1.641-12.005,2.465-17.938c4.652-33.517,9.306-67.034,13.983-100.552
		c0.12-0.853,0.522-1.668,0.793-2.498C313.219,0,325.38,0,337.539,0z"/>
	<path fill-rule="evenodd" clip-rule="evenodd" d="M482.248,0c0.052,0.73,0.239,1.479,0.14,2.184
		c-5.016,36.323-10.062,72.646-15.093,108.971c-0.791,5.7-5.529,9.916-11.412,9.947c-8.633,0.047-17.267,0.035-25.899,0.006
		c-6.007-0.019-9.646-4.158-8.857-10.111c1.035-7.802,2.141-15.598,3.225-23.393c3.955-28.456,7.909-56.908,11.891-85.36
		c0.108-0.771,0.541-1.495,0.821-2.243c4.977,0,9.95,0,14.924,0c-0.021,0.619,0.008,1.246-0.077,1.855
		c-1.384,10.049-2.782,20.094-4.176,30.137c-3.325,23.915-6.649,47.831-9.967,71.75c-0.268,1.928,0.35,2.733,2.295,2.771
		c3.244,0.066,6.492,0.041,9.735,0.01c2.076-0.025,3.06-1.171,3.34-3.199c4.16-30.168,8.34-60.324,12.546-90.482
		C466.28,8.548,467.05,4.278,467.74,0C472.575,0,477.412,0,482.248,0z"/>
	<path fill-rule="evenodd" clip-rule="evenodd" d="M201.533,0c1.1,0.358,2.238,0.629,3.284,1.102c3.221,1.447,5.169,4.479,4.724,8
		c-1.338,10.614-2.847,21.207-4.312,31.967c-5.108,0-10.102,0-15.389,0c0.51-3.779,1.004-7.514,1.517-11.248
		c0.566-4.105,1.114-8.214,1.737-12.307c0.292-1.91-0.659-2.828-2.341-2.885c-3.312-0.119-6.632-0.107-9.944-0.013
		c-1.735,0.05-2.737,1.099-2.982,2.869c-1.325,9.576-2.654,19.153-4.022,28.729c-0.231,1.617,0.662,2.371,1.875,3.076
		c6.743,3.914,13.476,7.859,20.203,11.798c4.631,2.718,5.823,5.329,5.07,10.661c-1.854,13.129-3.636,26.27-5.512,39.397
		c-0.831,5.802-5.589,9.923-11.43,9.954c-8.703,0.044-17.406,0.047-26.108,0c-5.79-0.031-9.385-4.166-8.614-9.897
		c1.328-9.853,2.71-19.7,4.14-29.54c0.09-0.623,0.774-1.637,1.203-1.646c4.746-0.119,9.498-0.072,14.494-0.072
		c-0.754,5.484-1.476,10.729-2.198,15.969c-0.358,2.6-0.763,5.191-1.062,7.803c-0.239,2.096,0.369,2.771,2.509,2.807
		c3.106,0.047,6.218,0.047,9.324,0c2.229-0.035,3.152-0.862,3.441-3.014c1.257-9.369,2.472-18.75,3.757-28.116
		c0.232-1.689-0.366-2.702-1.813-3.536c-6.995-4.033-13.949-8.139-20.919-12.213c-3.72-2.174-5.065-4.869-4.472-9.145
		c1.85-13.34,3.703-26.679,5.586-40.012c0.769-5.451,4.309-9.076,9.736-10.117c0.396-0.075,0.774-0.245,1.159-0.371
		C183.295,0,192.415,0,201.533,0z"/>
	<path fill-rule="evenodd" clip-rule="evenodd" d="M405.333,0c0.448,0.139,0.891,0.312,1.349,0.409
		c4.652,1.013,7.41,4.938,6.757,9.642c-1.351,9.715-2.721,19.428-4.021,29.145c-0.193,1.463-0.595,2.155-2.265,2.099
		c-3.794-0.138-7.598-0.04-11.396-0.05c-0.596-0.004-1.192-0.082-1.947-0.136c1.027-7.409,1.996-14.645,3.045-21.868
		c0.579-3.967,0.045-4.662-3.996-4.662c-2.555-0.003-5.111-0.01-7.669,0.004c-2.021,0.012-3.222,0.979-3.508,3.035
		c-1.323,9.501-2.652,18.999-4.005,28.496c-0.225,1.58,0.592,2.404,1.828,3.121c6.859,3.992,13.669,8.079,20.566,12.006
		c3.981,2.268,5.514,5.502,4.873,10.004c-1.887,13.264-3.676,26.543-5.535,39.809c-0.807,5.758-5.605,10.018-11.392,10.049
		c-8.774,0.051-17.547,0.051-26.32,0c-5.366-0.031-9.22-4.059-8.565-9.199c1.313-10.344,2.83-20.662,4.272-30.994
		c0.036-0.264,0.165-0.516,0.281-0.868c5.027,0,10.041,0,15.286,0c-0.599,4.437-1.175,8.777-1.775,13.112
		c-0.464,3.351-0.977,6.688-1.437,10.042c-0.351,2.555,0.291,3.31,2.841,3.335c2.969,0.028,5.941,0.037,8.911-0.006
		c2.371-0.035,3.278-0.781,3.59-3.09c1.259-9.306,2.45-18.617,3.706-27.924c0.234-1.736-0.373-2.844-1.897-3.725
		c-6.939-3.989-13.837-8.054-20.747-12.1c-3.888-2.277-5.133-4.873-4.518-9.303c1.838-13.197,3.679-26.398,5.489-39.604
		c0.778-5.676,4.258-9.372,9.91-10.413c0.32-0.062,0.619-0.242,0.93-0.365C387.095,0,396.213,0,405.333,0z"/>
</g>
</svg>
