<?xml version="1.0" encoding="utf-8"?>
<!-- Generator: Adobe Illustrator 23.1.1, SVG Export Plug-In . SVG Version: 6.00 Build 0)  -->
<svg version="1.1" id="Layer_1" xmlns="http://www.w3.org/2000/svg" xmlns:xlink="http://www.w3.org/1999/xlink" x="0px" y="0px"
	 viewBox="0 0 305.8 65.4" style="enable-background:new 0 0 305.8 65.4;" xml:space="preserve">
<style type="text/css">
	.st0{fill:#231F20;}
</style>
<path class="st0" d="M258.8,39.7c1.5,0,3,0,4.5,0c0.4,0,0.6,0.1,0.8,0.6c0.9,3.8,2.8,4.7,6.6,5.3c2.1,0.3,4.1,0.2,6-0.9
	c0.9-0.5,1.7-1.2,1.9-2.3c0.3-1.4-0.2-2.5-1.5-3.4c-1.9-1.3-4.1-1.7-6.3-2.1c-3.2-0.6-6.4-1.4-9.4-2.6c-5.5-2.2-7.4-5.7-6.1-12.1
	c0.8-3.9,3.2-6.5,6.8-8c6.4-2.7,12.8-2.7,19.2,0c3.9,1.7,6,4.8,6.6,9c0.3,2.3,0.3,2.3-2,2.3c-2.4,0-4.8,0-7.2,0
	c-0.3,0-0.7,0.2-0.8-0.4c-0.3-2.7-2-4.2-4.5-4.7c-2.2-0.5-4.4-0.4-6.4,0.7c-1.1,0.6-1.9,1.4-1.9,2.7c0,1.4,0.7,2.3,1.8,3
	c2,1.2,4.3,1.6,6.6,2.1c3.5,0.8,7,1.6,10.2,3.2c4.1,2,5.6,4.9,5.3,9.7c-0.4,6-4.4,9.9-10.5,11.3c-6,1.3-12.1,1.1-17.8-1.5
	c-4.6-2.1-6.9-5.7-7.1-10.8c0-0.5,0.1-0.7,0.7-0.7C255.8,39.8,257.3,39.7,258.8,39.7z"/>
<path class="st0" d="M5.7,39.7c1.5,0,2.9,0,4.4,0c0.5,0,0.7,0,0.8,0.6c0.8,3.8,2.8,4.7,6.6,5.2c2.1,0.3,4.1,0.2,6-0.9
	c0.9-0.5,1.6-1.2,1.9-2.2c0.4-1.4-0.2-2.5-1.6-3.5c-1.9-1.3-4.1-1.7-6.3-2.1c-3.2-0.7-6.4-1.4-9.4-2.6C2.6,32,0.8,28.5,2.1,22
	c0.8-3.9,3.2-6.5,6.8-8c6.4-2.6,12.9-2.7,19.2,0c3.9,1.7,6,4.8,6.6,9c0.3,2.2,0.3,2.2-2,2.2c-2.4,0-4.8,0-7.2,0
	c-0.3,0-0.7,0.1-0.8-0.5c-0.3-2.7-1.9-4.1-4.5-4.7c-2.3-0.5-4.5-0.4-6.6,0.7c-2.4,1.4-2.5,4.1-0.1,5.6c2.1,1.2,4.4,1.6,6.7,2.2
	c3.5,0.8,7,1.6,10.2,3.2c4.1,2,5.6,4.9,5.2,9.7c-0.4,6-4.4,9.9-10.6,11.3c-6,1.3-12,1.1-17.7-1.5c-4.6-2.1-7-5.7-7.2-10.7
	c0-0.7,0.2-0.8,0.8-0.8C2.8,39.8,4.3,39.7,5.7,39.7z"/>
<path class="st0" d="M93.6,47.1c-0.9,1.5-1.9,2.9-3.4,3.9c-2.9,2.1-6.2,2.4-9.5,2c-2.9-0.3-5.5-1.2-7.8-3c-2.4-2-3.7-4.6-3.9-7.7
	c-0.1-1.9-0.1-3.8-0.1-5.6c0-7.4,0-14.9,0-22.3c0-0.9,0.3-1.1,1.1-1c2.7,0.1,5.4,0,8.1,0c0.7,0,1,0.2,1,0.9c0,7.4,0,14.8,0,22.2
	c0,1.9,0.2,3.8,1.2,5.4c1.7,3,5.5,4,8.7,2.4c3.3-1.6,4.5-4.5,4.5-7.9c0.1-7.3,0.1-14.5,0.1-21.8c0-1.3,0-1.3,1.3-1.3
	c2.7,0,5.5,0,8.2,0c0.6,0,0.8,0.1,0.8,0.8c0,12.4,0,24.7,0,37.1c0,0.6-0.2,0.8-0.8,0.8c-2.7,0-5.4,0-8.1,0c-0.6,0-0.9-0.2-0.8-0.8
	c0-1.4,0-2.7,0-4.1C93.9,47.2,93.8,47.1,93.6,47.1z"/>
<path class="st0" d="M232.7,40.7c1.3-4.4,2.5-8.8,3.8-13.2c1.3-4.5,2.6-8.9,3.8-13.4c0.1-0.4,0.2-0.7,0.7-0.7c3.5,0,7,0,10.4,0
	c0.1,0,0.1,0.1,0.2,0.1c-1.1,3.1-2.2,6.2-3.3,9.2c-3.4,9.5-6.9,19-10.3,28.5c-0.2,0.6-0.4,0.8-1.1,0.8c-3.1,0-6.2,0-9.4,0
	c-0.6,0-0.8-0.2-0.9-0.7c-4-10.8-8.1-21.7-12.1-32.5c-0.6-1.5-1.1-3.1-1.7-4.6c-0.3-0.7-0.3-0.9,0.6-0.9c3.4,0.1,6.8,0,10.2,0
	c0.6,0,0.8,0.2,1,0.7c2.2,7.6,4.4,15.2,6.7,22.8c0.4,1.3,0.7,2.5,1.1,3.8C232.5,40.7,232.6,40.7,232.7,40.7z"/>
<path class="st0" d="M45.5,33c0-3.8,0-7.7,0-11.5c0-0.8-0.2-0.9-0.9-0.9c-1.2,0.1-2.5,0-3.7,0c-0.5,0-0.7-0.1-0.7-0.6c0-2,0-4,0-5.9
	c0-0.6,0.2-0.7,0.7-0.7c1.3,0,2.5,0,3.8,0c0.6,0,0.8-0.1,0.8-0.8c0-3.1,0-6.1,0-9.2c0-0.7,0.1-1,0.9-1c2.9,0.1,5.7,0,8.6,0
	c0.7,0,0.8,0.2,0.8,0.9c0,3,0,6,0,9.1c0,0.7,0.1,1,0.9,1c1.6-0.1,3.2,0,4.9,0c0.5,0,0.7,0.1,0.7,0.7c0,1.9,0,3.9,0,5.8
	c0,0.5-0.1,0.7-0.7,0.7c-1.6,0-3.2,0-4.9,0c-0.6,0-0.8,0.1-0.8,0.8c0,6.3,0,12.5,0,18.8c0,0.7,0.1,1.5,0.1,2.2
	c0.1,1.4,0.7,1.9,2.1,2.2c1.1,0.2,2.2,0.2,3.3,0.2c0.6,0,0.9,0.1,0.9,0.8c-0.1,2.1,0,4.2,0,6.3c0,0.5-0.1,0.7-0.6,0.7
	c-2.9-0.1-5.7,0.1-8.6-0.1c-4.6-0.4-7.4-3.4-7.5-7.9C45.4,40.7,45.5,36.9,45.5,33L45.5,33z"/>
<path class="st0" d="M154.9,32.7c0-6.1,0-12.3,0-18.4c0-0.7,0.1-1,0.9-1c2.8,0.1,5.6,0,8.4,0c0.6,0,0.8,0,0.8,0.8
	c0,12.4,0,24.8,0,37.2c0,0.6-0.2,0.7-0.8,0.7c-2.9,0-5.7,0-8.6,0c-0.7,0-0.8-0.2-0.8-0.8C154.9,45.1,154.9,38.9,154.9,32.7z"/>
<path class="st0" d="M159.9,8.7c-1.5,0-2.9,0-4.4,0c-0.5,0-0.6-0.1-0.6-0.6c0-2.5,0-5,0-7.5c0-0.4,0.1-0.6,0.6-0.6c3,0,6,0,9,0
	c0.5,0,0.6,0.1,0.6,0.6c0,2.5,0,5,0,7.5c0,0.5-0.2,0.6-0.7,0.6C162.9,8.7,161.4,8.7,159.9,8.7z"/>
<path class="st0" d="M147.1,0c-2.8,0-5.5,0-8.3,0c-0.8,0-1,0.1-1,1c0,5.3,0,10.6,0,15.9c0,0.3,0,0.6,0,1.2
	c-4.1-5.2-9.2-6.5-14.3-5.5c-6.8,1.3-11.2,6.4-12.6,13c-0.9,4.5-1.1,8.9-0.2,13.4c0.7,3.4,1.9,6.7,4.2,9.3c2.5,2.8,5.7,4.4,9.4,4.9
	c4,0.5,7.7-0.1,10.9-2.9c1-0.9,1.8-2,2.7-3.2c0.1,1.5,0.2,2.8,0.2,4c0,0.6,0.1,0.8,0.8,0.8c2.7,0,5.5,0,8.2,0c0.6,0,0.8-0.1,0.8-0.8
	c0-16.8,0-33.6,0-50.5C148,0.1,147.7,0,147.1,0z M135.6,41.3c-1.8,2.6-4.5,3.6-7.5,3.3s-5-2.1-6.1-4.8c-1.8-4.7-1.7-9.4,0.1-14
	c1.2-3,3.5-4.7,6.8-4.7c3.6,0,6.1,1.8,7.7,5c1,2.1,1.3,4.4,1.3,6.5C137.8,35.8,137.4,38.7,135.6,41.3z"/>
<path class="st0" d="M210.5,26c-1.5-5.9-4.9-10.3-10.7-12.5c-4.6-1.8-9.3-1.9-14-0.9c-6.8,1.5-11.2,5.7-13.2,12.2
	c-1.6,5-1.6,10.2-0.2,15.2c1.3,4.9,4.1,8.7,8.6,11.2c3.3,1.8,6.8,2.4,11,2.4c1.1,0,2.7-0.1,4.3-0.4c7.1-1.5,11.9-5.6,14-12.6
	C211.7,35.8,211.7,30.9,210.5,26z M200.5,33c-0.1,2.5-0.3,5-1.3,7.3c-1.4,3.2-3.9,4.8-7.3,5c-3.7,0.1-6.7-1.2-8.2-4.7
	c-2-4.8-2.2-9.8-0.2-14.7c1.5-3.7,4.5-5.3,8.9-5.1c3.2,0.2,5.9,2.3,7.1,5.8c0.3,0.9,0.6,1.9,0.7,2.8C200.4,30.5,200.6,31.7,200.5,33
	z"/>
<polygon class="st0" points="298.8,40.3 295.1,46.7 291.4,53.2 298.8,53.2 306.1,53.2 302.5,46.7 "/>
</svg>
