<?xml version="1.0" encoding="utf-8"?>
<!-- Generator: Adobe Illustrator 23.0.6, SVG Export Plug-In . SVG Version: 6.00 Build 0)  -->
<svg version="1.1" id="Laag_1" xmlns="http://www.w3.org/2000/svg" xmlns:xlink="http://www.w3.org/1999/xlink" x="0px" y="0px"
	 viewBox="0 0 991.3 219.7" style="enable-background:new 0 0 991.3 219.7;" xml:space="preserve">
<style type="text/css">
	.st0{fill:#232624;}
	.st1{fill:#E33B2A;}
	.st2{fill:#F9C700;}
	.st3{fill:#63B34B;}
	.st4{fill:#3996D2;}
	.st5{fill:#8F5BA0;}
	.st6{fill:#F29C17;}
	.st7{fill:#E77E1F;}
</style>
<path class="st0" d="M352.1,98.9c-2-1.1-8-3.7-17.1-7.5l-6-2.6c-8.7-3.7-14.5-8.2-14.5-17.8c0-11.8,10.7-16,19.8-16
	c10.9,0,16.4,5.2,20.8,10.8c1.1,1.4,3.2,1.7,4.7,0.6c0,0,0.1-0.1,0.1-0.1L366,61c1.2-1.1,1.5-2.8,0.7-4.2
	c-2.7-4.5-13.6-16.1-31.8-16.1c-20.8,0-35.9,12.9-35.9,30.6c0,8.6,3.1,20.4,17.8,28.6c6,3,12.2,5.8,18.5,8.2l0.6,0.2
	c6.5,2.6,18.5,7.4,18.5,19.2s-9.3,20-22.5,20c-12.3,0-21.1-8.3-25-15.5c-0.5-0.8-1.2-1.4-2.2-1.6c-0.9-0.2-1.9,0-2.7,0.5l-6.8,4.8
	c-1.4,1-1.8,2.8-1,4.3c7.3,13.5,21.5,21.8,36.8,21.6c22.5,0,38.8-14.4,38.8-34.2C369.8,115.5,363.5,105.4,352.1,98.9z"/>
<path class="st0" d="M389,77.9h8.4c1.8,0,3.3,1.5,3.3,3.3v74.6c0,1.8-1.5,3.3-3.3,3.3H389c-1.8,0-3.3-1.5-3.3-3.3V81.3
	C385.7,79.4,387.2,77.9,389,77.9z"/>
<path class="st0" d="M498.4,77.3c-9.2,0.1-17.8,4.5-23.2,11.9c-4.6-7.7-12.5-11.9-22.6-11.9c-7.1,0.1-14,2.9-19.2,7.8v-3.2
	c0-1.8-1.5-3.3-3.3-3.3h-8.4c-1.8,0-3.3,1.5-3.3,3.3v74.6c0,1.8,1.5,3.3,3.3,3.3h8.4c1.8,0,3.3-1.5,3.3-3.3v-38.9
	c0-13.1,5.8-26.4,18.8-26.4c5.9,0,12.7,2.3,12.7,20v45.3c0,1.8,1.5,3.3,3.3,3.3h8.4c1.8,0,3.3-1.5,3.3-3.3v-38.9
	c0-13.1,5.8-26.4,18.8-26.4c5.9,0,12.7,2.3,12.7,20v45.3c0,1.8,1.5,3.3,3.3,3.3h8.3c1.8,0,3.3-1.5,3.3-3.3v-45.4
	C526.6,83.2,511.2,77.3,498.4,77.3L498.4,77.3z M584.2,77.3c-9.1-0.1-17.9,3.3-24.5,9.5v-4.9c0-1.8-1.5-3.3-3.3-3.3H548
	c-1.8,0-3.3,1.5-3.3,3.3V187c0,1.8,1.5,3.3,3.3,3.3l0,0h8.4c1.8,0,3.3-1.5,3.3-3.3v0v-35.2c6.7,6.4,15.6,9.8,24.8,9.6
	c23.5,0,40-17.2,40-41.9C624.5,94.6,607.9,77.3,584.2,77.3L584.2,77.3z M584.2,147.2c-18.3,0-24.8-14.9-24.8-27.7
	c0-13.1,6.5-28.3,24.8-28.3c17.1,0,24.8,14.2,24.8,28.3C609,136.3,599.2,147.2,584.2,147.2z"/>
<path class="st0" d="M641.4,42.3h8.3c1.8,0,3.3,1.5,3.3,3.3v110.9c0,1.8-1.5,3.3-3.3,3.3h-8.3c-1.8,0-3.3-1.5-3.3-3.3V45.6
	C638,43.8,639.5,42.3,641.4,42.3z"/>
<path class="st0" d="M393.2,45.2c-5.7,0-10.2,4.6-10.2,10.2c0,5.7,4.6,10.2,10.2,10.2c5.7,0,10.2-4.6,10.2-10.2c0,0,0,0,0,0
	c0.1-5.6-4.4-10.2-10-10.2C393.3,45.1,393.2,45.1,393.2,45.2z M682.1,45.2c-5.7,0-10.2,4.6-10.2,10.2s4.6,10.2,10.2,10.2
	c5.7,0,10.2-4.6,10.2-10.2c0,0,0,0,0,0c0.1-5.6-4.4-10.2-10-10.2C682.3,45.1,682.2,45.1,682.1,45.2z"/>
<path class="st0" d="M677.9,78.6h8.4c1.8,0,3.3,1.5,3.3,3.3v74.5c0,1.8-1.5,3.3-3.3,3.3h-8.4c-1.8,0-3.3-1.5-3.3-3.3V81.9
	C674.5,80.1,676,78.6,677.9,78.6z"/>
<path class="st0" d="M777.4,147.4c1.1-1.2,1.1-3.1,0-4.3l-4.8-5.6c-0.7-0.8-1.6-1.2-2.6-1.1c-1,0-2,0.5-2.6,1.3
	c-0.3,0.4-7.4,9.6-22.2,9.6s-25.1-11.7-25.1-28.5c0-15.5,10.7-27.2,24.8-27.2c13.4,0,18.9,6.4,21.9,9.8c0.6,0.7,1.5,1.1,2.5,1.2
	c0.9,0,1.8-0.4,2.5-1l5.3-5.6c1.1-1.2,1.2-3.1,0.2-4.4c-7-9.1-18.3-14.1-32-14.1c-22.8,0-40.6,18.4-40.6,41.9
	c0,24.1,17.1,42.2,39.8,42.2c21.2,0,29.7-10,32.9-13.8 M821.5,77.3c-9.5,0-18.8,2.9-26.8,8.1c-1.4,0.9-1.9,2.8-1.1,4.3l3.2,6.1
	c0.9,1.6,2.9,2.2,4.5,1.3c0.2-0.1,0.3-0.2,0.5-0.3c1.2-0.9,9.3-5.7,19.9-5.7c11,0,17.5,6.4,17.5,17.1v0.8l-17.2,0.7
	c-20.9,0.8-32.9,10.2-32.9,25.8c0,14.7,12.1,25.8,28.2,25.8c7.9,0,15.7-2.6,21.9-7.6v2.6c0,1.8,1.5,3.3,3.3,3.3l0,0h8.5
	c1.8,0,3.3-1.5,3.3-3.3v0v-44.1c0-13.7-3.2-20.1-8.1-25.6C840.6,80.4,832.4,77.3,821.5,77.3z M839.4,136.2
	c-3.8,5.6-11,11.3-20.3,11.3c-10.9,0-14.8-6.4-14.8-11.9c0-2.8,0-11.4,17.4-12.3l17.7-1.1V136.2z M905.8,145.4
	c-1-0.5-2.3-0.4-3.2,0.2c-1.9,1-4.1,1.6-6.2,1.6c-4.7,0-7.6-2.4-7.6-14.7V93.1h15.6c1.8,0,3.3-1.5,3.3-3.3c0,0,0,0,0,0v-7.6
	c0-1.8-1.5-3.3-3.3-3.3h-15.5V58.4c0-1.8-1.5-3.3-3.3-3.3l0,0H877c-1.8,0-3.3,1.5-3.3,3.3c0,0,0,0,0,0v20.4h-7.9
	c-1.8,0-3.3,1.5-3.3,3.3v7.6c0,1.8,1.5,3.3,3.3,3.3l0,0h7.9v34.4c0,12.2,0.1,18.3,3.2,24.1c3.6,6.6,9.2,9.8,17,9.8s12.5-2.6,13-2.9
	c1.1-0.7,1.7-1.9,1.6-3.2l-0.8-7.2C907.5,146.9,906.8,145.9,905.8,145.4z M954.3,77.3c-22.5,0-39.5,18-39.5,41.9
	c0,25.2,15.7,42.2,39,42.2c23,0,33.2-11.9,33.6-12.5c1-1.1,1-2.8,0.2-4l-4-5.9c-1-1.5-3.1-1.9-4.6-0.9c-0.2,0.1-0.4,0.3-0.5,0.4
	c-0.1,0.1-8.5,8.6-23.8,8.6c-13.4,0-22.2-8.4-24-22.7h57c1.6,0,3-1.2,3.3-2.8c0.3-2,0.5-4.1,0.5-6.1
	C991.3,93.3,975.7,77.3,954.3,77.3L954.3,77.3z M931,110.5c1.7-8.8,8.5-19.4,22.8-19.4c14.7,0,20.7,11.5,22.1,19.4H931z"/>
<path class="st1" d="M187.5,187.5c20.6-20.6,32.2-48.5,32.2-77.7H109.8L187.5,187.5z"/>
<path class="st2" d="M32.2,187.5C11.5,166.9,0,139,0,109.8h109.8L32.2,187.5z"/>
<path class="st3" d="M32.2,32.2C11.5,52.7,0,80.7,0,109.8h109.8L32.2,32.2z"/>
<path class="st4" d="M32.2,32.2C52.7,11.5,80.7,0,109.8,0v109.8L32.2,32.2z"/>
<path class="st5" d="M187.5,32.2C166.9,11.5,139,0,109.8,0v109.8h109.8C219.7,80.7,208.1,52.7,187.5,32.2z"/>
<path class="st6" d="M32.2,187.5c20.6,20.6,48.5,32.2,77.7,32.2V109.8L32.2,187.5z"/>
<path class="st7" d="M187.5,187.5c-20.6,20.6-48.5,32.2-77.7,32.2V109.8L187.5,187.5z"/>
</svg>
