<?xml version="1.0" encoding="utf-8"?>
<!-- Generator: Adobe Illustrator 22.1.0, SVG Export Plug-In . SVG Version: 6.00 Build 0)  -->
<svg version="1.1" id="Layer_1" xmlns="http://www.w3.org/2000/svg" xmlns:xlink="http://www.w3.org/1999/xlink" x="0px" y="0px"
	 viewBox="0 0 3207.3 681" style="enable-background:new 0 0 3207.3 681;" xml:space="preserve">
<style type="text/css">
	.st0{fill:#27292E;}
</style>
<path class="st0" d="M1631.3,147.7c0,4.8,1.3,6.2,6.2,6.1c15-0.3,30.1-0.1,45.2-0.1c15.4,0,30.8-0.2,46.2,0.1c5.1,0.1,7-1,6.9-6.5
	c-0.3-25.8-0.2-51.6,0-77.4c0-4.8-1.4-6.1-6.2-6.1c-30.9,0.2-61.7,0.3-92.5,0c-5.3,0-5.8,2.1-5.8,6.5
	C1631.4,96,1631.5,121.8,1631.3,147.7z"/>
<path class="st0" d="M1888.9,592.8c33.8,18.1,70.2,24.6,113.1,24.4c11.7,0,28.3-1,44.8-4.4c73.4-15,122.3-57.9,144.2-129.6
	c15.3-49.9,15.5-100.9,2.7-151.4c-15.4-60.9-50.7-105.9-110.2-129.1c-47-18.3-95.7-19.8-144.6-8.8
	c-69.8,15.7-115.4,58.5-136.5,126.4c-16.2,51.9-16.2,104.8-2.3,157.1C1813.5,527.9,1842,567.6,1888.9,592.8z M1915.7,329.2
	c15.6-38.5,46.3-54.6,92-52.3c33.5,1.7,61.2,24.2,73.7,59.8c3.3,9.5,6,19.1,7.2,29c1.6,12.6,3.6,25.2,2.8,38
	c-0.8,25.8-2.9,51.2-13.6,75.3c-14.7,32.8-39.7,49.9-75.5,51.3c-38.5,1.5-69.6-12.2-84.8-49C1896.8,431.3,1895.3,379.7,1915.7,329.2
	z"/>
<path class="st0" d="M2216.1,258.7c41.6,111.7,83.2,223.3,124.7,335.1c1.9,5.1,4,7.1,9.8,7c32.2-0.4,64.3-0.4,96.5,0
	c6.5,0.1,8.8-2.2,10.9-8.1c35.2-98.1,70.7-196.1,106.4-294.2c11.5-31.8,22.9-63.6,34.4-95.3c-1.3-0.7-1.8-1.3-2.4-1.3
	c-35.9,0-71.7,0-107.6-0.2c-5.6,0-6.2,3.3-7.4,7.4c-13.1,46-26.5,92-39.7,138c-13.2,45.6-26.2,91.1-39.3,136.7
	c-0.7-0.1-1.3-0.1-2-0.1c-3.7-13-7.4-26.1-11.2-39.1c-23-78.5-46-156.9-68.8-235.4c-1.8-5.9-4.5-7.5-10.5-7.5
	c-35.2,0.3-70.4,0.4-105.6-0.1c-9.3-0.1-9,2.7-6.2,9.6C2204.4,226.9,2210.2,242.8,2216.1,258.7z"/>
<path class="st0" d="M2598.3,480.9c1.4,52.3,26.1,90,73.1,111.3c58.9,26.7,121.1,29.2,183.4,15.7c63.2-13.7,104.4-54.5,108.7-116.3
	c3.4-49.3-12.4-78.6-54.4-99.6c-33.3-16.7-69.4-24.8-105.4-32.8c-23.4-5.2-47-9.3-68.1-21.8c-11.7-7-19.5-16.2-19-30.5
	c0.5-13.7,8.9-22,19.9-27.9c21-11.4,43.6-12,66.3-7.3c26.5,5.5,43.6,20.8,46.7,48.8c0.7,6.2,4.7,4.4,7.9,4.4
	c24.8,0.2,49.6,0.1,74.4,0.1c23.3,0,23.4,0,20.3-23.4c-5.7-43.4-27.4-75.8-68-92.9c-65.9-27.8-132.5-27.3-198.4,0.1
	c-37.1,15.4-62.1,42.8-70.1,82.7c-13.2,66.2,5.5,102.3,62.6,125.3c31.3,12.6,63.9,20.3,96.9,27c22.5,4.6,45.1,8.8,64.6,22.2
	c13.4,9.2,19.1,20.8,15.9,34.8c-2.6,11.1-10.1,18.4-19.7,23.9c-19.5,11.3-40.9,12.2-62.2,9.2c-38.9-5.4-59.3-15.1-68.1-54.2
	c-1.2-5.3-3.3-6.2-7.9-6.1c-15.4,0.2-30.8,0.1-46.2,0.1s-30.8,0.3-46.2-0.1C2599.5,473.5,2598.1,475.3,2598.3,480.9z"/>
<path class="st0" d="M1639.4,600.8c29.5-0.3,58.9-0.3,88.4,0c5.7,0,8-0.8,8-7.5c-0.2-127.9-0.2-255.8,0-383.9c0-7.3-2.8-7.8-8.7-7.8
	c-28.8,0.3-57.6,0.5-86.4-0.1c-8.4-0.2-9.5,2.8-9.5,10.1c0.2,63.3,0.1,126.6,0.1,189.9c0,63.7,0.1,127.3-0.1,190.9
	C1631.2,598.9,1632.7,600.9,1639.4,600.8z"/>
<polygon class="st0" points="3129.2,610.5 3092.1,543.4 3053.9,477.4 3015.7,543.4 2977.5,610.5 3053.8,610.5 "/>
<path class="st0" d="M485.5,277.2c12.7-0.4,25.5,0.3,38.2-0.3c7.3-0.4,9.5,1.3,9.4,9.1c-0.4,39.5-0.2,79.1-0.2,118.6
	c0.1,0,0.2,0,0.3,0c0,39.5-1,79.1,0.3,118.6c1.6,46.4,30.3,77.8,77.7,81.9c29.5,2.5,59,0.5,88.4,1.5c5.7,0.2,6.5-2,6.5-6.9
	c-0.2-21.7-0.5-43.5,0.1-65.3c0.2-7.5-2.5-8.7-9.1-8.4c-11.4,0.8-22.7,0.3-34-1.8c-14.1-2.6-19.8-8.1-21.2-22.3
	c-0.8-7.6-1.4-15.3-1.4-23c-0.2-64.7,0-129.3-0.3-194c-0.1-7,2.2-8.1,8.4-8c16.8,0.4,33.6-0.1,50.3,0.3c5.8,0.2,7.3-1.7,7.2-7.3
	c-0.3-20.1-0.3-40.2,0-60.3c0-5.7-1.6-7.3-7.3-7.2c-16.7,0.4-33.5-0.4-50.2,0.4c-8.4,0.4-9.7-2.6-9.6-10c0.4-31.2-0.1-62.3,0.3-93.5
	c0.1-6.7-1.1-9.1-8.5-9c-29.4,0.5-58.9,0.6-88.4,0c-8.6-0.2-9.7,2.9-9.6,10.2c0.3,31.5-0.1,63,0.3,94.5c0.1,6.2-1.6,7.9-7.8,7.7
	c-13.1-0.5-26.1,0.1-39.2-0.3c-5.4-0.1-7.5,1-7.4,7c0.4,20.4,0.3,40.9,0,61.3C478.6,276.2,480.4,277.3,485.5,277.2z"/>
<path class="st0" d="M153.7,592.4c58.8,26.4,120.6,28.8,182.5,15.5c63.4-13.6,104.5-54.5,108.9-116.1c3.5-49.3-12.4-78.7-54.2-99.7
	c-33.3-16.7-69.4-24.8-105.4-32.8c-23.7-5.3-47.7-9.5-69-22.2c-24.9-14.8-24.7-43.5,0.5-57.5c21.6-12,44.7-12.6,68.2-7.6
	c26.2,5.5,42.7,20.9,45.9,48.3c0.8,6.1,4.5,4.7,7.8,4.7c24.8,0,49.6,0,74.4,0c23.4,0,23.5-0.1,20.5-23.2
	c-5.6-43.4-27.2-75.9-67.8-93c-65.8-27.8-132.5-27.3-198.4,0c-37,15.4-62.1,42.7-70.2,82.6c-13.4,66.2,5.5,102.5,62.3,125.4
	c31.3,12.6,64,20.3,96.9,27c22.5,4.6,45.1,8.7,64.6,22.1c13.8,9.5,19.8,21.7,16,35.7c-2.8,10.5-10.1,17.6-19.4,23
	c-19.5,11.3-40.9,12.2-62.2,9.3c-39.2-5.3-59.5-15.2-68.3-54c-1.3-5.9-3.9-6.4-8.7-6.3c-15,0.2-30.1,0.1-45.2,0.1
	c-15,0-30.1,0.3-45.2-0.1c-6.3-0.2-8.5,1.1-8.3,8C81.7,533.8,106.6,571.2,153.7,592.4z"/>
<path class="st0" d="M763.7,442.6c0,19.4,0,38.8,1.3,58.2c2.2,32.3,15.6,58.7,40.6,79.4c23.5,19.4,51,28.4,80.6,31.4
	c34.9,3.6,68.8,0.4,98.5-21c14.8-10.7,25.6-25.1,34.9-40.7c1.2,0.2,2.4,0.5,3.6,0.7c0,13.9,0.3,27.9-0.1,41.8
	c-0.1,6.6,2.1,8.5,8.7,8.4c27.8-0.4,55.6-0.4,83.4,0c6.4,0,8.3-1.5,8.3-8.2c-0.2-127.6-0.2-255.2,0.2-382.8c0-6.9-2.3-8.1-8.5-8
	c-28.1,0.3-56.3,0.1-84.4,0.1c-13.5,0-13.5,0-13.5,13c-0.2,75,0,150.1-0.8,225.1c-0.4,35.1-12.6,64.5-46.3,81.3
	c-33,16.5-72.1,6.1-90.1-24.7c-10-17.2-12.3-36.4-12.3-56c0-76.3-0.1-152.7,0.2-229.1c0-7.9-2.2-9.8-9.9-9.7
	c-27.8,0.5-55.6,0.5-83.4,0c-8.5-0.2-11.3,1.4-11.2,10.7C763.9,289.2,763.7,365.9,763.7,442.6z"/>
<path class="st0" d="M1228.8,562.5c25.9,28.9,58.6,45.5,97.1,50.7c41.4,5.6,79.7-1,112.2-29.5c10.5-9.2,18.7-20.5,28.4-33
	c0.8,15.2,1.9,28.4,2,41.7c0.1,6.3,1.3,8.6,8.2,8.5c28.1-0.5,56.3-0.4,84.4-0.1c6.1,0,8.5-1,8.5-8c-0.2-173.5-0.2-347.1-0.1-520.4
	c0-7.5-2.5-8.6-9.1-8.5c-28.4,0.3-56.9,0.4-85.4-0.1c-8-0.1-10.6,1.4-10.5,10.1c0.4,54.6,0.2,109.2,0.2,163.8c0,3.2,0,6.4,0,12.1
	c-42.5-53.3-94.5-66.8-147.6-56.3c-70.4,13.9-115.7,66.3-129.9,134.5c-9.6,45.9-10.9,92.2-2.1,138.5
	C1191.9,502,1204.3,535.2,1228.8,562.5z M1303.1,329.7c12.2-30.8,36.2-48.5,70.3-48.4c37.1,0.1,63.2,18.7,78.9,51.6
	c10.4,21.8,13.3,45.2,13.5,67.4c-0.7,32.8-4.9,63-23.7,89.1c-19.1,26.5-45.9,37.3-77.6,34.2c-30.7-3-51.4-21.6-62.5-49.5
	C1282.9,426.1,1284.2,377.3,1303.1,329.7z"/>
</svg>
