<?xml version="1.0" encoding="utf-8"?>
<!-- Generator: Adobe Illustrator 23.0.6, SVG Export Plug-In . SVG Version: 6.00 Build 0)  -->
<svg version="1.1" id="Layer_1" xmlns="http://www.w3.org/2000/svg" xmlns:xlink="http://www.w3.org/1999/xlink" x="0px" y="0px"
	 viewBox="0 0 705.9 140.6" style="enable-background:new 0 0 705.9 140.6;" xml:space="preserve">
<style type="text/css">
	.st0{fill:#00283A;}
	.st1{fill:url(#SVGID_1_);}
	.st2{fill:url(#SVGID_2_);}
</style>
<g>
	<path class="st0" d="M297,43.6c-1.4-1.4-2.1-3.1-2.1-5.1c0-2,0.7-3.7,2.1-5.1c1.4-1.4,3.1-2.1,5.1-2.1c2,0,3.7,0.7,5.1,2.1
		c1.4,1.4,2.1,3.1,2.1,5.1c0,2-0.7,3.7-2.1,5.1c-1.4,1.4-3.1,2.1-5.1,2.1C300.1,45.8,298.4,45.1,297,43.6z M307.6,108.5h-11.4V54.4
		h11.4V108.5z"/>
	<path class="st0" d="M395.7,108.5h-11.4V33.1h11.4v44.3l22-23h14.6l-20.6,21.5l22.1,32.7H420l-16.1-23.7l-8.2,8.3V108.5z"/>
	<path class="st0" d="M443.1,43.6c-1.4-1.4-2.1-3.1-2.1-5.1c0-2,0.7-3.7,2.1-5.1c1.4-1.4,3.1-2.1,5.1-2.1c2,0,3.7,0.7,5.1,2.1
		c1.4,1.4,2.1,3.1,2.1,5.1c0,2-0.7,3.7-2.1,5.1c-1.4,1.4-3.1,2.1-5.1,2.1C446.2,45.8,444.5,45.1,443.1,43.6z M453.8,108.5h-11.4
		V54.4h11.4V108.5z"/>
	<path class="st0" d="M569,92.4c0,5.2-1.9,9.3-5.6,12.4c-3.7,3.1-8.5,4.6-14.3,4.6c-3.9,0-8-0.7-12.3-2.1c-4.2-1.4-8-3.4-11.2-6
		l5.5-8.8c6.3,4.7,12.4,7.1,18.3,7.1c2.6,0,4.6-0.6,6.1-1.8c1.5-1.2,2.2-2.7,2.2-4.5c0-2.7-3.6-5.2-10.8-7.3
		c-0.5-0.2-0.9-0.3-1.2-0.4c-11.3-3-16.9-8.1-16.9-15.3c0-5,1.9-9,5.8-12.1c3.9-3,9-4.5,15.2-4.5c6.2,0,12.1,1.8,17.7,5.5l-4.3,8.4
		c-4.4-2.9-9.2-4.4-14.3-4.4c-2.7,0-4.9,0.5-6.6,1.5c-1.7,1-2.5,2.5-2.5,4.4c0,1.8,0.9,3.1,2.7,3.9c1.2,0.6,2.9,1.2,5.1,1.7
		c2.2,0.5,4.2,1.1,5.8,1.6c1.7,0.5,3.3,1.2,4.9,1.8c1.6,0.7,3.3,1.6,5.1,2.8C567.2,83.4,569,87.2,569,92.4z"/>
	<path class="st0" d="M683.9,86.5h-11.5v-6.2c0-2.7,0.3-4.7,1-6c0.6-1.3,2-3.1,4.2-5.2l7.4-7.4c1.6-1.7,2.3-3.8,2.3-6.3
		c0-2.5-0.8-4.6-2.4-6.3c-1.6-1.7-3.7-2.5-6.3-2.5c-2.6,0-4.7,0.8-6.5,2.4c-1.7,1.6-2.7,3.7-3,6.4h-12.3c0.7-6,3-10.8,7.1-14.2
		c4-3.4,9.1-5.1,15.1-5.1c6,0,10.9,1.7,14.7,4.9c3.8,3.3,5.7,7.9,5.7,13.8c0,4.1-1.1,7.5-3.4,10.2c-1.3,1.6-2.3,2.8-2.9,3.5
		c-0.7,0.7-1.6,1.5-2.7,2.6c-1.1,1.1-2.1,2-2.8,2.7c-0.8,0.8-1.4,1.4-1.9,2c-1.2,1.5-1.8,3.6-1.8,6.3V86.5z M678.4,109
		c-2.1,0-4-0.7-5.5-2.2c-1.6-1.5-2.3-3.2-2.3-5.3c0-2.1,0.8-3.9,2.3-5.3c1.5-1.5,3.4-2.2,5.5-2.2c2.1,0,4,0.7,5.5,2.2
		c1.6,1.5,2.3,3.2,2.3,5.3c0,2.1-0.8,3.8-2.3,5.3C682.3,108.3,680.5,109,678.4,109z"/>
	<path class="st0" d="M214.4,36.6h10.7l8.8,24.5l9-24.5h10.8l-12.4,32.1l10.9,26.5l22.5-59H287l-29.7,72.2h-9.9l-13.4-32.3
		l-13.5,32.3h-9.8l-29.7-72.2h12.3l22.7,59l10.7-26.5L214.4,36.6z"/>
	<path class="st0" d="M373.5,86.5h-42.4c0.3,3.9,2.1,7.1,5.4,9.5c3.3,2.4,7.1,3.6,11.4,3.6c6.8,0,11.9-2.1,15.5-6.4l6.5,7.1
		c-5.8,6-13.4,9.1-22.8,9.1c-7.6,0-14.1-2.5-19.4-7.6c-5.3-5-8-11.8-8-20.3c0-8.5,2.7-15.3,8.1-20.3c5.4-5,11.8-7.5,19.2-7.5
		c7.3,0,13.6,2.2,18.8,6.7c5.2,4.4,7.7,10.6,7.7,18.4V86.5z M331.1,77.5h31c0-4.5-1.4-8-4.3-10.5c-2.8-2.4-6.4-3.7-10.5-3.7
		c-4.2,0-7.9,1.3-11.2,3.8C332.7,69.7,331.1,73.2,331.1,77.5z"/>
	<path class="st0" d="M519.6,86.5h-42.4c0.3,3.9,2.1,7.1,5.4,9.5c3.3,2.4,7.1,3.6,11.4,3.6c6.8,0,11.9-2.1,15.5-6.4l6.5,7.1
		c-5.8,6-13.4,9.1-22.8,9.1c-7.6,0-14.1-2.5-19.4-7.6c-5.3-5-8-11.8-8-20.3c0-8.5,2.7-15.3,8.1-20.3c5.4-5,11.8-7.5,19.2-7.5
		c7.3,0,13.6,2.2,18.8,6.7c5.2,4.4,7.7,10.6,7.7,18.4V86.5z M477.2,77.5h31c0-4.5-1.4-8-4.3-10.5c-2.8-2.4-6.4-3.7-10.5-3.7
		c-4.2,0-7.9,1.3-11.2,3.8C478.9,69.7,477.2,73.2,477.2,77.5z"/>
	<path class="st0" d="M608.5,43.6c-1.4-1.4-2.1-3.1-2.1-5.1c0-2,0.7-3.7,2.1-5.1c1.4-1.4,3.1-2.1,5.1-2.1c2,0,3.7,0.7,5.1,2.1
		c1.4,1.4,2.1,3.1,2.1,5.1c0,2-0.7,3.7-2.1,5.1c-1.4,1.4-3.1,2.1-5.1,2.1C611.6,45.8,609.9,45.1,608.5,43.6z M619.1,108.5h-11.4
		V54.4h11.4V108.5z"/>
	<rect x="580.9" y="54.4" class="st0" width="11.4" height="75.7"/>
	<rect x="634.6" y="54.4" class="st0" width="11.4" height="75.7"/>
	<path class="st0" d="M581.4,43.6c-1.4-1.4-2.1-3.1-2.1-5.1c0-2,0.7-3.7,2.1-5.1c1.4-1.4,3.1-2.1,5.1-2.1c2,0,3.7,0.7,5.1,2.1
		c1.4,1.4,2.1,3.1,2.1,5.1c0,2-0.7,3.7-2.1,5.1c-1.4,1.4-3.1,2.1-5.1,2.1C584.5,45.8,582.8,45.1,581.4,43.6z"/>
	<path class="st0" d="M635.1,43.6c-1.4-1.4-2.1-3.1-2.1-5.1c0-2,0.7-3.7,2.1-5.1c1.4-1.4,3.1-2.1,5.1-2.1c2,0,3.7,0.7,5.1,2.1
		c1.4,1.4,2.1,3.1,2.1,5.1c0,2-0.7,3.7-2.1,5.1c-1.4,1.4-3.1,2.1-5.1,2.1C638.2,45.8,636.5,45.1,635.1,43.6z"/>
</g>
<g>
	<linearGradient id="SVGID_1_" gradientUnits="userSpaceOnUse" x1="70.3159" y1="0" x2="70.3159" y2="140.6289">
		<stop  offset="0" style="stop-color:#49A7DE"/>
		<stop  offset="1" style="stop-color:#508AC9"/>
	</linearGradient>
	<path class="st1" d="M131.5,9.2C122.3,0,113.1,0,97.2,0H43.5c-16,0-25.1,0-34.3,9.2C0,18.3,0,27.5,0,43.5v53.7
		c0,15.9,0,25.1,9.2,34.3c9.2,9.2,18.3,9.2,34.3,9.2h53.7c16,0,25.1,0,34.3-9.2c9.2-9.2,9.2-18.3,9.2-34.3V43.5
		C140.6,27.5,140.6,18.3,131.5,9.2z M68.8,125.8V94.4h3.1v31.4c-0.5,0-1.1,0-1.6,0C69.8,125.9,69.3,125.8,68.8,125.8z M80.5,124.9
		V66.3h2.6v25.2c0,1.9,1.6,3.5,3.5,3.5c1.9,0,3.5-1.6,3.5-3.5v-29h0c0-3.9-3.2-7-7.1-7H57.9c-3.9,0-7.1,3.2-7.1,7v29
		c0,1.9,1.6,3.5,3.5,3.5c1.9,0,3.5-1.6,3.5-3.5V66.3h2.4v58.7c-25.9-4.7-45.5-27.4-45.5-54.6c0-30.7,24.9-55.6,55.6-55.6
		c30.7,0,55.6,24.9,55.6,55.6C125.9,97.5,106.3,120.1,80.5,124.9z"/>
	<linearGradient id="SVGID_2_" gradientUnits="userSpaceOnUse" x1="70.3577" y1="35.0869" x2="70.3577" y2="51.7724">
		<stop  offset="0" style="stop-color:#49A7DE"/>
		<stop  offset="1" style="stop-color:#508AC9"/>
	</linearGradient>
	<path class="st2" d="M70.4,35.1c-4.6,0-8.3,3.7-8.3,8.3c0,4.6,3.7,8.3,8.3,8.3c4.6,0,8.3-3.7,8.3-8.3C78.7,38.8,75,35.1,70.4,35.1z
		"/>
</g>
</svg>
