<?xml version="1.0" encoding="utf-8"?>
<!-- Generator: Adobe Illustrator 23.0.6, SVG Export Plug-In . SVG Version: 6.00 Build 0)  -->
<svg version="1.1" id="Layer_1" xmlns="http://www.w3.org/2000/svg" xmlns:xlink="http://www.w3.org/1999/xlink" x="0px" y="0px"
	 viewBox="0 0 91.6 35.2" style="enable-background:new 0 0 91.6 35.2;" xml:space="preserve">
<style type="text/css">
	.st0{fill:#ED2529;}
</style>
<g>
	<path class="st0" d="M19.5,26.1c-2.5,0.6-4,0.8-6,0.8C5.5,26.9,0,21.8,0,14.4c0-3.6,1.4-6.8,4-9.1C6.4,3,9.2,2.1,13.3,2.1
		c1.7,0,3.5,0.2,5,0.5c1.2,0.3,1.9,0.5,3.6,1.3l-1.1,3.8c-0.9-0.3-1.5-0.5-2-0.7c-1.7-0.6-3.4-0.9-4.9-0.9c-5.4,0-9.1,3.3-9.1,8.1
		c0,4.9,4.1,8.6,9.4,8.6c1.1,0,1.7-0.1,3.1-0.5v-6.6h4.6v9.8C20.8,25.8,20,26,19.5,26.1z"/>
	<path class="st0" d="M29.4,32.2c-0.6,0.9-1,1.5-2.1,3L24.1,33c1-1.2,1.3-1.8,1.8-2.8c0.7-1.5,0.9-3,0.9-4.9V9.6h4.3v19
		C30.4,30.4,30.1,31.1,29.4,32.2z M29,6.5c-1.3,0-2.4-1.3-2.4-2.9s1.1-2.9,2.4-2.9s2.4,1.3,2.4,2.9S30.3,6.5,29,6.5z"/>
	<path class="st0" d="M48.8,26.7h-0.9c-2.2,0-2.9-0.4-3.6-1.8c-1.6,1.5-3,2.1-4.7,2.1c-2.9,0-4.9-1.9-4.9-4.6c0-0.6,0.1-1.2,0.3-1.7
		c0.6-1.6,1.6-2.4,4.1-3.1l4.8-1.4v-1.4c0-1.8-0.7-2.6-2.1-2.6c-1.3,0-2.4,0.7-2.4,1.5c0,0.1,0,0.2,0.1,0.4l-4.1,0.9
		c-0.2-0.5-0.2-0.7-0.2-1.2c0-3,2.6-4.7,7.2-4.7c4,0,5.8,1.7,5.8,5.4v7c0,1.5,0.2,1.8,1.3,1.9L48.8,26.7z M43.8,18.9l-4.3,1.4
		c-0.3,0.7-0.3,1-0.3,1.4c0,1.1,0.7,1.7,1.7,1.7c0.5,0,1.2-0.2,1.8-0.5c0.3-0.1,0.5-0.3,1.1-0.8C43.8,22.2,43.8,18.9,43.8,18.9z"/>
	<path class="st0" d="M52.9,26.4V0h4.3v26.4H52.9z"/>
	<path class="st0" d="M72,26.4v-2.3c-0.6,1-0.9,1.3-1.7,1.8c-1,0.6-2,0.9-3.2,0.9c-4,0-6.9-3.6-6.9-8.4c0-5.2,3.6-9.4,8.1-9.4
		c0.5,0,1,0.1,1.5,0.2c0.9,0.2,1.3,0.4,2.2,1V0h4.3v26.4H72z M72,16.4c0-0.9-0.1-1.8-0.2-2.2c-0.3-0.9-1.5-1.6-2.8-1.6
		c-2.4,0-4.2,2.4-4.2,5.5c0,3,1.4,5.2,3.5,5.2c1.3,0,2.7-0.9,3.7-2.5L72,16.4L72,16.4z"/>
</g>
<g>
	<path class="st0" d="M86.8,9.7c-2.7,0-4.8-2.2-4.8-4.8C82,2.2,84.1,0,86.8,0c2.7,0,4.8,2.2,4.8,4.8C91.6,7.5,89.5,9.7,86.8,9.7z
		 M86.8,1.1c-2.1,0-3.7,1.7-3.7,3.7c0,2.1,1.7,3.7,3.7,3.7c2.1,0,3.7-1.7,3.7-3.7S88.8,1.1,86.8,1.1z M88.5,7.4
		c-0.5,0.2-1,0.4-1.6,0.4c-1.7,0-2.9-1.1-2.9-2.8C84.1,3.2,85.3,2,87,2c0.3,0,0.6,0,0.9,0.1c0.3,0.1,0.5,0.2,1,0.5l-0.6,0.9
		c-0.5-0.3-0.8-0.4-1.2-0.4c-0.9,0-1.5,0.6-1.5,1.7c0,1.1,0.6,1.7,1.5,1.7c0.5,0,0.6-0.1,1.3-0.4l0.6,0.9
		C88.7,7.3,88.6,7.3,88.5,7.4z"/>
</g>
</svg>
